<svg width="81" height="60" viewBox="0 0 81 60" fill="none" xmlns="http://www.w3.org/2000/svg">
<g clip-path="url(#clip0_4861_137407)">
<path d="M7.55952 55.842C6.82222 52.0179 8.004 48.7527 8.30206 45.0017C8.5792 41.4492 7.37128 38.461 6.69672 35.0809C6.10061 32.0717 6.29931 28.6603 7.04707 25.6981C8.07198 21.6598 10.4303 17.914 13.8344 15.6363C19.1315 12.0838 26.196 12.5017 32.0526 14.9467C34.5051 15.9706 36.8791 17.3341 39.5041 17.6789C43.3318 18.1805 47.0601 16.4617 50.7885 15.4325C55.8659 14.0272 61.4402 13.9227 66.23 16.1378C71.6631 18.6506 75.5221 24.3242 75.0724 30.5724C74.8685 33.4039 73.8227 36.1989 74.1939 39.0095C74.5704 41.8619 76.1967 44.2494 77.0543 46.9347C78.2308 50.6021 78.3354 55.9883 76.4477 59.708H8.8302C8.24454 58.4907 7.81575 57.1899 7.55952 55.8472V55.842Z" fill="#D5E3FF"/>
<path d="M62.7682 42.426C60.3106 30.2221 51.4577 28.1586 50.0249 27.9026C49.2929 27.6675 48.498 27.5369 47.6718 27.5369H35.3835C34.1285 27.5369 32.9571 27.8346 31.9479 28.3518C28.8575 29.4176 22.8388 32.6984 20.8779 42.426L28.5386 42.5357V57.7539C28.5386 58.4957 29.2236 59.0913 30.0707 59.0913H52.9898C53.8369 59.0913 54.522 58.4905 54.522 57.7539V42.5461L62.7682 42.426Z" fill="#1364CD"/>
<path d="M46.6832 27.5369L47.0074 58.9868L36.68 59.0965L36.4028 27.5734L46.6832 27.5369Z" fill="white"/>
<path d="M66.8101 53.5851H66.8153L62.3287 42.4365L51.6143 42.6089L51.8182 51.6364C50.992 51.8297 50.1658 52.023 49.3344 52.1745C47.8755 52.4462 44.623 53.2559 43.1641 53.5276L43.4674 59.4937L62.2869 59.7131C64.3158 59.6765 66.1616 58.6891 66.9356 56.8136C67.4166 55.6434 67.2964 54.5359 66.8101 53.5798V53.5851Z" fill="#FFCAA6"/>
<path opacity="0.46" d="M51.8183 51.5057L61.4451 49.9385H51.7817L51.8183 51.5057Z" fill="#EAA16E"/>
<path d="M17.5783 53.5851H17.5731L22.0596 42.4365L32.7741 42.6089L32.5701 51.6364C33.3963 51.8297 34.2225 52.023 35.0539 52.1745C36.5129 52.4462 39.7654 53.2559 41.2243 53.5276L40.921 59.4937L22.1015 59.7131C20.0726 59.6765 18.2267 58.6891 17.4528 56.8136C16.9717 55.6434 17.092 54.5359 17.5783 53.5798V53.5851Z" fill="#FFCAA6"/>
<path opacity="0.46" d="M32.5755 51.5057L22.9487 49.9385H32.6069L32.5755 51.5057Z" fill="#EAA16E"/>
<path d="M55.2906 18.175C54.6108 17.2085 53.5284 16.7906 52.9061 15.7667C51.8969 14.1001 52.378 11.3104 51.0027 10.1297C50.9818 10.114 50.9609 10.1036 50.94 10.0879C50.5478 5.66297 46.8717 2.15751 42.3276 2.07392L41.7211 2.06347C37.0776 1.97988 33.2238 5.50102 32.8002 10.0461C32.7584 10.0775 32.7165 10.0984 32.6799 10.1297C31.3047 11.3052 31.7858 14.1001 30.7765 15.7667C30.1543 16.7906 29.0719 17.2138 28.3921 18.175C27.2626 19.7789 27.6757 22.4223 28.8888 23.8277C30.0968 25.2382 31.8433 25.6614 33.5114 25.7868C36.3403 25.9905 39.2895 25.4211 41.8361 23.812C44.3879 25.4158 47.3371 25.9905 50.1608 25.7868C51.8289 25.6666 53.5754 25.2382 54.7833 23.8277C55.9913 22.4223 56.4096 19.7789 55.2801 18.175H55.2906Z" fill="#010C39"/>
<path opacity="0.46" d="M35.2683 12.5696L35.2578 14.5234L35.2683 12.5696Z" fill="#EAA16E"/>
<path d="M49.0155 14.8108L48.4821 14.8004L48.4926 13.0659H48.1788C47.2846 13.0659 46.4898 12.5069 46.1813 11.6711L45.7473 10.4799L45.8257 12.3345C45.8414 12.7316 45.5224 13.0659 45.125 13.0659H44.44C43.5877 13.0659 42.8138 12.5696 42.4582 11.7912L41.5117 9.72241V12.1517C41.5117 12.6584 41.0986 13.0659 40.5966 13.0659H38.3063C37.135 13.0659 36.0839 12.4547 35.3571 11.4934C35.3048 11.8435 35.2682 12.1987 35.2629 12.5696L35.2525 14.5235L34.7714 14.513C33.485 14.4869 32.4183 15.5056 32.3869 16.796V16.958C32.3556 18.2484 33.3805 19.3141 34.6668 19.3402L35.2211 19.3507V20.3328C35.2054 22.3128 35.995 24.0995 37.2552 25.369V29.1775C37.2552 31.1836 38.8815 32.8136 40.8947 32.8136H41.93C43.938 32.8136 45.5695 31.1888 45.5695 29.1775V26.0691C47.2951 24.8257 48.435 22.7464 48.4507 20.3851V19.7321V19.6432V19.6328L48.9109 19.6432C50.1972 19.6694 51.2692 18.6506 51.2954 17.3603V17.1983C51.3267 15.9131 50.3018 14.8422 49.0155 14.816V14.8108Z" fill="#FFCAA6"/>
<path opacity="0.46" d="M41.8045 26.6281C38.1494 26.6124 35.2054 23.4987 35.2263 19.6694V19.3455V20.3276C35.2054 22.8405 36.4761 25.0399 38.3795 26.2624C38.6932 27.7513 40.0162 28.8849 41.6267 28.9163C43.2164 28.9476 44.5707 27.8975 44.9681 26.4557C47.0284 25.2906 48.4403 23.0077 48.4507 20.3851V19.7321C48.435 23.5614 45.4544 26.649 41.7993 26.6385L41.8045 26.6281Z" fill="#EAA16E"/>
<path d="M39.8752 15.3802C39.7235 15.4585 39.5196 15.4585 39.3209 15.4638C39.1222 15.4638 38.9235 15.4794 38.7509 15.4899C38.5783 15.5055 38.3796 15.5264 38.1809 15.5526C37.9822 15.5787 37.7835 15.61 37.6214 15.5526C37.4698 15.5003 37.3913 15.3279 37.5482 15.0876C37.6946 14.8577 38.1129 14.5861 38.6881 14.5391C39.2634 14.492 39.7078 14.6958 39.8856 14.8995C40.0739 15.1085 40.0216 15.2914 39.8752 15.3697V15.3802Z" fill="#353148"/>
<path d="M46.2337 15.3801C46.0663 15.4324 45.8572 15.3958 45.648 15.3697C45.4441 15.3383 45.2349 15.3122 45.0571 15.2913C44.8741 15.2756 44.6702 15.26 44.461 15.2547C44.2571 15.2443 44.0427 15.2443 43.8858 15.1555C43.7394 15.0771 43.6923 14.8838 43.8962 14.6696C44.0897 14.4606 44.5656 14.2621 45.1617 14.3144C45.7578 14.3718 46.1814 14.6592 46.3225 14.8995C46.4794 15.145 46.3905 15.3279 46.2284 15.3801H46.2337Z" fill="#353148"/>
<path d="M44.3356 17.6945C44.3303 17.9505 44.529 18.1595 44.7853 18.1647C45.0415 18.1699 45.2506 17.9714 45.2559 17.7154C45.2611 17.4594 45.0624 17.2504 44.8062 17.2452C44.5499 17.24 44.3408 17.4385 44.3356 17.6945Z" fill="#3A2733"/>
<path d="M38.3746 17.6945C38.3694 17.9505 38.5681 18.1595 38.8243 18.1647C39.0805 18.1699 39.2897 17.9714 39.2949 17.7154C39.3002 17.4594 39.1015 17.2504 38.8452 17.2452C38.589 17.24 38.3798 17.4385 38.3746 17.6945Z" fill="#3A2733"/>
<path d="M41.9405 20.3275H41.2921C41.1823 20.3275 41.0986 20.2387 41.0986 20.129C41.0986 20.0193 41.1875 19.9305 41.2921 19.9305H41.9405C42.4948 19.9305 42.9445 19.4812 42.9445 18.9274C42.9445 18.6714 42.7353 18.4625 42.4791 18.4625H42.385C42.0085 18.4625 41.7052 18.1542 41.7052 17.7833V16.0489C41.7052 15.9392 41.7941 15.8503 41.8987 15.8503C42.0033 15.8503 42.0922 15.9392 42.0922 16.0489V17.7833C42.0922 17.9453 42.2229 18.0706 42.3798 18.0706H42.4739C42.9445 18.0706 43.3315 18.452 43.3315 18.9274C43.3315 19.6954 42.704 20.3223 41.9353 20.3223L41.9405 20.3275Z" fill="#EAA16E"/>
<path d="M39.9169 20.4217C39.9169 20.4217 40.9993 20.9545 42.1027 21.1113C43.206 21.268 42.338 23.1069 40.6542 22.9606C38.9705 22.8144 39.0175 20.2336 39.9169 20.4217Z" fill="white"/>
<path d="M34.2069 17.8041C34.1546 17.8041 34.0971 17.7832 34.0605 17.7362C33.9873 17.6526 33.9977 17.5324 34.0814 17.4593L34.5311 17.0675L33.82 16.2682C33.7467 16.1898 33.7572 16.0644 33.8356 15.9913C33.9193 15.9182 34.0396 15.9286 34.1128 16.007L35.0906 17.1041L34.3376 17.7519C34.301 17.7832 34.254 17.7989 34.2069 17.7989V17.8041Z" fill="#EAA16E"/>
<path d="M49.7997 17.9609C49.7631 17.9609 49.7318 17.9505 49.7004 17.9348L48.9526 17.4855L49.622 16.3989C49.6795 16.3049 49.7997 16.2787 49.8939 16.3362C49.988 16.3937 50.0141 16.5138 49.9566 16.6079L49.4965 17.3549L49.9043 17.6005C49.9985 17.6579 50.0298 17.7781 49.9723 17.8669C49.9357 17.9296 49.873 17.9609 49.805 17.9609H49.7997Z" fill="#EAA16E"/>
<path d="M33.8928 20.3381C33.2967 20.3381 32.8052 19.8522 32.8052 19.2514C32.8052 18.6506 33.2915 18.1648 33.8928 18.1648C34.4942 18.1648 34.9805 18.6506 34.9805 19.2514C34.9805 19.8522 34.4942 20.3381 33.8928 20.3381ZM33.8928 18.6924C33.5843 18.6924 33.3281 18.9432 33.3281 19.2567C33.3281 19.5701 33.5791 19.8209 33.8928 19.8209C34.2066 19.8209 34.4576 19.5701 34.4576 19.2567C34.4576 18.9432 34.2066 18.6924 33.8928 18.6924Z" fill="white"/>
<path d="M49.5125 20.3381C48.9111 20.3381 48.4248 19.8522 48.4248 19.2514C48.4248 18.6506 48.9111 18.1648 49.5125 18.1648C50.1138 18.1648 50.6001 18.6506 50.6001 19.2514C50.6001 19.8522 50.1138 20.3381 49.5125 20.3381ZM49.5125 18.6924C49.2039 18.6924 48.9477 18.9432 48.9477 19.2567C48.9477 19.5701 49.1987 19.8209 49.5125 19.8209C49.8262 19.8209 50.0772 19.5701 50.0772 19.2567C50.0772 18.9432 49.8262 18.6924 49.5125 18.6924Z" fill="white"/>
<path d="M58.0411 36.1726H24.4075C23.8473 36.1726 23.3931 36.6264 23.3931 37.1861V58.6891C23.3931 59.2488 23.8473 59.7026 24.4075 59.7026H58.0411C58.6013 59.7026 59.0555 59.2488 59.0555 58.6891V37.1861C59.0555 36.6264 58.6013 36.1726 58.0411 36.1726Z" fill="#D4D8DF"/>
<path d="M41.2244 50.7221C39.6713 50.7221 38.4111 49.4631 38.4111 47.9115C38.4111 46.3599 39.6713 45.1008 41.2244 45.1008C42.7774 45.1008 44.0376 46.3599 44.0376 47.9115C44.0376 49.4631 42.7774 50.7221 41.2244 50.7221ZM41.2244 45.6233C39.9642 45.6233 38.934 46.6472 38.934 47.9115C38.934 49.1757 39.9589 50.1997 41.2244 50.1997C42.4898 50.1997 43.5147 49.1757 43.5147 47.9115C43.5147 46.6472 42.4898 45.6233 41.2244 45.6233Z" fill="white"/>
<path d="M58.6421 56.7927H23.8059C23.5517 56.7927 23.3457 56.9986 23.3457 57.2525V59.2429C23.3457 59.4968 23.5517 59.7026 23.8059 59.7026H58.6421C58.8963 59.7026 59.1023 59.4968 59.1023 59.2429V57.2525C59.1023 56.9986 58.8963 56.7927 58.6421 56.7927Z" fill="#B3BECC"/>
<path d="M16.5117 25.2437H10.561C9.91407 25.2437 9.38965 25.7676 9.38965 26.4139V32.3591C9.38965 33.0054 9.91407 33.5293 10.561 33.5293H16.5117C17.1586 33.5293 17.683 33.0054 17.683 32.3591V26.4139C17.683 25.7676 17.1586 25.2437 16.5117 25.2437Z" fill="#8CCAE5"/>
<path d="M21.7669 19.7947H14.3154C13.6194 19.7947 13.0552 20.3584 13.0552 21.0537V28.4983C13.0552 29.1936 13.6194 29.7573 14.3154 29.7573H21.7669C22.4629 29.7573 23.0271 29.1936 23.0271 28.4983V21.0537C23.0271 20.3584 22.4629 19.7947 21.7669 19.7947Z" fill="#1364CD"/>
<path d="M18.0384 27.1138C16.7469 27.1138 15.6958 26.0637 15.6958 24.7733C15.6958 23.4829 16.7469 22.4329 18.0384 22.4329C19.33 22.4329 20.3811 23.4829 20.3811 24.7733C20.3811 26.0637 19.33 27.1138 18.0384 27.1138ZM18.0384 22.8351C16.9665 22.8351 16.0932 23.7076 16.0932 24.7785C16.0932 25.8495 16.9665 26.722 18.0384 26.722C19.1104 26.722 19.9837 25.8495 19.9837 24.7785C19.9837 23.7076 19.1104 22.8351 18.0384 22.8351Z" fill="white"/>
<path d="M17.9862 25.3846C17.9234 25.3846 17.8607 25.3585 17.8188 25.3167L16.8933 24.392C16.8149 24.3136 16.8149 24.1883 16.8933 24.1099C16.9717 24.0315 17.0972 24.0315 17.1757 24.1099L17.9862 24.9197L20.9406 21.968C21.0191 21.8896 21.1446 21.8896 21.223 21.968C21.3014 22.0463 21.3014 22.1717 21.223 22.2501L18.096 25.3742L17.9862 25.3846Z" fill="white"/>
<path d="M60.4253 20.4634H61.2358C61.994 20.4634 62.6058 21.0903 62.5797 21.853L62.5221 23.6292C62.5065 24.1673 63.1496 24.4599 63.5418 24.0942L67.0401 20.829C67.2911 20.5992 67.6153 20.4686 67.9552 20.4686H72.4731C73.4614 20.4686 74.2667 19.664 74.2667 18.6767V6.62956C74.2667 5.64218 73.4614 4.83765 72.4731 4.83765H60.42C59.4317 4.83765 58.6265 5.64218 58.6265 6.62956V18.6714C58.6265 19.664 59.4317 20.4634 60.42 20.4634H60.4253Z" fill="#00AA84"/>
<path d="M68.1055 10.1308C68.1055 9.53134 67.771 8.98477 67.2604 8.6674C66.7322 8.36766 66.0808 8.36766 65.5703 8.6674C65.0421 8.98477 64.7252 9.53134 64.7252 10.1308C64.7252 10.7479 65.0421 11.2945 65.5703 11.6119C66.0808 11.9116 66.7322 11.9116 67.2604 11.6119C67.771 11.2945 68.1055 10.7479 68.1055 10.1308ZM64.1618 10.1308C64.1618 9.33739 64.5844 8.59687 65.2886 8.19135C65.9752 7.78583 66.8379 7.78583 67.5421 8.19135C68.2287 8.59687 68.6689 9.33739 68.6689 10.1308C68.6689 10.9419 68.2287 11.6824 67.5421 12.0879C66.8379 12.4934 65.9752 12.4934 65.2886 12.0879C64.5844 11.6824 64.1618 10.9419 64.1618 10.1308ZM63.0351 16.3371H69.7956C69.7604 14.9442 68.616 13.7982 67.2076 13.7982H65.6055C64.197 13.7982 63.0527 14.9442 63.0351 16.3371ZM62.4717 16.39C62.4717 14.6445 63.8625 13.2339 65.6055 13.2339H67.2076C68.9506 13.2339 70.359 14.6445 70.359 16.39C70.359 16.6721 70.1125 16.9013 69.8308 16.9013H62.9822C62.7006 16.9013 62.4717 16.6721 62.4717 16.39Z" fill="white"/>
</g>
<defs>
<clipPath id="clip0_4861_137407">
<rect width="80" height="59.7183" fill="white" transform="translate(0.5)"/>
</clipPath>
</defs>
</svg>
