<svg width="80" height="69" viewBox="0 0 80 69" fill="none" xmlns="http://www.w3.org/2000/svg">
<g clip-path="url(#clip0_4861_137504)">
<path d="M73.0794 64.3406C73.8027 60.4848 72.6422 57.1953 72.3561 53.4102C72.0807 49.8321 73.2683 46.8204 73.9215 43.4057C74.5045 40.3722 74.3102 36.9302 73.576 33.9512C72.572 29.8775 70.267 26.1088 66.9471 23.8105C61.7704 20.227 54.8608 20.6517 49.1442 23.1134C46.7474 24.1482 44.4262 25.5206 41.8621 25.8637C38.1212 26.3702 34.4775 24.6383 30.8338 23.5981C25.8729 22.1821 20.4262 22.0786 15.7407 24.3116C10.4343 26.844 6.65565 32.5624 7.09829 38.8582C7.29802 41.7119 8.31827 44.5276 7.95659 47.365C7.58952 50.2406 6.00248 52.6478 5.16037 55.3545C4.01057 59.0524 3.90801 64.4822 5.75416 68.2346H71.8378C72.41 67.0092 72.8257 65.6967 73.0794 64.3461V64.3406Z" fill="#D5E3FF"/>
<path d="M66.386 55.0114C66.2834 54.6628 66.1647 54.3524 66.0351 54.0583C66.0351 54.0583 63.023 45.0667 62.5479 43.7651C61.722 41.5213 60.5938 39.3919 59.0338 37.5892C57.0958 35.3508 54.413 34.169 51.6923 33.1887C48.6478 32.0941 45.2524 31.2227 42.0027 31.2227C42.0027 31.2227 36.4373 31.19 36.4265 31.19C35.39 31.1845 34.3644 31.5876 33.3657 31.8163C30.3482 32.5025 27.2497 33.1125 24.4427 34.4577C19.9622 36.6035 17.5007 41.2545 16.1836 45.949C15.9514 46.7659 13.5763 54.0583 13.5763 54.0583C13.4467 54.3524 13.328 54.6628 13.2254 55.0114C12.4049 57.778 12.8799 61.0403 15.8273 62.2221C18.0513 63.1152 20.5884 62.587 22.2834 60.8878L24.3833 57.8652L24.108 64.2644L53.4197 63.6326L53.274 55.0386L57.3388 60.8932C59.0338 62.5978 61.5709 63.1207 63.7949 62.2275C66.7423 61.0457 67.2173 57.7835 66.3968 55.0168L66.386 55.0114Z" fill="#1560E9"/>
<path d="M58.2778 47.561L64.1186 51.5313L60.4857 47.4902L58.2778 47.561Z" fill="#2150A5"/>
<path d="M20.8261 49.0042L14.9854 52.969L18.6129 48.928L20.8261 49.0042Z" fill="#2150A5"/>
<path d="M25.7164 41.7119L25.1496 52.3155L24.0483 45.2301L25.7164 41.7119Z" fill="#2150A5"/>
<path d="M56.4429 41.7119L57.0151 52.3155L58.1163 45.2301L56.4429 41.7119Z" fill="#2150A5"/>
<path d="M46.1969 6.55168C43.5789 4.85248 42.4776 2.27646 38.6288 2.83741C37.398 3.01713 36.259 3.67612 35.5735 4.72722C35.3036 5.14113 35.093 5.61494 35.0498 6.13232L33.1443 6.15411C30.5586 6.18678 26.8285 8.45782 30.4183 16.1478H30.6288V16.9429C30.6126 20.0145 33.0633 22.5143 36.1025 22.5306L41.317 22.5633C44.3616 22.5796 46.8393 20.1071 46.8555 17.0355L46.8663 15.211C48.1834 13.1252 49.6139 8.76281 46.1969 6.54623V6.55168Z" fill="#353148"/>
<path d="M46.5534 16.235H46.0568V16.2241C45.8138 16.4256 45.6411 16.4474 45.5979 16.2241C45.5223 15.8156 45.3118 13.4193 44.8584 12.793C44.1944 11.8726 43.1958 11.4914 42.0729 11.5949C34.7153 12.2756 33.0095 10.3096 33.0095 10.3096C30.9528 11.3443 31.9623 16.1424 31.9623 16.1424H30.8125C29.803 16.1642 28.9879 16.9865 28.9825 18.0104V19.0778C28.9717 20.1181 29.803 20.9677 30.8341 20.9785H31.5898V21.5068L31.5736 23.4348C31.5628 25.4771 32.6263 27.2688 34.2241 28.2818L34.2079 31.446C34.1917 33.9458 36.2052 35.999 38.6829 36.0153C41.1607 36.0317 43.1958 34.0003 43.2119 31.5005L43.2281 28.3798C44.8854 27.3995 46.0028 25.5969 46.0136 23.5164L46.0244 22.0787V21.5831V21.0602H46.5264C47.5574 21.0657 48.3995 20.227 48.4103 19.1813V18.1139C48.4211 17.0737 47.5898 16.2241 46.5588 16.2132L46.5534 16.235Z" fill="#FFCAA6"/>
<path opacity="0.46" d="M46.0187 22.0896C46.0025 25.2266 43.4654 27.7536 40.3561 27.7373L37.1766 27.7209C34.0673 27.7046 31.5626 25.1449 31.5788 22.0079V20.9895H31.5842L31.568 23.4457C31.5518 26.1089 33.3602 28.3472 35.8055 28.9735C36.3993 29.9647 37.4735 30.6292 38.7043 30.6346C39.9243 30.64 40.9931 30.0029 41.6031 29.0334C44.1132 28.4725 45.9971 26.2287 46.0133 23.5274L46.0295 21.0712V22.0896H46.0187Z" fill="#EAA16E"/>
<path d="M47.1903 19.606C47.1255 19.606 47.0607 19.5843 47.0122 19.5352L46.2402 18.8381L47.2335 17.7053C47.3307 17.591 47.5034 17.5801 47.6168 17.6836C47.7301 17.7816 47.7409 17.9559 47.6383 18.0702L47.0014 18.7946L47.3738 19.1268C47.4872 19.2248 47.4926 19.3991 47.3954 19.5135C47.3414 19.5734 47.2659 19.606 47.1957 19.606H47.1903Z" fill="#EAA16E"/>
<path d="M30.4237 19.606C30.3481 19.606 30.2726 19.5733 30.2186 19.5134C30.1214 19.3991 30.1322 19.2302 30.2456 19.1267L30.6234 18.7945L29.9919 18.0593C29.8947 17.9449 29.9055 17.7761 30.0189 17.6726C30.1322 17.5746 30.2996 17.5855 30.4021 17.6999L31.3846 18.8436L30.6019 19.5298C30.5533 19.5733 30.4885 19.5951 30.4237 19.5951V19.606Z" fill="#EAA16E"/>
<path d="M43.1308 15.9026C42.9203 15.9516 42.6774 15.8754 42.4399 15.8155C42.197 15.7501 41.9541 15.6957 41.7435 15.6521C41.5276 15.6085 41.2847 15.5704 41.0364 15.5377C40.7935 15.4996 40.5397 15.4724 40.3616 15.3526C40.1943 15.2382 40.1619 14.9931 40.4318 14.7589C40.6855 14.5247 41.2739 14.3396 41.981 14.4757C42.6882 14.6173 43.1524 15.0203 43.2982 15.3308C43.4547 15.6521 43.3306 15.8645 43.1308 15.9081V15.9026Z" fill="#353148"/>
<path d="M33.7704 15.7937C33.9701 15.8754 34.2238 15.8373 34.4668 15.821C34.7151 15.7992 34.9634 15.7774 35.1793 15.7719C35.3952 15.7665 35.6489 15.761 35.8973 15.7719C36.1456 15.7719 36.3993 15.7883 36.5882 15.6957C36.7718 15.6086 36.8419 15.3744 36.6098 15.0966C36.3939 14.8243 35.8379 14.5466 35.1199 14.5683C34.402 14.5956 33.8784 14.9169 33.6894 15.2001C33.4897 15.4942 33.5761 15.7229 33.7704 15.7937Z" fill="#353148"/>
<path d="M40.9393 18.2282C40.8098 18.5006 40.9231 18.8273 41.193 18.958C41.4629 19.0887 41.7868 18.9744 41.9164 18.7021C42.0459 18.4298 41.9326 18.103 41.6627 17.9723C41.3928 17.8416 41.0689 17.9559 40.9393 18.2282Z" fill="#353148"/>
<path d="M35.0502 18.1955C34.9206 18.4678 35.034 18.7946 35.3039 18.9253C35.5738 19.056 35.8977 18.9417 36.0272 18.6693C36.1568 18.397 36.0434 18.0703 35.7735 17.9396C35.5036 17.8089 35.1797 17.9232 35.0502 18.1955Z" fill="#353148"/>
<path d="M39.5248 20.9185H38.1698C37.6408 20.9185 37.209 20.4828 37.209 19.9491V18.9797C37.209 18.544 37.5599 18.1955 37.9863 18.1955C38.1698 18.1955 38.3156 18.0484 38.3156 17.8632V16.3492C38.3156 16.1967 38.4344 16.0769 38.5855 16.0769C38.7367 16.0769 38.8554 16.1967 38.8554 16.3492V17.8632C38.8554 18.3479 38.4667 18.7401 37.9863 18.7401C37.8514 18.7401 37.7488 18.849 37.7488 18.9797V19.9491C37.7488 20.1833 37.9377 20.3739 38.1698 20.3739H39.5248C39.6759 20.3739 39.7947 20.4937 39.7947 20.6462C39.7947 20.7987 39.6759 20.9185 39.5248 20.9185Z" fill="#EAA16E"/>
<path d="M40.4641 21.0657C40.4641 21.0657 39.2388 21.7192 37.981 21.937C36.7232 22.1549 37.7543 24.2789 39.676 24.061C41.5977 23.8377 41.4898 20.8206 40.4641 21.0657Z" fill="white"/>
<path d="M45.6573 33.1071L44.9448 31.1138C44.6101 30.1771 43.4387 29.8721 42.6992 30.5311L38.9151 33.9023C38.8881 33.9295 38.8611 33.9567 38.8341 33.9894C38.8071 33.9622 38.7855 33.9295 38.7532 33.9023L34.9691 30.5311C34.2241 29.8721 33.0581 30.1717 32.7235 31.1138L32.0109 33.1071C31.8868 33.4502 31.9515 33.8369 32.1783 34.1255L34.521 37.11C35.2012 37.976 36.4859 38.0195 37.2255 37.2026L38.3861 35.9119V38.88C38.3861 39.136 38.5912 39.3429 38.8449 39.3429H38.8611C39.1148 39.3429 39.32 39.136 39.32 38.88V35.9446L40.4536 37.2026C41.1877 38.0195 42.4778 37.976 43.158 37.11L45.5008 34.1255C45.7275 33.8369 45.7869 33.4502 45.6681 33.1071H45.6573Z" fill="white"/>
<path d="M56.556 44.4023H33.9433C33.6243 44.4023 33.3657 44.6632 33.3657 44.9851V67.7989C33.3657 68.1208 33.6243 68.3817 33.9433 68.3817H56.556C56.875 68.3817 57.1336 68.1208 57.1336 67.7989V44.9851C57.1336 44.6632 56.875 44.4023 56.556 44.4023Z" fill="#CE8E00"/>
<path d="M22.062 44.4023H44.6747C44.9932 44.4023 45.2523 44.6638 45.2523 44.9851V67.7989C45.2523 68.1203 44.9932 68.3817 44.6747 68.3817H22.062C21.7435 68.3817 21.4844 68.1203 21.4844 67.7989V44.9851C21.4844 44.6638 21.7435 44.4023 22.062 44.4023Z" fill="#FDB602"/>
<path d="M38.6341 56.0461H27.1739L27.1631 55.7629V54.0202L27.4438 54.0093H38.904L38.9148 54.2925V56.0352L38.6341 56.0461ZM27.7029 55.5015H38.375V54.5539H27.7029V55.5015Z" fill="#CE8E00"/>
<path opacity="0.3" d="M19.0714 47.8335L21.0417 44.7346C21.3926 44.1845 21.9918 43.8469 22.6395 43.836L26.4668 43.7652C27.2387 43.7489 27.8649 44.3915 27.8433 45.1703L27.8163 45.9818L25.3872 45.2683L28.8528 46.2868C29.2414 46.4011 29.4034 46.864 29.1712 47.2017C28.9661 47.5012 28.6206 47.6701 28.259 47.6537L24.4749 47.4577L28.7178 48.2528C29.0201 48.3073 29.1119 48.7048 28.8581 48.89C27.9027 49.5871 26.7421 49.9302 25.5653 49.8594L24.5451 49.7995C24.5451 49.7995 24.8905 52.8058 22.2509 54.8263C22.2509 54.8263 16.4911 54.5159 19.0606 47.8389L19.0714 47.8335Z" fill="#F4768E"/>
<path d="M18.6934 47.403L20.6638 44.3042C21.0146 43.7541 21.6138 43.4165 22.2616 43.4056L26.0889 43.3348C26.8608 43.3184 27.487 43.9611 27.4654 44.7399L27.4384 45.5514L25.0092 44.8379L28.4748 45.8563C28.8635 45.9707 29.0254 46.4336 28.7933 46.7713C28.5882 47.0708 28.2427 47.2397 27.881 47.2233L24.097 47.0273L28.3399 47.8224C28.6422 47.8769 28.7339 48.2744 28.4802 48.4596C27.5248 49.1567 26.3642 49.4998 25.1874 49.429L24.1671 49.3691C24.1671 49.3691 24.5126 52.3754 21.8729 54.3959C21.8729 54.3959 16.1131 54.0854 18.6827 47.4085L18.6934 47.403Z" fill="#FFCAA6"/>
<path d="M27.4492 45.3117C27.4384 45.2518 27.3953 45.2082 27.3359 45.1919L24.7826 44.5493C24.7016 44.5275 24.6152 44.5819 24.5936 44.6636C24.5721 44.7508 24.626 44.8325 24.707 44.8542L27.2603 45.4969C27.3467 45.5187 27.4277 45.4642 27.4492 45.3825C27.4546 45.3607 27.4546 45.3335 27.4492 45.3117Z" fill="#EAA16E"/>
<path d="M24.5774 46.5971C24.5612 46.5318 24.5072 46.4773 24.4424 46.4719C24.3561 46.461 24.2805 46.5263 24.2697 46.6135C24.2697 46.6135 24.2373 46.9348 24.2049 47.2888C24.1995 47.3759 24.2643 47.4522 24.3453 47.4576C24.4316 47.4631 24.5072 47.4032 24.5126 47.316C24.545 46.962 24.572 46.6462 24.5774 46.6462C24.5774 46.6298 24.5774 46.6135 24.5774 46.5971Z" fill="#EAA16E"/>
<path d="M24.8152 44.3696C24.799 44.3043 24.745 44.2498 24.6802 44.2444C24.5939 44.2335 24.5183 44.2988 24.5075 44.386C24.5075 44.386 24.4751 44.7073 24.4427 45.0613C24.4373 45.1484 24.4967 45.2247 24.5831 45.2301C24.6694 45.2356 24.745 45.1756 24.7504 45.0885C24.7828 44.7345 24.8098 44.4186 24.8152 44.4186C24.8152 44.4023 24.8152 44.386 24.8152 44.3696Z" fill="#EAA16E"/>
<path d="M24.5018 49.2493C24.4856 49.1785 24.4262 49.1295 24.3561 49.1241C24.1131 49.1132 23.8054 49.0043 23.8 49.0043C23.7191 48.977 23.6273 49.0152 23.6003 49.1023C23.5733 49.184 23.6165 49.2766 23.6975 49.3038C23.7137 49.3038 24.0538 49.4291 24.3453 49.44C24.4316 49.44 24.5018 49.3746 24.5072 49.2875C24.5072 49.2766 24.5072 49.2602 24.5072 49.2493H24.5018Z" fill="#EAA16E"/>
<path opacity="0.3" d="M60.5289 47.8335L58.5586 44.7346C58.2077 44.1845 57.6085 43.8469 56.9608 43.836L53.1335 43.7652C52.3616 43.7489 51.7354 44.3915 51.757 45.1703L51.784 45.9818L54.2131 45.2683L50.7475 46.2868C50.3589 46.4011 50.1969 46.864 50.4291 47.2017C50.6342 47.5012 50.9797 47.6701 51.3413 47.6537L55.1254 47.4577L50.8825 48.2528C50.5802 48.3073 50.4884 48.7048 50.7421 48.89C51.6976 49.5871 52.8582 49.9302 54.035 49.8594L55.0552 49.7995C55.0552 49.7995 54.8285 51.7492 56.1241 53.5628C56.7826 54.4886 58.0134 54.8481 59.039 54.3743C60.5019 53.6935 62.1484 52.0106 60.5397 47.8389L60.5289 47.8335Z" fill="#F4768E"/>
<path d="M60.9069 47.403L58.9365 44.3042C58.5857 43.7541 57.9865 43.4165 57.3387 43.4056L53.5114 43.3348C52.7395 43.3184 52.1133 43.9611 52.1349 44.7399L52.1619 45.5514L54.5911 44.8379L51.1255 45.8563C50.7368 45.9707 50.5749 46.4336 50.807 46.7713C51.0121 47.0708 51.3576 47.2397 51.7193 47.2233L55.5033 47.0273L51.2604 47.8224C50.9581 47.8769 50.8664 48.2744 51.1201 48.4596C52.0755 49.1567 53.2361 49.4998 54.4129 49.429L55.4332 49.3691C55.4332 49.3691 55.201 51.4059 56.5884 53.2522C57.2199 54.0909 58.3212 54.4122 59.282 54.0038C60.7719 53.3666 62.5749 51.7055 60.9176 47.4085L60.9069 47.403Z" fill="#FFCAA6"/>
<path d="M52.1457 45.3117C52.1564 45.2518 52.1996 45.2082 52.259 45.1919L54.8123 44.5493C54.8987 44.5275 54.9797 44.5819 55.0013 44.6636C55.0228 44.7508 54.9689 44.8325 54.8879 44.8542L52.3346 45.4969C52.2536 45.5187 52.1672 45.4642 52.1457 45.3825C52.1403 45.3607 52.1403 45.3335 52.1457 45.3117Z" fill="#EAA16E"/>
<path d="M55.0176 46.5971C55.0338 46.5318 55.0878 46.4773 55.1525 46.4719C55.2389 46.461 55.3145 46.5263 55.3253 46.6135C55.3253 46.6135 55.3577 46.9348 55.39 47.2888C55.3954 47.3759 55.3307 47.4522 55.2497 47.4576C55.1633 47.4631 55.0878 47.4032 55.0824 47.316C55.05 46.962 55.023 46.6462 55.0176 46.6462C55.0176 46.6298 55.0176 46.6135 55.0176 46.5971Z" fill="#EAA16E"/>
<path d="M54.7856 44.3696C54.8018 44.3043 54.8558 44.2498 54.9206 44.2444C55.007 44.2335 55.0825 44.2988 55.0933 44.386C55.0933 44.386 55.1257 44.7073 55.1581 45.0613C55.1635 45.1484 55.1041 45.2247 55.0178 45.2301C54.9314 45.2356 54.8558 45.1756 54.8504 45.0885C54.818 44.7345 54.791 44.4186 54.7856 44.4186C54.7856 44.4023 54.7856 44.386 54.7856 44.3696Z" fill="#EAA16E"/>
<path d="M55.0987 49.2493C55.1149 49.1785 55.1742 49.1295 55.2444 49.1241C55.4873 49.1132 55.795 49.0043 55.8004 49.0043C55.8814 48.977 55.9732 49.0152 56.0001 49.1023C56.0271 49.184 55.984 49.2766 55.903 49.3038C55.8868 49.3038 55.5467 49.4291 55.2552 49.44C55.1688 49.44 55.0987 49.3746 55.0933 49.2875C55.0933 49.2766 55.0933 49.2602 55.0933 49.2493H55.0987Z" fill="#EAA16E"/>
<path d="M59.4658 23.0915C59.4658 23.2277 59.3578 23.3366 59.2282 23.3366C59.0987 23.3366 58.9907 23.2277 58.9907 23.0915C58.9907 22.9554 59.0987 22.8464 59.2282 22.8464C59.3578 22.8464 59.4658 22.9554 59.4658 23.0915Z" fill="#F9CAD0"/>
<path d="M66.0674 14.8679H57.3224C56.6039 14.8679 56.0215 15.4556 56.0215 16.1804V25.0032C56.0215 25.7281 56.6039 26.3157 57.3224 26.3157H66.0674C66.7859 26.3157 67.3683 25.7281 67.3683 25.0032V16.1804C67.3683 15.4556 66.7859 14.8679 66.0674 14.8679Z" fill="#4BCBA3"/>
<path d="M64.0808 22.3509H60.4587C60.1834 22.3509 59.9459 22.1657 59.8595 21.8934L58.8555 18.5549H64.9553C65.1227 18.5549 65.2738 18.6312 65.3764 18.7673C65.479 18.9089 65.5113 19.0887 65.4682 19.2575L64.7286 21.8389C64.6422 22.1385 64.3831 22.3454 64.0808 22.3454V22.3509ZM59.5842 19.105L60.3777 21.7355C60.3885 21.779 60.4209 21.8063 60.4587 21.8063H64.0808C64.1402 21.8063 64.1942 21.7627 64.2104 21.6974L64.9499 19.1159L59.5896 19.105H59.5842Z" fill="white"/>
<path d="M59.541 20.2324C59.4222 20.2324 59.3142 20.1562 59.2819 20.0364L58.7798 18.2555C58.7582 18.1738 58.6881 18.1193 58.6179 18.1193H57.3817C57.2306 18.1193 57.1118 17.9995 57.1118 17.847C57.1118 17.6945 57.2306 17.5747 57.3817 17.5747H58.6179C58.931 17.5747 59.2117 17.7926 59.298 18.1084L59.8001 19.8893C59.8433 20.0364 59.7569 20.1834 59.6165 20.227C59.5895 20.2324 59.568 20.2379 59.541 20.2379V20.2324Z" fill="white"/>
<path d="M61.1982 23.7832C60.7717 23.7832 60.4263 23.4183 60.4263 22.9772C60.4263 22.536 60.7717 22.1711 61.1982 22.1711C61.6247 22.1711 61.9701 22.536 61.9701 22.9772C61.9701 23.4183 61.6247 23.7832 61.1982 23.7832ZM61.1982 22.7103C61.0686 22.7103 60.9661 22.8301 60.9661 22.9717C60.9661 23.1133 61.0686 23.2331 61.1982 23.2331C61.3278 23.2331 61.4303 23.1133 61.4303 22.9717C61.4303 22.8301 61.3278 22.7103 61.1982 22.7103Z" fill="white"/>
<path d="M63.1904 23.7832C62.7639 23.7832 62.4185 23.4183 62.4185 22.9772C62.4185 22.536 62.7639 22.1711 63.1904 22.1711C63.6168 22.1711 63.9623 22.536 63.9623 22.9772C63.9623 23.4183 63.6168 23.7832 63.1904 23.7832ZM63.1904 22.7103C63.0608 22.7103 62.9583 22.8301 62.9583 22.9717C62.9583 23.1133 63.0608 23.2331 63.1904 23.2331C63.3199 23.2331 63.4225 23.1133 63.4225 22.9717C63.4225 22.8301 63.3199 22.7103 63.1904 22.7103Z" fill="white"/>
<path d="M52.7883 23.7451H56.486C57.2039 23.7451 57.7869 24.3333 57.7869 25.0576V28.7882C57.7869 29.5126 57.2039 30.1008 56.486 30.1008H52.7883C52.0703 30.1008 51.4873 29.5126 51.4873 28.7882V25.0576C51.4873 24.3333 52.0703 23.7451 52.7883 23.7451Z" fill="#33AB86"/>
<path d="M54.6344 28.4178C53.8192 28.4178 53.1553 27.748 53.1553 26.9256C53.1553 26.1032 53.8192 25.4333 54.6344 25.4333C55.4495 25.4333 56.1134 26.1032 56.1134 26.9256C56.1134 27.748 55.4495 28.4178 54.6344 28.4178ZM54.6344 25.6839C53.9542 25.6839 53.4036 26.2394 53.4036 26.9256C53.4036 27.6118 53.9542 28.1673 54.6344 28.1673C55.3145 28.1673 55.8651 27.6118 55.8651 26.9256C55.8651 26.2394 55.3145 25.6839 54.6344 25.6839Z" fill="white"/>
<path d="M54.6019 27.3124C54.5641 27.3124 54.5263 27.296 54.4939 27.2688L53.9109 26.6806C53.8624 26.6316 53.8624 26.5499 53.9109 26.5009C53.9595 26.4519 54.0405 26.4519 54.0891 26.5009L54.6019 27.0183L56.4697 25.1339C56.5182 25.0849 56.5992 25.0849 56.6478 25.1339C56.6964 25.1829 56.6964 25.2646 56.6478 25.3137L54.6721 27.3069H54.6019V27.3124Z" fill="white"/>
<path d="M61.1122 27.6011H59.7411C59.3237 27.6011 58.9854 27.9424 58.9854 28.3635V29.7469C58.9854 30.1679 59.3237 30.5093 59.7411 30.5093H61.1122C61.5296 30.5093 61.8679 30.1679 61.8679 29.7469V28.3635C61.8679 27.9424 61.5296 27.6011 61.1122 27.6011Z" fill="#80D5C1"/>
<path d="M24.0757 24.3497H21.6249C21.436 24.3497 21.2849 24.5076 21.2903 24.6982L21.3874 27.6609C21.3982 27.9605 21.042 28.1238 20.826 27.9169L17.1337 24.4368C17.0743 24.3769 16.988 24.3442 16.907 24.3442H11.7302C11.3254 24.3442 11.0015 24.012 11.0015 23.609V11.1537C11.0015 10.7452 11.3307 10.4185 11.7302 10.4185H24.0757C24.4805 10.4185 24.8044 10.7507 24.8044 11.1537V23.609C24.8044 24.0175 24.4751 24.3442 24.0757 24.3442V24.3497Z" fill="#00AA84"/>
<path d="M17.9055 21.5395C15.5628 21.5395 13.6572 19.617 13.6572 17.2534C13.6572 14.8898 15.5628 12.9673 17.9055 12.9673C20.2483 12.9673 22.1539 14.8898 22.1539 17.2534C22.1539 19.617 20.2483 21.5395 17.9055 21.5395ZM17.9055 13.5119C15.8597 13.5119 14.197 15.1893 14.197 17.2534C14.197 19.3175 15.8597 20.9949 17.9055 20.9949C19.9514 20.9949 21.614 19.3175 21.614 17.2534C21.614 15.1893 19.9514 13.5119 17.9055 13.5119Z" fill="white"/>
<path d="M19.2876 17.5256H17.6573L17.6357 17.2315V15.3036C17.6357 15.1511 17.7545 15.0312 17.9056 15.0312C18.0568 15.0312 18.1756 15.1511 18.1756 15.3036V16.981H19.2876C19.4387 16.981 19.5575 17.1008 19.5575 17.2533C19.5575 17.4058 19.4387 17.5256 19.2876 17.5256Z" fill="white"/>
</g>
<defs>
<clipPath id="clip0_4861_137504">
<rect width="80" height="68.3871" fill="white"/>
</clipPath>
</defs>
</svg>
