<svg width="267" height="111" viewBox="0 0 267 111" fill="none" xmlns="http://www.w3.org/2000/svg">
<g clip-path="url(#clip0_4920_37622)">
<path d="M125.499 4.24951C119.178 4.24951 113.359 6.35798 108.796 9.87939C102.81 14.514 99 21.5559 99 29.4331C99 43.338 125.5 74.2495 125.5 74.2495C125.5 74.2495 137.536 60.2067 145.365 46.7995C149.175 40.3152 152 33.9688 152 29.4341C152 15.5302 140.131 4.25046 125.499 4.25046V4.24951ZM125.499 40.9298C118.655 40.9298 113.107 35.6786 113.107 29.1743C113.107 27.5825 113.442 26.0706 114.049 24.6786C115.913 20.4017 120.329 17.3989 125.499 17.3989C132.344 17.3989 137.892 22.6701 137.892 29.1743C137.892 34.8042 133.748 39.4788 128.2 40.632C127.342 40.8309 126.421 40.9308 125.499 40.9308V40.9298Z" fill="#B8C1C9"/>
<path d="M252.499 58.2495C247.805 58.2495 244 61.6308 244 65.8026C244 69.9743 252.499 79.2495 252.499 79.2495C252.499 79.2495 261 69.9743 261 65.8026C261 61.6308 257.194 58.2495 252.499 58.2495ZM252.499 69.2573C250.306 69.2573 248.527 67.6763 248.527 65.7268C248.527 63.7773 250.306 62.1963 252.499 62.1963C254.693 62.1963 256.472 63.7773 256.472 65.7268C256.472 67.6763 254.693 69.2573 252.499 69.2573Z" fill="#657285"/>
<path d="M10.5 89.2495C7.46257 89.2495 5 91.5042 5 94.2852C5 97.0662 10.5 103.25 10.5 103.25C10.5 103.25 16 97.0662 16 94.2852C16 91.5042 13.5374 89.2495 10.5 89.2495ZM10.5 96.5878C9.08045 96.5878 7.9287 95.5342 7.9287 94.2336C7.9287 92.9329 9.07944 91.8794 10.5 91.8794C11.9206 91.8794 13.0713 92.9329 13.0713 94.2336C13.0713 95.5342 11.9206 96.5878 10.5 96.5878Z" fill="#00A3FE"/>
<path d="M133.696 2.57504C133.537 2.57504 133.381 2.49876 133.292 2.363C133.158 2.15553 133.23 1.88705 133.453 1.76348C133.463 1.75738 133.704 1.62314 134.166 1.38364C134.392 1.26618 134.68 1.34093 134.806 1.55297C134.932 1.76348 134.852 2.03044 134.624 2.1479C134.177 2.37978 133.939 2.51249 133.938 2.51249C133.862 2.5552 133.778 2.57504 133.696 2.57504Z" fill="#364154"/>
<path d="M252.443 59.2732H252.44C252.18 59.2732 251.97 59.0749 251.972 58.8338C251.972 58.7423 251.972 58.6493 251.972 58.5531C251.972 58.155 251.967 57.7446 251.957 57.3328C251.951 57.0917 252.157 56.8904 252.417 56.8858C252.673 56.8797 252.893 57.0719 252.898 57.3129C252.908 57.7309 252.914 58.1474 252.914 58.5531C252.914 58.6508 252.914 58.7469 252.914 58.8384C252.914 59.0794 252.702 59.2732 252.443 59.2732ZM252.369 56.2451C252.12 56.2451 251.911 56.0636 251.9 55.8287C251.873 55.3329 251.841 54.8279 251.801 54.3276C251.783 54.0866 251.977 53.8776 252.236 53.8593C252.496 53.8425 252.72 54.0225 252.74 54.2635C252.78 54.7715 252.812 55.2841 252.839 55.7859C252.852 56.027 252.652 56.2329 252.391 56.2436C252.382 56.2436 252.376 56.2436 252.368 56.2436L252.369 56.2451ZM252.134 53.2231C251.895 53.2231 251.69 53.0538 251.667 52.828C251.616 52.3323 251.558 51.8289 251.494 51.3331C251.465 51.0936 251.648 50.8754 251.906 50.848C252.164 50.819 252.399 50.9914 252.428 51.2309C252.492 51.7343 252.551 52.2438 252.602 52.7457C252.627 52.9867 252.436 53.2003 252.179 53.2231C252.164 53.2231 252.149 53.2247 252.133 53.2247L252.134 53.2231ZM251.754 50.2164C251.522 50.2164 251.322 50.0578 251.289 49.8396C251.213 49.3439 251.133 48.8435 251.048 48.3523C251.007 48.1143 251.181 47.8886 251.437 47.8504C251.693 47.8123 251.936 47.974 251.977 48.212C252.064 48.7093 252.146 49.2157 252.221 49.7176C252.258 49.9571 252.079 50.1783 251.821 50.2119C251.798 50.2149 251.777 50.2164 251.755 50.2164H251.754ZM251.231 47.228C251.008 47.228 250.811 47.0801 250.769 46.8695C250.672 46.3799 250.567 45.8841 250.458 45.3944C250.406 45.158 250.57 44.9261 250.824 44.8773C251.079 44.8285 251.328 44.981 251.381 45.2175C251.491 45.7132 251.598 46.2166 251.696 46.7124C251.744 46.9504 251.575 47.1777 251.319 47.2219C251.289 47.2265 251.261 47.2296 251.233 47.2296L251.231 47.228ZM250.572 44.264C250.356 44.264 250.163 44.1268 250.114 43.9239C249.994 43.4372 249.866 42.9445 249.734 42.4625C249.67 42.2291 249.823 41.9911 250.076 41.9316C250.327 41.8736 250.583 42.014 250.647 42.2489C250.78 42.7386 250.91 43.2359 251.031 43.7286C251.09 43.9635 250.931 44.1984 250.678 44.2534C250.642 44.261 250.608 44.264 250.573 44.264H250.572ZM249.774 41.3306C249.567 41.3306 249.378 41.2039 249.321 41.0102C249.178 40.5282 249.027 40.0415 248.872 39.5656C248.797 39.3337 248.938 39.0912 249.188 39.021C249.437 38.9508 249.698 39.082 249.774 39.3139C249.93 39.7959 250.082 40.2887 250.228 40.7768C250.297 41.0102 250.151 41.2497 249.9 41.3153C249.857 41.326 249.816 41.3306 249.774 41.3306ZM248.836 38.4337C248.638 38.4337 248.454 38.3162 248.388 38.1316C248.222 37.6572 248.048 37.1782 247.871 36.7068C247.786 36.4796 247.914 36.2294 248.16 36.1501C248.405 36.0707 248.674 36.1897 248.759 36.4185C248.938 36.896 249.115 37.3811 249.283 37.8616C249.363 38.092 249.229 38.3376 248.981 38.4123C248.933 38.4276 248.884 38.4337 248.835 38.4337H248.836ZM247.761 35.578C247.571 35.578 247.392 35.4697 247.321 35.2943C247.132 34.8275 246.935 34.3561 246.735 33.8939C246.638 33.6696 246.755 33.4149 246.996 33.3249C247.237 33.2349 247.512 33.3432 247.608 33.5674C247.812 34.0357 248.011 34.5132 248.203 34.9861C248.295 35.2119 248.171 35.4651 247.927 35.549C247.873 35.5673 247.817 35.5765 247.761 35.5765V35.578ZM246.546 32.7711C246.364 32.7711 246.19 32.672 246.113 32.5057C245.899 32.045 245.679 31.5828 245.458 31.1328C245.349 30.9131 245.453 30.6538 245.689 30.5531C245.926 30.4524 246.205 30.5485 246.313 30.7682C246.538 31.2258 246.761 31.6941 246.978 32.1594C247.081 32.3806 246.97 32.6384 246.732 32.7345C246.671 32.7589 246.609 32.7696 246.546 32.7696V32.7711ZM245.192 30.0207C245.018 30.0207 244.85 29.9307 244.768 29.7751C244.534 29.3281 244.291 28.8766 244.044 28.4327C243.924 28.2176 244.015 27.9537 244.246 27.8439C244.476 27.7325 244.76 27.8164 244.88 28.0315C245.129 28.4815 245.377 28.9391 245.614 29.3922C245.727 29.6088 245.63 29.8712 245.397 29.9765C245.331 30.007 245.261 30.0207 245.192 30.0207ZM243.698 27.3328C243.532 27.3328 243.37 27.2504 243.284 27.1055C243.026 26.6662 242.759 26.2269 242.491 25.7967C242.362 25.5877 242.437 25.3207 242.662 25.1987C242.887 25.0782 243.174 25.1483 243.306 25.3573C243.576 25.7936 243.847 26.2391 244.11 26.6845C244.235 26.8965 244.151 27.162 243.923 27.2779C243.851 27.3145 243.773 27.3313 243.698 27.3313V27.3328ZM242.066 24.7151C241.909 24.7151 241.753 24.6404 241.664 24.5061C241.385 24.082 241.096 23.6549 240.804 23.2354C240.662 23.0325 240.725 22.7625 240.943 22.6313C241.162 22.5001 241.452 22.5581 241.593 22.761C241.889 23.1866 242.183 23.6198 242.467 24.05C242.603 24.2559 242.532 24.5244 242.311 24.651C242.234 24.6953 242.15 24.7151 242.066 24.7151ZM240.3 22.1752C240.149 22.1752 240.001 22.1081 239.911 21.9845C239.607 21.5726 239.297 21.1577 238.985 20.755C238.834 20.5582 238.881 20.2851 239.091 20.1448C239.303 20.0044 239.597 20.0487 239.748 20.2455C240.065 20.6543 240.38 21.0738 240.687 21.4933C240.833 21.6931 240.779 21.9647 240.564 22.1004C240.484 22.1523 240.39 22.1767 240.3 22.1767V22.1752ZM238.4 19.7192C238.257 19.7192 238.118 19.6597 238.024 19.5453C237.701 19.1487 237.369 18.7505 237.034 18.36C236.872 18.1708 236.906 17.8962 237.11 17.7452C237.313 17.5942 237.609 17.6262 237.772 17.8154C238.111 18.212 238.45 18.6163 238.776 19.019C238.932 19.2112 238.893 19.4858 238.684 19.6322C238.599 19.6917 238.5 19.7207 238.4 19.7207V19.7192ZM236.373 17.3532C236.238 17.3532 236.105 17.2998 236.012 17.1961C235.669 16.8162 235.314 16.4318 234.959 16.0565C234.787 15.875 234.807 15.5989 235.002 15.4387C235.197 15.2801 235.495 15.2968 235.667 15.4784C236.026 15.8582 236.386 16.2472 236.734 16.6332C236.901 16.8177 236.875 17.0938 236.675 17.2494C236.586 17.3181 236.48 17.3517 236.373 17.3517V17.3532ZM234.222 15.0833C234.096 15.0833 233.969 15.036 233.876 14.9429C233.513 14.5783 233.139 14.2122 232.764 13.8537C232.584 13.6798 232.587 13.4037 232.774 13.2359C232.961 13.0681 233.259 13.0712 233.439 13.2451C233.818 13.6081 234.198 13.9804 234.565 14.3495C234.743 14.5265 234.73 14.8041 234.539 14.9673C234.449 15.0451 234.334 15.0833 234.219 15.0833H234.222ZM231.955 12.914C231.837 12.914 231.717 12.8729 231.625 12.789C231.244 12.4412 230.852 12.0918 230.458 11.7501C230.267 11.5854 230.258 11.3092 230.435 11.1323C230.612 10.9553 230.911 10.9462 231.1 11.1109C231.499 11.4572 231.896 11.8111 232.283 12.1635C232.469 12.3328 232.472 12.609 232.29 12.7813C232.198 12.8683 232.077 12.9125 231.953 12.9125L231.955 12.914ZM229.578 10.8486C229.466 10.8486 229.355 10.8119 229.264 10.7372C228.864 10.4046 228.453 10.0736 228.045 9.75174C227.846 9.59614 227.823 9.32003 227.991 9.13545C228.158 8.95087 228.455 8.92951 228.654 9.08511C229.067 9.41156 229.483 9.74717 229.89 10.0843C230.084 10.2445 230.102 10.5206 229.928 10.7021C229.834 10.7997 229.706 10.8486 229.576 10.8486H229.578ZM227.099 8.89138C226.996 8.89138 226.891 8.85934 226.804 8.79375C226.388 8.48102 225.963 8.1683 225.536 7.86168C225.331 7.71371 225.293 7.43913 225.451 7.24844C225.61 7.05776 225.906 7.02267 226.111 7.16912C226.543 7.47879 226.974 7.79761 227.395 8.11338C227.597 8.26593 227.628 8.54052 227.464 8.72815C227.37 8.83493 227.235 8.88985 227.097 8.88985L227.099 8.89138ZM224.525 7.04403C224.428 7.04403 224.33 7.01657 224.246 6.9586C223.814 6.66266 223.373 6.36824 222.934 6.08145C222.721 5.94264 222.67 5.66958 222.819 5.47279C222.969 5.27448 223.263 5.22719 223.474 5.36601C223.919 5.65585 224.366 5.95484 224.804 6.25383C225.013 6.39723 225.059 6.67029 224.904 6.86555C224.812 6.98148 224.669 7.04403 224.525 7.04403ZM221.864 5.30651C221.774 5.30651 221.683 5.28211 221.603 5.23177C221.158 4.95413 220.703 4.67802 220.25 4.40954C220.032 4.27987 219.968 4.00986 220.107 3.80545C220.247 3.60256 220.537 3.54307 220.757 3.67273C221.215 3.94427 221.677 4.22495 222.127 4.50564C222.343 4.63988 222.401 4.91142 222.256 5.11278C222.166 5.23939 222.017 5.30651 221.865 5.30651H221.864ZM219.122 3.67883C219.039 3.67883 218.955 3.65748 218.878 3.61477C218.42 3.35543 217.952 3.0961 217.489 2.84593C217.264 2.72389 217.188 2.45693 217.318 2.24794C217.449 2.03895 217.737 1.96878 217.962 2.08929C218.431 2.34252 218.904 2.6049 219.369 2.86728C219.59 2.99237 219.661 3.26238 219.526 3.46832C219.437 3.60409 219.283 3.67883 219.124 3.67883H219.122ZM133.47 3.45764C133.301 3.45764 133.137 3.37222 133.053 3.22272C132.933 3.00915 133.022 2.74372 133.254 2.63236C133.723 2.40506 134.216 2.17167 134.715 1.94285C134.948 1.83606 135.23 1.92454 135.345 2.14116C135.46 2.35777 135.365 2.62016 135.132 2.72694C134.638 2.95424 134.152 3.18305 133.689 3.40882C133.62 3.44239 133.544 3.45917 133.472 3.45917L133.47 3.45764ZM216.31 2.15946C216.233 2.15946 216.154 2.14116 216.082 2.10455C215.609 1.862 215.131 1.62097 214.659 1.3891C214.429 1.27621 214.34 1.01231 214.462 0.798741C214.583 0.585175 214.867 0.502799 215.097 0.615684C215.575 0.849081 216.059 1.09316 216.537 1.33876C216.763 1.45622 216.847 1.72165 216.721 1.93369C216.635 2.07709 216.474 2.15946 216.308 2.15946H216.31ZM136.389 2.11217C136.214 2.11217 136.043 2.01912 135.964 1.862C135.852 1.64385 135.954 1.383 136.189 1.27927C136.676 1.0657 137.176 0.850607 137.675 0.641618C137.911 0.542461 138.19 0.641618 138.297 0.85976C138.404 1.07943 138.297 1.33876 138.06 1.43791C137.566 1.64538 137.072 1.85742 136.589 2.06794C136.524 2.09692 136.456 2.11065 136.389 2.11065V2.11217ZM139.359 0.867387C139.177 0.867387 139.003 0.768231 138.927 0.60348C138.824 0.382287 138.934 0.124482 139.173 0.0283771C139.671 -0.17146 140.178 -0.369771 140.68 -0.561981C140.92 -0.653509 141.196 -0.548252 141.294 -0.324008C141.393 -0.101288 141.278 0.154992 141.038 0.24652C140.541 0.437204 140.039 0.63399 139.544 0.832301C139.484 0.856709 139.421 0.868913 139.359 0.868913V0.867387ZM213.432 0.746875C213.362 0.746875 213.289 0.73162 213.222 0.701111C212.739 0.476866 212.25 0.254148 211.769 0.0421066C211.535 -0.061626 211.434 -0.322482 211.546 -0.540624C211.658 -0.758767 211.938 -0.851821 212.173 -0.748089C212.661 -0.532997 213.156 -0.307227 213.644 -0.0799313C213.877 0.0283771 213.971 0.290758 213.854 0.507376C213.772 0.659923 213.606 0.748401 213.434 0.748401L213.432 0.746875ZM142.37 -0.287396C142.183 -0.287396 142.005 -0.392653 141.931 -0.565032C141.836 -0.789276 141.954 -1.04403 142.197 -1.13251C142.705 -1.31862 143.218 -1.50167 143.724 -1.67863C143.967 -1.76405 144.238 -1.64964 144.33 -1.42387C144.422 -1.1981 144.299 -0.9464 144.056 -0.860974C143.555 -0.685544 143.046 -0.504013 142.544 -0.31943C142.486 -0.298074 142.429 -0.288921 142.371 -0.288921L142.37 -0.287396ZM210.494 -0.551302C210.43 -0.551302 210.364 -0.563506 210.302 -0.589439C209.812 -0.793853 209.313 -0.996741 208.819 -1.192C208.58 -1.28658 208.468 -1.54286 208.57 -1.76558C208.671 -1.9883 208.947 -2.09203 209.187 -1.99745C209.686 -1.80066 210.192 -1.59473 210.687 -1.38726C210.924 -1.28811 211.031 -1.02878 210.924 -0.809108C210.845 -0.647408 210.674 -0.551302 210.494 -0.551302ZM145.418 -1.35218C145.225 -1.35218 145.044 -1.46354 144.975 -1.64202C144.888 -1.86931 145.014 -2.11949 145.259 -2.20186C145.773 -2.37272 146.293 -2.54204 146.802 -2.70374C147.048 -2.78154 147.316 -2.65951 147.4 -2.43069C147.484 -2.20186 147.352 -1.95321 147.106 -1.87541C146.6 -1.71524 146.086 -1.54744 145.576 -1.37811C145.523 -1.36133 145.469 -1.35218 145.417 -1.35218H145.418ZM207.499 -1.73354C207.44 -1.73354 207.381 -1.74422 207.325 -1.76558C206.826 -1.95169 206.319 -2.13322 205.817 -2.30865C205.574 -2.39407 205.451 -2.64578 205.541 -2.87155C205.633 -3.09732 205.904 -3.21173 206.147 -3.12783C206.656 -2.95087 207.168 -2.76476 207.673 -2.57866C207.915 -2.48865 208.033 -2.2339 207.936 -2.00965C207.862 -1.8388 207.686 -1.73507 207.499 -1.73507V-1.73354ZM148.5 -2.33C148.301 -2.33 148.117 -2.44747 148.052 -2.63205C147.971 -2.86239 148.107 -3.108 148.354 -3.18274C148.871 -3.33834 149.396 -3.49241 149.913 -3.64039C150.161 -3.71208 150.425 -3.58242 150.501 -3.35055C150.578 -3.1202 150.439 -2.8746 150.189 -2.80443C149.677 -2.65798 149.156 -2.50543 148.644 -2.34984C148.597 -2.33458 148.547 -2.32848 148.498 -2.32848L148.5 -2.33ZM204.452 -2.7968C204.4 -2.7968 204.347 -2.80443 204.296 -2.82121C203.786 -2.98748 203.27 -3.15071 202.765 -3.30478C202.519 -3.37953 202.382 -3.62666 202.464 -3.857C202.545 -4.08582 202.811 -4.21091 203.059 -4.13616C203.571 -3.98057 204.093 -3.81581 204.608 -3.64801C204.853 -3.56869 204.983 -3.31851 204.896 -3.09122C204.828 -2.91121 204.646 -2.79832 204.452 -2.79832V-2.7968ZM151.612 -3.21936C151.409 -3.21936 151.22 -3.34292 151.161 -3.53513C151.089 -3.767 151.231 -4.00955 151.481 -4.07667C152.005 -4.21854 152.533 -4.35736 153.055 -4.49007C153.306 -4.55414 153.564 -4.41685 153.633 -4.18345C153.702 -3.95006 153.554 -3.71056 153.303 -3.64649C152.788 -3.5153 152.262 -3.37648 151.744 -3.23766C151.699 -3.22546 151.655 -3.21936 151.612 -3.21936ZM201.36 -3.73802C201.314 -3.73802 201.268 -3.74412 201.222 -3.75632C200.709 -3.90124 200.187 -4.04311 199.669 -4.17888C199.419 -4.24447 199.273 -4.4855 199.344 -4.71889C199.414 -4.95077 199.674 -5.08653 199.923 -5.02246C200.448 -4.88517 200.977 -4.74178 201.494 -4.59533C201.742 -4.52516 201.883 -4.28108 201.808 -4.04921C201.745 -3.86005 201.56 -3.73954 201.358 -3.73954L201.36 -3.73802ZM154.751 -4.02023C154.541 -4.02023 154.351 -4.15142 154.296 -4.34821C154.232 -4.5816 154.383 -4.8211 154.635 -4.88059C155.158 -5.00568 155.692 -5.12925 156.222 -5.24823C156.475 -5.30468 156.729 -5.15976 156.79 -4.92483C156.851 -4.68991 156.695 -4.45346 156.442 -4.39702C155.918 -4.27956 155.388 -4.15752 154.869 -4.03243C154.83 -4.02328 154.791 -4.0187 154.751 -4.0187V-4.02023ZM198.226 -4.55719C198.186 -4.55719 198.147 -4.56177 198.107 -4.57092C197.585 -4.69601 197.057 -4.81653 196.536 -4.93094C196.283 -4.98585 196.126 -5.2223 196.187 -5.45722C196.246 -5.69215 196.5 -5.83859 196.753 -5.78215C197.28 -5.66621 197.815 -5.54418 198.342 -5.41756C198.593 -5.35654 198.746 -5.11857 198.68 -4.88517C198.626 -4.68839 198.434 -4.55719 198.226 -4.55719ZM157.916 -4.72805C157.701 -4.72805 157.506 -4.86687 157.458 -5.06975C157.401 -5.30468 157.562 -5.5396 157.814 -5.59147C158.348 -5.70282 158.886 -5.80961 159.413 -5.91181C159.668 -5.96063 159.917 -5.80808 159.97 -5.57163C160.023 -5.33519 159.858 -5.10331 159.604 -5.0545C159.082 -4.95382 158.55 -4.84703 158.02 -4.7372C157.985 -4.72957 157.951 -4.72652 157.916 -4.72652V-4.72805ZM195.059 -5.24976C195.026 -5.24976 194.993 -5.25281 194.96 -5.25891C194.438 -5.36264 193.905 -5.46333 193.374 -5.55638C193.12 -5.60214 192.953 -5.83096 193 -6.06741C193.048 -6.30386 193.296 -6.46099 193.55 -6.41522C194.085 -6.31912 194.625 -6.21843 195.154 -6.11318C195.409 -6.06284 195.571 -5.83096 195.517 -5.59452C195.469 -5.38858 195.274 -5.24823 195.057 -5.24823L195.059 -5.24976ZM161.104 -5.33976C160.883 -5.33976 160.686 -5.48621 160.643 -5.6952C160.594 -5.93317 160.763 -6.16199 161.017 -6.20623C161.554 -6.30081 162.094 -6.39234 162.626 -6.47777C162.882 -6.51743 163.125 -6.35878 163.17 -6.1208C163.214 -5.88283 163.042 -5.65706 162.785 -5.61587C162.258 -5.53197 161.723 -5.44044 161.191 -5.34739C161.162 -5.34281 161.132 -5.33976 161.103 -5.33976H161.104ZM191.861 -5.81876C191.835 -5.81876 191.808 -5.82029 191.782 -5.82486C191.25 -5.90876 190.713 -5.98809 190.185 -6.06131C189.927 -6.0964 189.75 -6.31912 189.789 -6.55862C189.827 -6.79811 190.067 -6.96287 190.324 -6.92625C190.859 -6.85303 191.403 -6.77218 191.941 -6.68676C192.197 -6.64709 192.37 -6.4198 192.327 -6.18182C192.288 -5.96826 192.089 -5.81724 191.864 -5.81724L191.861 -5.81876ZM164.312 -5.85537C164.084 -5.85537 163.884 -6.00944 163.848 -6.22606C163.808 -6.46404 163.984 -6.68828 164.24 -6.72489C164.78 -6.80269 165.323 -6.87744 165.859 -6.94609C166.116 -6.97965 166.354 -6.81184 166.389 -6.57234C166.425 -6.33285 166.244 -6.11165 165.987 -6.07962C165.458 -6.01097 164.918 -5.93775 164.384 -5.86147C164.36 -5.85842 164.335 -5.8569 164.312 -5.8569V-5.85537ZM188.643 -6.2642C188.624 -6.2642 188.604 -6.2642 188.582 -6.26725C188.052 -6.32979 187.512 -6.38929 186.975 -6.44268C186.718 -6.46861 186.53 -6.6837 186.557 -6.92473C186.585 -7.16423 186.816 -7.33966 187.075 -7.31372C187.617 -7.26033 188.165 -7.19931 188.701 -7.13677C188.958 -7.10626 189.141 -6.88659 189.108 -6.64709C189.078 -6.4259 188.875 -6.26572 188.642 -6.26572L188.643 -6.2642ZM167.538 -6.26878C167.303 -6.26878 167.1 -6.432 167.072 -6.65319C167.041 -6.89269 167.224 -7.11084 167.482 -7.13982C168.026 -7.20084 168.572 -7.25728 169.109 -7.30762C169.367 -7.33356 169.598 -7.15813 169.625 -6.9171C169.651 -6.67608 169.464 -6.46251 169.204 -6.4381C168.674 -6.38776 168.132 -6.33132 167.596 -6.27183C167.576 -6.2703 167.558 -6.26878 167.538 -6.26878ZM170.777 -6.57845C170.536 -6.57845 170.329 -6.75082 170.309 -6.97812C170.288 -7.21915 170.48 -7.42966 170.738 -7.45102C171.284 -7.49373 171.834 -7.53339 172.369 -7.56543C172.629 -7.57916 172.854 -7.39915 172.87 -7.15813C172.887 -6.9171 172.691 -6.70811 172.432 -6.69286C171.902 -6.66082 171.36 -6.62269 170.818 -6.57997C170.805 -6.57997 170.792 -6.57845 170.777 -6.57845ZM185.408 -6.5876C185.394 -6.5876 185.38 -6.5876 185.366 -6.58912C184.835 -6.63184 184.291 -6.6715 183.753 -6.70354C183.493 -6.72032 183.296 -6.92778 183.314 -7.1688C183.332 -7.40983 183.554 -7.59136 183.815 -7.57611C184.358 -7.54255 184.908 -7.50288 185.447 -7.46017C185.706 -7.43881 185.898 -7.22677 185.875 -6.98727C185.854 -6.75998 185.649 -6.5876 185.408 -6.5876ZM174.024 -6.77981C173.775 -6.77981 173.566 -6.96134 173.555 -7.19626C173.542 -7.43729 173.742 -7.64323 174.003 -7.6539C174.55 -7.67831 175.1 -7.69814 175.638 -7.7134C175.899 -7.72408 176.114 -7.53034 176.122 -7.28932C176.13 -7.04829 175.925 -6.84693 175.666 -6.8393C175.134 -6.82405 174.589 -6.80422 174.049 -6.78133C174.041 -6.78133 174.034 -6.78133 174.026 -6.78133L174.024 -6.77981ZM182.16 -6.78896C182.16 -6.78896 182.146 -6.78896 182.137 -6.78896C181.6 -6.81184 181.057 -6.83167 180.52 -6.8454C180.261 -6.85151 180.056 -7.05287 180.062 -7.29389C180.069 -7.53492 180.287 -7.72865 180.545 -7.7195C181.088 -7.70577 181.638 -7.68594 182.18 -7.66306C182.439 -7.65238 182.64 -7.44644 182.628 -7.20542C182.617 -6.97049 182.408 -6.78896 182.159 -6.78896H182.16ZM177.278 -6.86981C177.02 -6.86981 176.81 -7.06202 176.807 -7.30305C176.804 -7.54407 177.012 -7.74238 177.273 -7.74543C177.816 -7.75154 178.361 -7.75154 178.91 -7.74848C179.169 -7.74696 179.379 -7.54865 179.376 -7.30762C179.374 -7.06812 179.164 -6.87439 178.905 -6.87439H178.902C178.36 -6.87896 177.82 -6.87744 177.283 -6.87134H177.278V-6.86981Z" fill="#364154"/>
<path d="M254.722 59.5399C254.709 59.5399 254.696 59.5399 254.681 59.5383C254.421 59.5185 254.229 59.3065 254.252 59.0655C254.252 59.0624 254.275 58.8061 254.297 58.3363C254.308 58.0952 254.527 57.9091 254.786 57.9183C255.045 57.929 255.247 58.1319 255.236 58.3729C255.213 58.8641 255.19 59.128 255.188 59.1402C255.167 59.3675 254.962 59.5399 254.72 59.5399H254.722Z" fill="#364154"/>
<path d="M80.5675 39.6004C80.5527 39.6004 80.5379 39.6004 80.5232 39.5973C80.3097 39.5744 80.098 39.5515 79.8862 39.5302C79.681 39.5088 79.5316 39.3364 79.5546 39.1458C79.5776 38.9551 79.7631 38.8163 79.9683 38.8376C80.1817 38.859 80.3951 38.8819 80.6085 38.9047C80.8137 38.9276 80.9615 39.1 80.9385 39.2907C80.9155 39.4676 80.7546 39.5988 80.5658 39.5988L80.5675 39.6004Z" fill="#364154"/>
<path d="M10.5774 84.7002C10.561 84.7002 10.5446 84.7002 10.5281 84.6971C10.3229 84.6727 10.1785 84.4973 10.2047 84.3066C10.2589 83.9176 10.3213 83.5149 10.3903 83.1076C10.4214 82.9169 10.6152 82.7872 10.8187 82.8177C11.0239 82.8467 11.1635 83.0252 11.1306 83.2159C11.0633 83.6171 11.0026 84.0137 10.9484 84.3966C10.9238 84.572 10.7629 84.7002 10.5774 84.7002ZM10.9747 82.3265C10.9533 82.3265 10.9304 82.325 10.9074 82.3204C10.7038 82.2869 10.5675 82.1053 10.6053 81.9162C10.6808 81.5241 10.7629 81.126 10.8483 80.7309C10.8893 80.5417 11.0863 80.4197 11.2899 80.4578C11.4934 80.496 11.6248 80.679 11.5837 80.8682C11.4984 81.2587 11.4179 81.6523 11.3441 82.0397C11.3112 82.2091 11.1536 82.3265 10.9747 82.3265ZM11.4836 79.9743C11.4573 79.9743 11.4294 79.9712 11.4015 79.9651C11.1996 79.9239 11.0715 79.7378 11.1175 79.5487C11.2111 79.1597 11.3096 78.7646 11.413 78.374C11.4623 78.1864 11.6658 78.072 11.8661 78.1178C12.068 78.1635 12.1912 78.3512 12.1419 78.5388C12.0401 78.9247 11.9433 79.3153 11.8513 79.6997C11.8119 79.8614 11.6576 79.9727 11.4852 79.9727L11.4836 79.9743ZM12.0943 77.6449C12.0631 77.6449 12.0303 77.6418 11.9974 77.6327C11.7972 77.5838 11.6773 77.3932 11.7315 77.207C11.8415 76.8211 11.958 76.4291 12.0762 76.0446C12.1337 75.8601 12.3405 75.7533 12.5392 75.8051C12.7378 75.8585 12.8544 76.0507 12.7969 76.2353C12.6804 76.6152 12.5654 77.0026 12.4571 77.384C12.4128 77.5396 12.2601 77.6433 12.0943 77.6433V77.6449ZM12.8035 75.3399C12.7674 75.3399 12.7296 75.3353 12.6935 75.3246C12.4949 75.2682 12.3849 75.0729 12.4456 74.8899C12.572 74.507 12.705 74.121 12.838 73.7412C12.902 73.5581 13.1154 73.459 13.3108 73.5185C13.5078 73.5779 13.6145 73.7763 13.5504 73.9578C13.4175 74.3331 13.2878 74.7144 13.1614 75.0927C13.1121 75.2422 12.9627 75.3383 12.8035 75.3383V75.3399ZM13.6095 73.0639C13.5685 73.0639 13.5258 73.0578 13.4848 73.044C13.2894 72.98 13.186 72.7816 13.2549 72.6001C13.3978 72.2233 13.5455 71.842 13.6966 71.4667C13.7688 71.2867 13.9855 71.1952 14.1792 71.2623C14.3729 71.3294 14.4714 71.5308 14.3992 71.7108C14.2498 72.0815 14.1037 72.4567 13.9625 72.8305C13.9083 72.9739 13.7639 73.0639 13.6079 73.0639H13.6095ZM14.5108 70.8199C14.4649 70.8199 14.4189 70.8123 14.3729 70.7955C14.1808 70.7238 14.0856 70.5224 14.1628 70.3424C14.322 69.9702 14.4862 69.5949 14.6536 69.2273C14.7341 69.0503 14.9541 68.9664 15.1445 69.0412C15.3349 69.1159 15.4252 69.3204 15.3448 69.4973C15.1806 69.8604 15.0164 70.2311 14.8605 70.5987C14.8014 70.736 14.6602 70.8184 14.5125 70.8184L14.5108 70.8199ZM15.5106 68.6125C15.4597 68.6125 15.4072 68.6034 15.3579 68.582C15.1691 68.5042 15.0838 68.2983 15.1675 68.1213C15.3431 67.7552 15.5254 67.386 15.7076 67.026C15.7962 66.8521 16.0195 66.7774 16.2067 66.8598C16.3938 66.9421 16.4742 67.1496 16.3856 67.3235C16.205 67.6789 16.0261 68.0435 15.8521 68.4051C15.7897 68.5347 15.6534 68.6125 15.5089 68.6125H15.5106ZM16.6089 66.4464C16.553 66.4464 16.4956 66.4342 16.4414 66.4097C16.2559 66.3243 16.1804 66.1153 16.2723 65.943C16.4644 65.5829 16.663 65.2214 16.8617 64.8705C16.9585 64.6997 17.1851 64.6341 17.3673 64.7241C17.5512 64.8141 17.6218 65.0246 17.5249 65.1939C17.3279 65.5418 17.1325 65.8987 16.9421 66.2541C16.8764 66.3762 16.7435 66.4479 16.6056 66.4479L16.6089 66.4464ZM17.8056 64.326C17.7449 64.326 17.6825 64.3122 17.625 64.2817C17.4445 64.1887 17.3788 63.9766 17.4789 63.8088C17.6891 63.4564 17.9041 63.104 18.1192 62.7608C18.2243 62.5945 18.4524 62.5381 18.6314 62.6357C18.8103 62.7334 18.8711 62.9454 18.766 63.1117C18.5526 63.4503 18.3408 63.7981 18.134 64.1459C18.065 64.2604 17.937 64.326 17.8056 64.326ZM19.1042 62.2574C19.0369 62.2574 18.9696 62.2406 18.9088 62.2055C18.7332 62.1049 18.6774 61.8898 18.7857 61.7265C19.0122 61.3833 19.2454 61.0401 19.4768 60.7075C19.5885 60.5458 19.8216 60.4985 19.9956 60.6038C20.1696 60.7075 20.2189 60.9241 20.1072 61.0858C19.879 61.4153 19.6492 61.754 19.4243 62.0911C19.3537 62.1979 19.2306 62.2574 19.1042 62.2574ZM20.5029 60.2468C20.4306 60.2468 20.3568 60.227 20.2927 60.1858C20.122 60.0775 20.0777 59.8609 20.1942 59.7022C20.4389 59.3697 20.6884 59.0371 20.9363 58.7137C21.0561 58.5581 21.2909 58.5215 21.46 58.6329C21.6291 58.7442 21.6668 58.9624 21.547 59.1195C21.3007 59.4383 21.0545 59.7648 20.8148 60.0943C20.7426 60.1934 20.6244 60.2468 20.5045 60.2468H20.5029ZM22.0034 58.3019C21.9246 58.3019 21.8458 58.279 21.7784 58.2317C21.6126 58.1157 21.5798 57.8976 21.7046 57.7435C21.964 57.4247 22.2315 57.1028 22.4975 56.7901C22.6255 56.6391 22.8619 56.6147 23.0245 56.7337C23.187 56.8527 23.2133 57.0723 23.0852 57.2233C22.8209 57.5315 22.5582 57.8488 22.3021 58.163C22.2283 58.2546 22.1166 58.3019 22.0017 58.3019H22.0034ZM23.604 56.4271C23.5186 56.4271 23.4332 56.4011 23.3643 56.3462C23.205 56.2226 23.1837 56.003 23.3167 55.855C23.5925 55.5484 23.8765 55.2402 24.1605 54.9397C24.2968 54.7948 24.5348 54.7811 24.6891 54.9077C24.8451 55.0343 24.8598 55.2555 24.7236 55.3989C24.4429 55.6963 24.1638 55.9984 23.8913 56.3004C23.8174 56.3828 23.7107 56.4255 23.604 56.4255V56.4271ZM25.3047 54.63C25.2144 54.63 25.1225 54.5995 25.0503 54.537C24.8976 54.4058 24.8894 54.1861 25.0289 54.0443C25.3228 53.7498 25.6232 53.4554 25.922 53.1702C26.0665 53.0329 26.3045 53.0298 26.4523 53.1641C26.6 53.2983 26.6033 53.5195 26.4588 53.6568C26.1633 53.9375 25.8678 54.2273 25.5789 54.5187C25.505 54.5934 25.4049 54.63 25.3031 54.63H25.3047ZM27.1024 52.9169C27.0055 52.9169 26.907 52.8819 26.8331 52.8117C26.6887 52.6744 26.6919 52.4532 26.8397 52.3189C27.1483 52.0383 27.4652 51.7591 27.7804 51.4891C27.933 51.3579 28.1694 51.3671 28.3106 51.5089C28.4518 51.6508 28.4419 51.8705 28.2893 52.0017C27.979 52.2686 27.6671 52.5432 27.3634 52.8193C27.2911 52.8849 27.1959 52.9185 27.1024 52.9185V52.9169ZM28.9935 51.2923C28.8885 51.2923 28.785 51.2526 28.7112 51.1733C28.5749 51.0284 28.5897 50.8087 28.7457 50.6821C29.0691 50.4197 29.4007 50.1558 29.7323 49.8996C29.8915 49.776 30.1279 49.7973 30.2609 49.9453C30.3939 50.0933 30.3709 50.313 30.2117 50.4365C29.885 50.6897 29.5583 50.9491 29.2398 51.2069C29.1692 51.2649 29.0805 51.2938 28.9919 51.2938L28.9935 51.2923ZM30.9734 49.7623C30.8618 49.7623 30.7534 49.7165 30.6779 49.6295C30.5498 49.4785 30.5777 49.2589 30.7403 49.1399C31.0784 48.8927 31.4248 48.6456 31.7696 48.4061C31.9354 48.2902 32.1702 48.3222 32.2949 48.4778C32.418 48.6319 32.3852 48.85 32.2194 48.966C31.8796 49.2009 31.5381 49.445 31.2065 49.6875C31.1376 49.7378 31.0555 49.7623 30.975 49.7623H30.9734ZM33.0369 48.3314C32.9188 48.3314 32.8038 48.2795 32.73 48.1834C32.6101 48.0263 32.6512 47.8081 32.8203 47.6983C33.1732 47.4679 33.5327 47.2376 33.889 47.0164C34.0613 46.9096 34.2945 46.9523 34.4094 47.1125C34.5243 47.2727 34.4783 47.4893 34.306 47.5961C33.9546 47.8142 33.6 48.04 33.252 48.2673C33.1863 48.31 33.1108 48.3314 33.0353 48.3314H33.0369ZM35.1777 47.0042C35.0529 47.0042 34.9314 46.9462 34.8608 46.841C34.7508 46.6777 34.8034 46.4627 34.9774 46.3605C35.3386 46.1484 35.7096 45.9379 36.0839 45.7304C36.2612 45.6313 36.4926 45.6862 36.5977 45.8525C36.7028 46.0172 36.6453 46.2323 36.4664 46.3299C36.0986 46.5328 35.7326 46.7418 35.3763 46.9493C35.3139 46.9859 35.245 47.0027 35.176 47.0027L35.1777 47.0042ZM37.3906 45.7823C37.2593 45.7823 37.1312 45.7182 37.0639 45.6038C36.9622 45.436 37.0278 45.224 37.2084 45.1294C37.5827 44.9341 37.9669 44.7404 38.3477 44.5543C38.5316 44.4643 38.7581 44.5299 38.855 44.6992C38.9519 44.8701 38.8813 45.0806 38.699 45.1706C38.3231 45.3552 37.9455 45.5458 37.5761 45.7381C37.5187 45.7686 37.4547 45.7823 37.3939 45.7823H37.3906ZM39.6676 44.6672C39.5297 44.6672 39.3967 44.5955 39.3311 44.4734C39.2391 44.3011 39.3147 44.0921 39.5002 44.0066C39.8827 43.8297 40.2767 43.6543 40.669 43.4849C40.8562 43.4041 41.0794 43.4804 41.1665 43.6543C41.2535 43.8282 41.173 44.0356 40.9842 44.1165C40.5968 44.2843 40.2094 44.4567 39.8318 44.6306C39.7776 44.655 39.7218 44.6672 39.666 44.6672H39.6676ZM42.0004 43.6588C41.8559 43.6588 41.718 43.581 41.6557 43.4498C41.5736 43.2729 41.6606 43.0685 41.8494 42.9907C42.2434 42.8305 42.6456 42.6734 43.0445 42.5224C43.2366 42.4491 43.4549 42.5346 43.5337 42.713C43.6125 42.8915 43.5189 43.0944 43.3285 43.1676C42.9362 43.3156 42.5405 43.4712 42.1514 43.6283C42.1022 43.6482 42.0513 43.6573 42.0021 43.6573L42.0004 43.6588ZM44.3841 42.7573C44.2331 42.7573 44.0902 42.6719 44.0328 42.533C43.9589 42.353 44.0558 42.1517 44.2495 42.083C44.6484 41.9412 45.0588 41.8023 45.466 41.6681C45.6613 41.604 45.8747 41.6986 45.9453 41.8801C46.0143 42.0617 45.9125 42.26 45.7171 42.3256C45.3149 42.4583 44.9111 42.5956 44.5171 42.7344C44.4728 42.7497 44.4284 42.7573 44.3841 42.7573ZM46.8105 41.9595C46.6529 41.9595 46.5068 41.8664 46.4542 41.72C46.3902 41.5369 46.4969 41.3401 46.6939 41.2806C47.1043 41.1555 47.5197 41.0335 47.9284 40.9176C48.1271 40.8611 48.3356 40.9649 48.3963 41.1494C48.4571 41.334 48.3454 41.5278 48.1468 41.5842C47.7429 41.6986 47.3325 41.8191 46.927 41.9427C46.8876 41.9549 46.8482 41.9595 46.8105 41.9595ZM49.273 41.2638C49.1088 41.2638 48.9578 41.1632 48.9118 41.0091C48.856 40.8245 48.9725 40.6308 49.1712 40.5789C49.5832 40.4721 50.0051 40.3669 50.4221 40.2662C50.6224 40.2189 50.8276 40.3303 50.8785 40.5164C50.9294 40.7025 50.8096 40.8932 50.6093 40.9404C50.1972 41.0396 49.7819 41.1433 49.3747 41.2486C49.3403 41.2577 49.3074 41.2623 49.273 41.2623V41.2638ZM51.765 40.6674C51.5943 40.6674 51.4416 40.5591 51.4006 40.3989C51.353 40.2113 51.4777 40.0236 51.6796 39.9794C52.0966 39.8879 52.5218 39.7994 52.9421 39.7155C53.144 39.6758 53.3443 39.7948 53.387 39.984C53.4297 40.1716 53.3016 40.3577 53.098 40.3974C52.6811 40.4798 52.2608 40.5682 51.8504 40.6582C51.8208 40.6643 51.7929 40.6674 51.765 40.6674ZM54.2817 40.167C54.106 40.167 53.9484 40.0511 53.9139 39.8848C53.8745 39.6957 54.0075 39.5126 54.2111 39.476C54.6314 39.4012 55.0598 39.328 55.485 39.2594C55.6886 39.2258 55.8839 39.354 55.9184 39.5431C55.9545 39.7323 55.8166 39.9138 55.6131 39.9458C55.1928 40.013 54.7692 40.0862 54.3539 40.1594C54.3293 40.164 54.3063 40.1655 54.2817 40.1655V40.167ZM56.818 39.7582C56.6358 39.7582 56.4766 39.6346 56.4487 39.4623C56.4175 39.2716 56.557 39.0946 56.7622 39.0656C57.1858 39.0046 57.6159 38.9467 58.0427 38.8933C58.2479 38.8673 58.4367 39.0016 58.4646 39.1923C58.4925 39.3829 58.3481 39.5584 58.1429 39.5843C57.721 39.6377 57.2941 39.6941 56.8755 39.7552C56.8558 39.7582 56.8377 39.7597 56.818 39.7597V39.7582ZM59.3692 39.4379C59.182 39.4379 59.0195 39.3067 58.9965 39.1297C58.9719 38.939 59.1196 38.7651 59.3249 38.7438C59.75 38.698 60.1834 38.6538 60.6103 38.6141C60.8155 38.5958 60.9993 38.7346 61.0207 38.9268C61.0404 39.119 60.891 39.2884 60.6842 39.3082C60.2606 39.3479 59.8321 39.3906 59.4102 39.4363C59.3954 39.4379 59.3807 39.4394 59.3659 39.4394L59.3692 39.4379ZM78.6472 39.4119C78.6341 39.4119 78.6226 39.4119 78.6094 39.4104C78.1793 39.3707 77.7492 39.3341 77.3322 39.3006C77.1254 39.2838 76.9727 39.1145 76.9908 38.9238C77.0088 38.7316 77.191 38.5897 77.3962 38.6065C77.8182 38.64 78.2499 38.6782 78.6833 38.7178C78.8885 38.7361 79.0396 38.907 79.0199 39.0992C79.0002 39.2792 78.8376 39.4134 78.6472 39.4134V39.4119ZM76.0813 39.2045C76.0714 39.2045 76.0616 39.2045 76.0534 39.2045C75.6315 39.1755 75.2013 39.148 74.7729 39.1221C74.566 39.1099 74.4084 38.9451 74.4216 38.7529C74.4347 38.5607 74.612 38.4158 74.8188 38.4265C75.249 38.4509 75.684 38.4799 76.1075 38.5088C76.3144 38.5226 76.4687 38.6904 76.4539 38.8826C76.4392 39.0656 76.275 39.2045 76.0796 39.2045H76.0813ZM61.9302 39.2014C61.7365 39.2014 61.5723 39.0641 61.5575 38.8811C61.5411 38.6888 61.6938 38.521 61.9006 38.5058C62.3258 38.4738 62.7592 38.4432 63.191 38.4173C63.3978 38.4036 63.5768 38.55 63.5899 38.7422C63.603 38.9344 63.4471 39.1007 63.2402 39.1129C62.8134 39.1389 62.3833 39.1694 61.963 39.2014C61.9532 39.2014 61.9417 39.2014 61.9318 39.2014H61.9302ZM73.5104 39.0565C73.5104 39.0565 73.4973 39.0565 73.4907 39.0565C73.0656 39.0367 72.6338 39.0199 72.2086 39.0046C72.0018 38.997 71.8392 38.8353 71.8474 38.6431C71.8556 38.4509 72.0297 38.3014 72.2365 38.3075C72.665 38.3227 73.1 38.3395 73.5285 38.3593C73.7353 38.3685 73.8946 38.5332 73.8847 38.7255C73.8749 38.9116 73.7091 39.0565 73.5104 39.0565ZM64.4994 39.0443C64.3007 39.0443 64.1349 38.8994 64.1251 38.7133C64.1152 38.521 64.2745 38.3578 64.4813 38.3471C64.9114 38.3273 65.3448 38.3105 65.7733 38.2968C65.9785 38.2938 66.1542 38.4402 66.1607 38.6324C66.1673 38.8246 66.0064 38.9863 65.7996 38.9924C65.376 39.0061 64.9459 39.0229 64.5191 39.0428C64.5125 39.0428 64.5059 39.0428 64.4994 39.0428V39.0443ZM70.9347 38.9695C70.9347 38.9695 70.9281 38.9695 70.9265 38.9695C70.498 38.9604 70.0662 38.9543 69.6443 38.9497C69.4375 38.9482 69.2717 38.7911 69.2733 38.5973C69.275 38.4051 69.444 38.2526 69.6525 38.2526C70.0777 38.2556 70.5128 38.2632 70.9462 38.2724C71.153 38.277 71.3172 38.4371 71.3123 38.6294C71.3073 38.8185 71.1399 38.9695 70.938 38.9695H70.9347ZM67.0718 38.9619C66.8683 38.9619 66.7008 38.8109 66.6976 38.6202C66.6943 38.428 66.8584 38.2693 67.0653 38.2648C67.4888 38.2571 67.9239 38.2526 68.3573 38.2495H68.3589C68.5658 38.2495 68.7332 38.4051 68.7332 38.5958C68.7332 38.788 68.5674 38.9451 68.3606 38.9466C67.9304 38.9482 67.4987 38.9543 67.0784 38.9619C67.0751 38.9619 67.0735 38.9619 67.0702 38.9619H67.0718Z" fill="#364154"/>
<path d="M10.3765 86.4777C10.3765 86.4777 10.3618 86.4777 10.3535 86.4777C10.1467 86.467 9.9891 86.3023 10.0006 86.11C10.0006 86.1009 10.0154 85.8919 10.0548 85.5014C10.0745 85.3092 10.2583 85.1673 10.4635 85.1887C10.6704 85.207 10.8214 85.3778 10.8001 85.5685C10.7607 85.9438 10.7475 86.1482 10.7475 86.1497C10.7361 86.3343 10.5702 86.4777 10.3732 86.4777H10.3765Z" fill="#364154"/>
<path d="M116.621 60.9102H71.6997V98.4823H122.031L116.621 60.9102Z" fill="#084F93"/>
<path d="M114.654 62.1958H63.7437V98.4824H119.934L114.654 62.1958Z" fill="#131F2D"/>
<path d="M92.6964 98.4824H99.6196V91.5485H92.6964V98.4824Z" fill="#B8C1C9"/>
<path d="M99.3309 98.4824H103.521V91.5485H99.3309V98.4824Z" fill="#657285"/>
<path d="M92.3279 91.644H103.809V82.8372H92.3279V91.644Z" fill="#B8C1C9"/>
<path d="M103.521 91.6421H106.69V84.8034H103.521V91.6421Z" fill="#657285"/>
<path d="M44.0129 94.0557H29.2288C28.8681 94.0557 28.5757 94.3445 28.5757 94.7008V100.46C28.5757 100.816 28.8681 101.105 29.2288 101.105H44.0129C44.3736 101.105 44.666 100.816 44.666 100.46V94.7008C44.666 94.3445 44.3736 94.0557 44.0129 94.0557Z" fill="#B8C1C9"/>
<path d="M85.4492 103.433C85.4492 99.9133 88.3368 97.061 91.8996 97.061C95.4624 97.061 98.3499 99.9133 98.3499 103.433C98.3499 106.952 95.4624 109.804 91.8996 109.804C88.3368 109.804 85.4492 106.952 85.4492 103.433Z" fill="#131F2D"/>
<path d="M107.138 103.433C107.138 99.9133 110.025 97.061 113.588 97.061C117.151 97.061 120.038 99.9133 120.038 103.433C120.038 106.952 117.151 109.804 113.588 109.804C110.025 109.804 107.138 106.952 107.138 103.433Z" fill="#131F2D"/>
<path d="M30.7739 103.433C30.7739 99.9133 33.6615 97.061 37.2243 97.061C40.7871 97.061 43.6747 99.9133 43.6747 103.433C43.6747 106.952 40.7871 109.804 37.2243 109.804C33.6615 109.804 30.7739 106.952 30.7739 103.433Z" fill="#131F2D"/>
<path d="M33.9683 103.433C33.9683 101.657 35.4263 100.216 37.2243 100.216C39.0223 100.216 40.4803 101.657 40.4803 103.433C40.4803 105.209 39.0223 106.649 37.2243 106.649C35.4263 106.649 33.9683 105.209 33.9683 103.433Z" fill="#D36E2A"/>
<path d="M33.9683 103.433C33.9683 101.657 35.4263 100.216 37.2243 100.216C39.0223 100.216 40.4803 101.657 40.4803 103.433C40.4803 105.209 39.0223 106.649 37.2243 106.649C35.4263 106.649 33.9683 105.209 33.9683 103.433Z" fill="#657285"/>
<path d="M36.2139 103.432C36.2139 102.882 36.6661 102.436 37.2228 102.436C37.7794 102.436 38.2317 102.882 38.2317 103.432C38.2317 103.982 37.7794 104.429 37.2228 104.429C36.6661 104.429 36.2139 103.982 36.2139 103.432Z" fill="#B8C1C9"/>
<path d="M35.1147 105.141C35.1147 104.929 35.2903 104.755 35.5053 104.755C35.7204 104.755 35.8959 104.929 35.8959 105.141C35.8959 105.354 35.7204 105.527 35.5053 105.527C35.2903 105.527 35.1147 105.354 35.1147 105.141Z" fill="#B8C1C9"/>
<path d="M34.6592 102.275C34.6592 102.063 34.8347 101.89 35.0498 101.89C35.2648 101.89 35.4404 102.063 35.4404 102.275C35.4404 102.488 35.2648 102.661 35.0498 102.661C34.8347 102.661 34.6592 102.488 34.6592 102.275Z" fill="#B8C1C9"/>
<path d="M38.9575 102.275C38.9575 102.063 39.1331 101.89 39.3481 101.89C39.5632 101.89 39.7387 102.063 39.7387 102.275C39.7387 102.488 39.5632 102.661 39.3481 102.661C39.1331 102.661 38.9575 102.488 38.9575 102.275Z" fill="#B8C1C9"/>
<path d="M38.6318 105.141C38.6318 104.929 38.8074 104.755 39.0224 104.755C39.2375 104.755 39.413 104.929 39.413 105.141C39.413 105.354 39.2375 105.527 39.0224 105.527C38.8074 105.527 38.6318 105.354 38.6318 105.141Z" fill="#B8C1C9"/>
<path d="M36.8325 100.975C36.8325 100.763 37.0081 100.589 37.2231 100.589C37.4382 100.589 37.6137 100.763 37.6137 100.975C37.6137 101.188 37.4382 101.361 37.2231 101.361C37.0081 101.361 36.8325 101.188 36.8325 100.975Z" fill="#B8C1C9"/>
<path d="M88.5239 103.433C88.5239 101.657 89.9819 100.216 91.7799 100.216C93.578 100.216 95.036 101.657 95.036 103.433C95.036 105.209 93.578 106.649 91.7799 106.649C89.9819 106.649 88.5239 105.209 88.5239 103.433Z" fill="#D36E2A"/>
<path d="M88.5239 103.433C88.5239 101.657 89.9819 100.216 91.7799 100.216C93.578 100.216 95.036 101.657 95.036 103.433C95.036 105.209 93.578 106.649 91.7799 106.649C89.9819 106.649 88.5239 105.209 88.5239 103.433Z" fill="#657285"/>
<path d="M90.7705 103.432C90.7705 102.882 91.2228 102.436 91.7794 102.436C92.3361 102.436 92.7883 102.882 92.7883 103.432C92.7883 103.982 92.3361 104.429 91.7794 104.429C91.2228 104.429 90.7705 103.982 90.7705 103.432Z" fill="#B8C1C9"/>
<path d="M89.6719 105.141C89.6719 104.929 89.8474 104.755 90.0625 104.755C90.2775 104.755 90.4531 104.929 90.4531 105.141C90.4531 105.354 90.2775 105.527 90.0625 105.527C89.8474 105.527 89.6719 105.354 89.6719 105.141Z" fill="#B8C1C9"/>
<path d="M89.5244 102.275C89.5244 102.063 89.6999 101.89 89.915 101.89C90.1301 101.89 90.3056 102.063 90.3056 102.275C90.3056 102.488 90.1301 102.661 89.915 102.661C89.6999 102.661 89.5244 102.488 89.5244 102.275Z" fill="#B8C1C9"/>
<path d="M93.187 105.141C93.187 104.929 93.3625 104.755 93.5776 104.755C93.7927 104.755 93.9682 104.929 93.9682 105.141C93.9682 105.354 93.7927 105.527 93.5776 105.527C93.3625 105.527 93.187 105.354 93.187 105.141Z" fill="#B8C1C9"/>
<path d="M88.397 100.975C88.397 100.763 88.5725 100.589 88.7876 100.589C89.0026 100.589 89.1782 100.763 89.1782 100.975C89.1782 101.188 89.0026 101.361 88.7876 101.361C88.5725 101.361 88.397 101.188 88.397 100.975Z" fill="#B8C1C9"/>
<path d="M49.0991 103.433C49.0991 99.9133 51.9867 97.061 55.5495 97.061C59.1123 97.061 61.9999 99.9133 61.9999 103.433C61.9999 106.952 59.1123 109.804 55.5495 109.804C51.9867 109.804 49.0991 106.952 49.0991 103.433Z" fill="#131F2D"/>
<path d="M37.1519 69.0313C37.1519 69.0313 40.6514 63.8172 44.6981 63.7734L44.3376 69.4156L37.1534 69.0313H37.1519Z" fill="#657285"/>
<path d="M57.7699 92.8546H29.7593L32.0902 74.1646C32.4697 71.1264 35.0821 68.8442 38.18 68.8442H57.7699V92.8546Z" fill="#B8C1C9"/>
<path d="M41.486 81.4294H33.6313L34.6719 74.0502C34.8854 72.5303 36.2011 71.3994 37.7555 71.3994H41.7295L41.486 81.4294Z" fill="#657285"/>
<path d="M40.9057 80.8748H35.7346C34.9534 80.8748 34.3525 80.1953 34.4553 79.4315L35.1416 74.3251C35.3235 72.9771 36.4352 71.9727 37.7509 71.9727H41.1128L40.9073 80.8748H40.9057Z" fill="#EAEAEA"/>
<path d="M95.8692 98.4823H41.9907L44.3944 60.9102H92.6844L95.8692 98.4823Z" fill="#084F93"/>
<path d="M93.7599 97.0563H43.9692L46.1911 62.335H90.817L93.2033 90.4801L93.7599 97.0563Z" fill="#B4D7F9"/>
<path d="M46.8499 92.8545H29.7586C28.2531 92.9529 28.1077 93.6886 28.1077 93.6886L26.6465 100.671C26.6465 100.91 26.8679 101.105 27.1399 101.105H31.4364C31.7084 101.105 31.9029 100.908 32.0199 100.66C32.0199 100.66 32.681 99.8525 33.1253 99.5651C34.237 98.8418 35.442 98.367 37.2242 98.367C39.4144 98.367 41.35 99.0559 42.5154 100.107H46.8499C47.3734 100.107 47.8019 99.8369 47.8019 99.5073V93.4543C47.8019 93.1247 47.3734 92.8545 46.8499 92.8545Z" fill="#657285"/>
<path d="M100.59 106.561H95.1735C95.0486 105.913 94.813 105.341 94.4951 104.838C92.8568 102.245 89.0284 101.453 86.8461 101.211C85.8894 101.105 85.2505 101.105 85.2505 101.105H94.5615C96.9968 101.431 98.4928 102.744 99.3847 103.999C100.318 105.312 100.591 106.563 100.591 106.563L100.59 106.561Z" fill="#084F93"/>
<path d="M122.031 106.561H116.615C116.473 105.824 116.188 105.185 115.801 104.634C113.327 101.11 106.692 101.105 106.692 101.105H116.005C118.041 101.378 119.42 102.341 120.339 103.382C121.667 104.89 122.033 106.563 122.033 106.563L122.031 106.561Z" fill="#084F93"/>
<path d="M43.2117 98.4824H122.643C123.043 98.4824 123.369 98.8026 123.369 99.1994V101.411C123.369 101.806 123.045 102.128 122.643 102.128H43.2117C42.8116 102.128 42.4858 101.808 42.4858 101.411V99.1994C42.4858 98.8042 42.81 98.4824 43.2117 98.4824Z" fill="#084F93"/>
<path d="M61.301 99.3975H46.6086C46.2226 99.3975 45.9097 99.7066 45.9097 100.088V106.778C45.9097 107.159 46.2226 107.469 46.6086 107.469H61.301C61.6871 107.469 62 107.159 62 106.778V100.088C62 99.7066 61.6871 99.3975 61.301 99.3975Z" fill="#084F93"/>
<path d="M30.2676 77.812C30.2676 77.812 29.5671 81.5297 29.6018 82.1358C29.6366 82.7419 30.2154 83.0371 30.6566 83.0371L30.2676 77.812Z" fill="#B4D7F9"/>
<path d="M32.3936 77.5024H30.692C30.4422 77.5024 30.2397 77.7025 30.2397 77.9492V82.5901C30.2397 82.8368 30.4422 83.0368 30.692 83.0368H32.3936C32.6433 83.0368 32.8458 82.8368 32.8458 82.5901V77.9492C32.8458 77.7025 32.6433 77.5024 32.3936 77.5024Z" fill="#657285"/>
<path d="M32.2636 77.812H30.9147C30.7016 77.812 30.5288 77.9827 30.5288 78.1932V82.3873C30.5288 82.5978 30.7016 82.7684 30.9147 82.7684H32.2636C32.4767 82.7684 32.6494 82.5978 32.6494 82.3873V78.1932C32.6494 77.9827 32.4767 77.812 32.2636 77.812Z" fill="#EAEAEA"/>
<path d="M31.5425 77.6044C31.4951 77.6044 31.4556 77.5591 31.4556 77.5029V75.9408C31.4556 75.9408 31.4556 75.933 31.4556 75.9283C31.4556 75.919 31.5647 75.0302 32.5119 75.0583C33.3785 75.0848 33.7517 75.0583 33.7549 75.0583C33.8023 75.0551 33.8434 75.0973 33.8466 75.152C33.8497 75.2082 33.8134 75.2551 33.7659 75.2598C33.7501 75.2598 33.3817 75.2863 32.5072 75.2598C31.7434 75.2363 31.639 75.8752 31.6295 75.9471V77.5029C31.6295 77.5591 31.59 77.6044 31.5425 77.6044Z" fill="#B4D7F9"/>
<path d="M40.7588 83.8352H39.1742C38.9529 83.8352 38.771 83.6556 38.771 83.4369C38.771 83.2182 38.9529 83.0386 39.1742 83.0386H40.7588C40.9802 83.0386 41.162 83.2182 41.162 83.4369C41.162 83.6556 40.9802 83.8352 40.7588 83.8352Z" fill="#657285"/>
<path d="M104.187 98.4814H111.11V91.6428H104.187V98.4814Z" fill="#B8C1C9"/>
<path d="M110.822 98.4814H113.991V91.6428H110.822V98.4814Z" fill="#657285"/>
<path d="M86.9859 109.609H76.7734C76.8794 109.247 77.2241 108.625 78.3532 108.444C79.9298 108.191 82.6608 107.286 83.2697 105.296C83.2886 105.232 83.306 105.166 83.3219 105.099C83.8057 102.972 87.3227 105.751 87.3227 105.751C87.3227 105.751 87.3322 105.837 87.348 105.982C87.4302 106.758 87.6358 109.251 86.9859 109.609Z" fill="black"/>
<path d="M78.772 52.6936C78.772 52.6936 79.3065 59.2777 79.9343 67.191C80.7882 77.9411 81.8145 91.1467 81.9157 93.6491C82.0912 97.9932 82.795 104.941 82.795 104.941C82.795 104.941 84.4649 106.592 87.8079 105.896C87.8079 105.896 90.7856 95.9766 91.6363 85.4811C91.649 85.3093 91.6632 85.1359 91.6759 84.9625C92.4681 74.2781 93.6984 51.7798 93.6984 51.7798L78.772 52.692V52.6936Z" fill="#364154"/>
<path d="M78.772 52.694C78.772 52.694 79.3065 59.278 79.9343 67.1914L91.6363 85.4831C91.649 85.3113 91.6632 85.1379 91.6759 84.9645C92.4681 74.28 93.6984 51.7817 93.6984 51.7817L78.772 52.694Z" fill="#131F2D"/>
<path d="M81.2119 53.475C81.2119 53.475 90.8408 77.3198 97.1726 88.5245C103.504 99.7307 105.483 102.858 105.483 102.858C105.483 102.858 109.11 101.424 109.439 100.448C109.439 100.448 107.018 78.8147 102.778 73.5412C100.383 70.5608 97.5679 61.6196 97.4367 58.4924C97.3054 55.3651 96.5796 49.1763 96.5796 49.1763L81.2119 53.4766V53.475Z" fill="#364154"/>
<path d="M93.8813 16.7292C93.8813 16.7292 87.3661 19.883 83.6104 18.713C83.6104 18.713 84.5354 17.543 86.1532 16.673C86.0235 15.9169 85.9223 15.2609 85.8638 14.7032C85.7057 13.4192 85.7057 12.6913 85.7057 12.6913L88.22 10.7075L90.6031 8.80957C90.4149 14.1471 93.8829 16.7292 93.8829 16.7292H93.8813Z" fill="#F2E7E7"/>
<path d="M97.3147 50.398C97.3289 50.7979 96.4766 51.254 96.1018 51.4258C93.3139 52.6536 90.7141 53.5096 87.7665 53.7939C84.2843 54.15 80.168 53.3659 78.7527 53.394C78.6088 53.394 78.4775 53.3362 78.3621 53.2362C78.2609 53.1644 78.1882 48.9546 78.2609 43.6608C78.2609 43.4468 78.2609 43.2328 78.2751 43.0188V42.947C78.3036 40.8773 78.3763 38.7091 78.4775 36.5394C78.68 31.7736 79.0547 27.178 79.6905 24.6381C80.4558 21.6421 82.189 19.6583 83.764 18.2165L85.0639 17.0746C86.3638 17.3324 87.7364 17.2605 89.109 16.5904C90.6113 15.8625 92.2559 15.0455 92.5153 15.2455C94.4793 16.6873 95.7839 19.9582 96.4908 24.0961C96.8956 26.4798 97.0981 29.1478 97.0838 31.9439C97.0838 32.9717 97.0554 34.0276 96.9968 35.0695C96.6505 40.721 96.9968 45.629 97.1993 48.4688C97.2578 49.2967 97.3005 49.9387 97.3147 50.3949V50.398Z" fill="#B4D7F9"/>
<path d="M97.1992 48.4699C65.6337 48.4278 91.3782 25.225 91.3782 25.225L96.4924 24.0972C96.8972 26.4809 97.0996 29.1489 97.0854 31.9449C97.0854 32.9728 97.0569 34.0287 96.9984 35.0706C96.6521 40.7221 96.9984 45.6301 97.2008 48.4699H97.1992Z" fill="#084F93"/>
<path d="M58.3674 48.3203H77.9937V28.9336L58.3674 28.9336V48.3203Z" fill="#B8C1C9"/>
<path d="M77.1778 48.3203H86.1631V28.9336H77.1778V48.3203Z" fill="#657285"/>
<path d="M75.0457 38.9119L73.8771 38.5417C73.8771 38.5417 73.0595 35.8691 70.2953 37.0656C70.2953 37.0656 69.1726 37.6529 69.6675 38.3496C70.1609 39.0447 70.0708 38.6792 70.7476 39.6805C71.4228 40.6817 72.4918 41.1582 73.3442 40.7786L74.3151 40.8067L75.0473 38.9119H75.0457Z" fill="#F2E7E7"/>
<path d="M93.8817 16.7227C93.8817 16.7227 101.029 27.9523 93.4152 40.9283C91.0384 44.9787 73.0852 41.1298 73.0852 41.1298C73.0852 41.1298 72.3863 39.8817 74.2586 38.5649C74.2586 38.5649 86.2121 36.567 87.6369 36.2312C88.9004 35.9344 88.0575 24.458 89.5029 21.1292C90.9483 17.7989 93.8817 16.7227 93.8817 16.7227Z" fill="#B4D7F9"/>
<path d="M90.6448 10.8512C90.6448 10.8512 88.9986 13.8629 85.8627 14.7033C85.7046 13.4192 85.7046 12.6913 85.7046 12.6913L88.219 10.7075L90.6463 10.8497L90.6448 10.8512Z" fill="#EF6343"/>
<path d="M84.5579 12.6038C84.5579 12.6038 90.7726 13.6238 91.3562 9.79052C91.9397 5.95723 93.1352 3.50793 89.1913 2.69409C85.2474 1.88026 84.2527 3.22832 83.7419 4.46078C83.2327 5.69324 82.956 12.2383 84.5563 12.6038H84.5579Z" fill="#F2E7E7"/>
<path d="M91.3165 10.0561C91.3165 10.0561 91.1915 4.92162 85.5287 4.09686C81.6496 3.53295 81.9722 0.75718 82.4166 0.249512C82.4166 0.249512 87.4295 0.290125 90.4435 1.03991C94.9994 2.17396 91.9917 9.29069 91.318 10.0545L91.3165 10.0561Z" fill="#131F2D"/>
<path d="M109.439 101.252L109.138 100.87L105.715 102.764C105.683 103.411 105.666 104.159 105.702 104.814C105.728 105.257 105.702 105.712 105.62 106.142C105.549 106.477 105.187 107.908 104.126 108.285C102.922 108.711 102.826 109.625 104.88 109.609C105.248 109.606 105.609 109.605 105.952 109.605C107.233 109.602 108.329 108.739 108.678 107.522C108.816 107.043 109.071 106.506 109.51 105.932C110.049 105.309 110.685 104.759 110.891 104.077C111.243 102.903 109.439 101.254 109.439 101.254V101.252Z" fill="black"/>
<path d="M148.087 76.8936L148.762 76.35L139.715 64.6705L136.45 64.5361L148.087 76.8936Z" fill="#084F93"/>
<path d="M159.909 76.8936L160.467 76.35L152.981 64.6705L150.28 64.5361L159.909 76.8936Z" fill="#084F93"/>
<path d="M215.154 46.4538C215.154 44.2373 213.378 42.4409 211.186 42.4409C208.995 42.4409 207.219 44.2373 207.219 46.4538C207.219 48.6704 208.995 50.4668 211.186 50.4668C213.378 50.4668 215.154 48.6704 215.154 46.4538Z" fill="#B4D7F9"/>
<path d="M164.823 100.559H205.166C205.604 100.559 205.963 100.201 205.963 99.7652V95.9991C205.963 95.5633 205.604 95.2056 205.166 95.2056H169.529C169.091 95.2056 168.732 95.5633 168.732 95.9991L164.823 100.559Z" fill="#B4D7F9"/>
<path d="M164.468 97.6078C164.468 91.03 159.069 85.6987 152.412 85.6987C145.754 85.6987 140.355 91.0316 140.355 97.6078C140.355 104.184 145.753 109.517 152.412 109.517C159.071 109.517 164.468 104.184 164.468 97.6078Z" fill="#131F2D"/>
<path d="M158.558 97.6097C158.558 94.2575 155.806 91.5396 152.411 91.5396C149.016 91.5396 146.266 94.2575 146.266 97.6097C146.266 100.962 149.017 103.681 152.411 103.681C155.804 103.681 158.558 100.963 158.558 97.6097Z" fill="#657285"/>
<path d="M214.382 80.7988C216.085 80.263 217.896 79.9756 219.774 79.9756C221.101 79.9756 222.396 80.1209 223.639 80.3927C230.781 81.9547 236.325 87.7562 237.426 94.9744C237.637 96.3615 236.543 97.6096 235.122 97.6096H235.042C234.277 97.6096 233.645 97.0317 233.57 96.2788C232.89 89.3495 226.962 83.9151 219.773 83.9151C217.625 83.9151 215.592 84.3993 213.775 85.2631C209.126 87.4766 205.909 92.1784 205.909 97.6096H201.921C201.921 89.7416 207.163 83.0606 214.38 80.7988H214.382Z" fill="#B4D7F9"/>
<path d="M195.881 95.2056L201.922 97.6081C206.105 89.5728 210.378 85.6286 214.032 83.6839C220.606 80.1833 225.181 83.1481 223.641 80.3911L212.364 56.8899C211.308 55.4388 209.93 54.3375 208.392 53.6174C206.717 52.8348 204.851 52.5068 202.998 52.6755C200.845 52.8708 199.44 55.0155 200.124 57.0399C201.6 61.4012 202.167 65.7843 202.167 69.9456C202.167 83.7979 195.88 95.204 195.88 95.204L195.881 95.2056Z" fill="#B4D7F9"/>
<path d="M202.041 55.3946L206.591 53.6779C207.211 53.6779 208.39 54.2309 208.39 53.6185L207.717 42.642C207.717 42.0296 207.211 41.5298 206.591 41.5298H203.657C203.038 41.5298 200.556 42.7029 200.73 44.8991L199.951 55.9647C199.951 56.5771 201.421 55.3962 202.04 55.3962L202.041 55.3946Z" fill="#B4D7F9"/>
<path d="M124.537 65.0796H154.84C155.722 65.0796 156.436 64.3739 156.436 63.5035V62.4241C156.436 61.5536 155.722 60.848 154.84 60.848H124.537C123.656 60.848 122.941 61.5536 122.941 62.4241V63.5035C122.941 64.3739 123.656 65.0796 124.537 65.0796Z" fill="#084F93"/>
<path d="M219.775 109.517C226.433 109.517 231.831 104.185 231.831 97.6078C231.831 91.0306 226.433 85.6987 219.775 85.6987C213.116 85.6987 207.718 91.0306 207.718 97.6078C207.718 104.185 213.116 109.517 219.775 109.517Z" fill="#131F2D"/>
<path d="M213.629 97.6094C213.629 98.6326 213.886 99.5963 214.338 100.44C214.368 100.495 214.398 100.549 214.43 100.602C215.484 102.441 217.483 103.68 219.775 103.68C223.17 103.68 225.921 100.962 225.921 97.6078C225.921 95.082 224.359 92.917 222.137 92.0032C222.115 91.9923 222.091 91.9829 222.066 91.9735C221.357 91.6908 220.584 91.5361 219.775 91.5361C216.381 91.5361 213.629 94.2541 213.629 97.6063V97.6094Z" fill="#657285"/>
<path d="M175.615 73.621C175.615 73.621 172.501 85.8144 183.002 97.0581L157.18 95.2071L160.467 70.5938L175.615 73.621Z" fill="#B4D7F9"/>
<path d="M128.106 98.984C128.106 99.4167 128.285 99.8119 128.576 100.098C128.864 100.382 129.264 100.56 129.702 100.56H168.379C169.257 100.56 169.975 99.8509 169.975 98.984L169.462 73.9958L156.438 73.2085C139.089 73.2085 128.108 81.8467 128.108 98.984H128.106Z" fill="#B4D7F9"/>
<path d="M207.22 46.2254C207.22 46.6128 207.257 46.9908 207.325 47.3579C207.862 50.2196 210.405 52.3861 213.459 52.3861V40.0615C210.013 40.0615 207.219 42.8201 207.219 46.2238L207.22 46.2254Z" fill="#084F93"/>
<path d="M197.371 47.0566C197.395 47.0566 197.654 47.0066 197.678 47.002L204.541 45.1212C204.813 45.0681 205.001 44.7354 204.962 44.3761C204.922 44.0169 204.669 43.7685 204.396 43.8216L197.515 45.1478C197.243 45.2009 197.027 45.6086 196.962 45.9616C196.854 46.5521 197.125 47.0566 197.368 47.0566H197.371Z" fill="#131F2D"/>
<path d="M213.957 84.1601C213.894 84.5397 213.835 84.9067 213.777 85.2613C213.794 85.2535 213.811 85.2441 213.83 85.2363C215.633 84.3881 217.649 83.9133 219.775 83.9133C226.963 83.9133 232.892 89.3477 233.572 96.2769C233.645 97.0299 234.277 97.6078 235.044 97.6078H235.123C236.545 97.6078 237.638 96.3597 237.427 94.9726C236.331 87.7778 230.82 81.9935 223.714 80.408C223.69 80.4018 223.666 80.3955 223.643 80.3908L212.366 56.8897C211.31 55.4385 209.932 54.3373 208.394 53.6172C210.315 56.8116 215.617 67.029 214.384 80.797C214.298 81.742 214.183 82.7042 214.034 83.6836C214.009 83.8414 213.985 84.0007 213.958 84.1585L213.957 84.1601Z" fill="#B4D7F9"/>
<path d="M150.898 67.5669H175.615C176.27 67.5669 176.801 68.0917 176.801 68.7384V72.4499C176.801 73.0966 176.27 73.6214 175.615 73.6214H150.898C150.244 73.6214 149.712 73.0966 149.712 72.4499V68.7384C149.712 68.0917 150.244 67.5669 150.898 67.5669Z" fill="#00AA84"/>
<path d="M131.171 100.559H168.379C168.379 100.559 170.65 86.9501 162.275 82.3546C160.258 81.2471 157.725 80.8675 154.964 81.133C146.263 81.975 135.308 89.2573 131.171 100.559Z" fill="#084F93"/>
<path d="M207.324 47.3584C207.862 50.2201 210.405 52.3867 213.458 52.3867V48.9486C211.626 49.0204 208.985 48.8236 207.324 47.3584Z" fill="#084F93"/>
<path d="M213.956 84.1601C213.893 84.5397 213.835 84.9067 213.776 85.2613C213.794 85.2535 213.811 85.2441 213.83 85.2363C216.056 83.2025 220.761 81.4015 223.712 80.408C223.688 80.4018 223.664 80.3955 223.641 80.3908L212.364 56.8897C211.308 55.4385 209.93 54.3373 208.392 53.6172C210.313 56.8116 215.615 67.029 214.382 80.797C214.296 81.742 214.181 82.7042 214.032 83.6836C214.007 83.8414 213.983 84.0007 213.956 84.1585V84.1601Z" fill="#084F93"/>
<path d="M153.95 45.1567H134.687V60.846H153.95V45.1567Z" fill="#00AC86"/>
<path d="M144.317 45.1567H125.055V60.846H144.317V45.1567Z" fill="#1CC6A0"/>
<path d="M153.937 56.8674H150.885L151.154 56.0192L150.885 55.4131H153.937V56.8674Z" fill="#364154"/>
<path d="M125.055 48.676H128.107L127.838 47.8278L128.107 47.2217H125.055V48.676Z" fill="#131F2D"/>
<path d="M125.055 58.3215H128.107L127.838 57.4733L128.107 56.8672H125.055V58.3215Z" fill="#131F2D"/>
<path d="M173.466 30.9391C170.136 32.2747 164.047 29.4192 164.047 29.4192C164.047 29.4192 166.068 27.6525 166.453 24.3066C166.473 24.1379 166.487 23.9661 166.498 23.7896C166.85 23.6662 167.512 23.4334 168.219 23.1851L171.168 25.1689C171.168 25.1689 171.239 26.1452 171.135 27.8525C171.118 28.1508 171.094 28.4711 171.062 28.8131C172.593 29.4911 173.464 30.9407 173.464 30.9407L173.466 30.9391Z" fill="#F2E7E7"/>
<path d="M171.17 25.1674C171.17 25.1674 171.241 26.1437 171.137 27.851C168.453 27.3699 166.976 25.2283 166.454 24.3051C166.475 24.1364 166.489 23.9646 166.5 23.7881C166.851 23.6647 167.514 23.432 168.22 23.1836L171.17 25.1674Z" fill="#EF6343"/>
<path d="M171.715 26.589C171.715 26.589 165.979 26.4047 166.15 22.8775C166.321 19.352 165.696 16.9527 169.365 16.9214C173.034 16.8902 173.681 18.2695 173.913 19.4598C174.146 20.65 173.211 26.5452 171.715 26.589Z" fill="#F2E7E7"/>
<path d="M166.454 24.3051C166.454 24.3051 166.23 23.132 166.877 22.3588C166.877 22.3588 166.459 21.2091 166.908 20.9514C167.356 20.6937 167.59 21.6762 167.786 21.4919C167.982 21.3075 168.85 20.4375 169.117 19.2894C169.385 18.1413 173.362 18.9645 173.83 19.1035C174.299 19.2425 171.191 13.5129 167.835 14.8703C164.479 16.2277 164.226 17.9288 164.614 19.3081C165.001 20.6874 164.966 24.024 166.454 24.3067V24.3051Z" fill="#131F2D"/>
<path d="M160.969 57.9629C160.969 57.9629 161.366 64.8828 162.961 66.8541C164.557 68.8254 195.129 68.06 195.129 68.06C195.129 68.06 195.262 63.6222 194.067 62.4819C192.871 61.3416 187.287 58.0644 169.462 56.2056L160.969 57.9613V57.9629Z" fill="#131F2D"/>
<path d="M160.561 43.4781C161.059 49.4217 160.403 58.4629 160.969 60.0296C161.456 61.3808 167.017 60.5763 169.234 60.1265C170.055 59.9578 171.051 59.7203 172.079 59.4376C174.945 58.6519 178.069 57.5272 178.403 56.6915C178.416 56.6587 178.427 56.6275 178.433 56.5962C178.465 56.4759 178.458 56.3619 178.428 56.2463C178.346 55.9308 178.088 55.5981 177.94 55.0185C177.888 54.8155 177.85 54.5812 177.835 54.3063C177.783 53.23 177.786 51.9788 177.748 50.6307C177.744 50.5073 177.741 50.3824 177.736 50.2574C177.733 50.0887 177.731 49.9075 177.711 49.7404V49.6779C177.711 49.6466 177.707 49.6154 177.706 49.5842C177.658 47.9237 177.56 46.1789 177.446 44.4466C177.41 43.9061 177.372 43.3703 177.329 42.8392C177.317 42.6517 177.301 42.4643 177.285 42.28C177.255 41.9332 177.227 41.5896 177.195 41.2506C176.945 38.5873 176.607 36.2192 176.162 34.7228C175.433 32.2813 173.827 30.6911 172.366 29.5242L171.308 28.7198C170.128 28.9478 168.732 28.7963 167.468 28.2668C166.103 27.6904 165.63 27.278 165.393 27.4342C162.237 29.593 159.969 36.2083 160.558 43.475L160.561 43.4781Z" fill="#B4D7F9"/>
<path d="M184.129 90.8284C184.129 90.8284 184.399 95.1366 185.242 95.1975C185.354 95.2053 189.521 95.2053 189.521 95.2053L194.841 95.1741C194.841 95.1741 194.806 93.9073 193.252 93.6401C191.697 93.373 189.094 92.2937 188.152 90.263C187.16 88.1277 184.129 90.8269 184.129 90.8269V90.8284Z" fill="black"/>
<path d="M183.016 91.1097C183.016 91.1097 184.045 91.8908 186.139 91.9907C186.678 92.0157 187.173 91.9876 187.606 91.9329C188.761 91.7877 189.484 91.4596 189.484 91.4596L195.127 68.0616C195.127 68.0616 189.012 62.785 185.823 66.0653C185.407 66.4933 185.051 67.2353 184.749 68.2022C182.726 74.6535 183.016 91.1097 183.016 91.1097Z" fill="#131F2D"/>
<path d="M169.46 38.9601C169.46 38.9601 173.418 53.2764 177.939 55.0212C177.887 54.8181 177.849 54.5838 177.835 54.3089C177.783 53.2326 177.786 51.9814 177.748 50.6334C177.743 50.51 177.74 50.385 177.735 50.26C177.732 50.0913 177.731 49.9101 177.71 49.743V49.6805C177.71 49.6493 177.707 49.618 177.705 49.5868C177.658 47.9263 177.56 46.1815 177.446 44.4492C177.41 43.9087 177.372 43.3729 177.329 42.8418C175.34 40.4659 172.639 38.7602 169.457 38.9586L169.46 38.9601Z" fill="#084F93"/>
<path d="M193.206 44.4743C193.206 44.4743 194.93 44.6055 195.373 44.4743C195.816 44.3431 197.898 43.1169 198.651 43.3809C199.404 43.6449 201.309 45.5693 200.822 46.4441C200.822 46.4441 199.937 46.4659 199.116 45.6349C198.297 44.8039 197.41 45.3725 197.498 45.4818C197.587 45.5912 198.872 46.0942 198.649 46.3128C198.428 46.5315 196.744 46.4878 196.345 46.2254C195.947 45.9629 192.977 46.291 192.977 46.291L193.203 44.4743H193.206Z" fill="#F2E7E7"/>
<path d="M169.461 31.4099C169.461 31.4099 180.181 40.437 183.002 41.3071C185.823 42.1771 195.793 44.0907 195.793 44.0907C195.793 44.0907 196.068 46.4228 195.132 47.2976C195.132 47.2976 182.323 46.5634 180.728 46.2307C179.132 45.8979 167.248 39.8137 166.277 39.3545C165.308 38.8953 165.458 30.6663 169.459 31.4114L169.461 31.4099Z" fill="#B4D7F9"/>
<path d="M163.767 19.5414V19.5945C163.767 19.7429 163.837 19.871 163.935 19.9241C163.968 19.9428 164.004 19.9537 164.039 19.9537H177.629C177.78 19.9537 177.901 19.7929 177.901 19.5945V19.5414C177.901 19.3445 177.78 19.1837 177.629 19.1837L174.595 18.7994C174.312 16.5719 172.814 14.7552 170.834 14.1288H170.831C170.349 13.9758 169.838 13.8945 169.31 13.8945C166.52 13.8945 164.237 16.1704 163.998 19.0712C163.995 19.1056 163.993 19.1384 163.99 19.1727C163.955 19.1977 163.936 19.2133 163.933 19.2149C163.835 19.268 163.766 19.3977 163.766 19.5445L163.767 19.5414Z" fill="#B4D7F9"/>
<path d="M168.359 19.0677C167.346 13.7739 170.719 14.1144 170.831 14.1269C170.349 13.9738 169.838 13.8926 169.31 13.8926C166.52 13.8926 164.237 16.1685 163.998 19.0692H168.358L168.359 19.0677Z" fill="#084F93"/>
<path d="M266.022 110.249H0.979541C0.81508 110.249 0.680664 110.076 0.680664 109.863C0.680664 109.651 0.81508 109.478 0.979541 109.478H266.022C266.186 109.478 266.32 109.651 266.32 109.863C266.32 110.076 266.186 110.249 266.022 110.249Z" fill="#131F2D"/>
<path d="M76.2625 78.7643H78.4264L77.5608 77.9305C77.4413 77.8154 77.2476 77.8154 77.1281 77.9305L76.2625 78.7643Z" fill="#00AC86"/>
<path d="M61.6433 78.5731C61.2947 78.5731 61.0679 78.6957 61.0679 78.9249C61.0679 79.6817 63.1482 79.2713 63.1427 80.609C63.1427 81.3072 62.5119 81.7123 61.6599 81.7123C61.0402 81.7123 60.4371 81.4723 60.0222 81.1154L60.332 80.513C60.7304 80.8541 61.256 81.0619 61.6709 81.0619C62.0859 81.0619 62.3349 80.9129 62.3349 80.6516C62.3349 79.8735 60.2545 80.3158 60.2545 78.9888C60.2545 78.3385 60.8355 77.9228 61.7041 77.9228C62.2187 77.9228 62.7332 78.0828 63.1039 78.3173L62.8052 78.9356C62.3902 78.6956 61.942 78.5731 61.6433 78.5731Z" fill="#00AC86"/>
<path d="M65.5663 81.6855V81.3391C65.3615 81.5897 65.0296 81.7176 64.6091 81.7176C63.9728 81.7176 63.5745 81.3391 63.5745 80.8329C63.5745 80.3051 63.9784 79.9801 64.6976 79.9747H65.5607V79.9001C65.5607 79.5697 65.3339 79.3725 64.8913 79.3725C64.6147 79.3725 64.3159 79.4632 64.0116 79.639L63.7515 79.1593C64.1775 78.9302 64.5095 78.8075 65.0517 78.8075C65.8263 78.8075 66.2634 79.186 66.2689 79.8203L66.2745 81.6855L65.5663 81.6855ZM65.5607 80.6943V80.4385H64.8138C64.4321 80.4385 64.255 80.5397 64.255 80.7901C64.255 81.0301 64.4542 81.1847 64.7806 81.1847C65.1956 81.1847 65.522 80.9715 65.5607 80.6943Z" fill="#00AC86"/>
<path d="M67.8295 77.731V81.6855H67.1103V77.731H67.8295Z" fill="#00AC86"/>
<path d="M71.4039 80.5025H69.2184C69.3125 80.9075 69.6334 81.1526 70.065 81.1526C70.3692 81.1526 70.6515 81.0408 70.8617 80.8329L71.249 81.2219C70.9557 81.5311 70.5242 81.7123 70.0041 81.7123C69.0857 81.7123 68.4826 81.1259 68.4826 80.2679C68.4826 79.3992 69.1022 78.8129 69.9875 78.8129C71.0276 78.8129 71.4758 79.4685 71.4039 80.5025ZM70.751 80.0387C70.7344 79.6178 70.4412 79.3511 69.993 79.3511C69.567 79.3511 69.2682 79.6178 69.2018 80.0387H70.751Z" fill="#00AC86"/>
<path d="M72.9146 79.346C72.6822 79.346 72.5162 79.4204 72.5162 79.5964C72.5162 80.0761 74.082 79.8256 74.082 80.8489C74.082 81.4298 73.5453 81.7123 72.9146 81.7123C72.4664 81.7123 72.0016 81.5737 71.6918 81.3126L71.9408 80.8275C72.2119 81.0514 72.6213 81.1793 72.9422 81.1793C73.1912 81.1793 73.3793 81.0993 73.3793 80.9129C73.3793 80.3851 71.8357 80.6729 71.8412 79.6603C71.8412 79.0742 72.3613 78.8024 72.9588 78.8024C73.3461 78.8024 73.75 78.9142 74.0433 79.106L73.7832 79.6071C73.4955 79.4418 73.1691 79.346 72.9146 79.346Z" fill="#00AC86"/>
<path d="M78.0492 81.6855H77.1584L76.1681 80.3532L75.1887 81.6855H74.3201L75.7143 79.7722L74.4086 77.9549H75.2773L76.1681 79.1807L78.0492 81.6855Z" fill="#00AC86"/>
<path d="M54.2532 77.5147H58.8692L57.1679 75.8759C56.8328 75.5531 56.2896 75.5531 55.9545 75.8759L54.2532 77.5147Z" fill="#00AC86"/>
<path d="M56.4759 79.621L54.2541 77.4808L54.2549 77.48L52.5977 75.8836C52.275 75.5728 51.7519 75.5728 51.4292 75.8836L49.772 77.48L52.0135 79.6391L52.0756 79.6846L56.4759 79.621Z" fill="#074F95"/>
<path d="M51.9979 79.6241L54.2183 81.7578L54.2174 81.7587L55.8746 83.355C56.1973 83.6659 56.7204 83.6659 57.0431 83.355L58.7003 81.7587L56.4589 79.5995L56.4401 79.6176L51.9979 79.6241Z" fill="#00AC86"/>
<path d="M51.6637 79.8382L49.675 81.7538H49.6699L49.6725 81.7562L49.6699 81.7587H49.675L51.3463 83.3686C51.6765 83.6866 52.2118 83.6866 52.5419 83.3686L53.1224 82.8094L51.9979 79.6241C51.8762 79.6714 51.7624 79.7431 51.6637 79.8382Z" fill="#074F95"/>
<path d="M52.0135 79.6391L51.9985 79.6247L53.1224 82.8094L54.2133 81.7587L54.2174 81.7587L54.2183 81.7578L52.0135 79.6391Z" fill="#143C65"/>
</g>
<defs>
<clipPath id="clip0_4920_37622">
<rect width="265.638" height="110" fill="white" transform="translate(0.680664 0.249512)"/>
</clipPath>
</defs>
</svg>
