<svg width="296" height="142" viewBox="0 0 296 142" fill="none" xmlns="http://www.w3.org/2000/svg">
<g opacity="0.6">
<path d="M31.7588 141.571H281.252L272.351 68.6794C262.641 2.41258 190.72 -19.5925 139.381 18.9944C118.531 31.1387 94.1461 34.9794 70.3351 32.4056C23.9892 27.9531 -8.40193 84.8222 18.8944 122.539C18.8921 122.539 31.7577 141.571 31.7577 141.571H31.7588Z" fill="#DCECFD"/>
<mask id="mask0_4920_76121" style="mask-type:luminance" maskUnits="userSpaceOnUse" x="8" y="0" width="274" height="142">
<path d="M31.7588 141.571H281.252L272.351 68.6794C262.641 2.41258 190.72 -19.5925 139.381 18.9944C118.531 31.1387 94.1461 34.9794 70.3351 32.4056C23.9892 27.9531 -8.40193 84.8222 18.8944 122.539C18.8921 122.539 31.7577 141.571 31.7577 141.571H31.7588Z" fill="white"/>
</mask>
<g mask="url(#mask0_4920_76121)">
<path opacity="0.7" d="M8.96729 144.06V89.9697H47.6954V62.4785H116.595V96.5638H194.734V68.5272H249.169V85.8306H290.493V144.926L8.96729 144.06Z" fill="#A6C8FF"/>
</g>
<path d="M207.807 42.4015H190.611C189.57 42.4015 188.663 43.1116 188.411 44.1224L167.221 129.12L168.782 129.122L189.798 44.821C189.917 44.3442 190.344 44.0103 190.835 44.0103H207.808C208.252 44.0103 208.611 43.6501 208.611 43.2054C208.611 42.7606 208.252 42.4004 207.808 42.4004L207.807 42.4015Z" fill="#324D90"/>
<path d="M269.075 42.4718H251.851C250.81 42.4718 249.903 43.1819 249.651 44.1927L228.461 129.19L230.021 129.192L251.038 44.8913C251.157 44.4145 251.584 44.0806 252.075 44.0806H269.076C269.52 44.0806 269.88 43.7205 269.88 43.2757C269.88 42.8309 269.52 42.4707 269.076 42.4707L269.075 42.4718Z" fill="#324D90"/>
<path d="M188.64 133.205C188.606 129.923 187.355 126.165 184.065 125.008C182.553 124.662 180.955 124.906 179.414 124.848C175.333 124.251 172.419 127.865 172.338 133.205C172.421 138.545 175.333 142.158 179.414 141.561C180.955 141.504 182.553 141.746 184.065 141.401C187.334 140.287 188.628 136.418 188.641 133.204L188.64 133.205Z" fill="#152E60"/>
<path d="M159.559 129.577C158.817 127.283 157.008 124.85 154.393 124.838C152.758 124.846 151.062 124.842 149.459 124.838C146.306 124.912 143.772 128.705 143.823 133.341C143.878 137.914 146.429 141.595 149.593 141.57C151.193 141.564 152.794 141.563 154.394 141.57C158.393 141.388 160.146 136.7 160.125 133.203C160.125 131.903 159.922 130.673 159.56 129.576L159.559 129.577Z" fill="#152E60"/>
<path d="M240.31 79.4453H199.092V130.347H240.31V79.4453Z" fill="#F79009"/>
<path d="M225.887 79.4453H221.004V85.2493H225.887V79.4453Z" fill="#FDF1E6"/>
<path d="M205.924 79.4453H143.822V130.347H205.924V79.4453Z" fill="#FDB022"/>
<path d="M178.551 79.4453H171.194V85.2493H178.551V79.4453Z" fill="#FDF1E6"/>
<path d="M246.225 129.9H137.905V132.804H246.225V129.9Z" fill="#324D90"/>
<path d="M192.065 129.9H137.905V132.804H192.065V129.9Z" fill="#152E60"/>
<path d="M236.861 124.837C235.606 124.844 234.351 124.844 233.097 124.837C224.578 123.626 224.086 141.296 232.021 141.571C233.276 141.564 234.531 141.564 235.785 141.571C244.304 142.782 244.796 125.111 236.861 124.837Z" fill="#152E60"/>
<path d="M242.592 133.205C242.442 144.216 231.277 144.215 231.129 133.205C231.277 122.194 242.443 122.195 242.592 133.205Z" fill="#324D90"/>
<path d="M238.916 133.205C238.862 137.447 234.858 137.447 234.805 133.205C234.858 128.963 238.862 128.963 238.916 133.205Z" fill="#152E60"/>
<path d="M208.343 124.837C207.088 124.844 205.834 124.844 204.579 124.837C196.061 123.626 195.569 141.296 203.504 141.571C204.758 141.564 206.013 141.564 207.268 141.571C215.786 142.782 216.278 125.111 208.343 124.837Z" fill="#152E60"/>
<path d="M214.075 133.205C213.925 144.216 202.761 144.215 202.612 133.205C202.761 122.194 213.926 122.195 214.075 133.205Z" fill="#324D90"/>
<path d="M210.399 133.205C210.345 137.447 206.342 137.447 206.288 133.205C206.342 128.963 210.345 128.963 210.399 133.205Z" fill="#152E60"/>
<path d="M141.214 38.6367L126.253 50.7981L121.417 45.4961L115.14 51.2395C115.877 52.0582 120.277 56.8537 120.878 57.5592C123.31 60.4108 128.055 60.42 130.502 57.5832L144.124 42.4374L141.214 38.6379V38.6367Z" fill="#F4D2C6"/>
<mask id="mask1_4920_76121" style="mask-type:luminance" maskUnits="userSpaceOnUse" x="115" y="38" width="30" height="22">
<path d="M141.214 38.6367L126.253 50.7981L121.417 45.4961L115.14 51.2395C115.877 52.0582 120.277 56.8537 120.878 57.5592C123.31 60.4108 128.055 60.42 130.502 57.5832L144.124 42.4374L141.214 38.6379V38.6367Z" fill="white"/>
</mask>
<g mask="url(#mask1_4920_76121)">
<path d="M126.253 50.797L122.153 59.7213L117.627 55.7239L124.787 48.7754L126.253 50.797Z" fill="#EDA19D"/>
</g>
<path d="M149.469 41.1973H135.617C134.871 41.1973 134.266 41.8034 134.266 42.5511V63.032C134.266 63.7797 134.871 64.3858 135.617 64.3858H149.469C150.216 64.3858 150.821 63.7797 150.821 63.032V42.5511C150.821 41.8034 150.216 41.1973 149.469 41.1973Z" fill="#324D90"/>
<path d="M149.201 42.9785H135.886V62.6133H149.201V42.9785Z" fill="#F3F5FB"/>
<path d="M144.842 40.6855H140.243C139.944 40.6855 139.702 40.9282 139.702 41.2275V42.9861C139.702 43.2854 139.944 43.5281 140.243 43.5281H144.842C145.141 43.5281 145.383 43.2854 145.383 42.9861V41.2275C145.383 40.9282 145.141 40.6855 144.842 40.6855Z" fill="#152E60"/>
<path d="M148.072 46.2559H137.013V47.5914H148.072V46.2559Z" fill="#E3EAF4"/>
<path d="M148.072 49.1895H137.013V50.525H148.072V49.1895Z" fill="#E3EAF4"/>
<path d="M148.072 52.123H137.013V53.4586H148.072V52.123Z" fill="#E3EAF4"/>
<path d="M148.072 55.0566H137.013V56.3922H148.072V55.0566Z" fill="#E3EAF4"/>
<path d="M144.767 57.9902H137.013V59.3257H144.767V57.9902Z" fill="#E3EAF4"/>
<path d="M140.378 40.1363C140.169 41.8926 141.604 42.8028 142.969 43.4911C144.961 44.7146 147.724 42.7102 147.125 40.4279C146.91 38.8146 145.879 38.0279 144.373 37.6563C142.684 37.1097 140.519 38.2829 140.378 40.1352V40.1363Z" fill="#F4D2C6"/>
<path d="M89.4251 51.8835L105.675 43.3457L100.488 33.4418L84.2382 41.9796L89.4251 51.8835Z" fill="#4292F3"/>
<path d="M83.566 53.7739L88.8413 50.2373L85.1551 43.7324C82.034 45.5745 76.9015 47.4851 76.9734 51.877C77.2554 53.6722 74.8969 73.6179 76.8296 74.4778C79.107 77.0745 81.6105 74.9489 83.6985 73.4099L80.7806 73.3801L83.566 53.7739Z" fill="#F4D2C6"/>
<mask id="mask2_4920_76121" style="mask-type:luminance" maskUnits="userSpaceOnUse" x="76" y="43" width="13" height="33">
<path d="M83.566 53.7739L88.8413 50.2373L85.1551 43.7324C82.034 45.5745 76.9015 47.4851 76.9734 51.877C77.2554 53.6722 74.8969 73.6179 76.8296 74.4778C79.107 77.0745 81.6105 74.9489 83.6985 73.4099L80.7806 73.3801L83.566 53.7739Z" fill="white"/>
</mask>
<g mask="url(#mask2_4920_76121)">
<path d="M82.833 43.8549L84.7417 51.5067L89.1174 48.6527L86.1208 42.1055L82.833 43.8549Z" fill="#EDA19D"/>
</g>
<path d="M126.541 48.836L113.566 35.8398L105.671 43.748L118.646 56.7441L126.541 48.836Z" fill="#4292F3"/>
<path d="M118.919 56.4691L116.741 44.5215L120.423 54.9632L118.919 56.4691Z" fill="#3C7ED7"/>
<path d="M91.6436 62.642L93.0306 135.44H97.9177L108.161 62.4785L91.6436 62.642Z" fill="#324D90"/>
<mask id="mask3_4920_76121" style="mask-type:luminance" maskUnits="userSpaceOnUse" x="91" y="62" width="18" height="74">
<path d="M91.6436 62.642L93.0306 135.44H97.9177L108.161 62.4785L91.6436 62.642Z" fill="white"/>
</mask>
<g mask="url(#mask3_4920_76121)">
<path d="M105.415 82.0312C98.3136 91.4805 96.1743 122.827 95.6138 136.428H99.9015L105.205 103.077L105.415 82.0324" fill="#2A437D"/>
</g>
<path d="M119.25 62.642L117.865 135.44H112.743L102.733 62.4785L119.25 62.642Z" fill="#324D90"/>
<mask id="mask4_4920_76121" style="mask-type:luminance" maskUnits="userSpaceOnUse" x="102" y="62" width="18" height="74">
<path d="M119.25 62.642L117.865 135.44H112.743L102.733 62.4785L119.25 62.642Z" fill="white"/>
</mask>
<g mask="url(#mask4_4920_76121)">
<path d="M105.416 82.0312C111.454 89.715 114.783 124.975 114.931 136.002H110.991L105.416 82.0312Z" fill="#2A437D"/>
</g>
<path d="M100.677 22.3999C101.053 24.6627 99.1099 24.9932 98.7183 22.7326C98.3428 20.471 100.286 20.1394 100.677 22.3999Z" fill="#EDA19D"/>
<path d="M110.034 22.3999C109.658 24.6627 111.601 24.9932 111.993 22.7326C112.368 20.471 110.425 20.1394 110.034 22.3999Z" fill="#EDA19D"/>
<path d="M110.916 22.6815C110.778 31.5956 99.932 31.5945 99.795 22.6815C98.8086 13.5571 111.608 13.4679 110.916 22.6815Z" fill="#F4D2C6"/>
<mask id="mask5_4920_76121" style="mask-type:luminance" maskUnits="userSpaceOnUse" x="99" y="15" width="12" height="15">
<path d="M110.916 22.6815C110.778 31.5956 99.932 31.5945 99.795 22.6815C98.8086 13.5571 111.608 13.4679 110.916 22.6815Z" fill="white"/>
</mask>
<g mask="url(#mask5_4920_76121)">
<path d="M100.275 19.4711C100.275 19.4711 104.479 20.3413 110.115 18.7748L109.505 16.7578L101.303 17.0494L100.275 19.127" fill="#EDA19D"/>
</g>
<path d="M108.237 24.3184H102.473C103.169 26.3068 101.651 36.2637 101.651 36.2637H109.059C109.059 36.2637 107.542 26.3068 108.237 24.3184Z" fill="#F4D2C6"/>
<path d="M102.552 28.5343C102.552 28.5343 105.164 30.5513 108.158 28.5343L108.316 30.3398C108.316 30.3398 105.092 31.8491 102.393 30.3581L102.552 28.5332V28.5343Z" fill="#EDA19D"/>
<path d="M100.548 17.875C100.548 17.875 107.82 18.5999 109.696 17.4793C111.571 16.3588 111.176 12.5684 111.176 12.5684C110.11 12.7387 98.0298 12.4426 100.548 17.875Z" fill="#59445A"/>
<path d="M100.686 15.4414C100.686 15.4414 98.6555 16.052 98.4112 16.8855C98.1669 17.7202 99.8701 20.9447 99.8701 20.9447C100.328 20.9401 100.722 20.6234 100.826 20.1774L101.458 17.4561L100.686 15.4414Z" fill="#59445A"/>
<path d="M110.009 15.4414C110.009 15.4414 112.039 16.052 112.284 16.8855C112.528 17.7202 110.825 20.9447 110.825 20.9447C110.365 20.9573 109.941 20.5674 109.869 20.1763C109.857 20.1226 109.237 17.4561 109.237 17.4561L110.009 15.4414Z" fill="#59445A"/>
<path d="M109.237 17.6832C109.237 17.6832 110.877 16.7319 110.916 15.7852C110.916 15.7852 111.536 18.0674 109.237 17.6832Z" fill="#34254B"/>
<path d="M93.8516 135.439L93.3128 137.332L87.4861 139.832C86.7921 140.131 86.3423 140.814 86.3423 141.57H98.3745L97.9179 135.439H93.8516Z" fill="#152E60"/>
<path d="M116.81 135.439L117.348 137.332L123.175 139.832C123.869 140.131 124.319 140.814 124.319 141.57H112.287L112.743 135.439H116.81Z" fill="#152E60"/>
<path d="M116.869 42.9063C115.772 35.5861 110.192 31.9192 103.939 32.7298C98.9452 32.5458 94.4463 37.6328 93.8253 42.9143C93.7454 43.4425 89.751 69.8761 89.751 69.8761H120.946L116.87 42.9063H116.869Z" fill="#4292F3"/>
<mask id="mask6_4920_76121" style="mask-type:luminance" maskUnits="userSpaceOnUse" x="89" y="32" width="32" height="38">
<path d="M116.869 42.9063C115.772 35.5861 110.192 31.9192 103.939 32.7298C98.9452 32.5458 94.4463 37.6328 93.8253 42.9143C93.7454 43.4425 89.751 69.8761 89.751 69.8761H120.946L116.87 42.9063H116.869Z" fill="white"/>
</mask>
<g mask="url(#mask6_4920_76121)">
<path d="M102.104 70.5476L107.849 64.3845L95.8164 44.8184L99.9226 62.9839L87.5981 71.6681L102.104 70.5476Z" fill="#3C7ED7"/>
</g>
<path d="M95.8159 44.8216L72.3721 55.291L80.9791 74.6266L104.423 64.1572L95.8159 44.8216Z" fill="#F3AC4A"/>
<path d="M85.9155 49.2438L82.2715 50.8711L83.5657 53.7785L87.2097 52.1512L85.9155 49.2438Z" fill="#FDF1E6"/>
<path d="M78.9722 71.668C80.2119 71.9401 82.6012 71.8601 82.833 73.5546L78.9722 73.7501V71.668Z" fill="#F4D2C6"/>
<path d="M102.104 32.9276C103.23 36.2721 107.48 36.271 108.605 32.9276C108.605 32.9276 105.824 31.4206 102.104 32.9276Z" fill="#F4D2C6"/>
<path d="M91.7637 69.8809H119.114L91.8824 75.1818L91.7637 69.8809Z" fill="#2A437D"/>
<path d="M102.104 32.9269L105.206 35.4447L103.922 36.2577C101.874 37.3359 101.54 34.4957 101.042 33.2288C101.042 33.2288 101.582 32.9921 102.103 32.9258L102.104 32.9269Z" fill="#F3F5FB"/>
<path d="M105.983 35.3849L107.191 36.135C108.038 36.6621 109.15 36.175 109.338 35.194L109.712 33.2513C109.712 33.2513 108.867 32.97 108.605 32.9277L105.983 35.3861V35.3849Z" fill="#F3F5FB"/>
<path d="M69.3557 98.959H34.1426V141.571H69.3557V98.959Z" fill="#FDB022"/>
<path d="M54.4696 98.959H49.0288V103.094H54.4696V98.959Z" fill="#FDF1E6"/>
<path d="M87.7491 98.959H69.356V141.571H87.7491V98.959Z" fill="#F79009"/>
<path d="M81.87 98.959H77.209V103.094H81.87V98.959Z" fill="#FDF1E6"/>
<path d="M210.982 10.6816H169.487C168.356 10.6816 167.439 11.6 167.439 12.7329V26.4814C167.439 27.6143 168.356 28.5327 169.487 28.5327H210.982C212.113 28.5327 213.03 27.6143 213.03 26.4814V12.7329C213.03 11.6 212.113 10.6816 210.982 10.6816Z" fill="white"/>
<path d="M209.537 13.6484H170.931V15.8873H209.537V13.6484Z" fill="#DEEEFC"/>
<path d="M209.537 18.4883H170.931V20.7271H209.537V18.4883Z" fill="#DEEEFC"/>
<path d="M196.56 23.3301H170.931V25.5689H196.56V23.3301Z" fill="#DEEEFC"/>
<path d="M67.8781 31.4824C64.7684 57.8988 49.8115 57.8748 46.7075 31.4824C46.945 17.5475 67.6418 17.5475 67.8781 31.4824Z" fill="#324D90"/>
<path d="M62.9589 30.9244C62.8322 38.3841 51.7532 38.3829 51.6265 30.9244C51.7532 23.4647 62.8322 23.4659 62.9589 30.9244Z" fill="white"/>
<path d="M70.0361 70.5469H37.4212C36.8418 70.5469 36.3721 71.0173 36.3721 71.5977V82.9861C36.3721 83.5665 36.8418 84.0369 37.4212 84.0369H70.0361C70.6155 84.0369 71.0852 83.5665 71.0852 82.9861V71.5977C71.0852 71.0173 70.6155 70.5469 70.0361 70.5469Z" fill="#D4E8FC"/>
<path d="M68.4161 68.9082H36.4143C35.5423 68.9082 34.8354 69.6162 34.8354 70.4896V81.0936C34.8354 81.967 35.5423 82.675 36.4143 82.675H68.4161C69.2881 82.675 69.9949 81.967 69.9949 81.0936V70.4896C69.9949 69.6162 69.2881 68.9082 68.4161 68.9082Z" fill="white"/>
<path d="M67.3007 71.1953H37.5283V72.9219H67.3007V71.1953Z" fill="#DEEEFC"/>
<path d="M67.3007 74.9277H37.5283V76.6543H67.3007V74.9277Z" fill="#DEEEFC"/>
<path d="M57.2925 78.6621H37.5283V80.3887H57.2925V78.6621Z" fill="#DEEEFC"/>
<path d="M161.397 104.895H143.821V117.226H161.397C162.177 117.226 162.811 116.592 162.811 115.81V106.311C162.811 105.529 162.177 104.895 161.397 104.895Z" fill="#F08F3C"/>
<path d="M159.717 103.076H131.052C130.271 103.076 129.638 103.71 129.638 104.493V113.991C129.638 114.774 130.271 115.408 131.052 115.408H159.717C160.498 115.408 161.132 114.774 161.132 113.991V104.493C161.132 103.71 160.498 103.076 159.717 103.076Z" fill="white"/>
<path d="M158.718 105.125H132.05V106.672H158.718V105.125Z" fill="#DEEEFC"/>
<path d="M158.718 108.469H132.05V110.016H158.718V108.469Z" fill="#DEEEFC"/>
<path d="M149.753 111.812H132.05V113.36H149.753V111.812Z" fill="#DEEEFC"/>
<path d="M242.045 24.3184L235.572 37.3625C235.442 37.6243 235.066 37.6152 234.949 37.3476L233.283 33.5355L242.045 24.3184Z" fill="#324D90"/>
<path d="M233.282 33.5355L228.771 32.0341L242.045 24.3184L233.282 33.5355Z" fill="#4292F3"/>
<path d="M242.045 24.3184L236.064 34.552L241.436 36.3551L242.045 24.3184Z" fill="#4292F3"/>
<path d="M234.275 40.6226L234.104 40.5586C234.18 40.3597 234.254 40.1607 234.326 39.9629L234.496 40.0258C234.423 40.2247 234.349 40.4237 234.273 40.6226H234.275Z" fill="#324D90"/>
<path d="M149.207 73.2556L149.176 73.0761C149.581 73.0063 149.993 72.9046 150.402 72.7742L150.457 72.948C150.041 73.0806 149.62 73.1847 149.207 73.2556ZM150.977 72.7662L150.913 72.5958C151.292 72.4529 151.682 72.2802 152.071 72.0824L152.153 72.2448C151.758 72.4449 151.362 72.621 150.977 72.7662ZM152.639 71.9864L152.551 71.8275C152.904 71.6308 153.26 71.4158 153.638 71.1677L153.738 71.3198C153.356 71.569 152.997 71.7874 152.639 71.9864ZM154.194 71.0133L154.091 70.8636C154.414 70.6406 154.752 70.397 155.125 70.1169L155.234 70.2621C154.86 70.5434 154.521 70.7892 154.195 71.0133H154.194ZM155.669 69.9305L155.558 69.7865C155.911 69.5143 156.262 69.2376 156.563 68.9998L156.676 69.1427C156.375 69.3817 156.023 69.6595 155.669 69.9317V69.9305ZM157.105 68.802L156.992 68.659C157.314 68.4052 157.658 68.1331 157.999 67.8712L158.11 68.0153C157.77 68.2771 157.426 68.547 157.105 68.8008V68.802ZM158.546 67.686L158.437 67.5408C158.816 67.2584 159.129 67.0342 159.481 66.7964L159.582 66.9473C159.233 67.184 158.923 67.407 158.546 67.6871V67.686ZM160.037 66.6455L159.939 66.4923C160.299 66.2602 160.668 66.036 161.035 65.8268L161.125 65.9846C160.761 66.1915 160.395 66.4145 160.038 66.6443L160.037 66.6455ZM161.601 65.7205L161.515 65.5604C161.891 65.358 162.277 65.1636 162.66 64.9841L162.737 65.1488C162.356 65.3271 161.974 65.5192 161.601 65.7205ZM195.701 65.677C195.701 65.677 195.588 65.677 195.584 65.677V65.4952C196.011 65.4975 196.444 65.4849 196.855 65.4575L196.868 65.6393C196.489 65.6644 196.096 65.677 195.701 65.677ZM195.035 65.6656C194.609 65.6519 194.181 65.6187 193.757 65.5855L193.772 65.4049C194.194 65.438 194.619 65.4701 195.042 65.4849L195.036 65.6667L195.035 65.6656ZM197.417 65.5935L197.398 65.4129C197.831 65.3694 198.253 65.3065 198.653 65.2288L198.687 65.4072C198.282 65.4861 197.854 65.5489 197.415 65.5935H197.417ZM193.211 65.5387C192.801 65.5009 192.373 65.4575 191.939 65.4083L191.96 65.2276C192.393 65.2768 192.819 65.3203 193.228 65.3569L193.212 65.5375L193.211 65.5387ZM191.395 65.3454C190.988 65.2962 190.563 65.2414 190.128 65.1808L190.153 65.0001C190.587 65.0596 191.012 65.1156 191.418 65.1648L191.396 65.3454H191.395ZM199.226 65.2894L199.183 65.1133C199.607 65.0104 200.015 64.8846 200.392 64.7417L200.456 64.9121C200.071 65.0584 199.656 65.1853 199.225 65.2905L199.226 65.2894ZM189.584 65.1042C189.163 65.0436 188.742 64.9795 188.321 64.9143L188.348 64.7348C188.768 64.8 189.188 64.864 189.609 64.9246L189.583 65.1042H189.584ZM207.652 65.0538V64.872C208.06 64.8709 208.487 64.8538 208.92 64.8206L208.934 65.0024C208.496 65.0355 208.064 65.0527 207.652 65.0538ZM207.102 65.0458C206.659 65.0321 206.228 64.9978 205.821 64.9452L205.844 64.7646C206.246 64.816 206.671 64.8492 207.107 64.8629L207.102 65.0447V65.0458ZM209.482 64.9532L209.464 64.7726C209.874 64.7303 210.297 64.6754 210.724 64.6079L210.753 64.7874C210.322 64.856 209.894 64.9121 209.482 64.9544V64.9532ZM163.233 64.9246L163.16 64.7577C163.551 64.5862 163.95 64.425 164.349 64.2775L164.411 64.4478C164.016 64.5942 163.62 64.7543 163.232 64.9235L163.233 64.9246ZM205.275 64.8618C204.837 64.784 204.417 64.68 204.024 64.5553L204.079 64.3827C204.464 64.5061 204.877 64.6068 205.306 64.6834L205.274 64.8629L205.275 64.8618ZM187.779 64.8286C187.358 64.7611 186.938 64.6925 186.519 64.6228L186.549 64.4433C186.968 64.513 187.388 64.5816 187.808 64.6491L187.779 64.8286ZM200.967 64.6982L200.892 64.5324C201.288 64.3529 201.658 64.1448 201.991 63.9173L202.094 64.0671C201.752 64.3015 201.373 64.513 200.967 64.6982ZM211.294 64.6948L211.262 64.5164C211.68 64.441 212.095 64.3552 212.506 64.2557L212.548 64.433C212.134 64.5336 211.715 64.6193 211.294 64.696V64.6948ZM185.979 64.5313C185.559 64.4604 185.139 64.3895 184.72 64.3175L184.751 64.138C185.17 64.2089 185.59 64.2809 186.01 64.3518L185.98 64.5313H185.979ZM203.504 64.3689C203.09 64.2043 202.711 64.0179 202.348 63.7892L202.445 63.636C202.453 63.6406 202.46 63.6452 202.468 63.6509L202.421 63.5937C202.751 63.3227 203.045 63.0197 203.295 62.695L203.438 62.8059C203.187 63.1329 202.894 63.4359 202.565 63.7103C202.879 63.8967 203.214 64.0591 203.569 64.2009L203.502 64.3701L203.504 64.3689ZM213.08 64.2958L213.033 64.1197C213.44 64.0099 213.849 63.8864 214.249 63.7515L214.307 63.9241C213.903 64.0602 213.491 64.1848 213.081 64.2958H213.08ZM164.925 64.266L164.867 64.0945C165.267 63.9573 165.68 63.8292 166.091 63.7149L166.14 63.8898C165.732 64.003 165.323 64.13 164.925 64.266ZM184.18 64.226C183.76 64.1551 183.34 64.0842 182.921 64.0145L182.951 63.835C183.369 63.9047 183.79 63.9756 184.21 64.0465L184.179 64.226H184.18ZM182.381 63.9253C181.961 63.8567 181.54 63.7904 181.121 63.7252L181.148 63.5457C181.568 63.6097 181.989 63.6772 182.411 63.7458L182.381 63.9253ZM166.666 63.7492L166.621 63.5731C167.031 63.4691 167.452 63.3753 167.871 63.2941L167.906 63.4725C167.49 63.5537 167.072 63.6463 166.666 63.7492ZM214.826 63.7412L214.763 63.5708C215.157 63.4268 215.554 63.2678 215.942 63.0986L216.014 63.2655C215.623 63.4359 215.222 63.5971 214.825 63.7423L214.826 63.7412ZM180.579 63.6429C180.134 63.5765 179.721 63.5182 179.317 63.4645L179.341 63.2838C179.747 63.3376 180.161 63.3959 180.607 63.4622L180.581 63.6417L180.579 63.6429ZM201.895 63.4668C201.553 63.1992 201.241 62.8939 200.969 62.5612L201.11 62.4457C201.373 62.7682 201.676 63.0643 202.007 63.3239L201.895 63.4668ZM178.774 63.3936C178.34 63.3387 177.913 63.2896 177.507 63.2472L177.527 63.0666C177.934 63.1089 178.361 63.1592 178.797 63.2141L178.775 63.3947L178.774 63.3936ZM168.442 63.373L168.411 63.1935C168.826 63.1226 169.253 63.0609 169.679 63.0106L169.7 63.1912C169.277 63.2415 168.853 63.3021 168.442 63.373ZM176.963 63.1924C176.53 63.1512 176.103 63.1169 175.694 63.0883L175.706 62.9065C176.118 62.9351 176.547 62.9694 176.981 63.0106L176.964 63.1912L176.963 63.1924ZM170.242 63.1329L170.225 62.9522C170.641 62.9111 171.071 62.8802 171.503 62.8573L171.512 63.0391C171.084 63.0609 170.657 63.0929 170.244 63.1329H170.242ZM175.148 63.0552C174.715 63.0311 174.287 63.0151 173.875 63.006L173.88 62.8242C174.294 62.8333 174.724 62.8493 175.158 62.8733L175.148 63.0552ZM216.516 63.038L216.44 62.8733C216.82 62.6961 217.201 62.5052 217.575 62.3039L217.66 62.464C217.284 62.6664 216.899 62.8596 216.516 63.038ZM172.056 63.0151L172.051 62.8333C172.467 62.8185 172.903 62.8127 173.33 62.8162V62.998C172.906 62.9957 172.472 63.0014 172.056 63.0151ZM203.758 62.3462L203.604 62.2502C203.822 61.8969 204.006 61.5115 204.125 61.1136L204.298 61.1662C204.175 61.5801 203.985 61.9792 203.758 62.3462ZM218.141 62.1999L218.051 62.0421C218.415 61.8351 218.781 61.6133 219.139 61.3835L219.237 61.5367C218.877 61.7677 218.508 61.9918 218.141 62.1999ZM200.64 62.1118C200.392 61.7334 200.202 61.3389 200.079 60.9398L200.252 60.8861C200.371 61.2691 200.553 61.6476 200.793 62.0124L200.642 62.113L200.64 62.1118ZM219.697 61.2337L219.595 61.0828C219.943 60.8484 220.292 60.6002 220.633 60.3441L220.741 60.4893C220.398 60.7466 220.046 60.997 219.697 61.2325V61.2337ZM204.426 60.622L204.247 60.5922C204.315 60.1783 204.317 59.7541 204.235 59.3539L204.413 59.3173C204.499 59.7404 204.498 60.1863 204.426 60.622ZM199.951 60.3944C199.884 59.9599 199.887 59.5083 200.008 59.0886L200.183 59.1378C200.07 59.5334 200.067 59.9576 200.131 60.3658L199.952 60.3944H199.951ZM221.179 60.1554L221.067 60.0125C221.397 59.7541 221.728 59.482 222.052 59.2041L222.171 59.3425C221.844 59.6226 221.511 59.897 221.179 60.1566V60.1554ZM222.584 58.9789L222.463 58.8428C222.775 58.5638 223.088 58.2711 223.396 57.9727L223.522 58.103C223.214 58.4037 222.898 58.6976 222.584 58.9777V58.9789ZM204.082 58.8462C203.927 58.4655 203.661 58.0961 203.359 57.8686L203.469 57.7245C203.797 57.9715 204.082 58.366 204.25 58.7765L204.082 58.8462ZM200.382 58.6518L200.224 58.5638C200.44 58.1728 200.756 57.848 201.138 57.6251L201.229 57.7828C200.876 57.9887 200.582 58.2894 200.382 58.6518ZM223.915 57.7165L223.786 57.5885C224.082 57.2912 224.377 56.9802 224.667 56.6657L224.801 56.7892C224.51 57.1059 224.212 57.4181 223.915 57.7177V57.7165ZM202.906 57.6148C202.534 57.4718 202.115 57.4581 201.711 57.5759L201.661 57.4009C202.103 57.2729 202.563 57.2877 202.973 57.4455L202.908 57.6148H202.906ZM225.171 56.3799L225.035 56.2587C225.313 55.9454 225.593 55.6195 225.866 55.2902L226.005 55.4068C225.731 55.7384 225.449 56.0654 225.17 56.3799H225.171ZM226.354 54.9803L226.213 54.866C226.476 54.539 226.739 54.1994 226.996 53.8575L227.141 53.9673C226.883 54.3103 226.618 54.651 226.354 54.9803ZM227.47 53.5259L227.324 53.4184C227.573 53.0788 227.82 52.7278 228.061 52.3768L228.211 52.4797C227.969 52.8318 227.72 53.184 227.47 53.5259ZM228.519 52.0246L228.368 51.924C228.601 51.5752 228.835 51.2151 229.062 50.8537L229.216 50.9509C228.988 51.3134 228.754 51.6758 228.519 52.0257V52.0246ZM229.505 50.4833L229.35 50.3884C229.57 50.0293 229.79 49.6611 230.003 49.2918L230.161 49.3833C229.946 49.7538 229.726 50.1231 229.505 50.4833ZM230.432 48.9076L230.275 48.8184C230.481 48.4514 230.688 48.0764 230.889 47.7002L231.049 47.7859C230.848 48.1621 230.64 48.5395 230.433 48.9076H230.432ZM231.303 47.3011L231.142 47.2165C231.336 46.8438 231.53 46.4607 231.719 46.08L231.882 46.16C231.694 46.543 231.498 46.9261 231.304 47.3L231.303 47.3011ZM232.122 45.6672L231.959 45.5883C232.141 45.2087 232.324 44.8188 232.5 44.4323L232.665 44.5078C232.488 44.8965 232.306 45.2864 232.122 45.6683V45.6672ZM232.89 44.0069L232.725 43.9326C232.896 43.5484 233.066 43.154 233.231 42.7606L233.398 42.8315C233.233 43.226 233.061 43.6216 232.89 44.0069ZM233.609 42.3238L233.441 42.2552C233.602 41.863 233.761 41.464 233.914 41.0684L234.083 41.1347C233.929 41.5314 233.77 41.9316 233.609 42.325V42.3238Z" fill="#324D90"/>
<path d="M148.016 73.3776L148.01 73.1958C148.219 73.1889 148.43 73.1741 148.638 73.1523L148.658 73.333C148.446 73.3559 148.231 73.3707 148.017 73.3776H148.016Z" fill="#324D90"/>
<path d="M146.739 73.2995C146.323 73.2034 145.913 73.0617 145.522 72.8776L145.599 72.7129C145.98 72.8924 146.377 73.0296 146.78 73.1223L146.739 73.2995ZM145.033 72.6203C144.662 72.403 144.313 72.1469 143.994 71.8588L144.116 71.7239C144.425 72.004 144.764 72.2521 145.124 72.4636L145.033 72.6203ZM143.602 71.4689C143.308 71.151 143.054 70.8045 142.837 70.4318L142.993 70.3403C143.204 70.7016 143.451 71.0378 143.735 71.3454L143.602 71.4689ZM142.58 69.9413C142.398 69.5525 142.257 69.142 142.159 68.7224L142.336 68.6812C142.43 69.0883 142.568 69.4862 142.744 69.8635L142.58 69.9401V69.9413ZM142.057 68.1793C141.997 67.7516 141.981 67.3194 142.011 66.8906L142.193 66.9032C142.163 67.3194 142.178 67.7379 142.236 68.1541L142.057 68.1793Z" fill="#324D90"/>
<path d="M0 141.712C97.2191 141.329 198.781 141.326 296 141.712C198.781 142.099 97.2191 142.095 0 141.712Z" fill="#152E60"/>
</g>
</svg>
