<svg width="101" height="76" viewBox="0 0 101 76" fill="none" xmlns="http://www.w3.org/2000/svg">
<path d="M6.67432 41.7663C6.67432 64.8332 27.9915 68.062 52.0123 68.062C76.0331 68.062 93.6613 64.8332 93.6613 41.7663C93.6613 18.6994 74.1888 0 50.1677 0C26.1465 0 6.67432 18.6994 6.67432 41.7663Z" fill="#D4E3FF"/>
<path d="M50.9169 59.9438H1.09717V26.5911C1.09717 22.9184 4.07474 19.9408 7.74746 19.9408H50.9169V59.9438Z" fill="#00AA84"/>
<path opacity="0.42" d="M50.9172 41.2103V19.9411H7.74746C4.07474 19.9411 1.09717 22.9183 1.09717 26.5914V41.2107L50.9172 41.2103Z" fill="#084F93"/>
<path d="M50.917 25.0037V59.9441H98.608V50.9472C98.608 48.1733 96.3593 45.9247 93.5855 45.9247H78.4828L64.3952 25.0037H50.917Z" fill="#58DCB3"/>
<path d="M93.5855 45.925H90.5391C91.3035 49.2167 95.341 50.8165 98.4645 50.4C98.501 50.3963 98.5381 50.3899 98.5746 50.3855C98.2952 47.8764 96.1692 45.925 93.5855 45.925Z" fill="#FEF7E5"/>
<path d="M53.2148 27.6824V46.3764H74.7624L63.9885 27.6824H53.2148Z" fill="#D5E3FF"/>
<path d="M54.2393 47.0922H53.2148V59.9442H54.2393V47.0922Z" fill="#00AA84"/>
<path d="M63.9884 49.7755H56.2559V52.6379H63.9884V49.7755Z" fill="#00AA84"/>
<path d="M100.331 59.6327H0.00488281V62.822H100.331V59.6327Z" fill="#08873C"/>
<path opacity="0.5" d="M100.331 59.6327H0.00488281V60.3968H100.331V59.6327Z" fill="#B6FFD3"/>
<path d="M89.259 62.8219C89.2593 62.7945 89.261 62.7672 89.261 62.7398C89.261 56.6317 84.3095 51.6801 78.2013 51.6801C72.0932 51.6801 67.1416 56.6317 67.1416 62.7398C67.1416 62.7675 67.1433 62.7945 67.1436 62.8219H89.259Z" fill="#067232"/>
<path d="M84.6854 69.5138C88.2676 65.9316 88.2676 60.1237 84.6854 56.5415C81.1032 52.9593 75.2954 52.9593 71.7132 56.5415C68.131 60.1237 68.131 65.9316 71.7132 69.5138C75.2954 73.096 81.1032 73.096 84.6854 69.5138Z" fill="#080D1E"/>
<path d="M78.2013 68.5329C81.2419 68.5329 83.7069 66.068 83.7069 63.0274C83.7069 59.9868 81.2419 57.5219 78.2013 57.5219C75.1607 57.5219 72.6958 59.9868 72.6958 63.0274C72.6958 66.068 75.1607 68.5329 78.2013 68.5329Z" fill="#FEF7E5"/>
<path d="M29.8396 62.8219C29.8399 62.7945 29.8416 62.7672 29.8416 62.7398C29.8416 56.6317 24.89 51.6801 18.7819 51.6801C12.6737 51.6801 7.72217 56.6317 7.72217 62.7398C7.72217 62.7675 7.7242 62.7945 7.7242 62.8219H29.8396Z" fill="#067232"/>
<path d="M20.2645 72.0917C25.2642 71.2735 28.654 66.5572 27.8358 61.5576C27.0176 56.5579 22.3014 53.1681 17.3017 53.9863C12.3021 54.8045 8.91228 59.5207 9.73044 64.5204C10.5486 69.5201 15.2649 72.9098 20.2645 72.0917Z" fill="#080D1E"/>
<path d="M18.7824 68.5327C21.823 68.5327 24.2879 66.0678 24.2879 63.0272C24.2879 59.9866 21.823 57.5217 18.7824 57.5217C15.7418 57.5217 13.2769 59.9866 13.2769 63.0272C13.2769 66.0678 15.7418 68.5327 18.7824 68.5327Z" fill="#FEF7E5"/>
<mask id="mask0_2093_90849" style="mask-type:luminance" maskUnits="userSpaceOnUse" x="53" y="27" width="22" height="20">
<path d="M53.2148 27.6824V46.3764H74.7624L63.9885 27.6824H53.2148Z" fill="white"/>
</mask>
<g mask="url(#mask0_2093_90849)">
<path d="M59.92 40.7279C59.8349 40.7718 59.7467 41.1599 59.8018 41.2302C60.3385 41.9176 62.3649 44.9684 62.881 45.0981C63.4431 45.2397 68.0613 43.8109 68.9638 43.5288C69.0469 43.5028 69.0939 43.4143 69.0675 43.3363L68.8959 42.8296C68.8763 42.7718 68.8213 42.7354 68.7581 42.7394C68.342 42.7654 66.798 42.8603 66.0937 42.8873C65.3654 42.9154 64.1433 43.1748 63.7856 43.2535C63.7241 43.267 63.6647 43.241 63.6353 43.189L61.8038 39.9409C61.7673 39.8763 61.6843 39.8544 61.614 39.8905L59.92 40.7279Z" fill="#EAA16E"/>
<path d="M60.2872 37.3909C59.3573 37.7676 58.8368 38.7704 59.081 39.7436C59.3536 40.8299 59.9954 42.0726 60.7034 43.1049C61.4624 42.5242 62.3085 42.0865 63.2057 41.8895L61.4904 38.1847C61.2722 37.7132 60.8064 37.4058 60.2872 37.3909Z" fill="white"/>
<path d="M68.3166 42.7668C68.3166 42.7668 69.6373 41.9696 70.4385 42.382C71.2397 42.7945 71.3782 43.7024 71.2631 43.9423C71.1475 44.1821 71.0019 44.1186 70.9418 43.6585C70.8817 43.1988 70.6341 42.7837 70.1902 42.8881C69.7461 42.9928 69.5512 43.4508 69.5495 43.6916C69.5478 43.9325 68.1774 43.7484 68.3166 42.7668Z" fill="#EAA16E"/>
<path d="M57.9312 38.0089L59.0567 36.1903L60.7925 36.0417L60.2943 38.6656L57.9312 38.0089Z" fill="#FFCAA6"/>
<path d="M59.0566 36.1903L58.7026 36.7626C59.1904 37.2777 59.8602 37.4641 60.5381 37.3824L60.7928 36.0414L59.0566 36.1903Z" fill="#EAA16E"/>
<path d="M60.7502 37.6613C61.421 38.0532 61.9094 39.4438 62.3087 42.3052C62.7789 45.6742 63.7311 48.7991 63.7311 48.7991C63.7311 48.7991 59.7773 51.2754 55.3365 50.31C55.3365 50.31 54.5691 44.2586 55.8199 40.0045C56.4478 37.8677 58.8268 36.5385 60.7502 37.6613Z" fill="#00AA84"/>
<path opacity="0.5" d="M62.9644 46.7764C60.5019 47.8519 56.688 47.6462 55.1116 45.3824C55.0548 48.0833 55.3362 50.3096 55.3362 50.3096C59.7767 51.2754 63.7308 48.7991 63.7308 48.7991C63.7308 48.7991 63.4754 47.96 63.1637 46.6839C63.1008 46.719 63.0349 46.7508 62.9644 46.7764Z" fill="white"/>
<path d="M58.2561 33.8926C58.5727 34.38 58.626 35.1714 58.2268 35.4309C57.8272 35.6903 57.1259 35.3194 56.8094 34.832C56.4929 34.3445 56.5601 33.7389 56.9597 33.4795C57.359 33.2201 57.9396 33.4048 58.2561 33.8926Z" fill="#FFCAA6"/>
<path d="M62.7199 31.6668C62.7374 31.7161 63.3127 35.096 62.0852 36.3657C60.8577 37.6355 58.6986 36.919 58.1591 35.6395C57.6937 34.5349 57.5808 32.4447 58.4445 31.1558C59.3086 29.8668 61.8214 29.1328 62.7199 31.6668Z" fill="#FFCAA6"/>
<path d="M61.4247 32.6893C61.3808 33.2504 61.3369 33.8114 61.293 34.3728C61.2869 34.4529 61.2805 34.5326 61.2744 34.6123C61.2818 34.6022 61.2896 34.5924 61.297 34.5822C61.1751 34.6076 61.0535 34.6329 60.9316 34.6582C60.8924 34.6663 60.9089 34.7261 60.9481 34.718C61.07 34.6927 61.1917 34.6674 61.3136 34.642C61.3278 34.639 61.3352 34.6251 61.3362 34.612C61.3801 34.0509 61.424 33.4898 61.468 32.9284C61.474 32.8487 61.4805 32.7687 61.4865 32.689C61.4899 32.6494 61.4278 32.6498 61.4247 32.6893Z" fill="#EAA16E"/>
<path d="M60.5461 33.714C60.5603 33.8299 60.5059 33.9315 60.4252 33.9413C60.3441 33.9511 60.2671 33.8653 60.2532 33.7498C60.239 33.634 60.2934 33.5323 60.3742 33.5225C60.4549 33.5123 60.5319 33.5981 60.5461 33.714Z" fill="#010C39"/>
<path d="M62.3303 33.6858C62.3445 33.8017 62.2901 33.9033 62.2093 33.9131C62.1283 33.9229 62.0516 33.8371 62.0374 33.7216C62.0232 33.6058 62.0776 33.5041 62.1583 33.4943C62.2391 33.4841 62.3161 33.5699 62.3303 33.6858Z" fill="#010C39"/>
<path d="M57.2854 34.1424C57.2904 34.1427 57.2955 34.143 57.3009 34.1437C57.3036 34.144 57.3066 34.1444 57.3097 34.1447C57.3124 34.1451 57.3039 34.1437 57.3127 34.1451C57.3212 34.1464 57.3296 34.1478 57.3377 34.1495C57.3816 34.1579 57.4249 34.1711 57.4654 34.1907C57.5829 34.2474 57.6573 34.3521 57.6654 34.4839C57.6721 34.5946 57.6387 34.7453 57.5046 34.7419C57.459 34.7409 57.4117 34.7196 57.3766 34.6879C57.3387 34.6534 57.3033 34.598 57.31 34.5443C57.3174 34.4852 57.381 34.4572 57.4337 34.4531C57.5059 34.4474 57.5769 34.4741 57.6231 34.5305C57.6485 34.5612 57.692 34.5173 57.6671 34.4866C57.5782 34.3778 57.3644 34.3437 57.2742 34.4703C57.1878 34.5916 57.3141 34.7487 57.4296 34.7899C57.4867 34.8102 57.5519 34.8088 57.6059 34.7801C57.6674 34.7473 57.7035 34.6821 57.7181 34.6159C57.7542 34.4501 57.7005 34.2738 57.5603 34.1741C57.4826 34.1191 57.381 34.0846 57.2857 34.0799C57.2455 34.0782 57.2458 34.1403 57.2854 34.1424Z" fill="#EAA16E"/>
<path d="M62.6496 34.8729C62.652 35.0769 62.4493 35.2448 62.1966 35.2478C61.944 35.2509 61.7372 35.088 61.7349 34.884C61.7325 34.68 61.9352 34.5121 62.1879 34.5091C62.4402 34.5057 62.6469 34.6689 62.6496 34.8729Z" fill="#F4826C"/>
<path d="M59.8607 34.4998C59.8637 34.7525 59.6127 34.9602 59.2999 34.964C58.9871 34.9677 58.7311 34.766 58.7281 34.5134C58.725 34.2607 58.976 34.053 59.2888 34.0492C59.6016 34.0455 59.8576 34.2472 59.8607 34.4998Z" fill="#F4826C"/>
<path d="M59.528 32.8274C59.5493 32.9321 59.7473 32.8774 59.9949 32.8271C60.2425 32.7768 60.4458 32.7497 60.4245 32.645C60.4032 32.5403 60.1854 32.4964 59.9378 32.5467C59.6902 32.5971 59.5068 32.7227 59.528 32.8274Z" fill="#010C39"/>
<path d="M61.72 32.775C61.7008 32.8801 61.9048 32.9031 62.153 32.9487C62.4017 32.9943 62.6003 33.0449 62.6195 32.9399C62.6388 32.8348 62.453 32.7125 62.2044 32.6673C61.9561 32.6213 61.7393 32.6696 61.72 32.775Z" fill="#010C39"/>
<path d="M58.5898 35.0434C58.5898 35.0434 59.8603 34.08 61.033 34.0655C61.917 34.0547 62.722 34.5735 62.7537 35.0325C62.7993 35.6932 61.9369 37.1319 60.5909 37.0559C58.7321 36.9508 58.5898 35.0434 58.5898 35.0434Z" fill="white"/>
<path d="M61.9094 35.2542C61.9094 35.2542 60.5565 35.4005 59.5195 34.9587C59.5195 34.9587 60.0245 35.4431 60.5869 35.5312C61.1493 35.6194 61.9094 35.2542 61.9094 35.2542Z" fill="#82D9E0"/>
<path d="M61.9137 36.019C61.9137 36.019 60.5609 36.1653 59.5239 35.7234C59.5239 35.7234 60.0289 36.2078 60.5913 36.296C61.1537 36.3838 61.9137 36.019 61.9137 36.019Z" fill="#82D9E0"/>
<path d="M58.5899 35.0435L57.6191 33.4239L57.6809 33.1827C57.6809 33.1827 59.0294 34.8692 59.0101 34.8692C58.9909 34.8696 58.5899 35.0435 58.5899 35.0435Z" fill="white"/>
<path d="M58.108 35.4863L58.7796 35.3944L58.8785 35.7417L58.2232 35.7744C58.2232 35.7744 58.1033 35.6474 58.108 35.4863Z" fill="white"/>
<path d="M58.6006 41.1264C58.504 41.176 58.4037 41.6172 58.4662 41.6972C59.0762 42.4782 61.3789 45.9452 61.9656 46.0928C62.6043 46.2536 67.8525 44.6298 68.8777 44.3093C68.9719 44.2799 69.0253 44.1792 68.9952 44.0904L68.8003 43.5145C68.778 43.449 68.7155 43.4077 68.6436 43.4121C68.1707 43.4415 66.4162 43.5496 65.6157 43.5803C64.7881 43.6121 63.3992 43.907 62.9928 43.9965C62.9229 44.012 62.8553 43.9823 62.8219 43.9232L60.7408 40.2322C60.6996 40.1589 60.605 40.1339 60.525 40.1751L58.6006 41.1264Z" fill="#FFCAA6"/>
<path d="M61.3925 40.7687C61.1814 39.8847 60.9611 38.9048 60.4757 38.1292C60.3085 37.8624 60.042 37.6726 59.7397 37.5847C59.1587 37.4162 58.5162 37.5807 58.1274 38.0441C57.6883 38.5677 57.5069 39.2733 57.6873 39.9921C57.9971 41.2267 58.7263 42.639 59.5309 43.8114C60.3933 43.1518 61.355 42.6542 62.3744 42.4302L61.3925 40.7687Z" fill="white"/>
<path d="M68.1685 43.4412C68.1685 43.4412 69.8166 42.4086 70.7273 42.8771C71.6379 43.3459 71.648 44.5042 71.5166 44.7768C71.3853 45.0494 71.2197 44.9771 71.1515 44.4545C71.0833 43.932 70.8019 43.4601 70.2973 43.579C69.7926 43.6979 69.571 44.2184 69.569 44.492C69.5673 44.766 68.0101 44.5565 68.1685 43.4412Z" fill="#FFCAA6"/>
<path d="M57.4658 33.3677C57.4658 33.3677 57.7498 33.4028 57.9822 33.6916C57.9822 33.6916 59.2432 32.8168 59.1746 31.3744C59.1746 31.3744 59.3675 32.1861 60.8068 31.8061L60.6376 31.342C60.6376 31.342 61.6894 32.4601 63.2274 32.1882C63.2274 32.1882 62.846 29.6045 60.6251 29.7011C58.4045 29.7973 57.0469 32.0902 57.4658 33.3677Z" fill="#010C39"/>
<path d="M58.3916 31.8633C58.3916 31.8633 61.1966 33.6259 64.0944 32.216C65.7097 31.4299 62.4524 30.6534 62.4524 30.6534C62.4524 30.6534 59.8819 31.6083 58.3916 31.8633Z" fill="#084F93"/>
<path d="M57.4047 32.6239C59.5493 32.2432 61.6608 31.5757 62.8991 30.7863C62.8991 30.7863 62.229 28.6333 59.22 29.602C56.8562 30.3634 57.4047 32.6239 57.4047 32.6239Z" fill="#1364CD"/>
</g>
<mask id="mask1_2093_90849" style="mask-type:luminance" maskUnits="userSpaceOnUse" x="53" y="27" width="22" height="20">
<path d="M53.2148 27.6824V46.3764H74.7624L63.9885 27.6824H53.2148Z" fill="white"/>
</mask>
<g mask="url(#mask1_2093_90849)">
<path d="M70.4592 48.009C70.0147 48.009 69.6543 47.6486 69.6543 47.204V44.163C69.6543 43.7184 70.0147 43.358 70.4592 43.358C70.9038 43.358 71.2642 43.7184 71.2642 44.163V47.204C71.2642 47.6486 70.9038 48.009 70.4592 48.009Z" fill="#080D1E"/>
</g>
<path d="M72.6289 47.6712V42.1647C73.8635 42.1647 74.8647 43.1655 74.8647 44.4001V45.4354C74.8647 46.6704 73.8635 47.6712 72.6289 47.6712Z" fill="#00AA84"/>
<path d="M45.3664 13.6741C45.3664 13.6741 40.9961 11.9838 43.0721 9.37918C44.4486 7.65209 48.3487 10.1757 48.3487 10.1757C48.3487 10.1757 47.087 3.81386 50.5855 3.41021C54.0839 3.00656 54.6 9.71696 54.6 9.71696C54.6 9.71696 55.9765 6.10369 59.1881 6.96403C62.3998 7.82436 59.6468 12.2405 59.6468 12.2405C59.6468 12.2405 67.6763 9.31567 68.4792 13.6744H45.3664V13.6741Z" fill="white"/>
<path d="M37.0035 18.2993C37.0035 18.2993 39.9655 17.1536 38.5583 15.388C37.6254 14.2172 34.9819 15.9278 34.9819 15.9278C34.9819 15.9278 35.8371 11.6156 33.4656 11.342C31.0943 11.0684 30.7444 15.6167 30.7444 15.6167C30.7444 15.6167 29.8114 13.1674 27.6344 13.7507C25.4574 14.3338 27.3233 17.3272 27.3233 17.3272C27.3233 17.3272 21.8809 15.3447 21.3364 18.299H37.0035V18.2993Z" fill="#8CCAE5"/>
<path d="M67.9988 22.9039C67.9988 22.9039 65.0365 21.7585 66.4437 19.9926C67.3766 18.8218 70.0201 20.5324 70.0201 20.5324C70.0201 20.5324 69.1648 16.2202 71.5361 15.9466C73.9073 15.673 74.2573 20.2213 74.2573 20.2213C74.2573 20.2213 75.1902 17.7723 77.3672 18.3554C79.5443 18.9384 77.6783 21.9318 77.6783 21.9318C77.6783 21.9318 83.1207 19.9494 83.6652 22.9036H67.9988V22.9039Z" fill="#8CCAE5"/>
</svg>
