<svg width="72" height="73" viewBox="0 0 72 73" fill="none" xmlns="http://www.w3.org/2000/svg">
<path d="M0.669434 41.7663C0.669434 64.8332 18.0683 68.062 37.6743 68.062C57.2803 68.062 71.6682 64.8332 71.6682 41.7663C71.6682 18.6994 55.7748 0 36.1688 0C16.5628 0 0.669434 18.6994 0.669434 41.7663Z" fill="#D5E3FF"/>
<path d="M50.8877 32.3341H45.9844L45.8621 51.0318C45.8415 53.5081 44.5529 55.781 42.49 56.9808C39.5686 58.6795 35.8979 57.7939 33.9748 54.9268L31.5881 51.3679V45.2567H18.2186L9.68213 54.3407L11.5771 62.9103H27.4127H39.3297H54.6523L59.1036 58.0175C60.8857 49.7083 50.8877 32.3341 50.8877 32.3341Z" fill="#00AA84"/>
<path d="M15.5047 48.1445L9.68164 54.3412L11.5766 62.9107H27.4122H33.115C28.125 60.1267 23.7942 56.3304 19.0774 52.6617C17.5601 51.4477 16.1414 49.9419 15.5047 48.1445Z" fill="#107A3B"/>
<path d="M55.3919 41.4259C56.5289 49.4148 53.7263 58.0324 46.9858 62.9103H54.6512L59.1025 58.0175C60.0294 53.6983 57.7726 46.9304 55.3919 41.4259Z" fill="#107A3B"/>
<path d="M9.7123 62.9106C7.92272 62.9106 6.64894 61.0649 7.22756 59.2865C8.55032 55.2203 11.8792 49.1854 19.9863 49.1854C28.1651 49.1854 31.22 55.327 32.3465 59.3936C32.8339 61.1534 31.5747 62.9106 29.8293 62.9106H9.7123Z" fill="#58DCB3"/>
<path d="M42.4893 62.9105C42.4893 62.9105 43.6681 51.1263 54.2786 51.1263C61.9439 51.1263 64.4232 57.277 65.2089 60.691C65.4734 61.8404 64.4503 62.9102 63.0819 62.9102H42.4893V62.9105Z" fill="#00AA84"/>
<path d="M64.1692 57.5837C62.7545 54.4619 59.9239 51.1263 54.2789 51.1263C53.4388 51.1263 52.6585 51.2006 51.9326 51.3367C54.4275 55.4675 59.3196 57.3557 64.1692 57.5837Z" fill="#58DCB3"/>
<path d="M20.2889 72.1997C25.1742 72.1997 29.1344 68.0407 29.1344 62.9104C29.1344 57.78 25.1742 53.621 20.2889 53.621C15.4036 53.621 11.4434 57.78 11.4434 62.9104C11.4434 68.0407 15.4036 72.1997 20.2889 72.1997Z" fill="#080D1E"/>
<path d="M20.2888 68.4859C23.221 68.4859 25.5981 65.9897 25.5981 62.9105C25.5981 59.8312 23.221 57.335 20.2888 57.335C17.3565 57.335 14.9795 59.8312 14.9795 62.9105C14.9795 65.9897 17.3565 68.4859 20.2888 68.4859Z" fill="#FEF7E5"/>
<path d="M54.6742 72.1997C59.5594 72.1997 63.5197 68.0407 63.5197 62.9104C63.5197 57.78 59.5594 53.621 54.6742 53.621C49.7889 53.621 45.8286 57.78 45.8286 62.9104C45.8286 68.0407 49.7889 72.1997 54.6742 72.1997Z" fill="#080D1E"/>
<path d="M54.674 68.4859C57.6063 68.4859 59.9833 65.9897 59.9833 62.9105C59.9833 59.8312 57.6063 57.335 54.674 57.335C51.7418 57.335 49.3647 59.8312 49.3647 62.9105C49.3647 65.9897 51.7418 68.4859 54.674 68.4859Z" fill="#FEF7E5"/>
<path d="M17.9222 45.9393H31.9051C32.504 45.9393 32.9894 45.4539 32.9894 44.855V44.8013C32.9894 44.2024 32.504 43.717 31.9051 43.717H17.9222C17.3233 43.717 16.8379 44.2024 16.8379 44.8013V44.855C16.8379 45.4539 17.3233 45.9393 17.9222 45.9393Z" fill="#080D1E"/>
<path d="M54.1424 32.6074H45.9795V27.1725H54.6484C55.6732 27.1725 56.4251 28.1838 56.1765 29.2279L55.6702 31.3542C55.4952 32.0906 54.8652 32.6074 54.1424 32.6074Z" fill="#00AA84"/>
<path d="M55.6704 31.3542L56.1768 29.2279C56.4254 28.1838 55.6735 27.1725 54.6486 27.1725H53.5255C53.133 29.0019 53.3505 31.0182 54.2183 32.6007C54.9084 32.5655 55.5012 32.0643 55.6704 31.3542Z" fill="#FEF7E5"/>
<path d="M32.5432 26.566C32.4446 26.6423 32.424 27.1598 32.5108 27.2368C33.3607 27.989 36.6767 31.4121 37.3678 31.4561C38.1207 31.5037 43.6911 28.5808 44.7788 28.0059C44.8787 27.9529 44.9179 27.8286 44.8656 27.735L44.5258 27.1274C44.4869 27.0581 44.4079 27.0247 44.3278 27.0446C43.8015 27.1763 41.8485 27.6641 40.9537 27.8658C40.0285 28.0742 38.526 28.6957 38.0873 28.8815C38.0116 28.9136 37.9295 28.8943 37.8795 28.8345L34.7662 25.1125C34.7044 25.0385 34.5929 25.0301 34.5112 25.0932L32.5432 26.566Z" fill="#EAA16E"/>
<path d="M32.2219 22.2086C31.1211 22.9109 30.6931 24.3174 31.2363 25.5047C31.8426 26.8302 32.9587 28.2681 34.1091 29.4206C34.9425 28.4978 35.9217 27.7371 37.0225 27.2723L33.9497 22.9389C33.5589 22.3873 32.8897 22.1049 32.2219 22.2086Z" fill="white"/>
<path d="M43.8027 27.1751C43.8027 27.1751 45.5092 25.7889 46.7479 26.0969C47.9865 26.405 48.3902 27.5308 48.2797 27.8703C48.1693 28.2098 47.9463 28.1682 47.7561 27.5953C47.566 27.0224 47.1181 26.5583 46.5074 26.8147C45.8963 27.0711 45.7217 27.7125 45.774 28.0216C45.8261 28.3307 43.826 28.4722 43.8027 27.1751Z" fill="#EAA16E"/>
<path d="M30.0107 22.6016L31.8713 20.5323L34.129 20.7425L32.8856 23.9882L30.0107 22.6016Z" fill="#FFCAA6"/>
<path d="M31.8715 20.5323L31.2861 21.1836C31.7918 21.9558 32.6069 22.3493 33.4939 22.401L34.1293 20.7421L31.8715 20.5323Z" fill="#EAA16E"/>
<path d="M41.1149 54.7442L39.8303 57.588C39.8303 57.588 41.9857 58.9053 42.6724 60.0737C42.8484 60.3733 42.5325 60.7375 42.1897 60.6311C40.5062 60.1082 36.2788 58.7581 36.344 58.4071C36.4254 57.9693 38.1055 54.4037 38.1055 54.4037L41.1149 54.7442Z" fill="#FDB602"/>
<path d="M40.153 56.8732L41.1147 54.7442L38.1051 54.4037C38.1051 54.4037 37.8987 54.8418 37.6274 55.4289C38.1926 56.3969 39.1096 56.9306 40.153 56.8732Z" fill="#CE8E00"/>
<path d="M36.4666 58.0497C36.4001 58.2186 36.3555 58.3453 36.344 58.4074C36.2788 58.758 40.5058 60.1081 42.1897 60.6314C42.4136 60.7009 42.6251 60.5692 42.6964 60.3865C41.5742 60.2237 38.1515 59.3599 36.4666 58.0497Z" fill="#24263F"/>
<path d="M39.4366 57.9881C39.4302 58.1263 39.6707 58.0405 39.9781 58.0412C40.2858 58.0418 40.5439 58.1287 40.5503 57.9905C40.5567 57.8524 40.3129 57.7399 40.0051 57.7392C39.6978 57.7389 39.4431 57.85 39.4366 57.9881Z" fill="#24263F"/>
<path d="M40.0812 58.4217C40.0748 58.5599 40.3153 58.4741 40.6226 58.4748C40.9304 58.4754 41.1884 58.5623 41.1949 58.4241C41.2013 58.2859 40.9574 58.1735 40.6497 58.1728C40.3423 58.1725 40.0876 58.2839 40.0812 58.4217Z" fill="#24263F"/>
<path d="M40.6891 58.9561C40.6827 59.0943 40.9232 59.0085 41.2309 59.0091C41.5386 59.0098 41.7967 59.0966 41.8031 58.9585C41.8095 58.8203 41.5656 58.7078 41.2579 58.7072C40.9502 58.7068 40.6955 58.8183 40.6891 58.9561Z" fill="#24263F"/>
<path d="M25.35 37.9252C25.35 37.9252 24.1039 43.0467 28.0978 44.3552C32.0918 45.6638 36.7465 43.5874 38.3324 45.756C40.6458 48.92 36.7542 55.7139 36.7542 55.7139L41.4275 56.1456C41.4275 56.1456 46.1318 45.454 41.8737 41.3331C38.4391 38.0093 32.1884 37.2233 32.1884 37.2233L25.35 37.9252Z" fill="#1364CD"/>
<path d="M35.2107 37.8759C33.4802 37.3871 32.1882 37.2236 32.1882 37.2236L25.3497 37.9252C25.3497 37.9252 25.3143 38.0732 25.2744 38.3211C26.936 40.3637 34.9489 40.5961 35.2107 37.8759Z" fill="#084F93"/>
<path d="M33.7011 22.8068C34.4699 23.4631 34.7745 25.3568 34.6256 29.1136C34.4503 33.5365 34.9488 37.7585 34.9488 37.7585C34.9488 37.7585 29.3139 40.0179 23.8496 37.7568C23.8496 37.7568 24.2627 29.8297 26.8461 24.67C28.1439 22.0786 31.497 20.925 33.7011 22.8068Z" fill="#00AA84"/>
<path opacity="0.5" d="M34.4345 34.9913C31.0327 35.8003 26.196 34.6576 24.6989 31.3943C24.0031 34.84 23.8501 37.7564 23.8501 37.7564C29.3144 40.0176 34.9493 37.7581 34.9493 37.7581C34.9493 37.7581 34.8156 36.6245 34.7112 34.9187C34.622 34.9495 34.5305 34.9748 34.4345 34.9913Z" fill="white"/>
<path d="M31.3762 17.4044C31.6691 18.102 31.5549 19.1278 30.9837 19.368C30.4122 19.6081 29.5998 18.9714 29.307 18.2739C29.0141 17.5764 29.2397 16.8164 29.8113 16.5765C30.3825 16.3364 31.083 16.7073 31.3762 17.4044Z" fill="#FFCAA6"/>
<path d="M37.6066 15.5842C37.6178 15.6514 37.5749 20.1128 35.7096 21.4559C33.8444 22.7989 31.2448 21.3832 30.8493 19.62C30.5078 18.0983 30.8456 15.395 32.2494 13.9435C33.6529 12.4921 37.0402 12.1313 37.6066 15.5842Z" fill="#FFCAA6"/>
<path d="M35.7128 16.5912C35.5266 17.3009 35.3409 18.0106 35.1547 18.72C35.1287 18.8196 35.1024 18.9196 35.0764 19.0192C35.0892 19.0094 35.1024 18.9993 35.1152 18.9895C34.9534 18.9939 34.7916 18.9983 34.6298 19.0027C34.5778 19.004 34.5778 19.0848 34.6298 19.0834C34.7916 19.079 34.9534 19.0746 35.1152 19.0702C35.1328 19.0699 35.1497 19.0581 35.1541 19.0405C35.3402 18.3308 35.526 17.6212 35.7121 16.9118C35.7381 16.8122 35.7645 16.7122 35.7905 16.6125C35.804 16.5622 35.7259 16.5409 35.7128 16.5912Z" fill="#EAA16E"/>
<path d="M34.3499 17.7041C34.3414 17.8554 34.2485 17.9733 34.1425 17.9675C34.0364 17.9618 33.9577 17.8338 33.9665 17.6824C33.9753 17.5311 34.0678 17.4132 34.1739 17.419C34.28 17.4247 34.3587 17.5524 34.3499 17.7041Z" fill="#010C39"/>
<path d="M36.5735 17.9783C36.5651 18.1297 36.4722 18.2479 36.3661 18.2418C36.26 18.2357 36.1813 18.108 36.1901 17.9567C36.1989 17.8054 36.2915 17.6875 36.3975 17.6936C36.5033 17.6993 36.582 17.827 36.5735 17.9783Z" fill="#010C39"/>
<path d="M30.0722 17.4996C30.1549 17.5188 30.2279 17.5553 30.2985 17.606C30.4394 17.7073 30.5056 17.8671 30.4819 18.039C30.4698 18.1262 30.4421 18.2251 30.3711 18.2832C30.3225 18.3231 30.2617 18.3312 30.2043 18.3153C30.1448 18.2988 30.0914 18.2579 30.057 18.2065C30.0208 18.1528 29.9918 18.0731 30.0192 18.01C30.0492 17.9404 30.1377 17.9252 30.2053 17.934C30.2931 17.9451 30.3745 17.9951 30.4177 18.0731C30.4431 18.1187 30.5127 18.0778 30.4873 18.0322C30.3998 17.8745 30.1502 17.7823 29.9985 17.9073C29.8482 18.0312 29.9604 18.266 30.0935 18.3528C30.1603 18.3964 30.2445 18.416 30.3228 18.3964C30.4103 18.3748 30.4758 18.3052 30.5127 18.2255C30.6059 18.0225 30.5829 17.7728 30.4252 17.6097C30.3387 17.5202 30.2161 17.4502 30.0938 17.4219C30.0428 17.4101 30.0212 17.4877 30.0722 17.4996Z" fill="#EAA16E"/>
<path d="M36.7762 19.6742C36.7323 19.936 36.434 20.1042 36.1097 20.0499C35.7855 19.9955 35.5585 19.7391 35.602 19.4773C35.6459 19.2155 35.9442 19.0473 36.2685 19.1017C36.5931 19.1561 36.8201 19.4121 36.7762 19.6742Z" fill="#F4826C"/>
<path d="M33.2908 18.5526C33.2364 18.8769 32.8672 19.0849 32.4656 19.0177C32.0643 18.9505 31.7829 18.633 31.8373 18.309C31.8917 17.9848 32.2612 17.7767 32.6625 17.8439C33.0638 17.9111 33.3452 18.2287 33.2908 18.5526Z" fill="#F4826C"/>
<path d="M33.251 16.3344C33.254 16.4736 33.5202 16.4489 33.8489 16.4415C34.1775 16.4341 34.4444 16.4462 34.441 16.3074C34.438 16.1682 34.1688 16.0618 33.8401 16.0693C33.5114 16.0764 33.2476 16.1953 33.251 16.3344Z" fill="#010C39"/>
<path d="M36.07 16.7726C36.021 16.9026 36.2771 16.9793 36.5848 17.0948C36.8925 17.2103 37.1354 17.3215 37.1843 17.1911C37.2333 17.061 37.0236 16.8617 36.7158 16.7459C36.4078 16.6307 36.119 16.6425 36.07 16.7726Z" fill="#010C39"/>
<path d="M31.5381 18.9558C31.5381 18.9558 33.3875 18.015 34.8926 18.2674C36.0269 18.4575 36.9386 19.3077 36.8731 19.9026C36.7788 20.7592 35.3429 22.4028 33.6364 21.9948C31.2801 21.4314 31.5381 18.9558 31.5381 18.9558Z" fill="white"/>
<path d="M35.7405 19.992C35.7405 19.992 33.9742 19.8673 32.748 19.0621C32.748 19.0621 33.2831 19.7988 33.9833 20.0413C34.6829 20.2842 35.7405 19.992 35.7405 19.992Z" fill="#82D9E0"/>
<path d="M35.5696 20.9717C35.5696 20.9717 33.8033 20.8471 32.5771 20.0418C32.5771 20.0418 33.1122 20.7785 33.8124 21.021C34.512 21.2636 35.5696 20.9717 35.5696 20.9717Z" fill="#82D9E0"/>
<path d="M31.5382 18.9555L30.6685 16.6572L30.8032 16.3627C30.8032 16.3627 32.1412 18.8336 32.1162 18.8295C32.0912 18.8254 31.5382 18.9555 31.5382 18.9555Z" fill="white"/>
<path d="M30.8186 19.4122L31.6999 19.4493L31.7465 19.9168L30.8997 19.8074C30.8997 19.8074 30.7757 19.6175 30.8186 19.4122Z" fill="white"/>
<path d="M30.9493 27.1516C30.8371 27.2384 30.8135 27.8261 30.9125 27.9139C31.8782 28.7685 35.6465 32.6588 36.4318 32.7084C37.2875 32.7625 43.6172 29.4411 44.8531 28.7878C44.967 28.7277 45.0112 28.5865 44.9518 28.4797L44.5657 27.7893C44.5218 27.7106 44.4316 27.6728 44.3411 27.6954C43.7428 27.8454 41.5236 28.3993 40.5069 28.6284C39.4557 28.8651 37.7482 29.5718 37.2496 29.7829C37.1638 29.8194 37.0703 29.7974 37.0138 29.7295L33.4759 25.5001C33.4056 25.416 33.279 25.4066 33.1864 25.4782L30.9493 27.1516Z" fill="#FFCAA6"/>
<path d="M34.4371 26.0321C33.9571 24.9512 33.443 23.7497 32.6384 22.8725C32.3614 22.5705 31.9753 22.3908 31.5672 22.3503C30.7839 22.2726 30.0009 22.635 29.6135 23.3204C29.1757 24.0942 29.1109 25.0404 29.5122 25.9176C30.2009 27.4238 31.4693 29.058 32.7769 30.3676C33.724 29.3191 34.8363 28.4544 36.0875 27.9261L34.4371 26.0321Z" fill="white"/>
<path d="M43.7441 27.8441C43.7441 27.8441 45.6834 26.2687 47.0909 26.6186C48.4984 26.9685 48.9572 28.2481 48.8315 28.6338C48.7058 29.0196 48.4528 28.9726 48.2367 28.3214C48.0205 27.6701 47.5118 27.1428 46.8173 27.4343C46.1231 27.7258 45.9245 28.4544 45.984 28.8057C46.0434 29.157 43.7708 29.3178 43.7441 27.8441Z" fill="#FFCAA6"/>
<path d="M30.4849 16.5512C30.4849 16.5512 30.8406 16.662 31.0717 17.0849C31.0717 17.0849 32.8883 16.2553 33.1335 14.3924C33.1335 14.3924 33.1933 15.4767 35.1241 15.322L35.0146 14.6883C35.0146 14.6883 36.1036 16.3631 38.1361 16.3695C38.1361 16.3695 38.2438 12.9727 35.3771 12.5839C32.5106 12.1951 30.2434 14.818 30.4849 16.5512Z" fill="#010C39"/>
<path d="M32.0181 14.8374C32.0181 14.8374 35.2037 17.742 39.2399 16.6047C41.4895 15.971 37.4976 14.225 37.4976 14.225C37.4976 14.225 33.9853 14.8547 32.0181 14.8374Z" fill="#38E57E"/>
<path d="M30.579 15.5838C33.4134 15.5909 36.2713 15.2234 38.0396 14.4982C38.0396 14.4982 37.6782 11.5861 33.6012 12.1327C30.398 12.5623 30.579 15.5838 30.579 15.5838Z" fill="#18B758"/>
<path d="M34.9608 12.0775C34.5612 12.0505 34.1103 12.0647 33.6016 12.1329C32.2673 12.3119 31.5215 12.9405 31.104 13.6131C32.5798 13.7691 34.1755 13.2972 34.9608 12.0775Z" fill="#38E57E"/>
<path d="M45.374 28.7307C45.374 29.5914 46.0715 30.2889 46.9322 30.2889C47.7929 30.2889 48.4904 29.5914 48.4904 28.7307C48.4904 27.87 47.7929 27.1725 46.9322 27.1725C46.0715 27.1725 45.374 27.87 45.374 28.7307Z" fill="#080D1E"/>
<path d="M45.9961 28.731C45.9961 29.2478 46.4153 29.667 46.9321 29.667C47.4489 29.667 47.8681 29.2478 47.8681 28.731C47.8681 28.2142 47.4489 27.795 46.9321 27.795C46.4153 27.795 45.9961 28.2138 45.9961 28.731Z" fill="#1B243F"/>
<path d="M24.3985 27.9963H8.12207V43.761H24.3985V27.9963Z" fill="#1364CD"/>
<path d="M8.11982 29.7439L8.11914 27.9986L24.3956 27.9935L24.3959 29.7385" fill="#48A8EF"/>
<path d="M20.3885 27.9936H19.2021V43.8596H20.3885V27.9936Z" fill="#080D1E"/>
<path d="M43.2072 23.9275C43.2072 23.9275 38.8369 22.2372 40.913 19.6325C42.2894 17.9054 46.1895 20.429 46.1895 20.429C46.1895 20.429 44.9275 14.0672 48.4263 13.6636C51.9247 13.2599 52.4408 19.9703 52.4408 19.9703C52.4408 19.9703 53.8173 16.357 57.029 17.2174C60.2406 18.0777 57.4877 22.4939 57.4877 22.4939C57.4877 22.4939 65.5171 19.5687 66.32 23.9278L43.2072 23.9275Z" fill="white"/>
<path d="M23.6635 23.9276C23.6635 23.9276 26.6258 22.7818 25.2186 21.0162C24.2857 19.8455 21.6422 21.556 21.6422 21.556C21.6422 21.556 22.4974 17.2438 20.1262 16.9702C17.755 16.6966 17.405 21.2449 17.405 21.2449C17.405 21.2449 16.4721 18.7956 14.295 19.379C12.118 19.962 13.9839 22.9554 13.9839 22.9554C13.9839 22.9554 8.54158 20.973 7.99707 23.9272H23.6635V23.9276Z" fill="#8CCAE5"/>
</svg>
