<svg width="81" height="64" viewBox="0 0 81 64" fill="none" xmlns="http://www.w3.org/2000/svg">
<path d="M5.4814 59.6763C4.72083 55.4096 5.93671 51.7658 6.24198 47.5822C6.53172 43.6166 5.28479 40.2842 4.59148 36.5107C3.97578 33.1523 4.18274 29.3476 4.95366 26.0464C6.00915 21.541 8.43057 17.3626 11.9282 14.8192C17.3764 10.8536 24.6355 11.3207 30.6528 14.051C33.1725 15.1929 35.6146 16.7137 38.3103 17.0978C42.2477 17.6584 46.0764 15.7379 49.9103 14.5908C55.1309 13.0232 60.8585 12.909 65.7841 15.3798C71.3668 18.1827 75.3352 24.51 74.8748 31.481C74.6626 34.6369 73.5916 37.7564 73.9693 40.8915C74.3574 44.0734 76.0285 46.7361 76.9133 49.7311C78.1188 53.8213 78.2327 59.832 76.2873 63.9845H6.79042C6.19024 62.6297 5.75045 61.1764 5.4814 59.6763Z" fill="#D5E3FF"/>
<path d="M35.713 27.2869H22.1055C18.7165 27.2869 15.9019 29.3371 15.3121 32.0363L9.82764 47.6807L10.583 47.7741L15.1517 48.3347L15.0947 63.9895H46.0972L46.656 36.4638C46.656 31.3978 41.7614 27.2921 35.7182 27.2921L35.713 27.2869Z" fill="#00AA84"/>
<path opacity="0.38" d="M21.3452 49.0926L22.6646 49.3418L23.8028 42.2151L23.1923 50.2657L21.8833 50.2449L21.2779 53.0063L20.4604 53.0323L21.3452 49.0926Z" fill="#353535"/>
<path d="M27.5488 26.6692H36.8413C37.3276 26.6692 37.726 27.0689 37.726 27.5568V31.0397C37.726 33.635 35.6254 35.7423 33.0384 35.7423H30.886C28.5577 35.7423 26.6641 33.8426 26.6641 31.5068V27.5568C26.6641 27.0689 27.0625 26.6692 27.5488 26.6692Z" fill="#107A3B"/>
<path opacity="0.32" d="M20.3308 51.1948L15.9536 53.1673L20.0514 53.0427" fill="#FF8E77"/>
<path d="M40.9908 57.3613L40.0957 54.8127C39.8784 54.1951 39.4489 53.676 38.8798 53.3542C37.9744 52.8455 36.9551 52.5964 35.9306 52.6171L20.4656 53.0272L21.3504 49.0875L10.5782 47.7639L8.09466 56.3543C7.40652 59.3649 9.50198 62.417 12.7771 63.1696C13.6929 63.3824 14.6035 63.3565 15.4417 63.1385L33.9542 60.7248C34.632 61.5709 35.7185 62.5831 36.8723 62.3391C38.8022 61.929 37.3017 58.8874 37.3017 58.8874C38.171 59.7334 37.8709 61.1608 37.8709 61.1608C37.8709 61.1608 38.083 61.6643 39.1385 61.0207C40.194 60.3771 39.2316 58.0465 39.2316 58.0465L39.511 58.7213C39.7542 59.3078 39.7801 59.967 39.5886 60.5743L39.5576 60.6729L39.7853 60.647C40.52 60.5691 41.146 60.0397 41.2857 59.313C41.4668 58.3683 40.996 57.3613 40.996 57.3613H40.9908Z" fill="#FFCAA6"/>
<path d="M36.9033 58.2748C37.1516 58.4461 37.3327 58.6486 37.4983 58.8769C37.6587 59.1053 37.7829 59.3545 37.876 59.6192C37.9588 59.8839 38.0209 60.159 38.0416 60.4341C38.0674 60.7092 38.0519 60.9843 38.026 61.2594C38.0157 61.3684 37.9226 61.4463 37.8139 61.4359C37.7053 61.4255 37.6276 61.3321 37.638 61.2231V61.2127C37.669 60.9636 37.6897 60.7144 37.6742 60.4653C37.6639 60.2161 37.6173 59.9722 37.5449 59.7334C37.4672 59.4998 37.3638 59.2714 37.2292 59.0638C37.0947 58.8614 36.9188 58.6641 36.7377 58.5292L36.7274 58.5188C36.6601 58.4721 36.6446 58.3786 36.6963 58.3112C36.7429 58.2437 36.836 58.2333 36.8981 58.2748H36.9033Z" fill="#EAA16E"/>
<path d="M39.1384 57.7142C39.3351 57.927 39.4696 58.1658 39.5782 58.4201C39.6817 58.6745 39.7541 58.9444 39.7852 59.2195C39.8111 59.4946 39.8111 59.7749 39.7697 60.0448C39.7334 60.3199 39.661 60.5846 39.5782 60.8493C39.5472 60.9531 39.4385 61.0102 39.3351 60.9739C39.2316 60.9428 39.1747 60.8337 39.2109 60.7299C39.2109 60.7299 39.2109 60.7247 39.2109 60.7196V60.7092C39.304 60.4756 39.3816 60.2368 39.4282 59.9877C39.4799 59.7437 39.4903 59.4894 39.4799 59.2402C39.4644 58.9911 39.4127 58.7471 39.3299 58.5084C39.2471 58.2748 39.1229 58.0412 38.9729 57.8647V57.8543C38.9263 57.8076 38.9315 57.735 38.978 57.6934C39.0246 57.6519 39.0919 57.6571 39.1333 57.7038L39.1384 57.7142Z" fill="#EAA16E"/>
<path opacity="0.46" d="M20.1085 53.0531L13.3306 53.6033L20.926 50.9561L20.4603 53.0323L20.1085 53.0531Z" fill="#EAA16E"/>
<path d="M43.557 5.58503C43.557 5.58503 43.5259 5.56426 43.5104 5.55388C43.4949 5.5435 43.4845 5.53312 43.469 5.52793C43.4794 5.46564 43.4949 5.40855 43.5 5.35145C43.5828 4.31333 42.8067 3.40498 41.7719 3.32712C41.2804 3.29078 40.8199 3.4465 40.4629 3.73198C40.0335 2.96897 39.2729 2.40319 38.3416 2.25267C37.1723 2.0658 36.0547 2.59005 35.4235 3.50879H32.2673C29.3234 3.50879 26.933 5.90165 26.933 8.86029V9.29111C26.4466 9.63369 26.1258 10.1995 26.1258 10.8431C26.1258 11.222 26.2397 11.575 26.4311 11.8708C25.7016 12.1304 25.1738 12.8259 25.1738 13.6512C25.1738 14.6997 26.0224 15.5458 27.0623 15.5458C28.0454 15.5458 28.8422 14.7879 28.9353 13.8277H29.52C29.6441 13.8277 29.758 13.8433 29.877 13.864C31.3981 12.6027 32.4433 9.93474 32.4433 9.93474C32.8003 11.2324 35.47 11.5334 38.0777 11.4919C38.4296 12.8103 39.6247 13.781 41.0476 13.781C42.7291 13.781 44.0951 12.4262 44.1209 10.7445C44.6538 10.2047 45.0108 9.47797 45.0781 8.65786C45.1764 7.38616 44.5504 6.23385 43.5518 5.59022L43.557 5.58503Z" fill="#010C39"/>
<path d="M40.2768 11.3831C37.2138 11.6166 32.9142 11.6062 32.4486 9.92969C32.4486 9.92969 31.4034 12.5977 29.8823 13.859C29.7633 13.8382 29.6495 13.8226 29.5253 13.8226H27.3263C27.1918 13.8226 27.0625 13.8382 26.9383 13.8642C25.8518 14.051 25.0239 14.9957 25.0239 16.1376V16.3712C25.0239 17.6481 26.0535 18.681 27.3263 18.681H28.0197V19.4129C28.0197 19.7711 28.0559 20.1188 28.1128 20.4562C28.0559 20.7313 28.0197 21.0168 28.0197 21.3075V30.1574C28.0197 32.3998 29.8305 34.2113 32.0605 34.2113H32.4641C34.6993 34.2113 36.505 32.3946 36.505 30.1574V25.761C39.4334 25.1329 41.6272 22.5273 41.6272 19.4025V11.7204C41.5806 11.7204 41.5393 11.7204 41.4927 11.7204C41.0529 11.6841 40.639 11.5647 40.2716 11.3779L40.2768 11.3831Z" fill="#FFCAA6"/>
<path opacity="0.32" d="M36.6029 25.6622C36.6029 27.3855 35.0869 28.7766 33.2243 28.7766C31.3617 28.7766 29.8457 27.3803 29.8457 25.6622C29.8457 23.9441 31.3565 22.5479 33.2243 22.5479C35.0921 22.5479 36.6029 23.9441 36.6029 25.6622Z" fill="#EAA16E"/>
<path d="M28.8525 18.2761H41.6323V22.3923C41.6323 24.837 39.6558 26.8198 37.2189 26.8198H33.7419C31.0463 26.8198 28.8525 24.6242 28.8525 21.9147V18.2761Z" fill="#010C39"/>
<path d="M26.664 17.2328C26.5657 17.2328 26.4726 17.1757 26.4312 17.0823C26.3743 16.9525 26.4312 16.7968 26.5606 16.7397L27.1297 16.4802L26.633 15.4265C26.5709 15.2967 26.6278 15.141 26.7572 15.0787C26.8865 15.0165 27.0417 15.0736 27.0987 15.2033L27.8178 16.7293L26.7727 17.2069C26.7365 17.2225 26.7003 17.2276 26.664 17.2276V17.2328Z" fill="#EAA16E"/>
<path d="M35.8787 16.5424C35.8787 16.7604 35.7028 16.9369 35.4855 16.9369C35.2682 16.9369 35.0923 16.7604 35.0923 16.5424C35.0923 16.3244 35.2682 16.1479 35.4855 16.1479C35.7028 16.1479 35.8787 16.3244 35.8787 16.5424Z" fill="#010C39"/>
<path d="M40.6336 16.5424C40.6336 16.7604 40.4577 16.9369 40.2404 16.9369C40.0231 16.9369 39.8472 16.7604 39.8472 16.5424C39.8472 16.3244 40.0231 16.1479 40.2404 16.1479C40.4577 16.1479 40.6336 16.3244 40.6336 16.5424Z" fill="#010C39"/>
<path d="M34.099 14.3882C34.2801 14.4194 34.4922 14.3519 34.6992 14.2948C34.9061 14.2325 35.1183 14.1754 35.3045 14.1339C35.4908 14.0924 35.7029 14.0457 35.9151 14.0093C36.1272 13.9678 36.3497 13.9366 36.4945 13.8276C36.6394 13.7238 36.6549 13.5162 36.4118 13.3242C36.1789 13.1373 35.6615 12.992 35.051 13.1321C34.4405 13.2774 34.0473 13.6356 33.9283 13.9055C33.8041 14.1858 33.9179 14.3623 34.0938 14.3934L34.099 14.3882Z" fill="#010C39"/>
<path d="M39.4023 13.807C39.5938 13.7551 39.8214 13.807 40.0439 13.8537C40.2664 13.9005 40.494 13.942 40.6907 13.9679C40.8873 13.9991 41.1149 14.0198 41.3426 14.0406C41.5702 14.0666 41.8031 14.0769 41.9686 14.1756C42.129 14.2742 42.1652 14.487 41.9324 14.7154C41.7099 14.9334 41.177 15.1306 40.5199 15.0424C39.868 14.949 39.4179 14.6064 39.273 14.3365C39.1178 14.0562 39.2213 13.8589 39.4023 13.8122V13.807Z" fill="#010C39"/>
<path d="M37.7 13.8225V15.7067C37.7 16.1894 38.088 16.5787 38.5692 16.5787C38.8486 16.5787 39.0763 16.8071 39.0763 17.0874V17.1653C39.0763 17.7777 38.5847 18.2708 37.9742 18.2708H37.1309" fill="#FFCAA6"/>
<path d="M37.9741 18.5355H37.1308C36.9859 18.5355 36.8721 18.4213 36.8721 18.276C36.8721 18.1306 36.9859 18.0165 37.1308 18.0165H37.9741C38.4398 18.0165 38.8175 17.6375 38.8175 17.1704V17.0925C38.8175 16.9576 38.7088 16.8434 38.5691 16.8434C37.9483 16.8434 37.4412 16.3347 37.4412 15.7118V13.8276C37.4412 13.6823 37.555 13.5681 37.6999 13.5681C37.8448 13.5681 37.9586 13.6823 37.9586 13.8276V15.7118C37.9586 16.0492 38.2328 16.3243 38.5691 16.3243C38.9934 16.3243 39.3349 16.6669 39.3349 17.0925V17.1704C39.3349 17.923 38.7244 18.5355 37.9741 18.5355Z" fill="#EAA16E"/>
<path d="M33.9124 18.6966C33.9124 18.6966 35.18 19.3973 36.4994 19.6464C37.8188 19.8956 36.6701 22.0653 34.6575 21.7953C32.6448 21.5254 32.8362 18.4163 33.9124 18.6966Z" fill="white"/>
<path d="M49.1808 40.689H70.9115C70.777 40.6579 70.6373 40.6423 70.4924 40.6423H47.1784C46.3454 40.6423 45.6159 41.2029 45.3934 42.0075L40.0228 61.5397H24.4026C24.118 61.5397 23.9473 61.8563 24.1077 62.095L25.3391 63.9533H41.3784L47.4009 42.0542C47.6234 41.2496 48.3529 40.689 49.1859 40.689H49.1808Z" fill="#B3BECC"/>
<path d="M72.4949 40.689H49.181C48.348 40.689 47.6184 41.2495 47.3959 42.0541L41.3734 63.9532L41.3579 63.9999H67.9987L74.2851 43.1026C74.6473 41.8984 73.747 40.689 72.5001 40.689H72.4949ZM55.4518 53.1723C55.4518 51.8384 56.5384 50.7483 57.8681 50.7483H58.2406C59.5703 50.7483 60.6568 51.8384 60.6568 53.1723V53.5461C60.6568 54.88 59.5703 55.9701 58.2406 55.9701H57.8681C56.5384 55.9701 55.4518 54.88 55.4518 53.5461V53.1723Z" fill="#D4D8DF"/>
<path d="M58.2406 51.2415H57.8681C56.8051 51.2415 55.9434 52.1059 55.9434 53.1724V53.5461C55.9434 54.6125 56.8051 55.477 57.8681 55.477H58.2406C59.3036 55.477 60.1653 54.6125 60.1653 53.5461V53.1724C60.1653 52.1059 59.3036 51.2415 58.2406 51.2415Z" fill="#D4D8DF"/>
<path d="M57.8679 55.9703H58.2404C59.5701 55.9703 60.6567 54.8802 60.6567 53.5463V53.1725C60.6567 51.8386 59.5701 50.7485 58.2404 50.7485H57.8679C56.5382 50.7485 55.4517 51.8386 55.4517 53.1725V53.5463C55.4517 54.8802 56.5382 55.9703 57.8679 55.9703ZM55.9432 53.1725C55.9432 52.1085 56.8072 51.2416 57.8679 51.2416H58.2404C59.3011 51.2416 60.1652 52.1085 60.1652 53.1725V53.5463C60.1652 54.6103 59.3011 55.4772 58.2404 55.4772H57.8679C56.8072 55.4772 55.9432 54.6103 55.9432 53.5463V53.1725Z" fill="white"/>
<path d="M51.3853 24.5877H52.1873C52.9375 24.5877 53.5429 25.2106 53.517 25.9684L53.4601 27.7332C53.4446 28.2679 54.081 28.5585 54.469 28.1952L57.9304 24.9511C58.1787 24.7227 58.4995 24.5929 58.8358 24.5929H63.3062C64.284 24.5929 65.0808 23.7936 65.0808 22.8126V10.8482C65.0808 9.86722 64.284 9.06787 63.3062 9.06787H51.3801C50.4023 9.06787 49.6055 9.86722 49.6055 10.8482V22.8126C49.6055 23.7988 50.4023 24.5929 51.3801 24.5929L51.3853 24.5877Z" fill="#1364CD"/>
<path d="M60.7862 21.2035H53.91C53.7289 21.2035 53.553 21.1256 53.434 20.9855C53.315 20.8505 53.2581 20.6637 53.284 20.4872L54.2205 13.4799C54.2619 13.1685 54.5309 12.9297 54.8465 12.9297H59.8549C60.1705 12.9297 60.4396 13.1633 60.481 13.4799L61.4175 20.4872C61.4433 20.6689 61.3864 20.8505 61.2674 20.9855C61.1484 21.1204 60.9725 21.2035 60.7914 21.2035H60.7862ZM54.8465 13.4539C54.7896 13.4539 54.743 13.4955 54.7327 13.5526L53.7962 20.5599C53.791 20.6066 53.8117 20.6377 53.8221 20.6481C53.8324 20.6637 53.8635 20.6844 53.9049 20.6844H60.7811C60.8276 20.6844 60.8535 20.6585 60.8639 20.6481C60.8742 20.6325 60.8949 20.6014 60.8897 20.5599L59.9532 13.5526C59.9481 13.4955 59.8963 13.4539 59.8394 13.4539H54.831H54.8465Z" fill="white"/>
<path d="M59.0787 15.0216C58.9338 15.0216 58.82 14.9074 58.82 14.7621V12.1823C58.82 11.8449 58.5458 11.5698 58.2095 11.5698H56.7918C56.3158 11.5698 55.9329 11.9591 55.9329 12.4315V14.7621C55.9329 14.9074 55.8191 15.0216 55.6742 15.0216C55.5294 15.0216 55.4155 14.9074 55.4155 14.7621V12.4315C55.4155 11.6685 56.0312 11.0508 56.7918 11.0508H58.2095C58.8304 11.0508 59.3374 11.5595 59.3374 12.1823V14.7621C59.3374 14.9074 59.2236 15.0216 59.0787 15.0216Z" fill="white"/>
<path d="M59.0789 16.1738H55.6796C55.5347 16.1738 55.4209 16.0597 55.4209 15.9143C55.4209 15.769 55.5347 15.6548 55.6796 15.6548H59.0789C59.2238 15.6548 59.3376 15.769 59.3376 15.9143C59.3376 16.0597 59.2238 16.1738 59.0789 16.1738Z" fill="white"/>
<path d="M68.0041 23.0669H60.6312C59.9425 23.0669 59.3843 23.627 59.3843 24.3178V31.7144C59.3843 32.4053 59.9425 32.9654 60.6312 32.9654H68.0041C68.6928 32.9654 69.251 32.4053 69.251 31.7144V24.3178C69.251 23.627 68.6928 23.0669 68.0041 23.0669Z" fill="#48A8EF"/>
<path d="M64.315 30.339C63.037 30.339 61.9971 29.2957 61.9971 28.0136C61.9971 26.7315 63.037 25.6882 64.315 25.6882C65.593 25.6882 66.633 26.7315 66.633 28.0136C66.633 29.2957 65.593 30.339 64.315 30.339ZM64.315 26.0879C63.2543 26.0879 62.3903 26.9547 62.3903 28.0188C62.3903 29.0829 63.2543 29.9497 64.315 29.9497C65.3757 29.9497 66.2397 29.0829 66.2397 28.0188C66.2397 26.9547 65.3757 26.0879 64.315 26.0879Z" fill="white"/>
<path d="M64.2631 28.6156C64.201 28.6156 64.1389 28.5897 64.0975 28.5482L63.1817 27.6294C63.1041 27.5516 63.1041 27.427 63.1817 27.3491C63.2594 27.2713 63.3835 27.2713 63.4611 27.3491L64.2631 28.1537L67.1864 25.221C67.264 25.1431 67.3882 25.1431 67.4658 25.221C67.5434 25.2989 67.5434 25.4234 67.4658 25.5013L64.3718 28.6053L64.2631 28.6156Z" fill="white"/>
</svg>
