<svg width="81" height="65" viewBox="0 0 81 65" fill="none" xmlns="http://www.w3.org/2000/svg">
<g clip-path="url(#clip0_4861_137562)">
<path d="M76.9329 59.5796C77.7171 54.9583 76.4603 51.0157 76.1435 46.4825C75.8475 42.1927 77.1355 38.5869 77.847 34.4992C78.4806 30.8622 78.2728 26.7435 77.473 23.1687C76.3824 18.2883 73.874 13.7706 70.2645 11.0144C64.6348 6.72469 57.1251 7.22723 50.9085 10.1803C48.3014 11.4185 45.7826 13.0609 42.9937 13.4805C38.9272 14.0867 34.9646 12.0091 31.002 10.7657C25.606 9.07161 19.6854 8.94209 14.5958 11.6206C8.82592 14.6566 4.72309 21.5056 5.20088 29.0489C5.41901 32.4683 6.53041 35.841 6.13571 39.2396C5.73581 42.6849 4.00639 45.5654 3.09234 48.8087C1.84591 53.2383 1.73166 59.7454 3.73633 64.2372H75.5826C76.2006 62.7658 76.6577 61.196 76.9329 59.5744V59.5796Z" fill="#D5E3FF"/>
<g opacity="0.47">
<g opacity="0.47">
<path d="M11.6304 42.6123C11.8901 39.4572 13.1365 36.2969 15.297 34.038C18.6623 30.5202 23.7519 29.6343 28.2131 30.4477C30.0828 30.7897 31.9368 31.3906 33.848 31.2041C36.6369 30.9295 39.0986 29.0282 41.6382 27.6345C45.097 25.7383 49.0596 24.7177 52.7366 25.5415C56.907 26.4792 60.3242 30.0073 60.7293 34.696C60.9163 36.8202 59.0363 40.5607 59.6283 42.5761C60.2308 44.6173 64.6192 50.8706 64.5102 55.6266C64.4011 60.3671 63.3936 61.8384 61.9654 64.2475H15.3229C14.4349 61.8073 13.7389 59.8542 14.7776 56.6524C15.6086 54.0931 13.3494 51.9845 12.4769 49.6013C11.6979 47.4823 11.4434 44.9282 11.6304 42.6175V42.6123Z" fill="#D5E3FF"/>
</g>
</g>
<path d="M65.5643 23.9509H30.2332C26.525 23.9509 22.9883 25.3342 20.4903 27.764L2.80134 44.9644C2.121 45.6224 1.74707 46.4876 1.74707 47.3787V57.7507H65.5643C67.0911 57.7507 68.3272 56.3105 68.3272 54.5334V27.1682C68.3272 25.3912 67.0911 23.9509 65.5643 23.9509ZM13.5466 42.4051H9.45416C9.09062 42.4051 8.89327 42.058 9.13216 41.8352L13.5414 37.7527V42.4051H13.5466ZM28.6388 42.0787C28.6388 42.26 28.457 42.4051 28.2337 42.4051H14.3672V36.9963L22.9052 29.0955C23.2272 28.795 23.6946 28.624 24.188 28.624H28.187C28.4362 28.624 28.6388 28.7898 28.6388 28.9867V42.0735V42.0787Z" fill="#1364CD"/>
<path d="M31.1888 27.0491H30.6694V57.7559H31.1888V27.0491Z" fill="#0B4085"/>
<path d="M28.187 28.6294H24.188C23.6998 28.6294 23.2324 28.8004 22.9052 29.1009L14.3672 37.0016V42.4104H28.2337C28.457 42.4104 28.6388 42.2654 28.6388 42.084V28.9972C28.6388 28.7952 28.4363 28.6346 28.187 28.6346V28.6294Z" fill="white"/>
<path d="M9.45943 42.4051H13.5519V37.7527L9.14263 41.8352C8.90373 42.058 9.09588 42.4051 9.46462 42.4051H9.45943Z" fill="white"/>
<path d="M17.4316 38.2397H16.1696C15.8009 38.2397 15.4997 38.5402 15.4997 38.9081V40.9131L14.0871 42.3223C13.9261 42.4829 13.9261 42.7471 14.0871 42.9077C14.2481 43.0683 14.5129 43.0683 14.6739 42.9077L15.4997 42.0839V42.7885C15.4997 43.1615 15.8009 43.4569 16.1696 43.4569H17.4316C17.8056 43.4569 18.1016 43.1564 18.1016 42.7885V38.9081C18.1016 38.5351 17.8004 38.2397 17.4316 38.2397Z" fill="#353535"/>
<path d="M14.2166 44.3945H13.6973V52.1554H14.2166V44.3945Z" fill="#0B4085"/>
<path d="M68.3064 51.2488H1.74707V57.7559H68.3064V51.2488Z" fill="#807575"/>
<path d="M68.3064 51.2488H1.74707V53.6838H68.3064V51.2488Z" fill="#9B9494"/>
<path d="M1.70557 51.2488H8.75828V49.2282C8.75828 48.4097 8.09352 47.7517 7.27814 47.7517H3.93356C2.70271 47.7517 1.70557 48.7464 1.70557 49.9743V51.254V51.2488Z" fill="#FDB602"/>
<path d="M1.70557 51.2488H5.41369V49.2282C5.41369 48.4097 4.74893 47.7517 3.93356 47.7517C2.70271 47.7517 1.70557 48.7464 1.70557 49.9743V51.254V51.2488Z" fill="white"/>
<path opacity="0.29" d="M5.41385 51.2489V49.073H4.22455C3.74156 49.073 3.35205 49.4616 3.35205 49.9434C3.35205 50.6635 3.93891 51.2489 4.6608 51.2489H5.41385Z" fill="#9F9F9F"/>
<path d="M7.29891 53.2798H1.52378C1.21401 53.2798 0.962891 53.5303 0.962891 53.8393V57.1965C0.962891 57.5055 1.21401 57.756 1.52378 57.756H7.29891C7.60868 57.756 7.8598 57.5055 7.8598 57.1965V53.8393C7.8598 53.5303 7.60868 53.2798 7.29891 53.2798Z" fill="#353535"/>
<path d="M19.1008 63.6118C22.5011 63.0612 24.8102 59.8651 24.2582 56.4731C23.7063 53.0811 20.5024 50.7776 17.1021 51.3282C13.7018 51.8788 11.3928 55.075 11.9447 58.467C12.4966 61.859 15.7006 64.1624 19.1008 63.6118Z" fill="#080D1E"/>
<path d="M14.5752 57.611C14.5752 59.5539 16.154 61.1288 18.1016 61.1288C20.0491 61.1288 21.6279 59.5539 21.6279 57.611C21.6279 55.6682 20.0491 54.0933 18.1016 54.0933C16.154 54.0933 14.5752 55.6682 14.5752 57.611Z" fill="#FEF7E5"/>
<path opacity="0.18" d="M18.1013 59.6987C19.2572 59.6987 20.1942 58.7639 20.1942 57.6108C20.1942 56.4577 19.2572 55.5229 18.1013 55.5229C16.9454 55.5229 16.0083 56.4577 16.0083 57.6108C16.0083 58.7639 16.9454 59.6987 18.1013 59.6987Z" fill="#807575"/>
<path d="M21.202 46.1146H24.5673C25.0451 46.1146 25.4294 45.7312 25.4294 45.2545C25.4294 44.7779 25.0451 44.3945 24.5673 44.3945H21.202C20.7242 44.3945 20.3398 44.7779 20.3398 45.2545C20.3398 45.7312 20.7242 46.1146 21.202 46.1146Z" fill="#353535"/>
<path d="M68.3067 26.8056H32.9704C32.1291 26.8056 31.4487 25.9508 31.4487 24.8939V23.9458H66.0475C67.3044 23.9458 68.3171 25.2306 68.3119 26.8056H68.3067Z" fill="#0B4085"/>
<g opacity="0.51">
<path d="M45.232 30.9038H37.151C36.041 30.9038 35.1411 31.8015 35.1411 32.9088V33.4683C35.1411 34.5756 36.041 35.4733 37.151 35.4733H45.232C46.342 35.4733 47.2419 34.5756 47.2419 33.4683V32.9088C47.2419 31.8015 46.342 30.9038 45.232 30.9038Z" fill="#80D5C1"/>
</g>
<path d="M40.07 38.2554L33.5938 48.0782L41.2437 48.415L43.2588 40.851L40.07 38.2554Z" fill="#FFCAA6"/>
<path d="M73.1173 46.1124C74.4457 45.6364 75.012 44.0515 74.2912 42.8222L68.4371 32.821C68.0046 31.8271 67.3507 30.964 66.5321 30.3363C65.595 29.6145 64.4572 29.1908 63.2215 29.1803L52.1466 29.0914C49.9842 29.0757 48.2594 29.3791 46.9876 30.1532C45.9991 30.5089 43.1004 32.0468 39.4551 38.4493C39.4551 38.4493 41.0615 40.1545 42.4928 41.2687L41.3807 44.2816C40.7165 46.0706 40.9276 48.1053 41.9419 49.6903L43.3166 51.8349L44.1352 64.2423H68.7666L68.9005 47.6293L73.0452 46.149L73.1224 46.1229L73.1173 46.1124Z" fill="#00AA84"/>
<path opacity="0.38" d="M62.6507 42.5916L64.1568 48.4149C64.188 48.6532 64.4113 48.8138 64.645 48.7672L65.7979 48.5392L66.7431 51.5441L65.5383 49.2645L64.1153 49.6479C63.8088 49.7308 63.5024 49.4977 63.5076 49.1765L62.6455 42.5864L62.6507 42.5916Z" fill="#353535"/>
<path d="M65.6163 17.9256L63.0351 15.0813C62.7079 14.8119 62.4327 14.5063 62.199 14.1799C62.9832 12.5997 62.7651 10.5896 62.36 9.00422C64.2556 8.27372 65.1593 6.06668 64.2244 4.19122C63.5025 2.74576 61.8147 1.979 60.2462 2.37792C58.9375 2.70949 58.0182 3.71458 57.717 4.89581C55.058 4.3311 51.4797 4.59532 48.7635 8.58457L48.6441 8.65192C47.299 9.40832 46.4316 10.6724 46.2862 12.0868C46.1668 13.237 45.5851 14.299 44.6451 15.0865L42.0639 17.9308C40.3917 20.1741 41.6796 22.5521 42.8118 23.2049C45.502 24.7592 43.3312 27.8366 45.0606 27.8314C46.79 28.0075 48.535 27.6656 50.0723 26.8522C50.9188 26.4015 51.6978 25.9093 51.9159 25.5415L51.2875 21.1585C48.5921 20.0653 47.2003 17.0811 48.0936 14.3198L48.8206 12.0713C49.8749 13.9882 52.0146 16.5579 55.9824 16.7962C55.9045 17.1485 55.8785 17.5215 55.9045 17.8997L56.0084 19.2053C56.0603 19.8892 56.294 20.516 56.6524 21.0497L56.3979 21.1533L55.7695 25.5363C55.9876 25.9093 56.7666 26.3963 57.6132 26.847C59.1504 27.6656 60.8954 28.0075 62.6248 27.8262C64.3543 27.8314 62.1834 24.754 64.8736 23.1997C66.0006 22.5469 67.2938 20.1689 65.6215 17.9256H65.6163Z" fill="#010C39"/>
<path d="M59.9453 16.4337H59.3792C58.9586 16.5581 58.4963 16.6617 57.9718 16.7239C51.9526 17.4699 49.3247 13.3304 48.3795 11.1855C47.9432 11.7347 47.5953 12.3564 47.3719 13.0403C46.9357 13.8537 46.6864 14.7811 46.6812 15.7706L46.6501 20.9773C46.6397 22.4124 47.1486 23.7284 47.99 24.7542C48.6807 25.8214 49.7038 26.6504 50.9191 27.1063V29.4273C50.9191 31.7224 52.7991 33.5979 55.0998 33.5979C57.4005 33.5979 59.2805 31.7224 59.2805 29.4273V21.0032H59.9193C61.1762 21.0136 62.2148 19.993 62.2252 18.7392C62.2356 17.4854 61.2073 16.4493 59.9505 16.4389L59.9453 16.4337Z" fill="#FFCAA6"/>
<path opacity="0.32" d="M58.4962 21.0497C58.4754 24.3136 55.806 26.9403 52.5341 26.9196C50.7164 26.9092 49.096 26.0803 48.021 24.7851C48.7221 25.8471 49.7504 26.6761 50.9709 27.1164C51.2773 28.479 52.5133 29.4789 53.9623 29.4374C55.6086 29.3908 56.9018 28.0231 56.8551 26.3807C56.8551 26.2875 56.8447 26.1994 56.8343 26.1062C58.143 25.0182 58.9844 23.3862 59 21.5574V20.9927H58.5014V21.0497H58.4962Z" fill="#FF8E77"/>
<path d="M60.6932 19.4903C60.6516 19.4903 60.6101 19.4799 60.5737 19.4592L59.6649 18.9877C59.5974 18.9515 59.5506 18.8893 59.5299 18.8168C59.5143 18.7442 59.5299 18.6665 59.5714 18.6044L60.3868 17.5008C60.4699 17.3869 60.6361 17.361 60.7503 17.4438C60.8646 17.5267 60.8905 17.6925 60.8074 17.8065L60.1738 18.6665L60.8126 18.9981C60.9425 19.0654 60.9892 19.2209 60.9217 19.3452C60.875 19.4333 60.7867 19.4851 60.6932 19.4851V19.4903Z" fill="#EAA16E"/>
<path d="M50.519 24.951C50.4619 24.951 50.4047 24.9303 50.358 24.894C50.2437 24.8059 50.2282 24.6401 50.3165 24.5313C50.867 23.8371 51.6979 24.122 51.7343 24.1376C51.8693 24.1842 51.942 24.3345 51.8901 24.4692C51.8433 24.6039 51.6927 24.6712 51.5577 24.6246C51.5369 24.6194 51.0383 24.4536 50.7215 24.8525C50.6696 24.9147 50.5917 24.951 50.519 24.951Z" fill="#EAA16E"/>
<path d="M53.0587 21.1325C53.0587 21.1325 52.0928 21.6662 51.0904 21.8527C50.0881 22.0392 50.9606 23.6815 52.4927 23.4795C54.0247 23.2774 53.8741 20.9253 53.0587 21.1325Z" fill="white"/>
<path d="M53.8685 16.9828C53.7179 17.0398 53.5258 17.0087 53.3388 16.9828C53.1518 16.9621 52.9649 16.9414 52.7987 16.931C52.6325 16.9206 52.4455 16.9155 52.2534 16.9155C52.0664 16.9155 51.869 16.9155 51.7288 16.8429C51.5938 16.7756 51.547 16.5994 51.7288 16.4026C51.9002 16.2057 52.3261 16.014 52.8714 16.0451C53.4167 16.0813 53.8062 16.33 53.9464 16.5424C54.0918 16.7652 54.0191 16.931 53.8737 16.9828H53.8685Z" fill="#010C39"/>
<path d="M47.1068 16.957C47.2574 17.0036 47.4443 16.9622 47.6209 16.9363C47.8027 16.9052 47.9845 16.8741 48.1454 16.8585C48.3064 16.8378 48.4882 16.8223 48.6752 16.8119C48.857 16.7964 49.0491 16.7912 49.1789 16.7135C49.3088 16.6409 49.3451 16.4648 49.1582 16.2835C48.9816 16.1021 48.5557 15.9364 48.0312 15.9933C47.5015 16.0555 47.1379 16.3197 47.0133 16.5322C46.8834 16.7549 46.9613 16.9104 47.1068 16.9518V16.957Z" fill="#010C39"/>
<path d="M52.2016 19.0033C52.2172 19.2312 52.4094 19.4022 52.6379 19.3918C52.8664 19.3763 53.0378 19.1846 53.0274 18.9566C53.0118 18.7287 52.8196 18.5577 52.5911 18.5681C52.3626 18.5784 52.1912 18.7753 52.2016 19.0033Z" fill="#010C39"/>
<path d="M47.8808 18.9308C47.8964 19.1587 48.0886 19.3297 48.3171 19.3193C48.5456 19.3038 48.717 19.1121 48.7066 18.8841C48.691 18.6562 48.4988 18.4852 48.2703 18.4956C48.0418 18.5059 47.8704 18.7028 47.8808 18.9308Z" fill="#010C39"/>
<path d="M50.7996 21.3918C50.7996 21.3918 50.7893 21.3918 50.7789 21.3918L50.4153 21.3555C49.7298 21.2882 49.2104 20.7235 49.2104 20.0344V19.7495C49.2104 19.5629 49.2832 19.392 49.4182 19.2625C49.5532 19.1329 49.7298 19.0656 49.9168 19.0759L50.1557 19.0863C50.1557 19.0863 50.1972 19.0759 50.2024 19.0708C50.2076 19.0656 50.2232 19.05 50.2232 19.0241V16.9C50.2232 16.7912 50.3115 16.7031 50.4205 16.7031C50.5296 16.7031 50.6179 16.7912 50.6179 16.9V19.0241C50.6179 19.1485 50.5659 19.2676 50.4777 19.3505C50.3894 19.4334 50.2595 19.4801 50.1453 19.4749L49.9116 19.4645C49.8233 19.4645 49.7558 19.4904 49.6986 19.5422C49.6415 19.594 49.6103 19.6717 49.6103 19.7495V20.0344C49.6103 20.5214 49.9739 20.9203 50.4621 20.9721L50.8256 21.0084C50.9347 21.0188 51.0126 21.112 51.0022 21.2208C50.9918 21.3193 50.9087 21.397 50.81 21.397L50.7996 21.3918Z" fill="#EAA16E"/>
<path d="M59.1971 20.0913C59.2646 20.3711 59.5554 20.5472 59.8358 20.4747C60.1163 20.4074 60.2929 20.1224 60.2202 19.8375C60.1526 19.5577 59.8618 19.3816 59.5814 19.4541C59.3009 19.5214 59.1243 19.8064 59.1971 20.0913Z" fill="white"/>
<path d="M60.5474 30.7587L60.1735 28.5879H60.1631C57.4209 28.5879 55.2033 30.7069 55.2033 33.318C55.2033 30.7069 52.9805 28.5879 50.2436 28.5879H50.2332L49.9995 29.9401C49.6308 32.0694 50.7681 34.0589 52.5755 34.9241V35.2971C52.5755 36.6234 53.6505 37.6958 54.98 37.6958C56.3096 37.6958 57.3794 36.6286 57.3846 35.3074C59.462 34.9189 60.9213 32.9243 60.5474 30.7587Z" fill="white"/>
<path d="M62.0952 44.0061H41.2227C40.9158 44.0061 40.667 44.2543 40.667 44.5605V63.6881C40.667 63.9943 40.9158 64.2425 41.2227 64.2425H62.0952C62.4021 64.2425 62.6509 63.9943 62.6509 63.6881V44.5605C62.6509 44.2543 62.4021 44.0061 62.0952 44.0061Z" fill="#CE8E00"/>
<path d="M30.2334 44.0061H51.1007C51.4072 44.0061 51.6564 44.2548 51.6564 44.5605V63.6829C51.6564 63.9886 51.4072 64.2373 51.1007 64.2373H30.2334C29.927 64.2373 29.6777 63.9886 29.6777 63.6829V44.5605C29.6777 44.2548 29.927 44.0061 30.2334 44.0061Z" fill="#FDB602"/>
<path d="M45.5435 53.86H34.9332L34.9229 53.5906V52.0934L35.1929 52.083H45.8031L45.8135 52.3524V53.8497L45.5435 53.86ZM35.4422 53.342H45.2942V52.6011H35.4422V53.342Z" fill="#CE8E00"/>
<path opacity="0.19" d="M57.2447 55.259C57.1512 55.2071 54.5493 53.1555 54.5493 53.1555C54.3468 53.0156 54.0611 53.0364 53.8586 53.2125C53.4899 53.5285 53.412 54.0466 53.6716 54.4041L53.9573 54.7927L48.26 55.9635C47.9017 55.9687 47.6161 56.264 47.6213 56.6215C47.6213 56.9168 47.8342 57.1551 48.1094 57.2277C48.0835 57.238 48.0575 57.2484 48.0263 57.2639H47.9484C47.5901 57.2691 47.3044 57.5644 47.3096 57.9219C47.3148 58.2794 47.6109 58.5643 47.9692 58.5591H47.9744C47.8705 58.6731 47.803 58.8182 47.803 58.9788C47.803 59.3363 48.0887 59.6264 48.447 59.6316H48.7378C48.7378 59.6316 48.7638 59.6523 48.7794 59.6575C48.7794 59.6575 48.7898 59.673 48.8105 59.6989C48.6392 59.787 48.5093 59.958 48.4989 60.16C48.4782 60.4761 48.7223 60.7506 49.0391 60.7714C49.0391 60.7714 55.3751 62.0148 56.8396 61.8024C57.037 61.7713 57.2239 61.6936 57.3849 61.5848L64.3442 61.6573L57.2499 55.259H57.2447Z" fill="#CC3A0D"/>
<path d="M75.7385 54.5853L73.147 45.9644L65.8034 48.5444L67.6471 54.4195L57.8834 55.264C57.7899 55.2122 55.188 53.1605 55.188 53.1605C54.9854 53.0207 54.6998 53.0414 54.4973 53.2175C54.1285 53.5336 54.0506 54.0516 54.3103 54.4091L54.5959 54.7977L48.8987 55.9686C48.5404 55.9737 48.2547 56.269 48.2599 56.6265C48.2599 56.9218 48.4729 57.1602 48.7481 57.2327C48.7221 57.243 48.6962 57.2534 48.665 57.269H48.5871C48.2288 57.2741 47.9431 57.5694 47.9483 57.9269C47.9535 58.2844 48.2495 58.5693 48.6079 58.5642H48.6131C48.5092 58.6781 48.4417 58.8232 48.4417 58.9838C48.4417 59.3413 48.7273 59.6314 49.0857 59.6366H49.3765C49.3765 59.6366 49.4025 59.6573 49.4181 59.6625C49.4181 59.6625 49.4284 59.678 49.4492 59.7039C49.2778 59.792 49.148 59.963 49.1376 60.165C49.1168 60.4811 49.3609 60.7557 49.6777 60.7764C49.6777 60.7764 56.0137 62.0198 57.4731 61.8074C57.6705 61.7763 57.8574 61.6986 58.0184 61.5898L64.9777 61.6623L70.3633 61.797C74.1233 61.797 76.8239 58.1808 75.7437 54.5853H75.7385Z" fill="#FFCAA6"/>
<path d="M48.6959 57.3986C48.592 57.3986 48.5037 57.3157 48.4985 57.2069C48.4985 57.0981 48.5816 57.01 48.6907 57.01L51.5004 56.9634C51.6198 56.9686 51.6977 57.0463 51.6977 57.1551C51.6977 57.2639 51.6146 57.3519 51.5055 57.3519L48.6959 57.3986Z" fill="#EAA16E"/>
<path d="M48.8829 58.6886C48.779 58.6886 48.6907 58.6057 48.6855 58.4969C48.6855 58.3881 48.7686 58.3 48.8777 58.3L51.6874 58.2534C51.7808 58.2534 51.8847 58.3363 51.8847 58.4451C51.8847 58.5539 51.8016 58.642 51.6926 58.642L48.8829 58.6886Z" fill="#EAA16E"/>
<path d="M52.2845 59.8905L49.4749 59.849C49.3658 59.849 49.2827 59.7609 49.2827 59.6521C49.2827 59.5433 49.371 59.4604 49.4801 59.4604L52.2897 59.5019C52.3988 59.5019 52.4819 59.59 52.4819 59.6988C52.4819 59.8076 52.3936 59.8905 52.2845 59.8905Z" fill="#EAA16E"/>
<path opacity="0.46" d="M67.6468 54.4143L72.4612 53.803L67.3716 53.5439L67.6468 54.4143Z" fill="#FF8E77"/>
</g>
<defs>
<clipPath id="clip0_4861_137562">
<rect width="80" height="64.2424" fill="white" transform="translate(0.666992)"/>
</clipPath>
</defs>
</svg>
