<svg width="366" height="163" viewBox="0 0 366 163" fill="none" xmlns="http://www.w3.org/2000/svg">
<path d="M353.854 94.6318C347.142 94.6318 341.702 99.4448 341.702 105.383C341.702 111.321 353.854 124.524 353.854 124.524C353.854 124.524 366.008 111.321 366.008 105.383C366.008 99.4448 360.566 94.6318 353.854 94.6318ZM353.854 110.301C350.718 110.301 348.174 108.05 348.174 105.275C348.174 102.5 350.718 100.25 353.854 100.25C356.99 100.25 359.534 102.5 359.534 105.275C359.534 108.05 356.99 110.301 353.854 110.301Z" fill="#657285"/>
<path d="M7.85675 138.758C3.514 138.758 -0.00683594 141.968 -0.00683594 145.926C-0.00683594 149.885 7.85675 158.686 7.85675 158.686C7.85675 158.686 15.7203 149.885 15.7203 145.926C15.7203 141.968 12.1995 138.758 7.85675 138.758ZM7.85675 149.204C5.82716 149.204 4.18046 147.704 4.18046 145.853C4.18046 144.001 5.82572 142.502 7.85675 142.502C9.88779 142.502 11.5331 144.001 11.5331 145.853C11.5331 147.704 9.88779 149.204 7.85675 149.204Z" fill="#00A3FE"/>
<path d="M183.996 15.3838C183.768 15.3838 183.545 15.2752 183.418 15.0819C183.226 14.7866 183.329 14.4045 183.648 14.2286C183.662 14.2199 184.007 14.0288 184.667 13.6879C184.991 13.5207 185.402 13.6271 185.582 13.9289C185.763 14.2286 185.648 14.6086 185.322 14.7758C184.683 15.1058 184.343 15.2947 184.341 15.2947C184.233 15.3555 184.113 15.3838 183.996 15.3838Z" fill="#364154"/>
<path d="M353.773 96.0891H353.768C353.397 96.0891 353.097 95.8068 353.099 95.4637C353.099 95.3334 353.099 95.201 353.099 95.0642C353.099 94.4974 353.092 93.9133 353.078 93.3271C353.069 92.984 353.365 92.6974 353.735 92.6908C354.102 92.6822 354.416 92.9558 354.423 93.2988C354.437 93.8938 354.447 94.4866 354.447 95.0642C354.447 95.2031 354.447 95.34 354.447 95.4702C354.447 95.8133 354.144 96.0891 353.773 96.0891ZM353.667 91.7789C353.311 91.7789 353.012 91.5205 352.996 91.1861C352.958 90.4804 352.912 89.7616 352.855 89.0494C352.829 88.7063 353.106 88.4089 353.477 88.3828C353.848 88.3589 354.17 88.6151 354.198 88.9582C354.254 89.6813 354.301 90.4109 354.339 91.1253C354.357 91.4684 354.071 91.7615 353.698 91.7767C353.686 91.7767 353.677 91.7767 353.665 91.7767L353.667 91.7789ZM353.332 87.4773C352.989 87.4773 352.696 87.2363 352.663 86.9149C352.59 86.2092 352.508 85.4927 352.416 84.787C352.374 84.4461 352.637 84.1356 353.005 84.0965C353.374 84.0552 353.71 84.3006 353.752 84.6415C353.843 85.358 353.928 86.0833 354.001 86.7977C354.036 87.1408 353.764 87.4448 353.395 87.4773C353.374 87.4773 353.353 87.4795 353.329 87.4795L353.332 87.4773ZM352.787 83.1975C352.456 83.1975 352.17 82.9717 352.123 82.6612C352.015 81.9555 351.9 81.2433 351.778 80.5441C351.719 80.2053 351.968 79.884 352.334 79.8297C352.7 79.7754 353.048 80.0056 353.106 80.3443C353.231 81.0522 353.348 81.7731 353.456 82.4875C353.508 82.8284 353.252 83.1432 352.883 83.191C352.85 83.1953 352.82 83.1975 352.789 83.1975H352.787ZM352.041 78.9438C351.722 78.9438 351.44 78.7331 351.379 78.4335C351.24 77.7365 351.09 77.0308 350.935 76.3337C350.86 75.9972 351.095 75.6671 351.459 75.5976C351.822 75.5282 352.179 75.7453 352.254 76.0819C352.412 76.7876 352.564 77.5041 352.705 78.2098C352.773 78.5486 352.531 78.8721 352.165 78.9351C352.123 78.9416 352.083 78.9459 352.043 78.9459L352.041 78.9438ZM351.097 74.7247C350.79 74.7247 350.513 74.5293 350.442 74.2405C350.271 73.5478 350.088 72.8465 349.9 72.1603C349.809 71.8281 350.027 71.4894 350.388 71.4047C350.747 71.3222 351.114 71.5219 351.205 71.8563C351.395 72.5533 351.581 73.2612 351.754 73.9626C351.839 74.297 351.611 74.6314 351.25 74.7095C351.198 74.7204 351.149 74.7247 351.1 74.7247H351.097ZM349.956 70.5491C349.661 70.5491 349.391 70.3689 349.309 70.0931C349.104 69.407 348.889 68.7143 348.668 68.0368C348.56 67.7068 348.762 67.3615 349.119 67.2617C349.475 67.1618 349.848 67.3485 349.956 67.6786C350.179 68.3647 350.398 69.0661 350.607 69.7609C350.705 70.0931 350.496 70.4341 350.137 70.5274C350.076 70.5426 350.017 70.5491 349.956 70.5491ZM348.616 66.4257C348.332 66.4257 348.069 66.2585 347.975 65.9957C347.738 65.3204 347.49 64.6386 347.236 63.9676C347.114 63.6441 347.297 63.288 347.649 63.1751C347.999 63.0622 348.384 63.2316 348.506 63.5573C348.762 64.2369 349.015 64.9274 349.255 65.6114C349.37 65.9393 349.177 66.2889 348.823 66.3953C348.755 66.417 348.684 66.4257 348.614 66.4257H348.616ZM347.079 62.3608C346.807 62.3608 346.551 62.2066 346.45 61.9569C346.18 61.2925 345.898 60.6215 345.612 59.9636C345.473 59.6444 345.64 59.2818 345.985 59.1537C346.33 59.0256 346.722 59.1797 346.861 59.4989C347.152 60.1655 347.436 60.8452 347.71 61.5183C347.842 61.8397 347.666 62.2001 347.316 62.3196C347.238 62.3456 347.159 62.3586 347.079 62.3586V62.3608ZM345.342 58.3655C345.081 58.3655 344.833 58.2243 344.722 57.9876C344.417 57.3319 344.103 56.6739 343.786 56.0334C343.631 55.7207 343.779 55.3516 344.117 55.2082C344.455 55.0649 344.854 55.2017 345.009 55.5144C345.33 56.1658 345.649 56.8325 345.959 57.4947C346.107 57.8096 345.948 58.1765 345.607 58.3133C345.52 58.3481 345.431 58.3633 345.342 58.3633V58.3655ZM343.406 54.4504C343.157 54.4504 342.917 54.3223 342.8 54.1008C342.464 53.4646 342.117 52.8219 341.765 52.19C341.594 51.8838 341.723 51.5082 342.054 51.3519C342.382 51.1933 342.788 51.3128 342.96 51.6189C343.316 52.2595 343.671 52.9109 344.009 53.5558C344.171 53.8642 344.032 54.2376 343.699 54.3875C343.605 54.4309 343.504 54.4504 343.406 54.4504ZM341.27 50.6244C341.033 50.6244 340.8 50.5072 340.678 50.3009C340.31 49.6755 339.927 49.0502 339.544 48.4378C339.359 48.1404 339.467 47.7604 339.789 47.5867C340.11 47.4151 340.521 47.515 340.709 47.8125C341.096 48.4335 341.483 49.0675 341.859 49.7016C342.037 50.0034 341.917 50.3812 341.591 50.5463C341.488 50.5984 341.378 50.6223 341.27 50.6223V50.6244ZM338.937 46.8983C338.711 46.8983 338.488 46.7919 338.362 46.6008C337.963 45.9972 337.549 45.3892 337.132 44.7921C336.93 44.5033 337.019 44.1189 337.331 43.9322C337.643 43.7455 338.059 43.828 338.261 44.1168C338.683 44.7226 339.103 45.3393 339.509 45.9516C339.704 46.2447 339.603 46.6269 339.286 46.8071C339.176 46.8701 339.056 46.8983 338.937 46.8983ZM336.411 43.283C336.195 43.283 335.984 43.1874 335.855 43.0115C335.421 42.4253 334.977 41.8346 334.531 41.2614C334.315 40.9813 334.383 40.5926 334.684 40.3928C334.986 40.1931 335.406 40.256 335.622 40.5361C336.075 41.1181 336.526 41.7152 336.965 42.3123C337.174 42.5968 337.096 42.9833 336.789 43.1766C336.674 43.2504 336.54 43.2851 336.411 43.2851V43.283ZM333.695 39.787C333.491 39.787 333.292 39.7023 333.158 39.5395C332.696 38.9749 332.221 38.4082 331.743 37.8523C331.51 37.583 331.559 37.1922 331.851 36.9772C332.142 36.7623 332.564 36.8079 332.796 37.0771C333.282 37.6417 333.766 38.2171 334.233 38.7903C334.456 39.0639 334.4 39.4548 334.101 39.6632C333.979 39.7479 333.839 39.7892 333.695 39.7892V39.787ZM330.797 36.4192C330.604 36.4192 330.414 36.3432 330.28 36.1955C329.79 35.6548 329.283 35.1077 328.776 34.5735C328.529 34.3151 328.557 33.9221 328.837 33.6941C329.116 33.4683 329.541 33.4921 329.787 33.7505C330.301 34.2912 330.815 34.8449 331.313 35.3943C331.552 35.657 331.515 36.05 331.229 36.2715C331.102 36.3692 330.949 36.417 330.797 36.417V36.4192ZM327.722 33.1881C327.541 33.1881 327.36 33.1208 327.227 32.9884C326.708 32.4694 326.173 31.9483 325.638 31.438C325.379 31.1905 325.384 30.7974 325.652 30.5586C325.919 30.3197 326.344 30.3241 326.602 30.5716C327.144 31.0884 327.687 31.6182 328.212 32.1437C328.466 32.3956 328.447 32.7908 328.175 33.0231C328.046 33.1339 327.881 33.1881 327.717 33.1881H327.722ZM324.48 30.1004C324.311 30.1004 324.14 30.0418 324.009 29.9224C323.464 29.4273 322.903 28.93 322.34 28.4436C322.068 28.2091 322.054 27.8161 322.307 27.5642C322.561 27.3123 322.988 27.2993 323.258 27.5338C323.828 28.0267 324.396 28.5305 324.95 29.0321C325.215 29.2731 325.22 29.6661 324.959 29.9115C324.828 30.0353 324.654 30.0982 324.478 30.0982L324.48 30.1004ZM321.082 27.1604C320.922 27.1604 320.763 27.1082 320.633 27.0018C320.061 26.5285 319.474 26.0573 318.89 25.5991C318.606 25.3776 318.573 24.9846 318.812 24.7219C319.052 24.4591 319.476 24.4287 319.76 24.6502C320.352 25.1149 320.946 25.5926 321.528 26.0725C321.805 26.3005 321.831 26.6935 321.582 26.9519C321.448 27.0909 321.265 27.1604 321.079 27.1604H321.082ZM317.538 24.3745C317.39 24.3745 317.239 24.3289 317.115 24.2355C316.521 23.7903 315.913 23.3452 315.303 22.9088C315.01 22.6981 314.956 22.3073 315.181 22.0359C315.409 21.7644 315.831 21.7145 316.125 21.9229C316.742 22.3637 317.359 22.8176 317.96 23.267C318.249 23.4842 318.293 23.875 318.059 24.1421C317.925 24.2941 317.732 24.3723 317.535 24.3723L317.538 24.3745ZM313.857 21.7449C313.719 21.7449 313.578 21.7058 313.458 21.6233C312.841 21.202 312.21 20.783 311.583 20.3747C311.278 20.1771 311.205 19.7885 311.419 19.5084C311.632 19.2261 312.052 19.1588 312.355 19.3564C312.991 19.7689 313.63 20.1945 314.256 20.6201C314.554 20.8242 314.62 21.2129 314.399 21.4908C314.268 21.6559 314.064 21.7449 313.857 21.7449ZM310.053 19.2717C309.923 19.2717 309.794 19.2369 309.679 19.1653C309.043 18.7701 308.393 18.3771 307.745 17.9949C307.433 17.8103 307.342 17.426 307.541 17.135C307.741 16.8462 308.156 16.7615 308.471 16.9461C309.125 17.3326 309.785 17.7322 310.428 18.1317C310.738 18.3228 310.82 18.7093 310.613 18.9959C310.484 19.1761 310.271 19.2717 310.055 19.2717H310.053ZM306.133 16.9548C306.013 16.9548 305.893 16.9244 305.783 16.8636C305.128 16.4945 304.459 16.1253 303.797 15.7692C303.476 15.5955 303.368 15.2155 303.553 14.918C303.741 14.6206 304.152 14.5207 304.473 14.6922C305.145 15.0527 305.821 15.4261 306.485 15.7996C306.802 15.9777 306.903 16.362 306.71 16.6551C306.583 16.8484 306.363 16.9548 306.135 16.9548H306.133ZM183.672 16.6399C183.431 16.6399 183.196 16.5184 183.076 16.3056C182.905 16.0016 183.032 15.6237 183.363 15.4652C184.034 15.1417 184.738 14.8095 185.452 14.4838C185.785 14.3318 186.189 14.4577 186.353 14.766C186.517 15.0744 186.381 15.4479 186.048 15.5999C185.341 15.9234 184.647 16.2491 183.985 16.5705C183.886 16.6182 183.778 16.6421 183.675 16.6421L183.672 16.6399ZM302.112 14.7921C302.002 14.7921 301.889 14.766 301.786 14.7139C301.11 14.3687 300.427 14.0256 299.751 13.6955C299.422 13.5349 299.296 13.1592 299.469 12.8552C299.643 12.5512 300.049 12.434 300.378 12.5946C301.061 12.9269 301.753 13.2743 302.436 13.6239C302.76 13.7911 302.88 14.1689 302.699 14.4707C302.577 14.6748 302.347 14.7921 302.11 14.7921H302.112ZM187.846 14.7248C187.595 14.7248 187.35 14.5923 187.238 14.3687C187.078 14.0582 187.224 13.6869 187.559 13.5392C188.256 13.2352 188.97 12.929 189.684 12.6316C190.021 12.4904 190.421 12.6316 190.573 12.9421C190.726 13.2547 190.573 13.6239 190.235 13.765C189.529 14.0603 188.822 14.3622 188.132 14.6618C188.038 14.7031 187.942 14.7226 187.846 14.7226V14.7248ZM192.092 12.9529C191.831 12.9529 191.582 12.8118 191.474 12.5773C191.327 12.2624 191.484 11.8955 191.826 11.7587C192.538 11.4742 193.263 11.1919 193.981 10.9183C194.324 10.788 194.718 10.9379 194.859 11.2571C195 11.5741 194.835 11.9389 194.493 12.0692C193.782 12.3406 193.063 12.6207 192.357 12.903C192.27 12.9377 192.181 12.9551 192.092 12.9551V12.9529ZM297.998 12.7814C297.897 12.7814 297.793 12.7597 297.697 12.7162C297.007 12.397 296.308 12.08 295.62 11.7782C295.284 11.6305 295.141 11.2592 295.301 10.9487C295.46 10.6382 295.862 10.5058 296.197 10.6534C296.894 10.9596 297.603 11.2809 298.3 11.6045C298.634 11.7587 298.767 12.1321 298.601 12.4405C298.483 12.6576 298.246 12.7836 298 12.7836L297.998 12.7814ZM196.396 11.3092C196.129 11.3092 195.875 11.1593 195.77 10.914C195.634 10.5948 195.803 10.2322 196.15 10.1062C196.875 9.84131 197.61 9.58075 198.333 9.32886C198.68 9.20727 199.067 9.37012 199.199 9.69149C199.33 10.0129 199.154 10.3711 198.807 10.4927C198.091 10.7424 197.363 11.0008 196.645 11.2636C196.563 11.294 196.481 11.307 196.399 11.307L196.396 11.3092ZM293.796 10.9335C293.705 10.9335 293.611 10.9162 293.522 10.8792C292.822 10.5883 292.109 10.2995 291.402 10.0215C291.059 9.88691 290.9 9.52212 291.045 9.20509C291.191 8.88807 291.585 8.74042 291.928 8.87504C292.641 9.15515 293.364 9.44829 294.073 9.7436C294.411 9.88474 294.564 10.2539 294.411 10.5666C294.298 10.7967 294.054 10.9335 293.796 10.9335ZM200.755 9.79354C200.478 9.79354 200.22 9.63503 200.121 9.38098C199.997 9.05744 200.178 8.70133 200.527 8.58408C201.262 8.34088 202.006 8.09986 202.734 7.86969C203.086 7.75895 203.468 7.93266 203.588 8.25837C203.708 8.58408 203.52 8.93801 203.168 9.04875C202.445 9.27675 201.71 9.5156 200.98 9.75663C200.905 9.78051 200.828 9.79354 200.753 9.79354H200.755ZM289.515 9.25069C289.43 9.25069 289.346 9.23549 289.266 9.20509C288.553 8.94018 287.827 8.68179 287.109 8.43208C286.762 8.31048 286.586 7.9522 286.715 7.63083C286.846 7.30947 287.234 7.14661 287.581 7.26604C288.308 7.51792 289.041 7.78283 289.764 8.04774C290.109 8.17585 290.278 8.53848 290.139 8.85767C290.034 9.10087 289.783 9.24852 289.515 9.24852V9.25069ZM205.161 8.40168C204.877 8.40168 204.614 8.23448 204.52 7.97174C204.405 7.64386 204.6 7.29427 204.952 7.18787C205.691 6.96639 206.442 6.74708 207.182 6.53645C207.536 6.4344 207.914 6.61896 208.022 6.94902C208.132 7.2769 207.933 7.62649 207.576 7.72638C206.844 7.93483 206.099 8.15197 205.367 8.37345C205.299 8.39516 205.229 8.40385 205.158 8.40385L205.161 8.40168ZM285.159 7.73723C285.084 7.73723 285.008 7.72638 284.936 7.70249C284.206 7.46581 283.469 7.23347 282.746 7.01416C282.394 6.90776 282.199 6.55599 282.316 6.22811C282.431 5.9024 282.811 5.72435 283.166 5.83075C283.898 6.05223 284.645 6.28674 285.382 6.52559C285.731 6.63851 285.917 6.99462 285.792 7.31815C285.696 7.57438 285.436 7.73506 285.159 7.73506V7.73723ZM209.611 7.13576C209.32 7.13576 209.05 6.95987 208.965 6.68628C208.862 6.35623 209.066 6.01097 209.423 5.91543C210.172 5.71349 210.928 5.5159 211.674 5.32698C212.033 5.23579 212.402 5.43121 212.5 5.76344C212.599 6.09566 212.387 6.43657 212.028 6.52777C211.291 6.71451 210.54 6.9121 209.799 7.1097C209.735 7.12707 209.672 7.13576 209.611 7.13576ZM280.737 6.39748C280.671 6.39748 280.605 6.3888 280.539 6.37143C279.807 6.16514 279.061 5.9632 278.319 5.76995C277.962 5.67658 277.753 5.3335 277.854 5.00128C277.955 4.67122 278.326 4.47797 278.683 4.56917C279.434 4.76459 280.19 4.96871 280.929 5.17716C281.283 5.27704 281.485 5.62447 281.377 5.95452C281.288 6.22377 281.023 6.39531 280.734 6.39531L280.737 6.39748ZM214.099 5.99577C213.798 5.99577 213.526 5.80903 213.448 5.52892C213.357 5.1967 213.573 4.85579 213.932 4.77111C214.681 4.59305 215.443 4.41717 216.202 4.2478C216.563 4.16746 216.927 4.37374 217.014 4.70814C217.101 5.04253 216.878 5.3791 216.516 5.45944C215.767 5.62664 215.009 5.80035 214.268 5.9784C214.211 5.99143 214.155 5.99795 214.099 5.99795V5.99577ZM276.256 5.23144C276.2 5.23144 276.143 5.22493 276.087 5.2119C275.34 5.03385 274.585 4.86231 273.841 4.69945C273.479 4.62128 273.254 4.28472 273.341 3.95032C273.425 3.61593 273.789 3.40747 274.15 3.48781C274.904 3.65284 275.669 3.82655 276.423 4.00678C276.782 4.09363 277 4.43237 276.906 4.76459C276.829 5.0447 276.554 5.23144 276.256 5.23144ZM218.624 4.98825C218.316 4.98825 218.037 4.79065 217.969 4.50186C217.887 4.16746 218.117 3.83307 218.478 3.75924C219.241 3.60073 220.011 3.44873 220.764 3.30325C221.128 3.23376 221.485 3.4509 221.56 3.78747C221.635 4.12403 221.401 4.45408 221.037 4.52357C220.29 4.66688 219.53 4.81888 218.772 4.97522C218.722 4.98608 218.673 4.99042 218.624 4.99042V4.98825ZM271.728 4.24563C271.681 4.24563 271.634 4.24129 271.587 4.2326C270.841 4.08495 270.078 3.94164 269.32 3.80918C268.956 3.74404 268.717 3.41833 268.785 3.08176C268.853 2.7452 269.207 2.52154 269.571 2.58669C270.336 2.72348 271.109 2.8668 271.864 3.01662C272.228 3.08828 272.461 3.41833 272.383 3.7549C272.315 4.04803 272.036 4.2478 271.726 4.2478L271.728 4.24563ZM223.182 4.11752C222.865 4.11752 222.584 3.90907 222.523 3.61158C222.452 3.27285 222.694 2.94714 223.058 2.88417C223.825 2.74954 224.597 2.61926 225.358 2.49766C225.724 2.4412 226.071 2.66703 226.135 3.00576C226.198 3.3445 225.952 3.66587 225.586 3.7245C224.832 3.84392 224.067 3.97421 223.306 4.10666C223.264 4.11318 223.222 4.11752 223.18 4.11752H223.182ZM267.156 3.4357C267.118 3.4357 267.081 3.43353 267.043 3.42702C266.283 3.30759 265.515 3.19468 264.76 3.09045C264.391 3.04051 264.138 2.72348 264.194 2.38258C264.248 2.04167 264.591 1.80716 264.959 1.85927C265.724 1.9635 266.501 2.07858 267.271 2.20018C267.637 2.25663 267.884 2.58017 267.823 2.91891C267.766 3.2229 267.482 3.43787 267.161 3.43787L267.156 3.4357ZM227.768 3.38359C227.442 3.38359 227.156 3.16428 227.104 2.85594C227.048 2.5172 227.299 2.19801 227.665 2.14589C228.437 2.03515 229.214 1.92875 229.979 1.83104C230.348 1.78327 230.688 2.02212 230.738 2.36303C230.789 2.70394 230.531 3.01879 230.162 3.06439C229.407 3.16211 228.634 3.26633 227.872 3.3749C227.836 3.37924 227.801 3.38142 227.768 3.38142V3.38359ZM262.556 2.80165C262.527 2.80165 262.499 2.80165 262.469 2.79731C261.711 2.70828 260.938 2.6236 260.171 2.5476C259.802 2.51069 259.535 2.20452 259.572 1.86144C259.612 1.52053 259.943 1.27082 260.314 1.30773C261.089 1.38373 261.873 1.47059 262.638 1.55962C263.006 1.60304 263.267 1.91573 263.22 2.25663C263.178 2.57149 262.886 2.79948 262.553 2.79948L262.556 2.80165ZM232.381 2.79514C232.045 2.79514 231.754 2.5628 231.714 2.24795C231.669 1.90704 231.932 1.59653 232.301 1.55527C233.078 1.46842 233.859 1.38808 234.627 1.31642C234.995 1.27951 235.326 1.52922 235.364 1.8723C235.401 2.21538 235.134 2.51937 234.763 2.55412C234.005 2.62577 233.23 2.70611 232.463 2.7908C232.435 2.79297 232.409 2.79514 232.381 2.79514ZM237.011 2.35435C236.666 2.35435 236.371 2.10898 236.343 1.78544C236.312 1.44236 236.587 1.14271 236.955 1.11231C237.737 1.05151 238.523 0.995054 239.288 0.949455C239.659 0.929912 239.981 1.18614 240.004 1.52922C240.028 1.8723 239.748 2.16978 239.377 2.19149C238.619 2.23709 237.845 2.29138 237.07 2.35218C237.051 2.35218 237.033 2.35435 237.011 2.35435ZM257.929 2.34132C257.911 2.34132 257.889 2.34132 257.871 2.33915C257.11 2.27835 256.333 2.22189 255.563 2.17629C255.193 2.15241 254.911 1.8571 254.937 1.51402C254.963 1.17094 255.279 0.912541 255.653 0.934255C256.429 0.982026 257.216 1.03848 257.986 1.09928C258.356 1.12968 258.631 1.4315 258.598 1.77241C258.568 2.09595 258.274 2.34132 257.929 2.34132ZM241.654 2.06772C241.297 2.06772 240.999 1.80933 240.983 1.47493C240.964 1.13185 241.25 0.838714 241.624 0.823514C242.405 0.788772 243.192 0.760544 243.961 0.73883C244.335 0.72363 244.642 0.999397 244.654 1.34248C244.666 1.68556 244.372 1.97218 244.001 1.98304C243.241 2.00475 242.462 2.03298 241.689 2.06555C241.678 2.06555 241.668 2.06555 241.656 2.06555L241.654 2.06772ZM253.287 2.05469C253.287 2.05469 253.266 2.05469 253.254 2.05469C252.486 2.02212 251.709 1.9939 250.942 1.97435C250.571 1.96567 250.278 1.67904 250.287 1.33596C250.296 0.992883 250.609 0.717116 250.977 0.730144C251.754 0.749687 252.54 0.777915 253.315 0.810486C253.686 0.825686 253.972 1.11882 253.956 1.4619C253.939 1.7963 253.641 2.05469 253.284 2.05469H253.287ZM246.306 1.93961C245.938 1.93961 245.637 1.66601 245.633 1.32293C245.628 0.979854 245.926 0.697573 246.299 0.693231C247.076 0.684545 247.855 0.684545 248.639 0.688888C249.01 0.691059 249.311 0.97334 249.306 1.31642C249.304 1.65733 249.003 1.9331 248.632 1.9331H248.628C247.853 1.92658 247.081 1.92875 246.313 1.93744H246.306V1.93961Z" fill="#364154"/>
<path d="M357.031 96.4688C357.013 96.4688 356.994 96.4688 356.973 96.4666C356.602 96.4384 356.327 96.1366 356.36 95.7935C356.36 95.7892 356.393 95.4244 356.423 94.7556C356.44 94.4125 356.752 94.1476 357.123 94.1606C357.494 94.1758 357.782 94.4646 357.766 94.8077C357.733 95.5069 357.7 95.8825 357.698 95.8999C357.667 96.2234 357.374 96.4688 357.029 96.4688H357.031Z" fill="#364154"/>
<path d="M108.035 68.0859C108.013 68.0859 107.992 68.0859 107.971 68.0815C107.666 68.0489 107.363 68.0164 107.06 67.986C106.767 67.9556 106.553 67.7102 106.586 67.4388C106.619 67.1674 106.884 66.9698 107.178 67.0002C107.483 67.0306 107.788 67.0631 108.093 67.0957C108.387 67.1283 108.598 67.3736 108.565 67.6451C108.532 67.8969 108.302 68.0837 108.032 68.0837L108.035 68.0859Z" fill="#364154"/>
<path d="M7.9669 132.283C7.94343 132.283 7.91996 132.283 7.89648 132.278C7.60309 132.243 7.39654 131.994 7.4341 131.722C7.51155 131.169 7.60074 130.595 7.69932 130.016C7.74392 129.744 8.02088 129.56 8.31193 129.603C8.60532 129.644 8.80483 129.898 8.75789 130.17C8.66166 130.741 8.57481 131.305 8.49736 131.85C8.46215 132.1 8.23213 132.283 7.9669 132.283ZM8.53491 128.904C8.5044 128.904 8.47154 128.902 8.43868 128.895C8.14763 128.847 7.95282 128.589 8.0068 128.32C8.11477 127.762 8.23213 127.195 8.35418 126.633C8.41286 126.363 8.69452 126.19 8.98556 126.244C9.27661 126.298 9.46438 126.559 9.4057 126.828C9.28365 127.384 9.16864 127.944 9.06302 128.496C9.01608 128.737 8.79075 128.904 8.53491 128.904ZM9.26253 125.556C9.22497 125.556 9.18507 125.551 9.14517 125.543C8.85647 125.484 8.67339 125.219 8.73911 124.95C8.8729 124.396 9.01373 123.834 9.1616 123.278C9.23201 123.011 9.52306 122.848 9.80941 122.913C10.0981 122.978 10.2742 123.245 10.2037 123.512C10.0582 124.062 9.91973 124.618 9.78829 125.165C9.73196 125.395 9.51133 125.553 9.26487 125.553L9.26253 125.556ZM10.1357 122.24C10.0911 122.24 10.0441 122.235 9.99719 122.222C9.71083 122.153 9.53949 121.882 9.61695 121.617C9.77421 121.067 9.94085 120.509 10.1098 119.962C10.192 119.699 10.4877 119.547 10.7717 119.621C11.0558 119.697 11.2224 119.971 11.1402 120.233C10.9736 120.774 10.8093 121.326 10.6544 121.869C10.591 122.09 10.3727 122.238 10.1357 122.238V122.24ZM11.1496 118.959C11.098 118.959 11.044 118.952 10.9924 118.937C10.7084 118.857 10.5511 118.579 10.638 118.318C10.8187 117.773 11.0088 117.224 11.1989 116.683C11.2905 116.423 11.5956 116.282 11.8749 116.366C12.1566 116.451 12.3091 116.733 12.2176 116.992C12.0275 117.526 11.842 118.069 11.6613 118.607C11.5909 118.82 11.3773 118.957 11.1496 118.957V118.959ZM12.3021 115.719C12.2434 115.719 12.1824 115.71 12.1237 115.691C11.8444 115.6 11.6965 115.317 11.7951 115.059C11.9993 114.523 12.2106 113.98 12.4265 113.446C12.5298 113.189 12.8396 113.059 13.1166 113.155C13.3935 113.25 13.5343 113.537 13.4311 113.793C13.2175 114.321 13.0086 114.855 12.8067 115.387C12.7293 115.591 12.5227 115.719 12.2997 115.719H12.3021ZM13.5907 112.525C13.525 112.525 13.4592 112.514 13.3935 112.49C13.1189 112.388 12.9828 112.102 13.0931 111.845C13.3208 111.316 13.5555 110.781 13.7949 110.258C13.9099 110.006 14.2244 109.887 14.4967 109.993C14.7689 110.1 14.898 110.391 14.783 110.642C14.5483 111.159 14.3136 111.687 14.0906 112.21C14.0061 112.406 13.8043 112.523 13.593 112.523L13.5907 112.525ZM15.0201 109.383C14.9473 109.383 14.8722 109.37 14.8018 109.34C14.5319 109.229 14.4098 108.936 14.5295 108.684C14.7807 108.163 15.0412 107.637 15.3018 107.125C15.4285 106.877 15.7477 106.771 16.0153 106.888C16.2829 107.005 16.3979 107.301 16.2711 107.548C16.0129 108.054 15.7571 108.573 15.5083 109.088C15.4191 109.272 15.2243 109.383 15.0177 109.383H15.0201ZM16.5903 106.3C16.5105 106.3 16.4284 106.282 16.3509 106.248C16.0857 106.126 15.9777 105.828 16.1092 105.583C16.3838 105.071 16.6678 104.556 16.9518 104.057C17.0903 103.813 17.4142 103.72 17.6747 103.848C17.9376 103.976 18.0385 104.276 17.9001 104.517C17.6184 105.012 17.3391 105.52 17.0668 106.026C16.9729 106.2 16.7828 106.302 16.5856 106.302L16.5903 106.3ZM18.3014 103.281C18.2146 103.281 18.1254 103.262 18.0432 103.218C17.785 103.086 17.6912 102.784 17.8343 102.545C18.1348 102.044 18.4422 101.542 18.7497 101.054C18.8999 100.817 19.2262 100.737 19.482 100.875C19.7379 101.014 19.8247 101.316 19.6745 101.553C19.3694 102.035 19.0666 102.53 18.7708 103.025C18.6723 103.188 18.4892 103.281 18.3014 103.281ZM20.158 100.337C20.0618 100.337 19.9655 100.313 19.8787 100.263C19.6276 100.12 19.5478 99.8137 19.7027 99.5813C20.0266 99.0928 20.3599 98.6042 20.6908 98.1308C20.8504 97.9007 21.1837 97.8334 21.4325 97.9832C21.6813 98.1308 21.7517 98.4392 21.5921 98.6693C21.2659 99.1384 20.9373 99.6204 20.6157 100.1C20.5148 100.252 20.3387 100.337 20.158 100.337ZM22.1578 97.4751C22.0545 97.4751 21.9489 97.4468 21.8574 97.3882C21.6132 97.2341 21.5499 96.9257 21.7165 96.6999C22.0662 96.2265 22.423 95.7532 22.7774 95.2928C22.9488 95.0713 23.2844 95.0192 23.5262 95.1777C23.7679 95.3363 23.8219 95.6468 23.6506 95.8704C23.2985 96.3242 22.9464 96.7889 22.6037 97.2579C22.5005 97.3991 22.3315 97.4751 22.1601 97.4751H22.1578ZM24.3031 94.7065C24.1904 94.7065 24.0778 94.674 23.9815 94.6067C23.7445 94.4416 23.6975 94.1311 23.8759 93.9118C24.2468 93.458 24.6293 92.9998 25.0096 92.5547C25.1927 92.3397 25.5306 92.305 25.763 92.4744C25.9954 92.6437 26.0329 92.9564 25.8499 93.1714C25.472 93.61 25.0964 94.0616 24.7303 94.5089C24.6246 94.6392 24.465 94.7065 24.3007 94.7065H24.3031ZM26.5916 92.0379C26.4695 92.0379 26.3475 92.001 26.2489 91.9228C26.0212 91.7469 25.9907 91.4343 26.1808 91.2236C26.5751 90.7872 26.9812 90.3486 27.3872 89.9208C27.5821 89.7145 27.9224 89.695 28.143 89.8752C28.366 90.0554 28.3871 90.3703 28.1923 90.5744C27.791 90.9978 27.3919 91.4277 27.0023 91.8577C26.8967 91.9749 26.7441 92.0357 26.5916 92.0357V92.0379ZM29.0232 89.48C28.8941 89.48 28.7627 89.4366 28.6594 89.3475C28.4411 89.1608 28.4294 88.8481 28.6289 88.6462C29.049 88.2271 29.4786 87.808 29.9057 87.402C30.1123 87.2066 30.4526 87.2022 30.6639 87.3933C30.8751 87.5844 30.8798 87.8992 30.6733 88.0947C30.2508 88.4942 29.8283 88.9068 29.4152 89.3215C29.3096 89.4279 29.1664 89.48 29.0209 89.48H29.0232ZM31.5933 87.0415C31.4549 87.0415 31.314 86.9916 31.2084 86.8917C31.0019 86.6963 31.0066 86.3814 31.2178 86.1903C31.6591 85.7908 32.1121 85.3934 32.5627 85.0091C32.781 84.8224 33.119 84.8354 33.3208 85.0373C33.5227 85.2393 33.5086 85.552 33.2903 85.7387C32.8467 86.1187 32.4008 86.5095 31.9665 86.9026C31.8633 86.9959 31.7271 87.0437 31.5933 87.0437V87.0415ZM34.2973 84.729C34.147 84.729 33.9992 84.6725 33.8936 84.5596C33.6987 84.3533 33.7199 84.0407 33.9428 83.8604C34.4052 83.487 34.8794 83.1113 35.3535 82.7465C35.5812 82.5706 35.9191 82.601 36.1093 82.8116C36.2994 83.0223 36.2665 83.335 36.0389 83.5108C35.5718 83.8713 35.1047 84.2404 34.6493 84.6074C34.5484 84.6899 34.4217 84.7312 34.2949 84.7312L34.2973 84.729ZM37.1279 82.5511C36.9683 82.5511 36.8134 82.4859 36.7054 82.3622C36.5224 82.1472 36.5623 81.8345 36.7946 81.6652C37.2781 81.3134 37.7734 80.9616 38.2663 80.6207C38.5034 80.4557 38.839 80.5013 39.0174 80.7228C39.1934 80.9421 39.1465 81.2526 38.9094 81.4176C38.4236 81.752 37.9354 82.0994 37.4612 82.4447C37.3626 82.5163 37.2453 82.5511 37.1303 82.5511H37.1279ZM40.0783 80.5143C39.9093 80.5143 39.745 80.4405 39.6394 80.3037C39.468 80.08 39.5267 79.7695 39.7685 79.6132C40.2731 79.2853 40.7871 78.9574 41.2965 78.6426C41.5429 78.4906 41.8762 78.5514 42.0405 78.7794C42.2048 79.0074 42.1391 79.3157 41.8926 79.4677C41.3904 79.7782 40.8834 80.0996 40.3858 80.4231C40.2919 80.4839 40.1839 80.5143 40.076 80.5143H40.0783ZM43.139 78.6252C42.9606 78.6252 42.7869 78.5427 42.686 78.3929C42.5287 78.1605 42.6038 77.8544 42.8526 77.7089C43.369 77.4071 43.8995 77.1074 44.4346 76.8121C44.6881 76.6709 45.0191 76.7491 45.1693 76.9858C45.3195 77.2203 45.2373 77.5265 44.9815 77.6655C44.4557 77.9542 43.9323 78.2517 43.423 78.547C43.3338 78.5991 43.2352 78.623 43.1366 78.623L43.139 78.6252ZM46.303 76.8859C46.1152 76.8859 45.9321 76.7947 45.8359 76.6319C45.6903 76.393 45.7842 76.0912 46.0424 75.9566C46.5776 75.6786 47.1268 75.4029 47.6713 75.1379C47.9342 75.0098 48.2581 75.1032 48.3966 75.3442C48.5351 75.5874 48.4342 75.8871 48.1736 76.0152C47.6361 76.2779 47.0963 76.5494 46.5682 76.8229C46.486 76.8664 46.3945 76.8859 46.3076 76.8859H46.303ZM49.5584 75.2986C49.3613 75.2986 49.1712 75.1966 49.0773 75.0229C48.9458 74.7775 49.0538 74.48 49.319 74.3584C49.8659 74.1065 50.4292 73.8568 50.9902 73.6158C51.2578 73.5007 51.577 73.6093 51.7014 73.8568C51.8258 74.1044 51.7108 74.3997 51.4409 74.5148C50.8869 74.7536 50.333 74.999 49.7932 75.2465C49.7157 75.2813 49.6359 75.2986 49.5561 75.2986H49.5584ZM52.8938 73.8633C52.6872 73.8633 52.49 73.7526 52.4009 73.5659C52.2835 73.314 52.4079 73.023 52.6778 72.9123C53.2411 72.6843 53.8162 72.4606 54.3865 72.2456C54.6612 72.1414 54.9733 72.263 55.086 72.5171C55.1987 72.7711 55.0649 73.0599 54.7926 73.1641C54.2316 73.3748 53.666 73.5963 53.1097 73.8199C53.0393 73.8481 52.9665 73.8612 52.8961 73.8612L52.8938 73.8633ZM56.3018 72.58C56.0859 72.58 55.8817 72.4584 55.7995 72.2608C55.6939 72.0046 55.8324 71.718 56.1094 71.6203C56.6797 71.4183 57.2665 71.2208 57.8486 71.0297C58.1279 70.9385 58.433 71.0731 58.534 71.3315C58.6325 71.5899 58.487 71.8722 58.2077 71.9655C57.6327 72.1545 57.0553 72.3499 56.4919 72.5475C56.4286 72.5692 56.3652 72.58 56.3018 72.58ZM59.7709 71.4444C59.5456 71.4444 59.3367 71.3119 59.2616 71.1035C59.17 70.8429 59.3226 70.5628 59.6043 70.4781C60.1911 70.3001 60.7849 70.1264 61.3693 69.9613C61.6533 69.881 61.9514 70.0287 62.0383 70.2914C62.1251 70.5541 61.9655 70.8299 61.6815 70.9102C61.1041 71.0731 60.5173 71.2446 59.9376 71.4205C59.8812 71.4379 59.8249 71.4444 59.7709 71.4444ZM63.2916 70.4542C63.0569 70.4542 62.841 70.3109 62.7753 70.0916C62.6955 69.8289 62.8621 69.5531 63.1461 69.4793C63.7353 69.3273 64.3385 69.1775 64.9347 69.0342C65.221 68.9668 65.5144 69.1254 65.5872 69.3903C65.6599 69.6552 65.4886 69.9266 65.2022 69.9939C64.6131 70.1351 64.0193 70.2827 63.4372 70.4325C63.3879 70.4456 63.3409 70.4521 63.2916 70.4521V70.4542ZM66.8546 69.6052C66.6105 69.6052 66.3922 69.4511 66.3336 69.2231C66.2655 68.956 66.4439 68.6889 66.7326 68.6259C67.3287 68.4957 67.9367 68.3697 68.5375 68.2503C68.8262 68.1938 69.1126 68.3632 69.1736 68.6324C69.2346 68.8995 69.0516 69.1644 68.7605 69.2209C68.1643 69.3381 67.5635 69.4641 66.9767 69.5922C66.9344 69.6009 66.8945 69.6052 66.8546 69.6052ZM70.4528 68.893C70.2017 68.893 69.9763 68.728 69.9271 68.4913C69.8707 68.2221 70.0608 67.9615 70.3519 67.9094C70.9528 67.803 71.5654 67.6987 72.1733 67.601C72.4643 67.5533 72.7436 67.7357 72.7929 68.0049C72.8446 68.2742 72.6474 68.5326 72.3563 68.5782C71.7555 68.6737 71.1499 68.7779 70.5561 68.8822C70.5209 68.8887 70.488 68.8908 70.4528 68.8908V68.893ZM74.0792 68.3111C73.8186 68.3111 73.591 68.1352 73.5511 67.8898C73.5065 67.6184 73.706 67.3665 73.9994 67.3253C74.6049 67.2384 75.2199 67.1559 75.8301 67.0799C76.1235 67.043 76.3935 67.2341 76.4334 67.5055C76.4733 67.7769 76.2667 68.0266 75.9733 68.0635C75.3701 68.1395 74.7598 68.2199 74.1613 68.3067C74.1331 68.3111 74.1073 68.3133 74.0792 68.3133V68.3111ZM77.7266 67.8551C77.4591 67.8551 77.2267 67.6683 77.1938 67.4165C77.1586 67.145 77.3699 66.8975 77.6633 66.8671C78.2712 66.802 78.8908 66.739 79.5011 66.6825C79.7945 66.6565 80.0574 66.8541 80.0879 67.1277C80.116 67.4013 79.9025 67.6423 79.6067 67.6705C79.0011 67.727 78.3885 67.7878 77.7853 67.8529C77.7642 67.8551 77.7431 67.8573 77.7219 67.8573L77.7266 67.8551ZM105.289 67.8182C105.27 67.8182 105.254 67.8182 105.235 67.816C104.62 67.7595 104.005 67.7074 103.409 67.6597C103.113 67.6358 102.895 67.3948 102.921 67.1233C102.947 66.8497 103.207 66.6478 103.501 66.6717C104.104 66.7195 104.721 66.7737 105.341 66.8302C105.634 66.8562 105.85 67.0994 105.822 67.373C105.794 67.6293 105.562 67.8203 105.289 67.8203V67.8182ZM101.621 67.5229C101.607 67.5229 101.592 67.5229 101.581 67.5229C100.978 67.4816 100.363 67.4425 99.75 67.4056C99.4542 67.3882 99.2289 67.1537 99.2477 66.8801C99.2665 66.6065 99.52 66.4003 99.8157 66.4155C100.431 66.4502 101.053 66.4915 101.658 66.5327C101.954 66.5522 102.175 66.7911 102.153 67.0647C102.132 67.3253 101.898 67.5229 101.618 67.5229H101.621ZM81.3882 67.5185C81.1112 67.5185 80.8765 67.3231 80.8554 67.0625C80.8319 66.7889 81.0502 66.5501 81.3459 66.5284C81.9539 66.4828 82.5735 66.4393 83.1908 66.4024C83.4865 66.3829 83.7424 66.5913 83.7612 66.8649C83.78 67.1385 83.557 67.3752 83.2612 67.3926C82.651 67.4295 82.036 67.4729 81.4351 67.5185C81.4211 67.5185 81.4046 67.5185 81.3905 67.5185H81.3882ZM97.945 67.3122C97.945 67.3122 97.9262 67.3122 97.9169 67.3122C97.3089 67.284 96.6916 67.2601 96.0837 67.2384C95.788 67.2276 95.5556 66.9974 95.5674 66.7238C95.5791 66.4502 95.8279 66.2374 96.1236 66.2461C96.7362 66.2678 97.3582 66.2917 97.9708 66.3199C98.2666 66.3329 98.4942 66.5675 98.4802 66.841C98.4661 67.106 98.229 67.3122 97.945 67.3122ZM85.0615 67.2949C84.7775 67.2949 84.5404 67.0886 84.5263 66.8237C84.5123 66.5501 84.7399 66.3177 85.0357 66.3025C85.6506 66.2743 86.2703 66.2504 86.8829 66.2309C87.1763 66.2265 87.4274 66.435 87.4368 66.7086C87.4462 66.9822 87.2162 67.2124 86.9204 67.221C86.3149 67.2406 85.6999 67.2645 85.0897 67.2927C85.0803 67.2927 85.0709 67.2927 85.0615 67.2927V67.2949ZM94.2623 67.1885C94.2623 67.1885 94.2529 67.1885 94.2506 67.1885C93.638 67.1754 93.0207 67.1668 92.4175 67.1602C92.1217 67.1581 91.8847 66.9344 91.887 66.6587C91.8894 66.3851 92.1311 66.1679 92.4292 66.1679C93.0371 66.1723 93.6591 66.1831 94.2788 66.1961C94.5745 66.2027 94.8092 66.4307 94.8022 66.7042C94.7951 66.9735 94.5557 67.1885 94.267 67.1885H94.2623ZM88.7395 67.1776C88.4484 67.1776 88.209 66.9626 88.2043 66.6912C88.1996 66.4176 88.4343 66.1918 88.7301 66.1853C89.3357 66.1744 89.9576 66.1679 90.5773 66.1636H90.5797C90.8754 66.1636 91.1148 66.3851 91.1148 66.6565C91.1148 66.9301 90.8777 67.1537 90.582 67.1559C89.967 67.1581 89.3497 67.1668 88.7489 67.1776C88.7442 67.1776 88.7418 67.1776 88.7371 67.1776H88.7395Z" fill="#364154"/>
<path d="M7.67994 134.812C7.67994 134.812 7.65882 134.812 7.64708 134.812C7.35134 134.797 7.12602 134.563 7.14245 134.289C7.14245 134.276 7.16357 133.979 7.2199 133.423C7.24807 133.149 7.51095 132.947 7.80434 132.978C8.10008 133.004 8.31602 133.247 8.28551 133.518C8.22918 134.052 8.2104 134.343 8.2104 134.346C8.19397 134.608 7.95691 134.812 7.67525 134.812H7.67994Z" fill="#364154"/>
<path d="M301.951 101.093C307.52 102.102 315.936 103.309 324.401 103.334C328.905 103.347 333.673 103.153 338.211 102.868C337.756 102.258 337.257 101.649 336.717 101.042C332.333 101.32 327.749 101.508 323.483 101.497C323.164 101.497 322.844 101.492 322.523 101.488C321.028 99.7419 316.418 94.3252 311.78 88.5007L316.942 87.9675C317.146 87.9467 317.31 87.9031 317.432 87.8445C317.687 87.7209 317.746 87.5291 317.544 87.3377C317.244 87.0545 316.489 86.8791 315.859 86.9438L310.948 87.4503C310.034 86.294 309.126 85.1286 308.248 83.9806C307.125 83.5578 305.984 83.1412 304.816 82.7321C306.037 84.3539 307.337 86.0304 308.646 87.6874L301.518 88.4229C298.742 85.8601 292.46 84.0262 286.265 83.9295L281.92 80.6783C285.12 80.0435 288.686 79.4464 292.644 78.9229C291.693 78.6583 290.732 78.3962 289.761 78.1392C286.564 78.5893 283.5 79.1015 280.583 79.6773L274.139 74.8552L248.866 80.4465C247.698 80.1331 246.515 79.8195 245.318 79.507C249.613 78.557 253.768 77.5069 257.757 76.3627C261.152 75.3899 264.425 74.3473 267.564 73.2427C265.888 72.938 264.193 72.6435 262.481 72.358C256.448 74.4018 249.341 76.4137 241.076 78.1805C240.915 78.215 240.775 78.259 240.657 78.3111L240.654 78.311C239.008 77.8967 237.337 77.482 235.643 77.0697C235.059 76.928 234.47 76.785 233.879 76.6433L233.829 68.6674C232.987 68.5878 232.144 68.5107 231.298 68.4349L231.345 76.0386C227.413 75.1082 223.361 74.184 219.202 73.2714C215.045 72.3575 210.778 71.454 206.42 70.5649L202.928 66.7502C200.883 66.6868 198.831 66.635 196.77 66.5963L199.053 69.0908C194.138 68.1272 189.528 67.2622 185.367 66.5055C179.503 66.522 173.599 66.6363 167.678 66.8539L191.921 73.9822L202.839 86.7792L190.834 86.4914C189.567 84.1943 187.973 81.9491 185.817 79.9136C185.193 79.3246 184.548 78.7537 183.888 78.2009C183.872 78.185 183.852 78.169 183.832 78.1543C179.419 74.4659 174.358 71.5862 170.67 69.7314C168.235 68.5071 166.124 67.5833 164.646 66.9748C163.679 67.0165 162.71 67.0596 161.741 67.1079C162.965 67.5819 165.661 68.6762 168.92 70.318C172.15 71.9463 176.474 74.3901 180.433 77.4945L151.921 73.6356L146.065 68.1075C145.287 68.1689 144.507 68.2329 143.73 68.2982L149.634 73.8715L136.47 80.9482C136.354 81.0095 136.29 81.0846 136.272 81.1629L120.332 77.403L121.583 70.687C120.696 70.8046 119.813 70.9248 118.937 71.0464L117.861 76.8201L108.298 74.5639L109.773 72.9188C109.918 72.7557 109.961 72.5808 109.914 72.4045C107.259 72.8346 104.656 73.285 102.103 73.7557L92.5691 84.3895L78.9095 78.9287C77.3525 79.3437 75.8272 79.7682 74.3279 80.1997L89.5549 86.2873L86.1341 87.4301L75.5146 83.0591C73.7243 82.3218 71.4847 81.8627 69.2095 81.7647C69.187 81.7643 69.1646 81.7627 69.1421 81.7624C59.2053 84.8912 50.706 88.3855 43.8288 92.1367L46.6741 91.2533L58.7991 86.1539C63.8027 88.269 68.6295 90.5193 71.3982 92.3548L53.4646 98.3481L43.4395 92.3501C42.9573 92.6147 42.4857 92.8821 42.0213 93.1496L51.6972 98.9396L36.439 104.039L31.0335 101.089C30.1847 101.894 29.4032 102.705 28.6936 103.522L33.6617 106.233L45.0457 121.41C47.6939 124.942 51.9193 128.303 57.6028 131.399C63.0916 134.391 69.6435 136.972 77.0833 139.077L75.2705 142.518C72.5735 141.731 69.835 140.961 67.0644 140.208C54.8059 136.877 45.2555 134.811 42.0854 134.149C35.9447 129.183 30.4614 124.179 29.2258 121.272C28.378 119.279 26.4627 116.913 23.5089 114.199C23.4197 115.009 23.4001 115.823 23.4479 116.637C24.9498 118.234 26.1272 119.801 26.7359 121.231C27.6283 123.329 30.5949 126.561 35.5844 130.88L31.8913 131.132C32.2788 131.474 32.6781 131.814 33.0881 132.151L36.7754 131.899C37.6114 132.607 38.5003 133.343 39.4372 134.104C39.4253 134.115 39.4145 134.127 39.4048 134.14C39.2229 134.397 39.6225 134.714 40.2965 134.848C40.2965 134.848 40.3283 134.855 40.3766 134.863C41.6945 135.922 43.1052 137.03 44.6072 138.188C45.242 138.677 45.8768 139.16 46.5034 139.636L44.6917 139.591C45.4037 139.959 46.1312 140.323 46.8752 140.684L47.9287 140.711C48.497 141.136 49.0582 141.555 49.6102 141.963C51.5733 142.849 53.63 143.711 55.7757 144.547C52.4011 142.107 48.0895 138.915 43.9164 135.611C48.2851 136.565 56.2734 138.399 66.0237 141.048C68.7096 141.778 71.6399 142.6 74.7475 143.511L71.4482 149.776C72.226 149.999 73.011 150.218 73.8031 150.436L77.0854 144.205C81.701 145.586 86.6531 147.15 91.7482 148.89L87.2836 153.734C88.0845 153.908 88.8926 154.079 89.7043 154.249L93.9457 149.648C101.242 152.192 108.768 155.083 115.954 158.292L115.622 158.619C116.857 158.782 118.1 158.941 119.348 159.094C119.758 158.922 119.702 158.611 119.207 158.384C119.116 158.343 119.023 158.301 118.933 158.261L124.975 152.3L128.56 153.289C129.923 153.666 131.346 153.968 132.79 154.194L138.82 161.053C139.713 161.124 140.605 161.191 141.502 161.257L135.592 154.536C138.019 154.749 140.439 154.745 142.674 154.515C143.153 154.466 143.624 154.405 144.085 154.336C148.107 153.72 150.894 152.365 151.842 150.623C154.092 151.256 157.343 152.221 160.973 153.442C161.321 153.559 161.676 153.681 162.037 153.805C157.809 156.329 154.623 158.403 154.323 158.599C153.988 158.817 154.214 159.149 154.827 159.34C155.195 159.455 155.622 159.491 155.975 159.455C156.208 159.431 156.409 159.375 156.543 159.289C156.617 159.24 159.85 157.135 164.171 154.556C169.881 156.611 176.641 159.421 181.396 162.593C181.437 162.62 181.478 162.648 181.518 162.675C181.876 162.915 182.549 163.044 183.097 162.987C183.159 162.98 183.219 162.972 183.277 162.961C183.641 162.891 183.833 162.743 183.823 162.575C183.817 162.478 183.744 162.375 183.598 162.276C178.59 158.903 171.447 155.936 165.466 153.788C169.069 151.665 173.239 149.337 176.919 147.608C177.853 148.025 178.752 148.445 179.6 148.865C184.924 151.51 190.676 154.938 195.116 157.718C194.914 157.841 194.88 158.017 195.066 158.192C195.328 158.439 195.94 158.605 196.511 158.598C198.924 160.129 200.826 161.385 201.871 162.084C202.705 162.047 203.539 162.008 204.372 161.967C203.502 161.381 201.506 160.052 198.857 158.369L247.739 153.321L250.27 157.526C251.03 157.413 251.785 157.299 252.537 157.182L250.03 153.017C250.298 152.894 250.364 152.699 250.156 152.504C250.023 152.378 249.801 152.274 249.539 152.202L246.439 147.05C249.186 147.188 251.868 147.127 254.354 146.87C255.944 146.706 257.454 146.46 258.845 146.14L274.67 153.072C275.356 152.92 276.037 152.768 276.713 152.614L260.764 145.627C263.988 144.628 266.269 143.184 267.272 141.477L269.047 138.456C277.084 143.195 283.502 148.589 285.615 150.435C286.273 150.262 286.928 150.088 287.575 149.912C286.079 148.615 283.087 146.115 279.178 143.314L301.385 135.706L312.441 141.43C312.967 141.202 313.489 140.975 314.003 140.745L303.121 135.111L313.362 131.603L322.554 136.48C323.021 136.219 323.48 135.956 323.929 135.693L315.099 131.007L328.479 126.423C329.796 127.609 331.073 128.779 332.304 129.925C333.11 129.258 333.866 128.588 334.575 127.911C333.199 126.648 331.771 125.362 330.297 124.062C328.637 122.598 326.978 121.168 325.321 119.773C325.673 118.933 326.969 116.235 330.195 113.048C332.305 110.962 335.519 108.419 340.222 106.063C339.812 105.265 339.333 104.467 338.783 103.671C337.359 104.304 335.999 104.978 334.707 105.694C331.348 107.555 328.435 109.693 326.05 112.048C324.094 113.98 322.821 115.73 322.02 117.04C320.666 115.935 319.313 114.855 317.962 113.799C322.358 112.626 323.871 110.146 321.246 107.668C318.119 104.717 310.277 102.856 303.644 103.466C303.491 103.365 303.34 103.266 303.189 103.166C301.82 102.267 300.453 101.396 299.093 100.554C299.983 100.731 300.936 100.914 301.947 101.097L301.951 101.093ZM302.605 89.4467L309.479 88.7365C313.915 94.3027 318.302 99.4713 319.963 101.414C318.263 101.342 316.576 101.224 314.924 101.075L302.605 89.4467ZM285.066 84.99L285.964 84.9788C291.279 84.9114 296.834 86.4563 299.231 88.6602L280.336 90.6114C277.167 89.2289 274.047 88.028 270.984 87.0125C269.173 86.4112 267.302 85.8104 265.372 85.2087C268.831 83.9145 273.582 82.4441 279.868 81.1022L285.066 84.99ZM273.45 76.2988L278.529 80.0999C272.742 81.3281 267.553 82.8095 263.093 84.5067C259.419 83.3885 255.547 82.2702 251.488 81.1585L273.45 76.2988ZM233.892 78.5708C242.705 80.7145 251.703 83.0967 260.229 85.6702C256.828 87.146 254.668 88.4527 253.434 89.3071L233.924 83.5709L233.892 78.5708ZM257.895 109.599L261.382 104.841L268.423 106.764L275 98.4086L275.833 98.6532C280.883 100.137 283.537 102.661 282.287 104.786L276.217 115.116L257.895 109.599ZM275.64 116.098L271.631 122.919C269.945 121.637 267.584 119.981 264.678 118.3C263 117.328 261.303 116.447 259.599 115.656C259.572 115.642 259.544 115.629 259.515 115.617C257.974 114.904 256.426 114.268 254.881 113.71L257.2 110.546L275.64 116.098ZM266.828 105.2L262.07 103.901L267.678 96.2525L272.707 97.7312L266.828 105.2ZM252.636 112.956C248.353 111.622 244.089 110.901 239.946 110.811C239.868 110.81 239.79 110.808 239.712 110.805L242.713 105.692L248.135 106.728C248.431 106.785 248.729 106.797 248.986 106.77C249.315 106.736 249.575 106.639 249.671 106.494C249.841 106.234 249.431 105.919 248.754 105.789L243.272 104.742L245.684 100.632L235.539 86.8056L265.375 95.5789L252.636 112.956ZM208.533 72.8683C215.6 74.3409 223.375 76.0486 231.358 77.9595L231.39 82.826L212.587 77.2973L208.533 72.8683ZM223.395 89.1036L216.042 81.0722L232.372 85.8739L243.064 100.444L237.028 110.729C234.169 110.63 231.372 110.476 228.672 110.27C228.935 109.898 229.172 109.517 229.381 109.127C230.816 106.451 231.015 103.342 229.973 99.8876C228.253 94.1817 223.767 89.4847 223.395 89.1036ZM190.411 69.2802C191.9 69.56 193.432 69.8522 195 70.1554C196.57 70.4586 198.173 70.7715 199.81 71.0966C200.247 71.1825 200.687 71.2711 201.132 71.3597L204.352 74.8772L192.114 71.2793L190.411 69.2802ZM177.135 66.8735C180.192 67.4067 183.658 68.0255 187.44 68.7259L188.78 70.2981L177.135 66.8735ZM195.257 74.9608L207.808 78.6507L215.528 87.0815L205.391 86.8378L195.257 74.9608ZM215.178 98.3103L206.295 87.8983L216.5 88.143L217.78 89.5402L217.811 89.5734C217.855 89.6199 222.3 94.1892 223.949 99.6582C225.143 103.613 224.624 106.961 222.411 109.681C220.176 109.428 218.036 109.136 216.013 108.809C215.915 108.793 215.82 108.776 215.721 108.76C216.954 108.076 217.767 107.212 218.14 106.179C218.517 105.134 218.445 103.914 217.93 102.554C217.09 100.337 215.36 98.5002 215.178 98.3103ZM203.747 87.8372L212.818 98.4706L212.841 98.4958C212.909 98.5662 219.424 105.386 213.056 108.287C207.855 107.291 203.656 106.048 200.798 104.651C197.544 103.06 195.982 98.9053 194.328 94.5066C193.486 92.269 192.591 89.8906 191.396 87.5407L203.747 87.8372ZM153.201 74.8375L181.948 78.7286C182.489 79.1893 183.02 79.6617 183.534 80.147C185.577 82.0761 187.107 84.2222 188.331 86.4283L164.885 85.8658L153.201 74.8375ZM170.276 90.9551L166.013 86.932L188.891 87.4802C190.088 89.8222 190.986 92.2046 191.828 94.4448C193.624 99.2189 195.175 103.342 199.018 105.221C202.384 106.867 207.232 108.268 213.146 109.356C213.23 109.374 213.315 109.391 213.402 109.403C215.942 109.864 218.672 110.268 221.564 110.609C219.739 112.41 217.081 113.902 213.599 115.074C209.781 116.359 205.493 117.715 200.987 119.087L187.733 112.312L186.823 112.554C186.722 112.58 178.394 114.798 168.25 117.886C162.899 114.848 157.272 111.884 151.383 109.003L167.172 102.17C167.787 101.904 168.352 101.621 168.872 101.324L176.729 103.646C177.092 103.753 177.504 103.788 177.847 103.752C178.091 103.727 178.3 103.667 178.432 103.574C178.749 103.35 178.502 103.019 177.88 102.835L170.097 100.535C171.491 99.5116 172.389 98.35 172.735 97.0956C173.284 95.1143 172.433 92.9919 170.276 90.9551ZM117.207 113.854C116.688 113.618 115.887 113.564 115.42 113.731L107.217 116.678L95.1386 115.976C91.6204 111.706 86.2748 105.291 81.7593 100.19L91.3378 96.7448L115.794 109.291C116.18 109.489 116.771 109.578 117.25 109.53C117.37 109.517 117.482 109.496 117.583 109.466C118.088 109.316 118.107 108.993 117.624 108.745L110.434 105.058L123.872 100.013C131.53 103.128 138.855 106.378 145.815 109.745L116.957 122.236C113.629 123.677 107.683 123.557 103.129 121.956L98.7782 120.428C98.4007 119.963 97.4098 118.744 96.025 117.057L108.415 117.778L117.296 114.587C117.765 114.419 117.724 114.091 117.207 113.854ZM145.061 93.1368L155.908 86.69L163.41 86.8701L167.989 91.1923C171.269 94.2887 171.145 97.459 167.848 99.8717L145.061 93.1368ZM166.614 100.658C166.173 100.905 165.693 101.141 165.175 101.364L149.564 108.122C147.476 107.117 145.359 106.121 143.209 105.136L158.615 98.2934L166.614 100.658ZM156.324 97.6161L141.324 104.278C137.973 102.766 134.549 101.281 131.053 99.8232L143.637 93.9767L143.673 93.9602L143.767 93.9051L156.324 97.6161ZM129.078 99.0048C127.811 98.483 126.534 97.965 125.248 97.4508L119.007 94.9558L129.911 89.8082L141.5 93.2334L129.078 99.0048ZM116.999 94.1539L107.91 90.5206L114.551 85.27L127.631 89.1362L116.999 94.1539ZM121.549 99.0758C121.657 99.1192 121.763 99.1626 121.87 99.206L108.676 104.158L93.0369 96.1353L104.173 92.1307L121.549 99.0758ZM147.63 110.63C153.309 113.422 158.742 116.291 163.906 119.231C163.241 119.439 162.571 119.651 161.898 119.866C152.448 122.882 145.076 125.566 139.832 127.895L123.372 121.13L147.63 110.63ZM163.684 120.752C164.303 120.554 164.921 120.358 165.536 120.165C167.957 121.565 170.317 122.981 172.615 124.411L175.766 126.374C168.95 128.263 162.69 129.946 157.881 131.223C155.871 131.756 154.128 132.408 152.665 133.168L141.829 128.714C147.024 126.403 154.372 123.722 163.684 120.752ZM179.449 128.668L179.948 128.978C185.668 132.539 192.676 135.72 200.543 138.389C197.592 139.304 193.706 140.508 189.879 141.69L169.957 131.265C172.912 130.466 176.112 129.593 179.449 128.668ZM169.881 118.82C178.104 116.314 185.152 114.378 187.584 113.719L199.168 119.64C193.002 121.498 186.499 123.37 180.281 125.115L177.451 123.354C174.997 121.825 172.471 120.314 169.881 118.82ZM184.787 127.921L183.967 127.41C189.205 125.943 194.655 124.382 199.952 122.811L216.873 129.768L205.469 136.858C205.37 136.888 205.213 136.937 205.005 137.002C197.252 134.464 190.357 131.388 184.787 127.921ZM207.371 137.708L207.495 137.669L213.887 133.695L224.62 137.599C225.005 137.739 225.482 137.79 225.873 137.75C226.07 137.729 226.245 137.685 226.377 137.619C226.769 137.419 226.619 137.086 226.041 136.877L215.144 132.915L218.935 130.557L229.439 134.336C229.825 134.475 230.297 134.523 230.686 134.484C230.885 134.463 231.062 134.42 231.194 134.352C231.582 134.15 231.426 133.818 230.846 133.609L219.257 129.441L201.8 122.263C203.711 121.692 205.596 121.12 207.438 120.553L226.569 128.657L233.933 125.687C237.687 127.131 241.289 128.355 244.718 129.349L236.455 143.649C235.792 143.573 235.128 143.495 234.466 143.415C224.874 142.246 215.636 140.295 207.301 137.733C207.343 137.721 207.371 137.708 207.371 137.708ZM226.226 127.179L209.251 119.987C211.68 119.231 214.018 118.482 216.226 117.754C218.286 118.81 221.701 120.504 225.89 122.355C227.933 123.258 229.939 124.103 231.905 124.889L226.226 127.179ZM138.595 81.6901L150.908 75.0708L162.279 85.8038L155.244 85.6353L138.569 81.7015C138.576 81.6977 138.587 81.6939 138.595 81.6901ZM120.138 78.4445L153.254 86.2566L142.8 92.4677L115.608 84.4316L117.372 83.0355C118.859 81.8597 119.746 80.5472 120.009 79.1358L120.138 78.4445ZM107.491 75.4608L117.667 77.8617L117.486 78.8366C117.246 80.1278 116.434 81.3286 115.075 82.4039L105.85 89.6984L97.66 86.4246L107.491 75.4608ZM94.4003 88.2221L102.158 91.3235L80.7251 99.0336C79.0335 97.146 77.4969 95.4951 76.2685 94.2821L94.4003 88.2221ZM60.3809 85.4864L65.4493 83.3548C66.4535 82.9322 67.8905 82.7371 69.4939 82.8062C71.0974 82.8741 72.6748 83.1983 73.9364 83.7188L84.3751 88.0152L73.1715 91.7594C70.1854 89.8462 65.3503 87.5906 60.3809 85.4864ZM92.3106 147.865C87.5964 146.267 82.6796 144.709 77.612 143.203L79.4419 139.728L95.9836 144.294L92.5998 147.964C92.5022 147.932 92.4082 147.898 92.3106 147.865ZM116.909 157.349C110.229 154.393 102.813 151.499 94.7998 148.719L98.2928 144.931L122.674 151.66L116.909 157.349ZM124.822 149.542L80.4233 137.287C66.3954 133.414 55.6054 127.536 50.8194 121.156L39.8019 106.469L54.2839 101.63L65.6901 115.542L54.7201 116.674C54.0895 116.739 53.8198 117.021 54.1183 117.304C54.418 117.587 55.1728 117.762 55.8034 117.698L66.5475 116.588L71.0412 122.07C74.5138 126.304 79.74 130.339 86.5772 134.063C93.4145 137.786 101.554 141.032 110.768 143.708L126.195 148.187L124.822 149.542ZM141.102 151.922C141.061 151.929 141.017 151.936 140.974 151.942C137.928 152.409 134.331 152.167 131.111 151.278L127.126 150.178L129.372 147.962L111.898 142.889C93.8783 137.656 80.2154 130.214 73.4272 121.934L68.4642 115.881L56.2435 100.975L74.38 94.9139C75.6244 96.1717 77.156 97.8357 78.8289 99.7151L70.4971 102.711C70.0293 102.88 70.0696 103.207 70.5874 103.444C70.9783 103.622 71.5302 103.696 71.9786 103.65C72.1253 103.635 72.2604 103.607 72.3744 103.565L79.8548 100.874C83.422 104.925 87.462 109.729 90.6726 113.598L79.1755 114.152C78.5134 114.183 78.1577 114.443 78.3817 114.732C78.6058 115.019 79.3236 115.227 79.9856 115.195L91.536 114.64C94.4351 118.142 96.4759 120.658 96.5363 120.732L96.6804 120.909L101.752 122.692C104.469 123.648 107.726 124.208 110.92 124.273C112.102 124.297 113.236 124.251 114.298 124.143C116.107 123.956 117.704 123.581 118.954 123.039L121.819 121.8L138.322 128.582C134.838 130.217 132.469 131.666 131.234 132.921C129.487 134.697 128.986 136.85 129.747 139.315C130.349 141.267 131.737 143.419 133.875 145.712C136.484 148.512 139.531 150.81 141.102 151.922ZM146.11 148.98C145.949 150.028 144.879 150.891 143.099 151.459C141.547 150.351 138.639 148.137 136.192 145.508C132.998 142.072 129.958 137.2 133.61 133.486C134.749 132.327 137.008 130.958 140.317 129.403L151.342 133.934C151.12 134.078 150.907 134.225 150.704 134.374C148.944 135.668 147.929 137.13 147.684 138.722L146.11 148.98ZM163.332 153.032C162.982 152.912 162.634 152.794 162.296 152.68C158.127 151.276 154.485 150.216 152.185 149.578L153.741 139.448C158.493 140.847 167.538 143.648 174.984 146.767C171.209 148.53 166.978 150.887 163.332 153.032ZM176.505 146.08C168.379 142.675 158.606 139.707 154.052 138.388C154.985 136.296 157.754 134.524 161.874 133.43C163.737 132.936 165.816 132.381 168.06 131.777L188.07 142.247C185.261 143.114 182.57 143.939 180.406 144.598C179.236 144.956 177.916 145.464 176.505 146.08ZM247.1 152.248L197.315 157.388C192.796 154.555 186.881 151.023 181.397 148.299C180.459 147.834 179.467 147.371 178.439 146.914C179.796 146.318 181.06 145.828 182.17 145.491C184.507 144.779 187.458 143.872 190.509 142.93C190.584 142.918 190.658 142.903 190.725 142.885C190.808 142.861 190.876 142.832 190.933 142.8C195.197 141.484 199.611 140.116 202.79 139.129C207.73 140.711 212.98 142.094 218.443 143.246L207.345 151.165C207.03 151.39 207.281 151.721 207.904 151.904C208.267 152.011 208.676 152.043 209.017 152.008C209.262 151.982 209.473 151.922 209.604 151.829L220.922 143.752C225.171 144.584 229.534 145.278 233.969 145.819C237.282 146.223 240.605 146.571 243.857 146.858L247.1 152.248ZM261.353 140.403C259.54 143.487 252.554 145.147 244.362 144.441C242.599 144.289 240.81 144.116 239.013 143.927L247.064 129.997C248.529 130.385 249.962 130.731 251.36 131.032C255.656 131.956 259.999 133.678 264.094 135.738L261.353 140.403ZM264.757 134.612C260.338 132.482 256.113 130.979 252.114 130.12C250.64 129.802 249.106 129.426 247.521 128.993C247.848 127.826 247.526 126.504 246.557 125.048C245.617 123.637 244.069 122.096 241.955 120.469C238.377 117.717 234.456 115.687 234.291 115.601C233.81 115.353 233.008 115.274 232.503 115.423C231.996 115.573 231.976 115.897 232.457 116.144C232.6 116.218 245.85 123.111 245.085 128.295C239.669 126.678 233.735 124.458 227.576 121.738C223.387 119.888 219.988 118.199 217.978 117.167C217.983 117.166 217.989 117.163 217.995 117.161C222.486 115.649 225.81 113.662 227.914 111.236C231.202 111.501 234.643 111.692 238.2 111.803C238.223 111.803 238.245 111.803 238.268 111.803C238.96 111.825 239.656 111.844 240.358 111.858C246.554 111.992 252.38 113.804 257.125 115.917L251.983 119.595C251.67 119.82 251.92 120.151 252.545 120.333C252.907 120.439 253.315 120.472 253.655 120.438C253.901 120.412 254.111 120.352 254.244 120.258L259.05 116.82C260.378 117.471 261.599 118.131 262.695 118.764C266.378 120.893 269.205 123.022 270.806 124.318L264.757 134.612ZM301.383 134.204L287.748 127.146C285.118 125.785 285.039 124.046 287.562 123.104C289.024 122.558 291.136 122.351 293.354 122.537C295.573 122.724 297.706 123.287 299.205 124.083L311.649 130.686L301.383 134.204ZM313.387 130.091L302.884 124.518L309.544 122.466C310.042 122.311 310.051 121.988 309.562 121.743C309.073 121.498 308.271 121.422 307.772 121.577L301.171 123.611L301.069 123.557C299.085 122.504 296.262 121.758 293.325 121.511C290.388 121.264 287.593 121.537 285.658 122.26C284.028 122.869 283.157 123.759 283.203 124.764C283.25 125.77 284.211 126.808 285.908 127.688L299.647 134.799L277.752 142.3C277.613 142.204 277.474 142.106 277.332 142.008C274.759 140.238 272.232 138.65 269.76 137.243L288.208 105.853C290.073 102.679 286.112 98.916 278.575 96.7006L255.694 89.9735C256.909 89.1373 259.077 87.828 262.492 86.3615C264.6 87.0128 266.674 87.6753 268.703 88.3491C278.463 91.5867 289 96.9261 299.935 104.129C295.79 105.334 294.415 107.753 296.975 110.169C300.041 113.063 307.642 114.909 314.19 114.404C316.478 116.192 318.776 118.052 321.082 119.985C322.829 121.452 324.58 122.957 326.334 124.504C326.648 124.781 326.961 125.058 327.271 125.334L313.387 130.091ZM305.258 105.279C305.581 105.245 305.911 105.221 306.244 105.204C310.504 105.001 315.275 106.215 317.247 108.075C318.88 109.618 318.123 111.161 315.648 112.004C314.904 112.257 314.003 112.446 312.967 112.554C312.614 112.59 312.257 112.616 311.896 112.631C307.66 112.815 302.938 111.604 300.978 109.755C299.36 108.227 300.089 106.699 302.508 105.852C303.267 105.587 304.189 105.39 305.258 105.279ZM294.007 97.5175C290.079 95.2704 286.204 93.2729 282.399 91.5319L300.318 89.6826L312.079 100.784C303.212 99.7715 295.848 97.9856 294.007 97.5175Z" fill="#D3CFCE" fill-opacity="0.59"/>
<g clip-path="url(#clip0_3984_206544)">
<path d="M245.994 143.908C239.919 143.908 235.133 143.486 234.886 143.463C210.867 141.989 190.548 134.669 177.732 128.788C164.043 122.505 155.748 116.472 155.424 116.235C152.938 114.522 143.439 109.347 134.255 104.342C127.469 100.643 121.058 97.1502 117.272 94.954C116.414 94.4537 115.902 93.4282 115.937 92.2786C115.972 91.1271 116.545 90.1512 117.433 89.7311L141.291 78.6436C141.616 78.4927 141.983 78.6894 142.108 79.0828C142.232 79.4762 142.07 79.9192 141.744 80.0701L117.891 91.1538C117.477 91.3505 117.217 91.7916 117.201 92.334C117.184 92.8763 117.416 93.3404 117.82 93.5753C121.592 95.7637 127.996 99.2546 134.775 102.948C143.997 107.972 153.532 113.168 156.059 114.912C156.065 114.916 156.07 114.92 156.077 114.923C156.159 114.985 164.419 121.044 178.216 127.373C190.941 133.21 211.117 140.475 234.959 141.938C234.965 141.938 234.97 141.938 234.975 141.938C235.137 141.953 251.402 143.418 262.282 140.931C266.47 139.975 270.078 136.837 272.182 132.324L286.042 102.583C286.364 101.894 286.401 101.08 286.145 100.351C285.889 99.6213 285.377 99.0904 284.744 98.8918L262.254 91.8604C261.916 91.7553 261.714 91.3371 261.801 90.9285C261.887 90.5198 262.233 90.2754 262.57 90.3804L285.06 97.4118C286.077 97.7307 286.897 98.5824 287.307 99.7511C287.718 100.92 287.66 102.224 287.143 103.332L273.283 133.073C270.997 137.979 267.073 141.39 262.518 142.43C257.447 143.59 251.24 143.905 245.996 143.905L245.994 143.908Z" fill="url(#paint0_linear_3984_206544)"/>
<path d="M267.454 71.9116C267.337 67.5901 264.344 64.2023 260.771 64.3436C260.557 64.3513 260.347 64.3723 260.139 64.4047C256.872 64.9184 254.4 68.3597 254.51 72.4234C254.542 78.838 259.061 86.2647 260.794 88.8791L260.213 89.8721C260.213 89.8721 260.208 89.8816 260.205 89.8836C260.199 89.895 260.196 89.9007 260.196 89.9007L261.461 89.8511C261.461 89.8511 267.846 79.8349 267.454 71.9116ZM259.831 76.3994C257.951 76.4739 256.376 74.6921 256.314 72.4177C256.253 70.1452 257.727 68.2413 259.606 68.1668C259.66 68.1649 259.714 68.163 259.766 68.1649C261.575 68.1954 263.063 69.939 263.123 72.1484C263.172 73.9531 262.251 75.5267 260.929 76.1339C260.586 76.2905 260.216 76.3841 259.829 76.3994H259.831Z" fill="#BE202E"/>
<path d="M266.19 71.9609C266.079 67.8971 263.429 64.6602 260.14 64.4043C259.931 64.389 259.72 64.3833 259.506 64.3929C255.933 64.5342 253.131 68.1511 253.248 72.4727C253.286 80.4112 260.198 89.9003 260.198 89.9003C260.198 89.9003 260.201 89.8946 260.208 89.8831C260.211 89.8793 260.212 89.8755 260.216 89.8717C260.584 89.2873 266.571 79.6416 266.191 71.9609H266.19ZM259.832 76.399C257.952 76.4734 256.377 74.6917 256.315 72.4173C256.254 70.1448 257.728 68.2408 259.607 68.1664C259.661 68.1645 259.715 68.1625 259.767 68.1645C261.576 68.195 263.064 69.9385 263.124 72.148C263.173 73.9527 262.252 75.5262 260.93 76.1335C260.587 76.2901 260.217 76.3837 259.83 76.399H259.832Z" fill="#EC2127"/>
<path d="M260.93 76.1334C260.587 76.29 260.218 76.3836 259.831 76.3989C257.951 76.4733 256.377 74.6916 256.315 72.4172C256.254 70.1447 257.727 68.2408 259.607 68.1663C259.66 68.1644 259.714 68.1625 259.766 68.1644C258.444 68.7716 257.523 70.3433 257.572 72.1479C257.632 74.3574 259.119 76.1029 260.927 76.1315L260.93 76.1334Z" fill="#BE202E"/>
<path opacity="0.1" d="M152.645 79.5437C152.849 76.7258 148.797 73.9953 143.595 73.4449C138.392 72.8945 134.01 74.7327 133.806 77.5506C133.602 80.3685 137.654 83.099 142.856 83.6494C148.059 84.1998 152.442 82.3616 152.645 79.5437Z" fill="#F1D06F"/>
<path opacity="0.24" d="M150.712 79.3439C150.874 77.106 147.656 74.9367 143.523 74.4986C139.391 74.0606 135.909 75.5196 135.747 77.7575C135.585 79.9954 138.803 82.1647 142.936 82.6028C147.068 83.0408 150.55 81.5818 150.712 79.3439Z" fill="#F1D06F"/>
<path d="M148.509 79.1054C148.623 77.5252 146.351 75.994 143.433 75.6854C140.516 75.3768 138.058 76.4077 137.943 77.9879C137.829 79.5681 140.102 81.0993 143.019 81.4079C145.937 81.7164 148.395 80.6856 148.509 79.1054Z" fill="white"/>
<path d="M146.115 79.9722C144.918 80.7399 142.654 80.7246 141.059 79.9378C139.464 79.151 139.141 77.8888 140.338 77.1211C141.536 76.3534 143.8 76.3687 145.395 77.1554C146.99 77.9422 147.313 79.2045 146.115 79.9722Z" fill="#F1D06F"/>
</g>
<g filter="url(#filter0_d_3984_206544)">
<path d="M163.882 101.619L191.273 102.012L190.321 110.482L182.622 110.354V110.724C182.622 111.253 182.194 111.682 181.666 111.682C181.138 111.682 180.71 111.253 180.71 110.724V110.322L174.066 110.211L164.005 110.044C162.571 109.988 161.365 108.941 161.107 107.524L160.715 105.367C160.356 103.397 161.885 101.587 163.883 101.62L163.882 101.619Z" fill="#242634"/>
<path d="M143.163 104.818C143.445 100.272 140.877 96.4122 137.427 96.197C133.977 95.9818 130.951 99.4928 130.669 104.039C130.387 108.585 132.955 112.445 136.405 112.66C139.855 112.875 142.881 109.364 143.163 104.818Z" fill="#242634"/>
<path d="M137.003 99.5217C134.908 99.3909 133.068 101.565 132.893 104.378C132.719 107.19 134.276 109.575 136.371 109.706C138.466 109.837 140.307 107.664 140.482 104.852C140.657 102.039 139.1 99.6535 137.004 99.5227L137.003 99.5217Z" fill="#242634"/>
<path d="M138.525 100.062C136.701 100.324 135.205 102.219 135.057 104.607C134.915 106.889 136.051 108.878 137.703 109.475C139.196 108.849 140.345 107.044 140.481 104.851C140.61 102.78 139.798 100.94 138.525 100.062Z" fill="#3E4554"/>
<path d="M139.145 102.783C138.487 102.742 137.906 103.473 137.848 104.417C137.789 105.361 138.274 106.159 138.933 106.199C139.591 106.241 140.171 105.509 140.23 104.565C140.288 103.622 139.803 102.823 139.145 102.783Z" fill="#242634"/>
<path d="M136.99 112.681C138.095 112.764 140.579 112.945 141.701 112.809C148.992 111.916 149.472 100.004 144.614 97.115C143.422 96.4062 142.277 96.2215 140.982 96.1724C139.685 96.1234 138.309 96.1051 137.619 96.0945C137.357 96.0907 137.195 96.0888 137.077 96.1936C137.195 96.1936 137.313 96.1955 137.431 96.2023C140.881 96.4283 143.448 100.296 143.165 104.842C142.897 109.173 140.138 112.558 136.895 112.674L136.99 112.681Z" fill="#242634"/>
<path d="M141.702 112.807C148.992 111.915 149.473 100.003 144.615 97.1133C143.885 96.6786 143.173 96.442 142.431 96.3122C142.47 96.291 142.513 96.2871 142.57 96.2862C146.325 96.1612 148.207 98.684 148.884 102.374C149.652 106.558 147.888 113.344 141.525 112.825C141.587 112.821 141.645 112.814 141.701 112.808L141.702 112.807Z" fill="#242634"/>
<path d="M142.378 112.853C142.563 112.864 142.822 112.878 143.174 112.895C144.29 112.951 146.311 112.809 147.584 112.652C153.544 111.915 154.948 97.6591 148.257 96.6406C147.328 96.4992 145.632 96.3655 144.558 96.3039C143.482 96.2414 143.026 96.2645 142.774 96.2799L142.719 96.2837C146.374 96.2308 148.214 98.7354 148.883 102.375C149.615 106.364 148.045 112.722 142.378 112.853Z" fill="#242634"/>
<path d="M188.632 112.168L192.028 111.598L192.061 111.593C191.96 110.952 191.906 110.293 191.906 109.619C191.906 105.21 194.162 101.404 197.432 99.6245L208.828 100.058L206.163 93.9556L199.53 94.2624L199.347 94.7317L197.097 94.6202C196.273 94.5875 195.645 94.7702 195.2 95.1598L194.155 96.2043C193.801 96.4957 193.54 96.5515 193.245 96.5496C190.642 100.325 189.411 104.349 188.662 108.461L188.631 112.17L188.632 112.168Z" fill="#242634"/>
<path d="M182.07 28.1876L206.854 39.7235C208.738 40.6488 209.136 41.777 209.16 42.9562L209.196 50.6862V87.2974L192.34 94.559L192.253 96.5173L180.781 96.2268V27.751C181.244 27.8597 181.674 28.0068 182.069 28.1867L182.07 28.1876Z" fill="#E2D9E2"/>
<g style="mix-blend-mode:multiply" opacity="0.27">
<path d="M188.48 56.3286L180.709 74.5356L180.782 96.2263L186.978 96.383L194.226 90.0024L188.48 56.3286Z" fill="#606060"/>
</g>
<path d="M180.709 101.892L190.701 102.012L193.246 96.5478L180.782 96.2266L180.709 101.892Z" fill="#3E4554"/>
<g style="mix-blend-mode:multiply" opacity="0.27">
<path d="M180.709 101.892L190.701 102.012L193.246 96.5478L180.782 96.2266L180.709 101.892Z" fill="#606060"/>
</g>
<path d="M189.259 91.9278L195.541 92.3289L205.888 92.9906C206.231 93.0233 206.56 93.0945 206.874 93.2089C206.932 93.2262 206.988 93.2474 207.044 93.2724C207.102 93.2926 207.16 93.3176 207.218 93.3455C207.223 93.3455 207.226 93.3484 207.231 93.3532C208.111 93.7639 208.854 94.5141 209.457 95.6202L212.084 100.564L224.84 102.587L225.625 96.9706L225.577 95.0643L225.564 94.6334L225.2 81.4768L225.096 80.742L227.175 80.8892L244.284 82.3011L241.52 77.9403L237.941 77.3949L226.811 76.0465C225.673 72.3906 223.425 65.8186 220.732 61.2395C220.603 61.0365 220.471 60.8336 220.337 60.6306L219.424 59.966C217.461 58.5339 220.072 58.4368 221.189 58.2213C220.491 57.9299 219.371 57.7548 217.555 57.7779L191.174 60.1084C190.315 61.0769 189.811 61.9695 189.732 62.7072C188.777 73.1957 188.946 82.6281 189.259 91.9278Z" fill="#5697D6"/>
<path d="M224.883 59.1279C226.919 59.731 228.937 60.4793 230.657 61.1718C228.78 60.3552 226.696 59.6531 224.883 59.1279Z" fill="#023493"/>
<path d="M184.684 83.9036L189.062 84.6009C188.935 77.6307 189.026 70.4585 189.732 62.7083C189.811 61.9706 190.314 61.078 191.174 60.1095L211.468 58.3167C210.522 58.1772 209.427 58.0204 208.177 57.8608C205.228 57.4809 201.434 57.0769 198.114 56.8134C194.795 56.5498 191.95 56.4229 190.147 56.37C189.444 56.3498 188.9 56.3392 188.48 56.3296L188.553 60.6577L188.55 60.6606C188.55 60.6606 188.546 60.6654 188.543 60.6654C188.312 60.802 184.575 63.3479 184.683 83.9046L184.684 83.9036Z" fill="#074F95"/>
<path d="M195.355 92.4438C195.425 92.4438 195.482 92.3871 195.482 92.3169L195.493 62.5817L216.114 61.1947C217.8 61.0793 218.544 61.9353 219.095 62.876C222.352 68.3313 223.816 74.5138 224.914 80.3837C224.927 80.453 224.992 80.4992 225.062 80.4847C225.131 80.4722 225.176 80.4059 225.163 80.3366C224.061 74.4436 222.59 68.2342 219.312 62.7461C218.749 61.7853 217.925 60.8187 216.098 60.9418L195.359 62.3364C195.293 62.3412 195.241 62.396 195.241 62.4634L195.229 92.3178C195.229 92.3881 195.286 92.4448 195.356 92.4448L195.355 92.4438Z" fill="#074F95"/>
<path d="M213.625 105.201L225.594 107.07L226.542 112.407L216.091 111.951L214.253 111.939L211.448 105.331L213.625 105.201Z" fill="#5697D6"/>
<path d="M224.839 102.587L212.085 100.564L213.626 105.2L225.594 107.07L224.839 102.587Z" fill="#074F95"/>
<path d="M201.602 98.5488C196.248 98.5488 191.906 103.504 191.906 109.617C191.906 115.731 196.248 120.686 201.601 120.686C206.955 120.686 211.297 115.73 211.297 109.617C211.297 103.505 206.955 98.5488 201.602 98.5488Z" fill="#4D5466"/>
<path d="M201.1 103.023C197.696 103.023 195.048 106.039 195.186 109.758C195.325 113.477 198.197 116.493 201.602 116.493C205.007 116.493 207.654 113.476 207.515 109.758C207.377 106.039 204.505 103.023 201.1 103.023Z" fill="#CDC7D5"/>
<path d="M200.882 105.417C198.637 105.417 196.818 107.386 196.818 109.814C196.818 112.243 198.638 114.212 200.882 114.212C203.126 114.212 204.946 112.243 204.946 109.814C204.946 107.386 203.126 105.417 200.882 105.417Z" fill="#A8A2B5"/>
<path d="M190.253 102.224L190.313 102.227C190.839 100.815 191.482 99.4232 192.281 98.0613L192.289 97.8862C191.454 99.3039 190.791 100.753 190.253 102.224Z" fill="#242634"/>
<path d="M180.781 96.2268L90.8627 95.3179L87.9346 100.39L180.708 101.892L180.781 96.2268Z" fill="#3E4554"/>
<path d="M107.973 109.017C107.715 108.109 107.571 107.125 107.571 106.098C107.571 102.427 109.395 99.3138 111.913 98.2462L111.938 95.5252L104.202 95.4521L104.126 109.354L107.972 109.017H107.973Z" fill="#242634"/>
<path d="M198.133 72.5811C198.416 73.6997 199.116 74.3181 200.093 74.6095C206.469 76.8101 213.416 78.552 221.099 79.8629C221.86 79.9697 222.394 79.911 222.602 79.6148C222.362 79.6398 222.065 79.6273 221.727 79.5792C214.044 78.2682 207.096 76.5245 200.72 74.3258C199.742 74.0344 199.042 73.413 198.76 72.2974C198.561 70.9912 196.987 64.7799 198.014 63.3853L197.943 63.3901C195.918 63.3189 197.908 71.0999 198.133 72.5811Z" fill="#464F5E"/>
<path d="M198.76 72.2966C199.041 73.4123 199.742 74.0337 200.72 74.3251C207.097 76.5228 214.044 78.2675 221.727 79.5785C222.065 79.6266 222.362 79.6391 222.602 79.6141C222.614 79.6016 222.622 79.5833 222.632 79.5689C223.128 74.5155 220.015 67.7136 217.67 63.5808C216.972 62.5689 215.86 62.1227 214.319 62.2496L198.014 63.3855C196.987 64.7801 198.56 70.9915 198.76 72.2976V72.2966Z" fill="#59647A"/>
<path d="M198.187 84.8009V88.097C198.187 89.1107 198.692 89.6186 199.704 89.6186H200.243C200.281 89.6186 200.321 89.6186 200.357 89.6157C199.421 89.5772 198.953 89.0732 198.953 88.097V84.8009C198.953 83.8246 199.421 83.3207 200.357 83.2822C200.321 83.2793 200.281 83.2793 200.243 83.2793H199.704C198.693 83.2793 198.187 83.7862 198.187 84.8009Z" fill="#023493"/>
<path d="M198.953 84.8009V88.097C198.953 89.0733 199.421 89.5772 200.357 89.6157C201.292 89.5772 201.76 89.0733 201.76 88.097V84.8009C201.76 83.8247 201.292 83.3207 200.357 83.2822C199.421 83.3207 198.953 83.8247 198.953 84.8009Z" fill="#074F95"/>
<path d="M215.43 115.284C219.833 117.769 226.097 116.81 228.462 112.334L226.542 112.406L216.715 112.032C216.722 112.033 216.733 112.048 216.717 112.211C216.701 112.389 216.732 112.778 216.33 113.612C216.034 114.223 215.735 114.779 215.43 115.284Z" fill="#242634"/>
<g style="mix-blend-mode:multiply" opacity="0.27">
<path d="M215.364 84.0934L217.197 87.8964C217.528 88.4235 218.027 88.6774 218.652 88.7207L221.205 88.8217C221.244 88.8246 221.278 88.8217 221.314 88.8188C221.792 88.7707 221.728 88.0378 221.248 88.0378H220.911L218.809 87.9589C218.374 87.906 218.04 87.7252 217.86 87.3559L216.064 83.4769C216.039 83.424 216.026 83.3653 216.026 83.3067L216.208 67.2753C216.211 67.055 216.39 66.8819 216.61 66.8848L220.641 66.9733C220.783 66.9762 220.922 66.9069 220.988 66.7828C221.094 66.5751 221.096 66.377 220.983 66.1846C220.917 66.0701 220.791 66.0095 220.66 66.0067L215.71 65.9634C215.338 66.0576 215.2 66.3664 215.197 66.8155C215.154 69.6269 214.496 82.4103 215.361 84.0915L215.364 84.0934Z" fill="#606060"/>
</g>
<path d="M202.991 120.601C209.01 120.289 212.974 120.572 216.328 113.611C216.73 112.777 216.699 112.388 216.715 112.211C216.732 112.033 216.718 112.032 216.711 112.032C216.705 112.032 216.705 112.032 216.296 112.017C215.888 112 215.07 111.969 214.661 111.954L214.253 111.939L214.019 111.388C213.786 110.836 213.319 109.736 212.852 108.635C212.384 107.534 211.916 106.432 211.683 105.881C211.527 105.514 211.3 105.032 211.003 104.433C210.556 103.533 209.664 101.736 209.168 100.738C208.673 99.7411 208.575 99.5449 208.526 99.4458C208.494 99.3804 208.461 99.315 208.428 99.2496C208.38 99.1515 208.282 98.9543 208.233 98.8562C208.201 98.7908 207.967 98.7309 207.533 98.6764C206.881 98.5956 205.58 98.4321 204.373 98.4099C203.281 98.3897 202.267 98.4869 201.67 98.5504C206.994 98.5908 211.298 103.531 211.298 109.618C211.298 115.305 207.539 119.991 202.703 120.615L202.994 120.6L202.991 120.601Z" fill="#242634"/>
<path d="M119.122 114.161C126.342 112.843 126.084 101.168 121.056 98.6408C120.3 98.26 119.575 98.0724 118.827 97.9907C118.865 97.9676 118.908 97.9618 118.964 97.957C122.704 97.6059 124.739 99.9566 125.644 103.523C126.669 107.566 125.33 114.307 118.948 114.188C119.009 114.18 119.067 114.17 119.122 114.161Z" fill="#3E4554"/>
<path d="M119.8 114.162C119.985 114.162 120.244 114.159 120.597 114.156C121.715 114.142 123.722 113.88 124.984 113.648C130.888 112.563 131.445 98.7301 124.703 98.1424C123.767 98.0607 122.136 98.0559 120.95 97.851C119.888 97.6683 119.418 97.9068 119.168 97.9366L119.113 97.9433C122.758 97.6692 124.749 100.004 125.642 103.522C126.62 107.378 125.447 113.688 119.799 114.161L119.8 114.162Z" fill="#242634"/>
<path d="M201.576 105.362C201.345 105.362 201.118 105.38 200.897 105.417C203.136 105.424 204.948 107.39 204.948 109.814C204.948 112.238 203.21 114.12 201.037 114.208C201.213 114.231 201.393 114.243 201.576 114.243C203.946 114.243 205.866 112.254 205.866 109.802C205.866 107.351 203.945 105.362 201.576 105.362Z" fill="#908C9B"/>
<path d="M200.883 107.945C199.93 107.945 199.156 108.782 199.156 109.814C199.156 110.846 199.93 111.682 200.883 111.682C201.837 111.682 202.61 110.846 202.61 109.814C202.61 108.782 201.837 107.945 200.883 107.945Z" fill="#CDC7D5"/>
<path d="M207.229 93.3535C208.109 93.7642 208.853 94.5144 209.455 95.6205C208.904 94.5327 208.163 93.7719 207.229 93.3535Z" fill="#074F95"/>
<path d="M189.259 91.9277L195.541 92.3278L195.356 92.3153L189.259 91.9277Z" fill="#074F95"/>
<path d="M103.337 108.626C103.334 109.032 103.663 109.356 104.06 109.356C104.083 109.356 104.103 109.356 104.127 109.353L104.202 95.4515L103.395 95.4438L103.337 108.625V108.626Z" fill="#3E4554"/>
<path d="M189.362 110.18C189.357 109.65 189.357 109.683 189.415 109.164C189.474 108.644 189.59 107.574 189.848 106.377C190.103 105.178 190.497 103.852 190.877 102.717C191.256 101.584 191.618 100.643 192.169 99.5524C192.718 98.4646 193.454 97.2325 193.963 96.3957C194.059 96.239 194.145 96.0937 194.225 95.9648L194.19 95.9975C193.831 96.2938 193.568 96.3496 193.269 96.3476C192.918 96.8574 192.592 97.3691 192.287 97.8865C191.453 99.3042 190.79 100.754 190.252 102.224C189.511 104.25 189.007 106.319 188.625 108.411L188.593 112.168L189.379 112.034L189.362 110.18Z" fill="#3E4554"/>
<path d="M188.478 56.1413L188.48 56.3288C188.901 56.3394 189.444 56.349 190.147 56.3692C191.951 56.4221 194.795 56.5491 198.114 56.8126C201.434 57.0762 205.228 57.4792 208.177 57.86C209.426 58.0197 210.522 58.1774 211.468 58.3159L214.247 58.0697C213.835 57.9889 213.337 57.9023 212.729 57.8033C209.811 57.3397 204.452 56.6905 199.814 56.3019C195.175 55.9143 191.256 55.7873 189.296 55.7239L188.755 55.7065C188.667 55.8508 188.573 55.996 188.479 56.1403L188.478 56.1413Z" fill="#F5CF38"/>
<path d="M220.02 57.9165L221.188 58.2233C220.885 58.0964 220.503 57.9925 220.02 57.9165Z" fill="#5697D6"/>
<path d="M188.478 56.1414L188.48 56.329C188.901 56.3395 189.444 56.3492 190.147 56.3694C191.951 56.4223 194.795 56.5492 198.114 56.8128C201.434 57.0763 205.228 57.4793 208.177 57.8602C209.426 58.0198 210.522 58.1776 211.468 58.3161L214.247 58.0698L217.461 57.7861L217.555 57.7784C218.585 57.7659 219.389 57.8169 220.021 57.915C220.503 57.991 220.886 58.0948 221.189 58.2218L236.235 63.8686L235.82 63.2174C235.411 62.573 234.811 62.0738 234.106 61.7853L233.547 61.5573L220.004 56.0356L205.181 49.9887C205.181 49.9887 196.625 48.0469 193.347 48.6528C192.31 48.7086 191.398 49.4261 191.12 50.4889C190.675 52.1797 189.868 53.9273 188.755 55.7096C188.667 55.8538 188.573 55.9991 188.479 56.1433L188.478 56.1414Z" fill="#5697D6"/>
<path d="M219.423 59.9679L219.454 59.9909L221.409 59.6206L235.615 64.4864L236.235 63.8699L221.189 58.2231C220.072 58.4386 217.461 58.5348 219.424 59.9679H219.423Z" fill="#074F95"/>
<path d="M221.407 59.6201C221.407 59.6201 226.091 71.4273 226.893 76.318L228.094 76.4527L241.518 77.9406C240.211 72.8219 237.808 68.2273 236.508 65.9661C235.964 65.0226 235.613 64.4859 235.613 64.4859L221.407 59.6201Z" fill="#59647A"/>
<path d="M244.283 82.3018L243.92 83.6666L231.347 82.8453L230.472 81.1611L244.283 82.3018Z" fill="#074F95"/>
<path d="M231.348 82.8438L232.273 95.0712L235.015 96.2811C238.044 97.6171 241.53 97.4247 244.397 95.7647L245.045 95.3896L244.996 94.2614L244.577 84.7433C244.56 84.3528 244.367 83.9902 244.051 83.7623L243.92 83.6661L231.348 82.8447V82.8438Z" fill="#242634"/>
<path d="M230.471 81.1609L230.956 81.7034C231.15 81.9198 231.28 82.1871 231.33 82.4738L233.324 93.8962C233.436 94.5367 232.92 95.1138 232.272 95.0715L225.564 94.632L225.199 81.4764L225.08 80.6357L230.47 81.1599L230.471 81.1609Z" fill="#5697D6"/>
<path d="M219.423 59.9673L220.336 60.632C220.471 60.8349 220.602 61.0378 220.731 61.2408C223.493 65.9334 225.784 72.7238 226.894 76.319C226.092 71.4282 221.408 59.6211 221.408 59.6211L219.423 59.9683V59.9673Z" fill="#464F5E"/>
<path d="M226.285 82.086L226.864 93.4469C226.882 93.7989 227.15 94.0884 227.501 94.1288L228.63 94.2606L227.914 81.6618L226.945 81.4974C226.588 81.4368 226.268 81.7234 226.285 82.086Z" fill="#F2F2F2"/>
<path d="M227.912 81.6621L228.628 94.2608H231.028C231.65 94.2608 232.126 93.7059 232.033 93.0864L230.452 82.6816C230.376 82.1844 229.969 81.8093 229.47 81.7737L227.912 81.6621Z" fill="#FDFDFD"/>
<path d="M225.625 96.971L233.834 98.406L232.476 95.9649L232.274 95.0724L225.563 94.6338L225.576 95.0647L225.625 96.971Z" fill="#074F95"/>
<path d="M225.594 107.07L226.542 112.406H231.117L234.592 107.873L225.594 107.07Z" fill="#3E4554"/>
<g style="mix-blend-mode:multiply" opacity="0.27">
<path d="M225.594 107.07L226.542 112.406H231.117L234.592 107.873L225.594 107.07Z" fill="#606060"/>
</g>
<path d="M225.593 107.07L234.591 107.873L233.832 98.4062L225.624 96.9712L224.838 102.587L225.593 107.07Z" fill="#5697D6"/>
<path d="M233.833 98.4059L234.592 107.873L246.921 105.984L246.142 97.749L233.833 98.4059Z" fill="#5697D6"/>
<path d="M237.615 101.509L237.858 104.53C237.897 105.023 238.347 105.378 238.835 105.305L244.058 104.503C244.504 104.435 244.819 104.031 244.777 103.58L244.754 103.335C244.672 103.657 244.404 103.913 244.058 103.967L238.835 104.767C238.347 104.842 237.897 104.486 237.858 103.992L237.636 101.247C237.615 101.33 237.608 101.419 237.615 101.51V101.509Z" fill="#242634"/>
<path d="M237.637 101.246L237.858 103.991C237.898 104.486 238.348 104.841 238.835 104.766L244.058 103.966C244.404 103.912 244.672 103.657 244.755 103.334L244.541 101.082C244.497 100.626 244.105 100.285 243.65 100.31L238.42 100.587C238.032 100.609 237.72 100.887 237.638 101.246H237.637Z" fill="#3E4554"/>
<path d="M246.921 105.984L243.612 109.511L231.117 112.406L234.591 107.874L246.921 105.984Z" fill="#3E4554"/>
<path d="M232.272 95.0728L232.475 95.9653L233.833 98.4073L246.143 97.7504L244.557 96.5212L245.045 95.3901L244.397 95.7652C241.53 97.4263 238.044 97.6187 235.014 96.2827L232.272 95.0737V95.0728Z" fill="#084F93"/>
<path d="M168.516 111.01V111.05C169.158 111.07 169.783 111.091 170.389 111.109C170.688 111.119 170.981 111.129 171.269 111.137V111.098L171.449 99.2633C171.613 98.0341 172.147 96.9992 173.092 96.1826H169.835C169.207 96.9434 168.808 98.0485 168.603 99.4585L168.515 111.01H168.516Z" fill="#4D5466"/>
<path d="M170.39 111.07V111.109C170.688 111.119 170.982 111.129 171.269 111.137V111.098L171.411 101.814V101.811L171.45 99.2633C171.614 98.0341 172.148 96.9992 173.093 96.1826H172.138C172.085 96.2413 172.031 96.3067 171.974 96.3779C171.63 96.7962 171.164 97.4099 170.899 98.0745C170.633 98.741 170.57 99.4614 170.514 102.029C170.459 104.54 170.416 108.817 170.391 111.07H170.39Z" fill="#242634"/>
<path d="M132.598 109.856V109.864C133.154 109.881 133.779 109.902 134.464 109.927C134.691 109.932 134.926 109.94 135.167 109.947V109.94L135.321 98.779C135.473 97.5777 135.966 96.5678 136.839 95.7666H133.832C133.251 96.5091 132.882 97.5921 132.692 98.9685L132.598 109.855V109.856Z" fill="#4D5466"/>
<path d="M134.465 109.917V109.928C134.692 109.933 134.927 109.94 135.168 109.948V109.94L135.292 101.061L135.322 98.7795C135.472 97.5926 135.955 96.5942 136.806 95.7979C136.827 95.7777 136.839 95.7671 136.839 95.7671H135.782C135.751 95.8258 135.719 95.8892 135.678 95.9575C135.479 96.323 135.137 96.8857 134.93 97.3137C134.72 97.7475 134.641 98.0466 134.581 99.5451C134.522 101.044 134.482 103.736 134.454 105.919C134.434 107.608 134.421 108.989 134.465 109.917Z" fill="#242634"/>
<path d="M213.624 105.2L212.083 100.564L209.455 95.6201C208.794 94.314 207.859 93.483 206.646 93.1386L195.354 92.3173L189.258 91.9277C188.754 91.972 188.442 92.2182 188.4 92.7491L188.24 96.3251L192.984 96.5367C193.398 96.5636 193.698 96.579 194.154 96.2039L195.197 95.1584C195.641 94.7699 196.269 94.5862 197.094 94.6198L204.19 94.968C205.592 95.145 206.714 95.8048 207.178 96.7425L211.445 105.331L213.622 105.201L213.624 105.2Z" fill="#5697D6"/>
<path d="M188.462 92.4582C189.772 92.714 192.033 92.864 194.803 93.0237C197.693 93.1911 201.14 93.3661 203.227 93.5383C205.314 93.7133 206.039 93.8884 206.571 94.0855C207.099 94.2837 207.43 94.5068 207.661 94.679C207.891 94.854 208.017 94.981 208.616 96.0024C209.218 97.0239 210.293 98.9436 210.829 99.9016C211.188 100.54 211.591 101.476 212.038 102.708C212.276 103.367 212.491 104.1 212.84 105.073L213.627 105.2L212.084 100.563L209.457 95.6196C208.855 94.5145 208.111 93.7633 207.231 93.3526C207.226 93.3478 207.223 93.3449 207.218 93.3449C207.16 93.3171 207.102 93.292 207.044 93.2718C206.988 93.2488 206.93 93.2286 206.874 93.2084C206.56 93.0939 206.231 93.0237 205.888 92.99L195.541 92.3283L189.259 91.9272C188.86 91.9628 188.579 92.1254 188.463 92.4572L188.462 92.4582Z" fill="#074F95"/>
<path d="M129.874 109.77C129.942 109.773 130.021 109.775 130.109 109.778L129.874 109.77Z" fill="#242634"/>
<path d="M81.5391 95.2475L180.782 96.2266V27.7508C179.49 27.444 177.919 27.4267 175.999 27.8066L82.156 44.7383L81.5391 95.2475Z" fill="#EDE6ED"/>
<path d="M84.6742 87.447C84.6463 89.6476 86.4222 91.4453 88.6173 91.4376L175.569 91.2038C177.744 91.199 179.502 89.4216 179.489 87.2412L179.206 33.8792C179.194 31.4372 176.988 29.5944 174.591 30.0205L88.412 45.3161C86.5527 45.646 85.1922 47.2531 85.1673 49.1441L84.6742 87.4461V87.447Z" fill="#E2D9E2"/>
<g style="mix-blend-mode:multiply" opacity="0.27">
<path d="M85.1673 49.145C85.1826 47.9677 85.7161 46.9021 86.5642 46.1836C85.9933 46.8617 85.6499 47.7321 85.6374 48.6737L85.1443 86.9757C85.1164 89.1763 86.8923 90.974 89.0874 90.9663L176.039 90.7326C176.997 90.7306 177.873 90.3844 178.553 89.8121C177.834 90.6595 176.767 91.201 175.569 91.2038L88.6173 91.4376C86.4222 91.4453 84.6463 89.6476 84.6742 87.447L85.1673 49.145Z" fill="#606060"/>
</g>
<g style="mix-blend-mode:multiply" opacity="0.27">
<path d="M135.291 101.061C135.296 101.124 135.299 101.157 135.299 101.157L139.057 101.218L136.839 95.7661C136.839 95.7661 136.826 95.7767 136.806 95.7969C135.954 96.5933 135.47 97.5916 135.322 98.7785L135.291 101.06V101.061Z" fill="#606060"/>
</g>
<g style="mix-blend-mode:multiply" opacity="0.27">
<path d="M171.411 101.811V101.814H175.849L173.093 96.1821C172.147 96.9987 171.614 98.0326 171.45 99.2628L171.411 101.811Z" fill="#606060"/>
</g>
<g style="mix-blend-mode:multiply" opacity="0.27">
<path d="M214.721 78.5159V67.6465C214.721 67.408 214.766 67.2185 214.855 67.0762L205.015 75.7113L214.721 78.5149V78.5159Z" fill="#606060"/>
</g>
<path d="M216.711 84.0934L218.545 87.8964C218.876 88.4235 219.375 88.6774 219.999 88.7207L222.553 88.8217C222.591 88.8246 222.626 88.8217 222.662 88.8188C223.139 88.7707 223.076 88.0378 222.595 88.0378H222.259L220.156 87.9589C219.722 87.906 219.388 87.7252 219.208 87.3559L217.412 83.4769C217.387 83.424 217.373 83.3653 217.373 83.3067L217.556 67.2753C217.558 67.055 217.738 66.8819 217.958 66.8848L221.989 66.9733C222.131 66.9762 222.27 66.9069 222.335 66.7828C222.442 66.5751 222.444 66.377 222.331 66.1846C222.264 66.0701 222.139 66.0095 222.007 66.0067L217.058 65.9634C216.686 66.0576 216.547 66.3664 216.544 66.8155C216.501 69.6269 215.844 82.4103 216.708 84.0915L216.711 84.0934Z" fill="#3E4554"/>
<path d="M214.721 67.6463V80.2036C214.721 80.8297 215.032 81.1645 215.654 81.2L218.512 81.3722C219.137 81.4107 219.448 81.1164 219.448 80.4902V67.9329C219.448 67.3068 219.137 66.972 218.512 66.9336L215.654 66.7614C215.434 66.7489 215.258 66.7816 215.116 66.8518V66.848L215.101 66.8605C215 66.9134 214.914 66.9817 214.855 67.0759C214.767 67.2183 214.721 67.4077 214.721 67.6463Z" fill="#3E4554"/>
<path d="M239.718 91.7657C240.319 91.7657 240.807 90.9764 240.807 90.0027C240.807 89.0291 240.319 88.2397 239.718 88.2397C239.116 88.2397 238.629 89.0291 238.629 90.0027C238.629 90.9764 239.116 91.7657 239.718 91.7657Z" fill="#C9C9C9"/>
<path d="M240.107 91.7657C240.709 91.7657 241.196 90.9764 241.196 90.0027C241.196 89.0291 240.709 88.2397 240.107 88.2397C239.506 88.2397 239.019 89.0291 239.019 90.0027C239.019 90.9764 239.506 91.7657 240.107 91.7657Z" fill="#F2F2F2"/>
<g style="mix-blend-mode:multiply" opacity="0.27">
<path d="M221.407 59.6201C221.407 59.6201 226.091 71.4273 226.893 76.318L228.094 76.4527L226.284 65.9661H236.509C235.965 65.0226 235.614 64.4859 235.614 64.4859L221.408 59.6201H221.407Z" fill="#606060"/>
</g>
<path d="M224.964 102.605L225.769 96.8444L225.706 95.1978L225.69 94.6303L225.163 80.3369L224.914 80.384L225.446 94.9314L225.475 96.8492L224.714 102.569L224.964 102.605Z" fill="#074F95"/>
<path d="M113.829 114.347C117.286 114.347 120.089 110.654 120.089 106.099C120.089 101.544 117.286 97.8516 113.829 97.8516C110.373 97.8516 107.57 101.544 107.57 106.099C107.57 110.654 110.373 114.347 113.829 114.347Z" fill="#4D5466"/>
<path d="M113.608 101.192C111.509 101.192 109.807 103.477 109.807 106.295C109.807 109.113 111.509 111.396 113.608 111.396C115.707 111.396 117.41 109.113 117.41 106.295C117.41 103.477 115.708 101.192 113.608 101.192Z" fill="#908C9B"/>
<path d="M115.16 101.637C113.356 102.012 111.979 103.997 111.979 106.39C111.979 108.783 113.236 110.591 114.923 111.084C116.375 110.365 117.41 108.492 117.41 106.296C117.41 104.22 116.486 102.434 115.16 101.637Z" fill="#A8A2B5"/>
<path d="M115.946 104.313C115.287 104.313 114.753 105.08 114.753 106.025C114.753 106.969 115.287 107.736 115.946 107.736C116.606 107.736 117.14 106.969 117.14 106.025C117.14 105.08 116.606 104.313 115.946 104.313Z" fill="#CDC7D5"/>
<path d="M114.411 114.326C115.518 114.34 118.009 114.366 119.121 114.159C126.341 112.815 126.083 100.895 121.055 98.3146C119.822 97.6818 118.667 97.5683 117.371 97.6C116.074 97.6317 114.699 97.6991 114.01 97.7318C113.748 97.7443 113.586 97.7529 113.476 97.8645C113.594 97.8568 113.711 97.852 113.83 97.852C117.287 97.8626 120.089 101.563 120.089 106.118C120.089 110.673 117.546 114.007 114.315 114.325H114.411V114.326Z" fill="#242634"/>
<path d="M124.34 109.214L176.08 111.659L177.22 111.137L178.391 107.826L124.34 105.86L123.199 106.384L124.34 109.214Z" fill="#242634"/>
<path d="M123.199 109.425L176.08 111.659L177.25 108.348L123.199 106.383V109.425Z" fill="#4D5466"/>
<path d="M125.67 104.768L177.41 107.213L178.55 106.69L179.721 103.38L124.703 101.787L123.314 102.322L125.67 104.768Z" fill="#242634"/>
<path d="M123.314 105.356L177.41 107.213L178.58 103.903L123.314 102.322V105.356Z" fill="#4D5466"/>
<path d="M243.919 83.6655L244.05 83.7617C244.366 83.9897 244.559 84.3532 244.576 84.7428L244.995 94.2608H245.255C245.561 94.2608 245.803 93.9992 245.78 93.6924L245.107 85.0149C245.067 84.5187 244.771 84.0801 244.324 83.8627L243.919 83.6655Z" fill="#074F95"/>
</g>
<path d="M151.659 63.5178L155.589 63.3102L153.934 61.8218C153.705 61.6164 153.354 61.635 153.148 61.8633L151.659 63.5178Z" fill="#00AC86"/>
<path d="M125.089 64.5598C124.456 64.5932 124.056 64.8459 124.079 65.2779C124.154 66.7042 127.892 65.7313 128.015 68.2527C128.084 69.5685 126.979 70.3923 125.432 70.474C124.306 70.5335 123.187 70.1392 122.398 69.5063L122.901 68.3413C123.658 68.9459 124.633 69.2872 125.387 69.2474C126.141 69.2076 126.578 68.9028 126.552 68.4104C126.474 66.9442 122.74 67.9772 122.608 65.4765C122.543 64.2509 123.557 63.4117 125.135 63.3284C126.069 63.279 127.02 63.5311 127.716 63.9376L127.235 65.1314C126.458 64.7191 125.632 64.5311 125.089 64.5598Z" fill="#00AC86"/>
<path d="M132.523 70.0491L132.489 69.3962C132.142 69.8881 131.552 70.161 130.788 70.2013C129.632 70.2624 128.871 69.5873 128.821 68.6333C128.768 67.6387 129.469 66.9874 130.775 66.9083L132.343 66.8255L132.335 66.6849C132.302 66.0622 131.871 65.7124 131.067 65.7548C130.565 65.7814 130.031 65.9809 129.496 66.3414L128.976 65.4624C129.727 64.9898 130.317 64.7267 131.302 64.6747C132.709 64.6004 133.54 65.2718 133.614 66.4666L133.809 69.9812L132.523 70.0491ZM132.414 68.1816L132.389 67.6996L131.032 67.7713C130.339 67.8079 130.028 68.0155 130.052 68.4875C130.076 68.9396 130.454 69.2119 131.046 69.1806C131.8 69.1408 132.372 68.7077 132.414 68.1816Z" fill="#00AC86"/>
<path d="M136.24 62.3797L136.634 69.8323L135.327 69.9013L134.934 62.4487L136.24 62.3797Z" fill="#00AC86"/>
<path d="M143.007 67.2594L139.038 67.4691C139.249 68.2234 139.856 68.6544 140.64 68.613C141.193 68.5839 141.694 68.346 142.055 67.9341L142.797 68.63C142.295 69.2409 141.53 69.6237 140.585 69.6736C138.917 69.7617 137.763 68.7145 137.678 67.0976C137.592 65.4605 138.659 64.296 140.266 64.2111C142.155 64.1113 143.035 65.3039 143.007 67.2594ZM141.775 66.4479C141.703 65.6564 141.144 65.182 140.33 65.225C139.556 65.2658 139.04 65.797 138.962 66.5966L141.775 66.4479Z" fill="#00AC86"/>
<path d="M145.636 64.9355C145.214 64.9578 144.92 65.114 144.938 65.4457C144.985 66.3496 147.804 65.7275 147.906 67.6559C147.964 68.7505 147.017 69.3344 145.872 69.3949C145.058 69.4379 144.2 69.2213 143.611 68.7589L144.015 67.821C144.53 68.217 145.286 68.4187 145.869 68.3879C146.321 68.364 146.655 68.1952 146.636 67.8438C146.584 66.8492 143.809 67.5397 143.718 65.6309C143.66 64.5262 144.577 63.9641 145.662 63.9068C146.366 63.8696 147.11 64.0417 147.662 64.3751L147.24 65.3442C146.701 65.0603 146.098 64.9111 145.636 64.9355Z" fill="#00AC86"/>
<path d="M155.194 68.8521L153.576 68.9375L151.645 66.5217L149.999 69.1265L148.421 69.2098L150.763 65.4703L148.211 62.1707L149.788 62.0874L151.528 64.312L155.194 68.8521Z" fill="#00AC86"/>
<path d="M111.561 63.2742L119.945 62.8314L116.692 59.9061C116.051 59.33 115.064 59.3821 114.488 60.0225L111.561 63.2742Z" fill="#00AC86"/>
<path d="M115.808 67.0305L111.56 63.2103L111.561 63.2086L108.393 60.3592C107.776 59.8044 106.825 59.8545 106.27 60.4713L103.419 63.6387L107.705 67.4927L107.823 67.5724L115.808 67.0305Z" fill="#074F95"/>
<path d="M107.675 67.4663L111.92 71.2744L111.919 71.2761L115.087 74.1255C115.704 74.6803 116.655 74.6301 117.21 74.0134L120.061 70.846L115.775 66.992L115.742 67.0279L107.675 67.4663Z" fill="#00AC86"/>
<path d="M107.09 67.9013L103.668 71.7022L103.659 71.7027L103.664 71.7071L103.66 71.7119L103.669 71.7114L106.865 74.5851C107.496 75.1528 108.468 75.1014 109.036 74.4704L110.035 73.3609L107.676 67.4671C107.459 67.5679 107.259 67.7128 107.09 67.9013Z" fill="#074F95"/>
<path d="M107.707 67.4936L107.706 67.4931L107.677 67.4673L107.677 67.4675L110.036 73.3613L111.912 71.2765L111.92 71.2761L111.921 71.2744L107.707 67.4936Z" fill="#143C65"/>
<rect x="132" y="6.68604" width="40.9209" height="40.9209" rx="20.4604" fill="#B1CBFC"/>
<g opacity="0.4">
<rect x="138.296" y="12.9814" width="28.3298" height="28.3298" rx="14.1649" fill="#EDF3FE"/>
</g>
<path d="M158.766 22.4253L149.736 32.8846L144.982 28.7801" stroke="url(#paint1_linear_3984_206544)" stroke-width="3.14776" stroke-linecap="round" stroke-linejoin="round"/>
<defs>
<filter id="filter0_d_3984_206544" x="75.7825" y="24.6427" width="173.057" height="100.84" filterUnits="userSpaceOnUse" color-interpolation-filters="sRGB">
<feFlood flood-opacity="0" result="BackgroundImageFix"/>
<feColorMatrix in="SourceAlpha" type="matrix" values="0 0 0 0 0 0 0 0 0 0 0 0 0 0 0 0 0 0 127 0" result="hardAlpha"/>
<feOffset dx="-1.91884" dy="0.959419"/>
<feGaussianBlur stdDeviation="1.91884"/>
<feComposite in2="hardAlpha" operator="out"/>
<feColorMatrix type="matrix" values="0 0 0 0 0 0 0 0 0 0 0 0 0 0 0 0 0 0 0.08 0"/>
<feBlend mode="normal" in2="BackgroundImageFix" result="effect1_dropShadow_3984_206544"/>
<feBlend mode="normal" in="SourceGraphic" in2="effect1_dropShadow_3984_206544" result="shape"/>
</filter>
<linearGradient id="paint0_linear_3984_206544" x1="115.936" y1="111.249" x2="287.576" y2="111.249" gradientUnits="userSpaceOnUse">
<stop stop-color="#F1D16E"/>
<stop offset="0.14" stop-color="#E4D37A"/>
<stop offset="0.39" stop-color="#C3DA9A"/>
<stop offset="0.73" stop-color="#8EE5CF"/>
<stop offset="1" stop-color="#5EEFFF"/>
</linearGradient>
<linearGradient id="paint1_linear_3984_206544" x1="144.949" y1="28.3372" x2="159.123" y2="27.2976" gradientUnits="userSpaceOnUse">
<stop stop-color="#084F93"/>
<stop offset="0.666667" stop-color="#153B65"/>
<stop offset="1" stop-color="#00AA84"/>
</linearGradient>
<clipPath id="clip0_3984_206544">
<rect width="171.64" height="79.5683" fill="white" transform="translate(115.936 64.3408)"/>
</clipPath>
</defs>
</svg>
