<svg width="300" height="225" viewBox="0 0 300 225" fill="none" xmlns="http://www.w3.org/2000/svg">
<path d="M270.644 180.969H30.002V181.089H270.644V180.969Z" fill="#EBEBEB"/>
<path d="M246.532 188.719H230.591V188.839H246.532V188.719Z" fill="#EBEBEB"/>
<path d="M189.412 190.023H185.229V190.144H189.412V190.023Z" fill="#EBEBEB"/>
<path d="M230.109 184.25H220.872V184.37H230.109V184.25Z" fill="#EBEBEB"/>
<path d="M76.0381 185.055H55.25V185.175H76.0381V185.055Z" fill="#EBEBEB"/>
<path d="M83.3712 185.055H80.3232V185.175H83.3712V185.055Z" fill="#EBEBEB"/>
<path d="M138.361 187.086H93.2764V187.206H138.361V187.086Z" fill="#EBEBEB"/>
<path d="M144.073 159.505H51.1378C49.6232 159.505 48.3906 158.272 48.3906 156.758V26.1222C48.3906 24.6076 49.6232 23.375 51.1378 23.375H144.073C145.587 23.375 146.82 24.6076 146.82 26.1222V156.758C146.82 158.272 145.587 159.505 144.073 159.505ZM51.1378 23.4958C49.6891 23.4958 48.5109 24.674 48.5109 26.1226V156.758C48.5109 158.207 49.6891 159.385 51.1378 159.385H144.073C145.521 159.385 146.699 158.207 146.699 156.758V26.1222C146.699 24.674 145.521 23.4953 144.073 23.4953L51.1378 23.4958Z" fill="#EBEBEB"/>
<path d="M248.173 159.505H155.238C153.723 159.505 152.491 158.272 152.491 156.758V26.1222C152.491 24.6076 153.724 23.375 155.238 23.375H248.173C249.688 23.375 250.92 24.6076 250.92 26.1222V156.758C250.92 158.272 249.688 159.505 248.173 159.505ZM155.238 23.4958C153.79 23.4958 152.612 24.674 152.612 26.1226V156.758C152.612 158.207 153.79 159.385 155.238 159.385H248.173C249.621 159.385 250.8 158.207 250.8 156.758V26.1222C250.8 24.674 249.621 23.4953 248.173 23.4953L155.238 23.4958Z" fill="#EBEBEB"/>
<path d="M109.169 28.5703H74.876V144.902H109.169V28.5703Z" fill="#FAFAFA"/>
<path d="M104.062 28.5703H102.059L90.0977 144.901H92.1012L104.062 28.5703Z" fill="#F5F5F5"/>
<path d="M108.561 29.0234H74.6562V30.0486H108.561V29.0234Z" fill="#E0E0E0"/>
<path d="M108.561 143.891H74.6562V146.084H108.561V143.891Z" fill="#EBEBEB"/>
<path d="M107.998 145.984H75.96V146.082H107.998V145.984Z" fill="#EBEBEB"/>
<path d="M75.9604 29.024H107.997V145.984H109.917V27.5859H74.041V145.984H75.9604V29.024Z" fill="#EBEBEB"/>
<path d="M147.329 28.5703H113.035V144.902H147.329V28.5703Z" fill="#FAFAFA"/>
<path d="M137.816 28.5703H126.883L114.922 144.901H125.855L137.816 28.5703Z" fill="#F5F5F5"/>
<path d="M147.684 29.0234H112.816V30.0486H147.684V29.0234Z" fill="#E0E0E0"/>
<path d="M147.684 143.891H112.816V146.084H147.684V143.891Z" fill="#EBEBEB"/>
<path d="M146.158 145.984H114.12V146.082H146.158V145.984Z" fill="#EBEBEB"/>
<path d="M114.12 29.024H146.158V145.984H148.077V27.5859H112.201V145.984H114.12V29.024Z" fill="#EBEBEB"/>
<path d="M184.526 28.5703H151.195V144.902H184.526V28.5703Z" fill="#FAFAFA"/>
<path d="M170.079 28.5703H168.076L156.114 144.901H158.118L170.079 28.5703Z" fill="#F5F5F5"/>
<path d="M184.881 29.0234H150.976V30.0486H184.881V29.0234Z" fill="#E0E0E0"/>
<path d="M184.881 143.891H150.976V146.084H184.881V143.891Z" fill="#EBEBEB"/>
<path d="M184.317 145.984H152.279V146.082H184.317V145.984Z" fill="#EBEBEB"/>
<path d="M152.279 29.024H184.317V145.984H186.236V27.5859H150.36V145.984H152.279V29.024Z" fill="#EBEBEB"/>
<path d="M223.649 28.5703H189.355V144.902H223.649V28.5703Z" fill="#FAFAFA"/>
<path d="M220.293 28.5703H209.36L197.398 144.901H208.332L220.293 28.5703Z" fill="#F5F5F5"/>
<path d="M223.041 29.0234H189.136V30.0486H223.041V29.0234Z" fill="#E0E0E0"/>
<path d="M223.041 143.891H189.136V146.084H223.041V143.891Z" fill="#EBEBEB"/>
<path d="M190.439 29.024H222.477V145.984H224.396V27.5859H188.521V145.984H190.439V29.024Z" fill="#EBEBEB"/>
<path d="M222.477 145.984H190.439V146.082H222.477V145.984Z" fill="#EBEBEB"/>
<path d="M100.965 118.141H86.0771V143.884H100.965V118.141Z" fill="#EBEBEB"/>
<path d="M98.1059 114.547V121.004H96.9321H90.1104H88.9365V114.547H98.1059Z" fill="#EBEBEB"/>
<path d="M98.1058 121H100.012V119.094H98.1058V121Z" fill="#FAFAFA"/>
<path d="M94.4144 121H96.3203V119.094H94.4144V121Z" fill="#FAFAFA"/>
<path d="M90.723 121H92.6289V119.094H90.723V121Z" fill="#FAFAFA"/>
<path d="M87.0306 121H88.9365V119.094H87.0306V121Z" fill="#F0F0F0"/>
<path d="M98.1058 124.469H100.012V122.563H98.1058V124.469Z" fill="#F0F0F0"/>
<path d="M94.4144 124.469H96.3203V122.563H94.4144V124.469Z" fill="#F0F0F0"/>
<path d="M90.723 124.469H92.6289V122.563H90.723V124.469Z" fill="#FAFAFA"/>
<path d="M87.0306 124.469H88.9365V122.563H87.0306V124.469Z" fill="#FAFAFA"/>
<path d="M98.1058 127.93H100.012V126.024H98.1058V127.93Z" fill="#F0F0F0"/>
<path d="M94.4144 127.93H96.3203V126.024H94.4144V127.93Z" fill="#FAFAFA"/>
<path d="M90.723 127.93H92.6289V126.024H90.723V127.93Z" fill="#FAFAFA"/>
<path d="M94.4144 118.008H96.3203V116.102H94.4144V118.008Z" fill="#FAFAFA"/>
<path d="M90.723 118.008H92.6289V116.102H90.723V118.008Z" fill="#F0F0F0"/>
<path d="M87.0306 127.93H88.9365V126.024H87.0306V127.93Z" fill="#F0F0F0"/>
<path d="M98.1058 131.391H100.012V129.485H98.1058V131.391Z" fill="#FAFAFA"/>
<path d="M94.4144 131.391H96.3203V129.485H94.4144V131.391Z" fill="#F0F0F0"/>
<path d="M90.723 131.391H92.6289V129.485H90.723V131.391Z" fill="#F0F0F0"/>
<path d="M87.0306 131.391H88.9365V129.485H87.0306V131.391Z" fill="#FAFAFA"/>
<path d="M98.1058 134.859H100.012V132.953H98.1058V134.859Z" fill="#F0F0F0"/>
<path d="M94.4144 134.859H96.3203V132.953H94.4144V134.859Z" fill="#FAFAFA"/>
<path d="M90.723 134.859H92.6289V132.953H90.723V134.859Z" fill="#FAFAFA"/>
<path d="M87.0306 134.859H88.9365V132.953H87.0306V134.859Z" fill="#F0F0F0"/>
<path d="M98.1058 138.32H100.012V136.414H98.1058V138.32Z" fill="#F0F0F0"/>
<path d="M94.4144 138.32H96.3203V136.414H94.4144V138.32Z" fill="#FAFAFA"/>
<path d="M90.723 138.32H92.6289V136.414H90.723V138.32Z" fill="#F0F0F0"/>
<path d="M87.0306 138.32H88.9365V136.414H87.0306V138.32Z" fill="#FAFAFA"/>
<path d="M98.1058 141.781H100.012V139.875H98.1058V141.781Z" fill="#FAFAFA"/>
<path d="M94.4144 141.781H96.3203V139.875H94.4144V141.781Z" fill="#FAFAFA"/>
<path d="M90.723 141.781H92.6289V139.875H90.723V141.781Z" fill="#F0F0F0"/>
<path d="M87.0306 141.781H88.9365V139.875H87.0306V141.781Z" fill="#F0F0F0"/>
<path d="M205.831 127.523H192.495V143.889H205.831V127.523Z" fill="#F0F0F0"/>
<path d="M193.656 129.336H196.759H197.612H198.466V131.044H197.612H196.759H193.656V129.336Z" fill="#E6E6E6"/>
<path d="M193.656 132.648H196.759H197.612H198.466V134.356H197.612H196.759H193.656V132.648Z" fill="#FAFAFA"/>
<path d="M193.656 135.953H196.759H197.612H198.466V137.661H197.612H196.759H193.656V135.953Z" fill="#E6E6E6"/>
<path d="M193.656 139.258H196.759H198.078H198.466V140.965H198.078H196.759H193.656V139.258Z" fill="#FAFAFA"/>
<path d="M199.86 129.336H202.963H203.817H204.67V131.044H203.817H202.963H199.86V129.336Z" fill="#FAFAFA"/>
<path d="M199.86 132.648H202.963H204.166H204.67V134.356H204.166H202.963H199.86V132.648Z" fill="#FAFAFA"/>
<path d="M199.86 135.953H202.963H203.817H204.67V137.661H203.817H202.963H199.86V135.953Z" fill="#E6E6E6"/>
<path d="M199.86 139.258H202.963H203.817H204.67V140.965H203.817H202.963H199.86V139.258Z" fill="#FAFAFA"/>
<path d="M141.568 133.719H129.451V143.887H141.568V133.719Z" fill="#F0F0F0"/>
<path d="M139.242 136.539H140.793V134.988H139.242V136.539Z" fill="#FAFAFA"/>
<path d="M136.237 136.539H137.788V134.988H136.237V136.539Z" fill="#FAFAFA"/>
<path d="M133.231 136.539H134.782V134.988H133.231V136.539Z" fill="#FAFAFA"/>
<path d="M130.227 136.539H131.778V134.988H130.227V136.539Z" fill="#FAFAFA"/>
<path d="M139.242 139.359H140.793V137.808H139.242V139.359Z" fill="#FAFAFA"/>
<path d="M136.237 139.359H137.788V137.808H136.237V139.359Z" fill="#FAFAFA"/>
<path d="M133.231 139.359H134.782V137.808H133.231V139.359Z" fill="#FAFAFA"/>
<path d="M130.227 139.359H131.778V137.808H130.227V139.359Z" fill="#E6E6E6"/>
<path d="M139.242 142.172H140.793V140.621H139.242V142.172Z" fill="#E6E6E6"/>
<path d="M136.237 142.172H137.788V140.621H136.237V142.172Z" fill="#E6E6E6"/>
<path d="M133.231 142.172H134.782V140.621H133.231V142.172Z" fill="#FAFAFA"/>
<path d="M130.227 142.172H131.778V140.621H130.227V142.172Z" fill="#E6E6E6"/>
<path d="M127.808 126.203H115.69V143.891H127.808V126.203Z" fill="#F0F0F0"/>
<path d="M127.032 126.977H122.476V131.347H127.032V126.977Z" fill="#FAFAFA"/>
<path d="M121.022 126.977H116.466V131.347H121.022V126.977Z" fill="#FAFAFA"/>
<path d="M127.032 132.617H122.476V136.987H127.032V132.617Z" fill="#FAFAFA"/>
<path d="M121.022 132.617H116.466V136.987H121.022V132.617Z" fill="#FAFAFA"/>
<path d="M127.032 138.258H122.476V142.628H127.032V138.258Z" fill="#FAFAFA"/>
<path d="M121.022 138.258H116.466V142.628H121.022V138.258Z" fill="#FAFAFA"/>
<path d="M150.321 202.704C201.858 202.704 243.637 200.264 243.637 197.254C243.637 194.245 201.858 191.805 150.321 191.805C98.7847 191.805 57.0059 194.245 57.0059 197.254C57.0059 200.264 98.7847 202.704 150.321 202.704Z" fill="#F5F5F5"/>
<path d="M243.965 35.2422V141.24L231.211 153.994H157.377V35.2422H243.965Z" fill="#084F93"/>
<path opacity="0.8" d="M243.965 35.2422V141.24L231.211 153.994H157.377V35.2422H243.965Z" fill="white"/>
<path opacity="0.2" d="M231.211 153.998V141.617H243.965L231.46 154.122" fill="black"/>
<path opacity="0.1" d="M190.143 45.5266H166.26C165.561 45.5266 164.993 44.9592 164.993 44.2594C164.993 43.5596 165.561 42.9922 166.26 42.9922H190.143C190.843 42.9922 191.41 43.5596 191.41 44.2594C191.41 44.9592 190.843 45.5266 190.143 45.5266Z" fill="black"/>
<path opacity="0.1" d="M233.459 55.8079H175.886C175.187 55.8079 174.619 55.2404 174.619 54.5407C174.619 53.8409 175.187 53.2734 175.886 53.2734H233.459C234.159 53.2734 234.726 53.8409 234.726 54.5407C234.726 55.2404 234.159 55.8079 233.459 55.8079Z" fill="black"/>
<path opacity="0.1" d="M233.459 60.8001H166.26C165.561 60.8001 164.993 60.2326 164.993 59.5328C164.993 58.8331 165.561 58.2656 166.26 58.2656H233.459C234.158 58.2656 234.726 58.8331 234.726 59.5328C234.726 60.2326 234.158 60.8001 233.459 60.8001Z" fill="black"/>
<path opacity="0.1" d="M233.459 66.4407H166.26C165.561 66.4407 164.993 65.8733 164.993 65.1735C164.993 64.4737 165.561 63.9062 166.26 63.9062H233.459C234.158 63.9062 234.726 64.4737 234.726 65.1735C234.726 65.8733 234.158 66.4407 233.459 66.4407Z" fill="black"/>
<path opacity="0.1" d="M233.459 72.0735H166.26C165.561 72.0735 164.993 71.5061 164.993 70.8063C164.993 70.1065 165.561 69.5391 166.26 69.5391H233.459C234.158 69.5391 234.726 70.1065 234.726 70.8063C234.726 71.5061 234.158 72.0735 233.459 72.0735Z" fill="black"/>
<path opacity="0.1" d="M233.459 77.7141H166.26C165.561 77.7141 164.993 77.1467 164.993 76.4469C164.993 75.7471 165.561 75.1797 166.26 75.1797H233.459C234.158 75.1797 234.726 75.7471 234.726 76.4469C234.726 77.1467 234.158 77.7141 233.459 77.7141Z" fill="black"/>
<path opacity="0.1" d="M233.459 83.3548H166.26C165.561 83.3548 164.993 82.7873 164.993 82.0875C164.993 81.3878 165.561 80.8203 166.26 80.8203H233.459C234.158 80.8203 234.726 81.3878 234.726 82.0875C234.726 82.7878 234.158 83.3548 233.459 83.3548Z" fill="black"/>
<path opacity="0.1" d="M233.459 88.9954H166.26C165.561 88.9954 164.993 88.4279 164.993 87.7282C164.993 87.0284 165.561 86.4609 166.26 86.4609H233.459C234.158 86.4609 234.726 87.0284 234.726 87.7282C234.726 88.4279 234.158 88.9954 233.459 88.9954Z" fill="black"/>
<path opacity="0.1" d="M233.459 94.636H166.26C165.561 94.636 164.993 94.0686 164.993 93.3688C164.993 92.669 165.561 92.1016 166.26 92.1016H233.459C234.158 92.1016 234.726 92.669 234.726 93.3688C234.726 94.0691 234.158 94.636 233.459 94.636Z" fill="black"/>
<path opacity="0.1" d="M233.459 100.277H166.26C165.561 100.277 164.993 99.7092 164.993 99.0094C164.993 98.3096 165.561 97.7422 166.26 97.7422H233.459C234.158 97.7422 234.726 98.3096 234.726 99.0094C234.726 99.7092 234.158 100.277 233.459 100.277Z" fill="black"/>
<path opacity="0.1" d="M233.459 105.909H166.26C165.561 105.909 164.993 105.342 164.993 104.642C164.993 103.942 165.561 103.375 166.26 103.375H233.459C234.158 103.375 234.726 103.942 234.726 104.642C234.726 105.342 234.158 105.909 233.459 105.909Z" fill="black"/>
<path opacity="0.1" d="M233.459 111.55H166.26C165.561 111.55 164.993 110.983 164.993 110.283C164.993 109.583 165.561 109.016 166.26 109.016H233.459C234.158 109.016 234.726 109.583 234.726 110.283C234.726 110.983 234.158 111.55 233.459 111.55Z" fill="black"/>
<path opacity="0.1" d="M194.956 117.191H166.26C165.561 117.191 164.993 116.623 164.993 115.923C164.993 115.224 165.561 114.656 166.26 114.656H194.956C195.656 114.656 196.223 115.224 196.223 115.923C196.223 116.623 195.656 117.191 194.956 117.191Z" fill="black"/>
<path d="M228.264 61.2194C228.236 61.1948 228.205 61.1693 228.172 61.1433C227.915 60.9422 227.763 61.0095 227.643 60.6327C227.555 60.3555 227.655 60.0489 227.545 59.7625C227.357 59.2769 227.013 58.8053 226.759 58.3495C226.364 57.6396 225.968 56.9292 225.572 56.2193C225.025 55.2361 223.779 54.8818 222.796 55.4295L211.896 61.5019C211.852 61.8677 211.549 62.1175 211.489 62.4847C211.456 62.6902 211.507 62.9217 211.668 63.0531C211.533 63.0627 211.444 62.9934 211.334 62.9318C210.684 62.5708 210.51 62.2821 209.84 62.6473C209.553 62.8038 209.269 62.9655 208.984 63.1243C208.019 63.6619 207.054 64.199 206.09 64.7366C203.074 66.4168 200.058 68.0969 197.042 69.7771C193.506 71.7465 189.971 73.7164 186.435 75.6858C183.496 77.3236 180.556 78.9609 177.616 80.5987C176.414 81.2687 174.952 81.8544 173.881 82.7058C174.181 82.8632 174.229 83.0961 173.966 83.3281C173.799 83.4749 173.633 83.6217 173.466 83.7685C173.46 83.8859 173.642 83.8854 173.75 83.8387C173.949 83.7531 174.148 83.6674 174.347 83.5817C173.935 84.1083 173.434 84.565 172.872 84.9269C171.953 85.5194 170.891 85.8481 169.845 86.1696C170.016 85.9554 170.186 85.7413 170.357 85.5271C170.398 85.4746 170.442 85.4063 170.413 85.3461C170.386 85.2913 170.316 85.2783 170.256 85.272C170.003 85.246 169.749 85.2696 169.557 85.0838C167.912 86.0685 166.194 86.9613 164.516 87.8964C163.533 88.4441 163.179 89.6897 163.726 90.6725L174.716 110.399C175.263 111.383 176.509 111.737 177.492 111.189L180.45 109.541C180.456 109.199 180.72 108.819 180.519 108.503C180.493 108.463 180.462 108.422 180.463 108.375C180.463 108.312 180.52 108.265 180.574 108.23C180.868 108.04 181.213 107.93 181.563 107.914C181.681 107.909 181.843 107.964 181.82 108.08C181.84 107.977 182.443 107.752 182.546 107.721C182.592 107.982 182.414 108.261 182.718 108.314C182.962 108.356 183.482 107.852 183.698 107.732C184.663 107.194 185.627 106.657 186.592 106.12C189.635 104.424 192.679 102.729 195.723 101.033C199.066 99.171 202.409 97.3084 205.752 95.4463C207.969 94.2109 210.187 92.9754 212.405 91.74C212.649 91.6038 212.929 91.4401 213.163 91.3232C213.264 90.955 213.451 90.3856 213.778 90.1575C214.256 89.8245 215.018 90.1902 215.422 89.7181C215.499 89.6286 215.545 89.5169 215.614 89.4211C215.731 89.2575 215.905 89.1459 216.076 89.039C216.199 88.9615 216.331 88.8816 216.477 88.8821C216.622 88.8826 216.777 89.0015 216.758 89.1459C217.751 88.9148 218.646 88.2492 219.522 87.7521C219.837 87.573 222.626 86.2639 222.614 86.0575C222.575 85.4159 222.968 84.8682 222.948 84.2079C222.944 84.0832 222.702 83.2492 222.813 83.1832C220.308 84.6738 217.709 86.031 215.161 87.4503C215.074 87.4989 214.747 87.6125 214.701 87.7068C214.689 87.7304 214.676 87.753 214.665 87.7766C214.64 87.8286 214.616 87.881 214.593 87.934C214.587 87.9475 214.581 87.9609 214.575 87.9744C214.453 88.2781 214.362 88.6405 214.209 88.9274C214.187 88.9697 213.664 89.643 213.622 89.4842C213.41 88.7088 213.118 88.588 212.547 88.9067C212.266 89.064 211.984 89.2205 211.702 89.3773C210.805 89.8774 209.907 90.377 209.01 90.877C205.989 92.5601 202.967 94.2431 199.946 95.9262C196.387 97.9091 192.827 99.892 189.267 101.875C186.301 103.528 183.334 105.18 180.367 106.833C179.125 107.525 177.883 108.217 176.641 108.909C175.891 107.563 175.141 106.217 174.392 104.871C173.91 104.006 173.429 103.142 172.947 102.278C172.772 101.964 172.607 101.524 172.314 101.308C172.106 101.155 171.756 101.193 171.57 101.053C171.123 100.715 170.801 100.083 170.377 99.6913C170.088 99.4246 169.649 98.6161 169.772 98.1694C169.916 98.2262 170.059 98.2854 170.205 98.3326C170.135 98.0169 170.136 97.7488 170.253 97.435C168.799 95.0069 167.478 92.4614 166.097 89.9818C166.092 89.9741 166.007 89.8211 166.007 89.8211C167.131 89.1949 168.255 88.5688 169.379 87.9431C170.199 87.4859 171.019 87.0292 171.84 86.5719C172.28 86.3265 172.879 86.1109 173.262 85.7798C173.575 85.5093 173.889 85.1714 174.243 84.8822C174.46 84.706 174.712 84.5823 174.962 84.4601C175.266 84.3123 175.569 84.1641 175.872 84.0163C175.921 83.9927 175.972 83.9682 176.026 83.9687C176.082 83.9687 176.134 83.9952 176.188 84.0062C176.675 84.1078 177.863 83.2169 178.294 82.9763C179.227 82.4565 180.16 81.9367 181.093 81.4169C183.91 79.8475 186.727 78.2785 189.544 76.709C193.055 74.7535 196.565 72.7981 200.076 70.8422C203.59 68.8848 207.104 66.9274 210.617 64.97C213.444 63.3953 216.271 61.8205 219.098 60.2457C220.548 59.4377 221.999 58.6301 223.449 57.822C223.515 57.7849 223.582 57.7479 223.649 57.7108C223.649 57.7108 228.294 66.0505 228.332 66.1184C228.601 66.6001 229.13 67.2556 229.658 67.4284C229.847 67.4905 230.064 67.6233 230.043 67.8216C230.021 68.0324 229.73 68.1835 229.796 68.3847C229.872 68.6148 230.232 68.5128 230.322 68.6956C230.435 68.9242 230.172 69.1659 230.201 69.4277C230.23 69.6837 230.513 70.0346 230.637 70.2579C231.092 71.0741 231.546 71.8899 232.001 72.7062C232.76 74.0677 233.518 75.4288 234.282 76.8L225.953 81.4395C225.993 81.4723 226.03 81.5117 226.054 81.5603C226.072 81.5955 226.084 81.6325 226.096 81.6696C226.272 81.7168 226.441 81.8082 226.6 81.8794C226.736 81.9401 226.814 82.1181 226.812 82.2582C226.808 82.4098 226.724 82.5508 226.591 82.6245L226.08 82.9094C226.038 83.1351 225.876 83.3199 225.642 83.368C225.584 83.3801 225.524 83.3806 225.464 83.383C225.365 83.4532 225.242 83.485 225.106 83.4528C224.891 83.4013 224.735 83.1341 224.811 82.9219C224.83 82.868 224.858 82.8242 224.886 82.7828C224.812 82.6442 224.817 82.4719 224.916 82.3333C224.864 82.327 224.813 82.3251 224.76 82.314C224.676 82.2962 224.595 82.2673 224.513 82.2414C223.991 82.5325 223.845 82.8603 223.541 83.3801C223.525 83.407 223.509 83.4374 223.515 83.4682C223.528 83.536 223.621 83.5399 223.683 83.5697C223.825 83.6385 223.793 83.8503 223.722 83.9908C223.651 84.1314 223.564 84.3065 223.658 84.4331C223.691 84.4784 223.743 84.5068 223.78 84.5491C223.984 84.7811 223.669 85.4655 224.172 85.1854C224.133 85.0472 224.166 84.8701 224.238 84.7493C224.318 84.6151 224.457 84.5159 224.606 84.4764C224.977 84.3783 225.361 84.3354 225.746 84.309L235.772 78.7237C236.755 78.176 237.109 76.9304 236.561 75.9476C236.542 75.913 236.523 75.8788 236.504 75.8441C234.992 73.1311 233.481 70.4182 231.97 67.7052C231.096 66.1376 230.223 64.5696 229.35 63.0021C229.098 62.5501 228.861 62.0862 228.593 61.6434C228.485 61.4629 228.407 61.3469 228.264 61.2194Z" fill="#084F93"/>
<path d="M181.924 87.814C181.59 87.4116 181.692 87.4006 181.627 86.965C181.625 86.9549 181.623 86.9448 181.621 86.9352C181.608 86.9222 181.597 86.9082 181.583 86.8967C181.559 86.8769 181.542 86.8509 181.523 86.8269C181.297 86.928 181.071 87.0377 180.846 87.1633L176.413 89.6328L178.197 92.8347C177.948 92.3891 178.832 92.5195 178.866 92.5152C178.964 92.5022 179.059 92.4565 179.157 92.469C179.253 92.481 179.333 92.5474 179.392 92.6239C179.619 92.9161 179.584 93.3261 179.546 93.6938C179.494 94.1953 179.746 94.6761 179.471 95.1329C179.707 95.5179 181.841 99.3956 181.849 99.3913L186.282 96.9218C186.538 96.7789 187.144 96.5257 187.294 96.2682C187.402 96.0829 187.209 95.6166 187.473 95.4929C187.651 95.4106 187.944 95.4496 188.082 95.5521C189.851 93.8055 190.141 91.1912 188.945 89.0446C187.699 86.8081 184.869 85.4764 182.388 86.5145C182.215 86.5872 182.447 87.3611 182.031 87.4492C182.108 87.2923 182.225 87.1585 182.366 87.0545M185.137 95.13L183.074 96.2793C182.907 95.9785 182.742 95.6743 182.568 95.3774C182.785 95.7475 182.188 95.631 182.064 95.5477C181.759 95.3437 181.677 94.7637 181.668 94.435C181.65 93.7781 181.496 93.4465 181.169 92.8583C180.681 91.9819 180.192 91.105 179.704 90.2286L181.767 89.0793C183.705 87.9998 185.618 88.4503 186.659 90.3181C187.7 92.1865 187.075 94.0505 185.137 95.13Z" fill="#084F93"/>
<path d="M196.579 79.6158C196.676 79.8545 196.719 80.0947 196.667 80.3498C196.639 80.485 196.425 80.8397 196.454 80.9153C196.529 81.1078 196.605 81.3008 196.68 81.4933C196.692 81.5246 196.705 81.5568 196.73 81.5794C196.764 81.6098 196.812 81.616 196.857 81.6204C197.621 81.6853 197.59 81.7662 197.638 82.4092C197.68 82.9607 198.158 83.2789 198.428 83.764C199.46 85.6179 198.856 87.6167 197.114 88.5874C196.116 89.1433 195.028 89.202 194.086 88.804C194.066 88.8208 194.048 88.8435 194.026 88.8555C193.931 88.9089 193.805 88.9243 193.7 88.8935C193.197 88.7467 192.787 88.3396 192.684 87.8183C192.676 87.7793 192.68 87.7423 192.682 87.7052C192.552 87.5392 192.43 87.3616 192.321 87.1657C191.288 85.3113 191.892 83.313 193.635 82.3423C194.281 81.9823 194.963 81.8427 195.621 81.8884C195.607 81.8697 195.593 81.8509 195.579 81.8321C195.166 81.282 196.662 81.063 195.986 80.6939C195.703 80.5394 195.752 79.8406 195.68 79.5547C194.652 79.5711 193.586 79.8483 192.563 80.4181C189.483 82.1344 188.42 85.5394 190.035 88.4392C190.725 89.6775 191.839 90.6478 193.191 91.0939C193.476 91.1878 193.889 91.3519 194.192 91.3245C194.586 91.2893 194.395 91.349 194.56 91.0882C194.71 90.8504 194.629 90.7508 194.882 90.5024C195.131 90.2579 195.436 90.1001 195.491 89.7155C195.478 89.8869 195.683 90.0125 195.682 90.1848C195.682 90.2363 195.663 90.2868 195.667 90.3383C195.672 90.4014 195.711 90.4558 195.749 90.5063C195.915 90.7277 196.186 90.9702 196.193 91.2407C196.873 91.157 197.584 90.8466 198.186 90.5111C201.253 88.8025 202.337 85.4037 200.714 82.49C199.9 81.0293 198.309 79.7159 196.579 79.6158Z" fill="#084F93"/>
<path d="M206.418 72.9145L209.719 78.8396L201.567 75.6174L199.698 76.658C200.959 78.9219 202.299 81.1604 203.485 83.4628C203.565 83.2155 203.759 83.1664 203.988 83.1346C204.42 83.074 204.405 83.291 204.644 83.7218C204.671 83.7709 204.706 83.8248 204.76 83.8358C204.845 83.8522 204.918 83.7564 205.003 83.766C205.088 83.7757 205.126 83.8854 205.103 83.9677C205.079 84.0495 205.018 84.115 204.979 84.1905C204.84 84.4548 205.072 84.6266 205.041 84.8643C205.024 84.9928 204.624 85.5006 204.672 85.5863L205.134 86.4165L207.365 85.1738L206.768 84.1029C206.733 84.1078 206.697 84.115 206.661 84.1193C206.009 84.2035 206.296 83.3536 206.156 83.0032C205.959 82.5118 205.619 82.0392 205.361 81.5767C204.929 80.8009 204.497 80.025 204.064 79.2487L210.695 81.8587C210.707 81.6638 210.667 81.4626 210.761 81.2922C210.814 81.1945 211.229 81.0054 211.222 80.9067C211.245 81.2138 211.392 81.5098 211.624 81.7119C211.882 81.9367 211.882 81.9049 211.831 82.3063L212.23 82.4632L214.085 81.4304L208.649 71.6719L206.418 72.9145Z" fill="#084F93"/>
<path d="M217.637 77.0778L216.379 74.8191L220.91 72.2953L219.932 70.5386L215.401 73.0624L214.22 70.9433L217.284 69.2367C217.403 69.0707 217.571 68.9407 217.75 68.8396C217.849 68.7843 217.956 68.7795 218.056 68.8069L219.351 68.0855C219.351 68.0855 218.435 66.4453 218.345 66.2734C217.903 66.4756 218.344 67.0329 217.899 67.3019C217.988 67.3987 218.127 67.7428 217.883 67.7644C217.752 67.776 217.66 67.6018 217.53 67.6162C217.458 67.6244 217.394 67.6903 217.324 67.6735C217.284 67.6639 217.255 67.6287 217.233 67.5936C217.148 67.4593 217.113 67.2918 216.998 67.1816C216.695 66.89 213.93 68.7304 213.541 68.947C212.683 69.4249 211.824 69.9033 210.966 70.3812L216.402 80.1397L218.571 78.9312C218.586 78.9119 218.601 78.8922 218.616 78.8725C218.772 78.6703 218.927 78.4653 219.099 78.2762C219.229 78.1318 219.457 78.126 219.619 78.2126C219.656 78.2328 219.688 78.2612 219.717 78.293L223.958 75.9304L222.948 74.1179L217.637 77.0778Z" fill="#084F93"/>
<path d="M223.426 180.876C223.426 180.876 220.261 173.971 223.878 167.163C227.494 160.355 228.542 158.751 226.237 157.357C223.931 155.962 222.874 162.802 222.874 162.802C222.874 162.802 220.931 158.096 222.535 153.171C224.14 148.246 225.146 140.224 222.954 139.363C220.763 138.503 222.536 149.371 220.635 153.075C220.635 153.075 219.038 148.951 218.775 144.995C218.512 141.04 218.923 134.723 217.193 133.102C215.462 131.482 214.353 132.603 216.054 141.333C217.755 150.063 217.742 157.159 217.742 157.159C217.742 157.159 213.986 145.708 211.466 145.374C208.945 145.04 208.948 148.748 211.106 151.965C213.264 155.182 217.425 160.944 218.107 163.909C218.107 163.909 213.985 155.291 210.277 157.932C206.568 160.574 213.504 165.779 216.596 167.66C219.687 169.541 221.834 181.331 221.834 181.331L223.426 180.876Z" fill="#00AA84"/>
<path opacity="0.2" d="M223.426 180.876C223.426 180.876 220.261 173.971 223.878 167.163C227.494 160.355 228.542 158.751 226.237 157.357C223.931 155.962 222.874 162.802 222.874 162.802C222.874 162.802 220.931 158.096 222.535 153.171C224.14 148.246 225.146 140.224 222.954 139.363C220.763 138.503 222.536 149.371 220.635 153.075C220.635 153.075 219.038 148.951 218.775 144.995C218.512 141.04 218.923 134.723 217.193 133.102C215.462 131.482 214.353 132.603 216.054 141.333C217.755 150.063 217.742 157.159 217.742 157.159C217.742 157.159 213.986 145.708 211.466 145.374C208.945 145.04 208.948 148.748 211.106 151.965C213.264 155.182 217.425 160.944 218.107 163.909C218.107 163.909 213.985 155.291 210.277 157.932C206.568 160.574 213.504 165.779 216.596 167.66C219.687 169.541 221.834 181.331 221.834 181.331L223.426 180.876Z" fill="black"/>
<path d="M220.927 183.708C220.927 183.708 224.009 176.756 220.311 170.002C216.614 163.249 215.546 161.661 217.835 160.232C220.123 158.803 221.262 165.627 221.262 165.627C221.262 165.627 223.149 160.893 221.486 155.992C219.822 151.091 218.72 143.085 220.9 142.192C223.081 141.299 221.439 152.192 223.384 155.868C223.384 155.868 224.932 151.721 225.147 147.761C225.362 143.802 224.876 137.492 226.587 135.846C228.298 134.2 229.42 135.304 227.824 144.059C226.229 152.813 226.326 159.909 226.326 159.909C226.326 159.909 229.944 148.402 232.46 148.031C234.977 147.659 235.018 151.367 232.899 154.616C230.78 157.865 226.689 163.689 226.042 166.664C226.042 166.664 230.061 157.985 233.801 160.571C237.541 163.156 230.667 168.465 227.599 170.392C224.53 172.318 222.525 184.14 222.525 184.14L220.927 183.708Z" fill="#00AA84"/>
<path d="M235.142 178.75H209.682L211.742 196.969H233.081L235.142 178.75Z" fill="#084F93"/>
<path d="M104.904 64.1875H88.0998C86.7537 64.1875 85.6621 65.2791 85.6621 66.6252V82.9604C85.6621 84.3066 86.7537 85.3981 88.0998 85.3981H93.4777L89.857 90.3193L96.118 85.3981H104.904C106.25 85.3981 107.342 84.3066 107.342 82.9604V66.6252C107.342 65.2791 106.25 64.1875 104.904 64.1875Z" fill="#00AA84"/>
<path opacity="0.6" d="M104.904 64.1875H88.0998C86.7537 64.1875 85.6621 65.2791 85.6621 66.6252V82.9604C85.6621 84.3066 86.7537 85.3981 88.0998 85.3981H93.4777L89.857 90.3193L96.118 85.3981H104.904C106.25 85.3981 107.342 84.3066 107.342 82.9604V66.6252C107.342 65.2791 106.25 64.1875 104.904 64.1875Z" fill="white"/>
<path d="M96.5019 82.4217C100.715 82.4217 104.131 79.0062 104.131 74.7929C104.131 70.5796 100.715 67.1641 96.5019 67.1641C92.2886 67.1641 88.873 70.5796 88.873 74.7929C88.873 79.0062 92.2886 82.4217 96.5019 82.4217Z" fill="#00AA84"/>
<path opacity="0.2" d="M102.866 76.305C103.697 72.7898 101.52 69.2673 98.0045 68.4372C94.4893 67.6072 90.9668 69.784 90.1367 73.2992C89.3067 76.8144 91.4834 80.3369 94.9987 81.167C98.5139 81.997 102.036 79.8203 102.866 76.305Z" fill="black"/>
<path d="M95.6893 77.9157C95.5146 77.9157 95.3471 77.8473 95.222 77.7246L92.4464 75.0054C92.1831 74.7474 92.1788 74.3248 92.4368 74.0611C92.6947 73.7973 93.1178 73.7935 93.3811 74.0514L95.6575 76.2822L99.5925 71.8862C99.8389 71.6113 100.261 71.5887 100.535 71.8342C100.81 72.0801 100.833 72.5022 100.587 72.777L96.1865 77.6933C96.0647 77.829 95.8929 77.9094 95.711 77.9152C95.7037 77.9152 95.6965 77.9157 95.6893 77.9157Z" fill="white"/>
<path d="M74.7151 186.032L88.5823 184.669V169.031H94.0781V184.664L108.001 186.032C109.383 186.168 110.437 187.33 110.437 188.719V190.802H91.8675H90.8491H72.2793V188.719C72.2793 187.33 73.3328 186.168 74.7151 186.032Z" fill="black"/>
<path opacity="0.1" d="M74.7151 186.032L88.5823 184.669V169.031H94.0781V184.664L108.001 186.032C109.383 186.168 110.437 187.33 110.437 188.719V190.802H91.8675H90.8491H72.2793V188.719C72.2793 187.33 73.3328 186.168 74.7151 186.032Z" fill="white"/>
<path d="M108.969 196.976C110.954 196.976 112.562 195.367 112.562 193.382C112.562 191.398 110.954 189.789 108.969 189.789C106.985 189.789 105.376 191.398 105.376 193.382C105.376 195.367 106.985 196.976 108.969 196.976Z" fill="black"/>
<path d="M73.7466 196.976C75.7311 196.976 77.3398 195.367 77.3398 193.382C77.3398 191.398 75.7311 189.789 73.7466 189.789C71.7621 189.789 70.1533 191.398 70.1533 193.382C70.1533 195.367 71.7621 196.976 73.7466 196.976Z" fill="black"/>
<path d="M89.6249 173.217H93.0353C94.134 173.217 95.0244 172.327 95.0244 171.228V155.859H87.6357V171.228C87.6353 172.327 88.5261 173.217 89.6249 173.217Z" fill="black"/>
<path opacity="0.2" d="M89.6249 173.217H93.0353C94.134 173.217 95.0244 172.327 95.0244 171.228V155.859H87.6357V171.228C87.6353 172.327 88.5261 173.217 89.6249 173.217Z" fill="white"/>
<path d="M72.1365 125.727C72.1365 125.727 76.2544 151.432 84.3789 155.858H76.1182C76.1182 155.858 67.9585 147.101 65.4727 125.727H72.1365Z" fill="black"/>
<path opacity="0.1" d="M72.1365 125.727C72.1365 125.727 76.2544 151.432 84.3789 155.858H76.1182C76.1182 155.858 67.9585 147.101 65.4727 125.727H72.1365Z" fill="white"/>
<path d="M107.919 152.227H75.7111C74.3823 152.227 73.3047 153.304 73.3047 154.633V157.852H110.325V154.633C110.325 153.304 109.248 152.227 107.919 152.227Z" fill="#084F93"/>
<path d="M110.901 155.039H72.7296C72.1949 155.039 71.7617 155.472 71.7617 156.007V156.884C71.7617 157.419 72.1949 157.852 72.7296 157.852H110.901C111.435 157.852 111.869 157.418 111.869 156.884V156.007C111.869 155.472 111.435 155.039 110.901 155.039Z" fill="black"/>
<path opacity="0.6" d="M110.901 155.039H72.7296C72.1949 155.039 71.7617 155.472 71.7617 156.007V156.884C71.7617 157.419 72.1949 157.852 72.7296 157.852H110.901C111.435 157.852 111.869 157.418 111.869 156.884V156.007C111.869 155.472 111.435 155.039 110.901 155.039Z" fill="white"/>
<path d="M64.497 130.95H77.7299C81.6061 130.95 84.1242 127.841 83.3537 124.007L82.3252 118.888C81.5546 115.054 77.7876 111.945 73.9109 111.945H60.6785C56.8022 111.945 54.2842 115.054 55.0547 118.888L56.0832 124.007C56.8533 127.841 60.6207 130.95 64.497 130.95Z" fill="#084F93"/>
<path d="M134.701 173.982L131.669 175.168L129.488 171.057L127.506 167.319L130.868 165.305L132.897 169.894L134.701 173.982Z" fill="#E4897B"/>
<path opacity="0.2" d="M132.897 169.894L129.488 171.057L127.506 167.319L130.868 165.305L132.897 169.894Z" fill="black"/>
<path d="M132.268 167.657L128.142 169.871C128.142 169.871 112.554 142.462 110.156 142.69C107.758 142.917 85.0181 157.411 78.0832 152.059C71.1489 146.711 77.8965 130.592 77.8965 130.592C77.8965 130.592 92.2426 126.492 93.7981 129.645C94.1004 130.254 94.5066 131.476 94.8256 132.525C95.1313 133.514 95.3628 134.346 95.3628 134.346C95.3628 134.346 95.3676 134.346 95.3714 134.34C95.8084 134.163 109.978 128.353 116.303 131.467C122.729 134.636 132.268 167.657 132.268 167.657Z" fill="black"/>
<path opacity="0.3" d="M132.268 167.657L128.142 169.871C128.142 169.871 112.554 142.462 110.156 142.69C107.758 142.917 85.0181 157.411 78.0832 152.059C71.1489 146.711 77.8965 130.592 77.8965 130.592C77.8965 130.592 92.2426 126.492 93.7981 129.645C94.1004 130.254 94.5066 131.476 94.8256 132.525C95.1313 133.514 95.3628 134.346 95.3628 134.346C95.3628 134.346 95.3676 134.346 95.3714 134.34C95.8084 134.163 109.978 128.353 116.303 131.467C122.729 134.636 132.268 167.657 132.268 167.657Z" fill="white"/>
<path d="M109.857 190.002L106.623 189.632L106.608 185.067L106.601 180.88L110.511 180.695L110.167 185.623L109.857 190.002Z" fill="#E4897B"/>
<path opacity="0.2" d="M110.155 185.725L106.598 185.157L106.596 180.926L110.509 180.719L110.155 185.725Z" fill="black"/>
<path d="M126.125 168.508L132.162 165.484L132.79 168.042L128.22 170.401L126.125 168.508Z" fill="#D5E3FF"/>
<path d="M88.7969 152.102C88.7969 152.102 89.7912 151.989 105.041 149.164C105.041 149.164 105.385 168.668 106.109 183.205L110.806 183.357C110.806 183.357 117.544 151.089 116.753 146.218C115.961 141.348 110.162 140.688 110.162 140.688C110.162 140.688 100.096 148.508 88.7969 152.102Z" fill="black"/>
<path opacity="0.4" d="M88.7969 152.102C88.7969 152.102 89.7912 151.989 105.041 149.164C105.041 149.164 105.385 168.668 106.109 183.205L110.806 183.357C110.806 183.357 117.544 151.089 116.753 146.218C115.961 141.348 110.162 140.688 110.162 140.688C110.162 140.688 100.096 148.508 88.7969 152.102Z" fill="white"/>
<path opacity="0.3" d="M88.7969 152.102C88.7969 152.102 89.7912 151.989 105.041 149.164C105.041 149.164 105.385 168.668 106.109 183.205L110.806 183.357C110.806 183.357 117.544 151.089 116.753 146.218C115.961 141.348 110.162 140.688 110.162 140.688C110.162 140.688 100.096 148.508 88.7969 152.102Z" fill="black"/>
<path d="M105.246 181.9L111.652 181.75L110.776 184.39L105.579 184.437L105.246 181.9Z" fill="#D5E3FF"/>
<path opacity="0.3" d="M95.3635 134.344L87.0498 137.304C87.0498 137.304 91.4203 134.041 94.8264 132.523C95.1325 133.512 95.3635 134.344 95.3635 134.344Z" fill="black"/>
<path d="M76.9326 129.599L77.2397 131.904L92.8222 128.601L92.4593 125.875L76.9326 129.599Z" fill="black"/>
<path opacity="0.2" d="M76.9326 129.599L77.2397 131.904L92.8222 128.601L92.4593 125.875L76.9326 129.599Z" fill="black"/>
<path d="M82.09 127.919L81.3145 128.062L82.0473 132.013L82.8229 131.869L82.09 127.919Z" fill="black"/>
<path d="M88.8966 126.913L85.4951 127.68L86.0766 130.259L89.478 129.492L88.8966 126.913Z" fill="white"/>
<path d="M91.5666 125.575L90.791 125.719L91.5235 129.669L92.299 129.525L91.5666 125.575Z" fill="black"/>
<path opacity="0.3" d="M82.09 127.919L81.3145 128.062L82.0473 132.013L82.8229 131.869L82.09 127.919Z" fill="white"/>
<path opacity="0.3" d="M91.5666 125.575L90.791 125.719L91.5235 129.669L92.299 129.525L91.5666 125.575Z" fill="white"/>
<path d="M140.73 179.356C140.223 179.203 139.692 179.142 139.164 179.18C139.164 179.18 137.206 178.362 134.842 174.469L132.822 174.734C132.124 174.838 131.566 175.367 131.425 176.058C131.404 176.152 131.398 176.249 131.406 176.345C131.493 176.83 131.612 177.309 131.761 177.779C132.15 179.263 133.594 182.365 133.594 182.365L133.924 182.23L132.888 179.304C132.541 178.309 133.752 179.15 134.392 180.113C135.033 181.076 135.94 182.01 138.1 181.194C140.613 180.23 141.608 179.712 140.73 179.356Z" fill="black"/>
<path d="M134.327 173.438C134.327 173.438 137.573 178.365 139.163 179.183C139.163 179.183 137.377 180.611 134.997 178.307C131.919 175.328 131.406 176.349 131.406 176.349C131.406 176.349 131.359 175.191 131.487 174.604C131.732 173.472 134.327 173.438 134.327 173.438Z" fill="#E4897B"/>
<path d="M114.697 195.739C114.241 195.47 113.739 195.286 113.217 195.196C113.217 195.196 111.509 193.938 110.136 189.595L108.111 189.374C107.408 189.31 106.74 189.691 106.439 190.329C106.396 190.415 106.367 190.508 106.353 190.603C106.322 191.095 106.324 191.588 106.357 192.08C106.383 193.615 107.05 196.97 107.05 196.97L107.402 196.918L107.09 193.829C106.988 192.781 107.965 193.884 108.359 194.972C108.753 196.06 109.414 197.182 111.704 196.901C114.376 196.56 115.466 196.293 114.697 195.739Z" fill="black"/>
<path d="M109.882 188.467C109.882 188.467 111.866 194.023 113.218 195.196C113.218 195.196 111.145 196.159 109.378 193.357C107.094 189.733 106.354 190.603 106.354 190.603C106.354 190.603 106.583 189.467 106.846 188.926C107.353 187.885 109.882 188.467 109.882 188.467Z" fill="#E4897B"/>
<path d="M73.5408 90.2926L69.4826 91.1113C69.4826 91.1113 68.8853 91.6061 68.3184 91.3914C67.107 90.9328 65.3599 89.4995 65.1376 89.0042C64.8113 88.277 65.1405 86.1469 65.9957 85.7633C66.8509 85.3797 69.8036 88.9393 69.8036 88.9393L74.178 87.9512L73.5408 90.2926Z" fill="#E4897B"/>
<path d="M86.3796 103.822C86.3796 103.822 86.009 90.6338 84.4829 90.0678C82.9567 89.5023 71.4954 91.0775 71.4954 91.0775L71.2139 88.0656C71.2139 88.0656 84.5647 86.0134 87.1472 87.2282C89.7298 88.443 90.5822 108.11 90.111 111.898L86.3796 103.822Z" fill="#D5E3FF"/>
<path opacity="0.6" d="M86.3796 103.822C86.3796 103.822 86.009 90.6338 84.4829 90.0678C82.9567 89.5023 71.4954 91.0775 71.4954 91.0775L71.2139 88.0656C71.2139 88.0656 84.5647 86.0134 87.1472 87.2282C89.7298 88.443 90.5822 108.11 90.111 111.898L86.3796 103.822Z" fill="white"/>
<path d="M71.6876 91.3691L70.8916 88.0574L72.0327 87.6406L72.7595 91.4683L71.6876 91.3691Z" fill="#D5E3FF"/>
<path opacity="0.7" d="M71.6876 91.3691L70.8916 88.0574L72.0327 87.6406L72.7595 91.4683L71.6876 91.3691Z" fill="white"/>
<path d="M86.3174 102.18C86.3174 102.18 85.2961 106.194 80.3576 107.477C75.4192 108.76 69.9609 105.413 69.9609 105.413L71.0462 114.99L77.094 130.079L92.5442 126.049C92.5442 126.049 91.6153 108.495 86.3174 102.18Z" fill="#D5E3FF"/>
<path opacity="0.7" d="M86.3174 102.18C86.3174 102.18 85.2961 106.194 80.3576 107.477C75.4192 108.76 69.9609 105.413 69.9609 105.413L71.0462 114.99L77.094 130.079L92.5442 126.049C92.5442 126.049 91.6153 108.495 86.3174 102.18Z" fill="white"/>
<path opacity="0.6" d="M89.0009 118.089L90.8105 117.518C91.0112 117.455 91.1224 117.241 91.0589 117.041L89.9818 113.626C89.9187 113.425 89.7045 113.314 89.5038 113.377L87.6942 113.948C87.4935 114.011 87.3823 114.225 87.4454 114.426L88.5225 117.84C88.5865 118.042 88.8002 118.153 89.0009 118.089Z" fill="#D5E3FF"/>
<path opacity="0.2" d="M88.6327 117.047L90.6904 116.398L89.8027 113.584L87.745 114.233L88.6327 117.047Z" fill="black"/>
<path d="M88.5536 112.583L88.0996 112.727L88.6228 114.385L89.0768 114.242L88.5536 112.583Z" fill="black"/>
<path d="M75.8101 87.1875C72.0051 87.1899 69.4928 91.2197 70.3812 97.6188C71.2697 104.018 74.8418 105.856 74.8418 105.856L74.6122 104.314C74.6122 104.314 80.2514 105.773 86.691 104.987C86.691 104.987 84.853 99.7716 85.4488 94.4414C85.4488 94.4404 86.6554 87.1803 75.8101 87.1875Z" fill="black"/>
<path opacity="0.2" d="M83.3738 106.154L84.9274 111.923L82.1942 109.841C82.1942 109.841 84.8537 115.923 85.5405 119.476C85.5405 119.476 83.241 113.443 81.2571 110.136L80.0972 113.446L75.4326 108.698C75.4326 108.698 79.5644 105.554 83.3738 106.154Z" fill="black"/>
<path d="M81.0997 108.04L76.3581 108.184C78.4584 105.49 74.6562 100.805 74.6562 100.805L79.3444 101.821C80.4625 106.457 82.3938 106.598 82.3938 106.598L81.0997 108.04Z" fill="#E4897B"/>
<path opacity="0.2" d="M80.6554 105.149C78.4762 104.953 76.9616 103.898 75.9485 102.784C75.3228 101.627 74.6562 100.805 74.6562 100.805L79.343 101.822C79.7232 103.387 80.1944 104.445 80.6554 105.149Z" fill="black"/>
<path d="M79.339 89.1433C83.4275 89.4841 84.5609 91.7827 84.5094 96.0209C84.4449 101.317 82.9659 104.961 77.9476 103.41C71.1321 101.304 72.549 88.5773 79.339 89.1433Z" fill="#E4897B"/>
<path d="M81.8852 95.5781C81.8852 95.5781 82.3627 96.6933 82.9335 97.3728C82.9335 97.3728 82.5369 97.8998 81.8174 97.7453L81.8852 95.5781Z" fill="#DE5753"/>
<path d="M79.1201 94.9045L80.0042 94.6172C80.0042 94.6172 79.5307 95.3184 79.1201 94.9045Z" fill="black"/>
<path d="M79.4277 94.8023C79.4277 94.8023 78.8078 94.4938 78.4512 95.0626C78.4512 95.0626 78.854 94.8302 79.393 95.0386L79.4277 94.8023Z" fill="black"/>
<path d="M77.7806 92.8531C77.7373 92.8531 77.6935 92.8367 77.6598 92.8045C77.5905 92.7376 77.5886 92.6274 77.655 92.5576C78.4019 91.7813 79.5917 92.0263 79.6422 92.0378C79.736 92.058 79.7962 92.1504 79.776 92.2448C79.7558 92.3386 79.6634 92.3983 79.569 92.379C79.5584 92.3766 78.5169 92.1649 77.9062 92.8002C77.872 92.8353 77.8263 92.8531 77.7806 92.8531Z" fill="black"/>
<path d="M84.1928 92.9288C84.1548 92.9288 84.1163 92.9168 84.0845 92.8913C83.3149 92.281 82.6652 92.4437 82.6373 92.4509C82.5454 92.475 82.4491 92.4206 82.4241 92.3282C82.3991 92.2358 82.453 92.1405 82.5454 92.1145C82.5795 92.1054 83.3857 91.8912 84.3016 92.6175C84.3771 92.6771 84.3897 92.7873 84.33 92.8624C84.2948 92.9062 84.2438 92.9288 84.1928 92.9288Z" fill="black"/>
<path d="M74.2969 95.6639C74.2969 95.6639 76.4881 92.4639 76.415 89.8466C76.415 89.8466 84.7927 87.2116 84.5073 95.4685C84.5073 95.4685 85.9073 88.2324 78.8926 87.484C71.889 86.7366 71.0511 97.0202 74.4254 100.386C74.4254 100.386 72.9392 97.6661 74.2969 95.6639Z" fill="black"/>
<path d="M74.8924 96.5814C74.9198 95.9211 74.3336 94.7501 73.0982 94.7819C71.8199 94.8146 70.9993 97.3654 74.0983 98.2529C74.543 98.3804 74.8351 97.9598 74.8924 96.5814Z" fill="#E4897B"/>
<path d="M81.8496 98.9526C81.5031 99.3775 81.0498 100.225 81.0498 100.225C80.9655 100.198 80.8813 100.171 80.799 100.139C79.6665 99.7409 79.2729 99.1821 79.18 98.6835C79.1299 98.4106 79.1737 98.1531 79.2353 97.9529C79.3041 97.7205 79.4067 97.5703 79.4067 97.5703C79.8807 98.1402 80.9078 98.5926 81.4665 98.8111C81.699 98.9049 81.8496 98.9526 81.8496 98.9526Z" fill="black"/>
<path d="M81.4651 98.8106L81.2197 99.1797C80.1541 98.8024 79.4543 98.3933 79.2344 97.9529C79.3032 97.7205 79.4057 97.5703 79.4057 97.5703C79.8798 98.1397 80.9068 98.5921 81.4651 98.8106Z" fill="white"/>
<path d="M80.7987 100.135C79.6663 99.7371 79.2726 99.1783 79.1797 98.6797C79.5604 98.8303 80.0027 99.0541 80.3492 99.3708C80.6154 99.6124 80.7405 99.8839 80.7987 100.135Z" fill="#DE5753"/>
<path d="M79.2288 89.4477C79.2288 89.4477 77.0211 96.0379 72.7926 95.5985C68.564 95.1591 75.8102 87.1862 75.8102 87.1862C75.8102 87.1862 82.9404 85.1537 86.0452 89.1089C89.15 93.0641 84.507 95.4691 84.507 95.4691C84.507 95.4691 85.2015 90.2813 79.2288 89.4477Z" fill="black"/>
<path d="M75.8593 95.0523C75.8107 95.0523 75.7655 95.0229 75.7472 94.9748C75.7236 94.9127 75.7544 94.8434 75.8165 94.8194C79.184 93.5319 79.1089 89.0127 79.108 88.967C79.1065 88.9005 79.1585 88.8452 79.2254 88.8438C79.2904 88.8548 79.3472 88.8948 79.3486 88.9612C79.3496 89.0084 79.4276 93.697 75.9026 95.0446C75.8882 95.0499 75.8738 95.0523 75.8593 95.0523Z" fill="black"/>
<path d="M83.2676 95.303L84.1517 95.0156C84.1517 95.0156 83.6776 95.7169 83.2676 95.303Z" fill="black"/>
<path d="M83.5752 95.2007C83.5752 95.2007 82.9553 94.8922 82.5986 95.4611C82.5986 95.4611 83.0015 95.2286 83.5405 95.437L83.5752 95.2007Z" fill="black"/>
<path d="M77.0271 106.234L80.5992 108.053L80.5443 111.68L75.4326 108.7L77.0271 106.234Z" fill="#D5E3FF"/>
<path d="M81.1475 105.547L81.3568 107.748L83.6891 110.218L83.3744 106.153L81.1475 105.547Z" fill="#D5E3FF"/>
<path d="M64.6231 80.648L63.1311 76.7867C63.1311 76.7867 63.2269 76.0171 62.7413 75.6542C61.7032 74.8793 59.5552 74.1771 59.0181 74.2561C58.2293 74.3721 56.6107 75.7947 56.7474 76.7222C56.8841 77.6496 61.4731 78.2247 61.4731 78.2247L62.9921 82.4442L64.6231 80.648Z" fill="#E4897B"/>
<path d="M71.0458 114.985C71.0458 114.985 73.9581 112.69 72.7842 107.613L69.6799 93.5793L64.3468 79.0859L61.7383 80.4056C61.7383 80.4056 66.118 94.5655 66.5218 95.5227C66.7297 96.0156 67.5541 103.354 68.6741 108.28C69.7045 112.813 71.0458 114.985 71.0458 114.985Z" fill="#D5E3FF"/>
<path opacity="0.6" d="M71.0458 114.985C71.0458 114.985 73.9581 112.69 72.7842 107.613L69.6799 93.5793L64.3468 79.0859L61.7383 80.4056C61.7383 80.4056 66.118 94.5655 66.5218 95.5227C66.7297 96.0156 67.5541 103.354 68.6741 108.28C69.7045 112.813 71.0458 114.985 71.0458 114.985Z" fill="white"/>
<path d="M61.2832 79.9959L64.3278 78.4688L64.9925 79.4862L61.4295 81.0619L61.2832 79.9959Z" fill="#D5E3FF"/>
<path opacity="0.7" d="M61.2832 79.9959L64.3278 78.4688L64.9925 79.4862L61.4295 81.0619L61.2832 79.9959Z" fill="white"/>
<path opacity="0.6" d="M77.0271 106.234L80.5992 108.053L80.5443 111.68L75.4326 108.7L77.0271 106.234Z" fill="white"/>
<path opacity="0.6" d="M81.1475 105.547L81.3568 107.748L83.6891 110.218L83.3744 106.153L81.1475 105.547Z" fill="white"/>
<path d="M182.696 98.6719H168.274V109.875H182.696V98.6719Z" fill="white"/>
<path opacity="0.1" d="M182.696 98.6719H179V109.875H182.696V98.6719Z" fill="black"/>
<path d="M167.446 119.766H183.75V99.4297H178.498L167.446 104.722V119.766Z" fill="#00AA84"/>
<path opacity="0.2" d="M183.749 99.4297H178.498V119.766H183.749V99.4297Z" fill="black"/>
<path opacity="0.7" d="M176.765 108.734H169.13V112.392H176.765V108.734Z" fill="white"/>
<path opacity="0.7" d="M176.765 113.617H169.13V114.142H176.765V113.617Z" fill="white"/>
<path opacity="0.7" d="M183.242 115.148H179V118.251H183.242V115.148Z" fill="white"/>
<path d="M176.569 98.0625H162.147V109.878H176.569V98.0625Z" fill="white"/>
<path opacity="0.1" d="M176.569 98.0625H172.873V109.878H176.569V98.0625Z" fill="black"/>
<path d="M161.319 119.774H177.622V99.4375H172.371L161.319 104.73V119.774Z" fill="#00AA84"/>
<path opacity="0.2" d="M177.622 99.4375H172.371V119.774H177.622V99.4375Z" fill="black"/>
<path opacity="0.7" d="M170.638 108.734H163.003V112.392H170.638V108.734Z" fill="white"/>
<path opacity="0.7" d="M170.638 113.617H163.003V114.142H170.638V113.617Z" fill="white"/>
<path opacity="0.7" d="M177.115 115.148H172.873V118.251H177.115V115.148Z" fill="white"/>
<path d="M151.194 196.974H154.143L159.44 123.219H155.529L151.194 196.974Z" fill="black"/>
<path opacity="0.1" d="M151.192 196.972H154.143L159.182 126.881L159.442 123.336H155.529L155.317 126.881L151.192 196.972Z" fill="white"/>
<path opacity="0.2" d="M155.317 126.705H159.182L159.442 123.336H155.529L155.317 126.705Z" fill="black"/>
<path d="M129.556 196.974H132.505L132.987 123.219H129.075L129.556 196.974Z" fill="black"/>
<path opacity="0.1" d="M129.073 123.336L129.15 135.236L129.555 196.972H132.505L132.909 135.236L132.986 123.336H129.073Z" fill="white"/>
<path opacity="0.2" d="M129.073 123.336L129.15 135.368H132.909L132.986 123.336H129.073Z" fill="black"/>
<path d="M98.2539 196.974H101.202L106.5 123.219H102.588L98.2539 196.974Z" fill="black"/>
<path opacity="0.1" d="M98.252 196.972H101.202L106.241 126.881L106.501 123.336H102.588L102.377 126.881L98.252 196.972Z" fill="white"/>
<path opacity="0.2" d="M102.377 126.705H106.242L106.502 123.336H102.589L102.377 126.705Z" fill="black"/>
<path d="M184.924 196.974H187.873L183.539 123.219H179.627L184.924 196.974Z" fill="black"/>
<path opacity="0.1" d="M179.628 123.336L179.888 126.881L184.927 196.972H187.873L183.753 126.881L183.541 123.336H179.628Z" fill="white"/>
<path opacity="0.2" d="M183.541 123.336H179.628L179.888 126.705H183.753L183.541 123.336Z" fill="black"/>
<path d="M100.528 125.069H185.598C186.173 125.069 186.639 124.603 186.639 124.029V121.375H99.4873V124.029C99.4873 124.603 99.9532 125.069 100.528 125.069Z" fill="#00AA84"/>
<path opacity="0.4" d="M100.528 125.069H185.598C186.173 125.069 186.639 124.603 186.639 124.029V121.375H99.4873V124.029C99.4873 124.603 99.9532 125.069 100.528 125.069Z" fill="white"/>
<path opacity="0.2" d="M99.4874 123.219L186.639 123.219V121.372L99.4874 121.372V123.219Z" fill="black"/>
<path d="M97.6597 121.855H188.466C189.041 121.855 189.507 121.389 189.507 120.814C189.507 120.239 189.041 119.773 188.466 119.773H97.6597C97.085 119.773 96.6191 120.239 96.6191 120.814C96.6191 121.389 97.085 121.855 97.6597 121.855Z" fill="#00AA84"/>
<path opacity="0.4" d="M97.6597 121.855H188.466C189.041 121.855 189.507 121.389 189.507 120.814C189.507 120.239 189.041 119.773 188.466 119.773H97.6597C97.085 119.773 96.6191 120.239 96.6191 120.814C96.6191 121.389 97.085 121.855 97.6597 121.855Z" fill="white"/>
<path d="M168.954 119.763V118.136H170.046L168.954 117.501H169.773L168.681 116.787H167.647V115.968H168.847L167.647 115.49V113.715H168.847V112.554H170.046L168.847 112.152V111.326H169.705L169.003 110.624L168.395 110.016H149.802V110.848H148.573L149.938 111.462V112.152H147.43V113.433H146.32L147.43 113.988V115.421H148.218V116.104H149.802V118.136H148.914L149.64 118.862V119.77L168.954 119.763Z" fill="#00AA84"/>
<path opacity="0.7" d="M168.954 119.763V118.136H170.046L168.954 117.501H169.773L168.681 116.787H167.647V115.968H168.847L167.647 115.49V113.715H168.847V112.554H170.046L168.847 112.152V111.326H169.705L169.003 110.624L168.395 110.016H149.802V110.848H148.573L149.938 111.462V112.152H147.43V113.433H146.32L147.43 113.988V115.421H148.218V116.104H149.802V118.136H148.914L149.64 118.862V119.77L168.954 119.763Z" fill="white"/>
<path opacity="0.1" d="M168.954 119.763V118.136H170.046L168.954 117.501H169.773L168.681 116.787H167.647V115.968H168.847L167.647 115.49V113.715H168.847V112.554H170.046L168.847 112.152V111.326H169.705L169.003 110.624L168.395 110.016H158.601V110.848H157.373L158.738 111.462V112.152H156.229V113.433H155.12L156.229 113.988V115.421H157.018V116.104H158.601V118.136H157.714L158.44 118.862V119.77L168.954 119.763Z" fill="black"/>
<path opacity="0.1" d="M149.938 112.155H158.738L149.938 111.836V112.155Z" fill="black"/>
<path opacity="0.1" d="M149.802 116.102H158.601L158.64 116.716L149.802 116.102Z" fill="black"/>
<path opacity="0.1" d="M148.219 115.422H157.019L148.219 115.729V115.422Z" fill="black"/>
<path opacity="0.1" d="M149.802 118.138H158.601L149.802 117.812V118.138Z" fill="black"/>
<path opacity="0.1" d="M149.641 118.859H158.44V119.195L149.641 118.859Z" fill="black"/>
<path opacity="0.1" d="M147.43 113.431H156.229L147.43 113.148V113.431Z" fill="black"/>
<path opacity="0.1" d="M149.802 110.846H158.601L149.802 110.539V110.846Z" fill="black"/>
<path opacity="0.1" d="M168.847 111.328H159.921L168.847 111.601V111.328Z" fill="black"/>
<path opacity="0.1" d="M158.738 112.148H168.847L159.683 112.449L158.738 112.148Z" fill="black"/>
<path opacity="0.1" d="M156.229 113.43L168.847 113.712V113.43H156.229Z" fill="black"/>
<path opacity="0.1" d="M156.229 113.984H162.471L156.229 114.291V113.984Z" fill="black"/>
<path opacity="0.1" d="M167.647 115.492L158.602 115.423L167.647 115.219V115.492Z" fill="black"/>
<path opacity="0.1" d="M167.647 115.969H158.44L167.647 116.276V115.969Z" fill="black"/>
<path opacity="0.1" d="M168.954 117.5H158.738V117.809L168.954 117.5Z" fill="black"/>
<path opacity="0.1" d="M168.954 118.133H161.551L168.954 118.336V118.133Z" fill="black"/>
<path d="M145.274 117.664V119.209C145.274 119.605 144.808 119.767 144.417 119.767H113.555C113.159 119.767 112.682 119.605 112.682 119.209V117.664H145.274Z" fill="black"/>
<path opacity="0.4" d="M145.274 117.664V119.209C145.274 119.605 144.808 119.767 144.417 119.767H113.555C113.159 119.767 112.682 119.605 112.682 119.209V117.664H145.274Z" fill="white"/>
<path opacity="0.2" d="M145.274 117.664V119.209C145.274 119.605 144.808 119.767 144.417 119.767H124.062C123.666 119.767 123.195 119.605 123.195 119.209V117.664H145.274Z" fill="black"/>
<path d="M150.438 101.632L146.764 118.296C146.644 118.844 146.11 119.243 145.571 119.243H125.502C124.967 119.243 124.624 118.745 124.748 118.196L128.417 101.659C128.541 101.115 129.071 100.844 129.61 100.844H149.679C150.218 100.844 150.557 101.088 150.438 101.632Z" fill="black"/>
<path opacity="0.4" d="M150.437 101.632L146.763 118.296C146.644 118.844 146.11 119.243 145.57 119.243H126.184C125.645 119.243 125.306 118.745 125.425 118.196L129.099 101.659C129.219 101.115 129.753 100.844 130.292 100.844H149.679C150.218 100.844 150.557 101.088 150.437 101.632Z" fill="white"/>
<path opacity="0.2" d="M140.543 110.1V110.105C140.543 111.531 139.014 112.691 137.892 112.691C136.771 112.691 136.106 111.531 136.426 110.105C136.746 108.706 137.862 107.566 138.959 107.523C138.639 108.95 139.324 110.105 140.441 110.105C140.464 110.104 140.543 110.104 140.543 110.1Z" fill="black"/>
</svg>
