<svg width="224" height="225" viewBox="0 0 224 225" fill="none" xmlns="http://www.w3.org/2000/svg">
<path d="M142.14 114.034H0V114.105H142.14V114.034Z" fill="#E0E0E0"/>
<path d="M107.837 116.656H98.0566V116.727H107.837V116.656Z" fill="#E0E0E0"/>
<path d="M119.338 116.454H113.835V116.525H119.338V116.454Z" fill="#E0E0E0"/>
<path d="M70.3158 116.621H63.0146V116.692H70.3158V116.621Z" fill="#E0E0E0"/>
<path d="M75.5861 117.631H70.5996V117.702H75.5861V117.631Z" fill="#E0E0E0"/>
<path d="M41.126 115.903H26.0635V115.974H41.126V115.903Z" fill="#E0E0E0"/>
<path d="M67.378 101.356H12.484C11.5894 101.356 10.8613 100.628 10.8613 99.7333V22.5709C10.8613 21.6763 11.5894 20.9482 12.484 20.9482H67.378C68.2723 20.9482 69.0004 21.6763 69.0004 22.5709V99.7333C69.0004 100.628 68.2723 101.356 67.378 101.356ZM12.484 21.0196C11.6283 21.0196 10.9324 21.7155 10.9324 22.5712V99.7336C10.9324 100.589 11.6283 101.285 12.484 101.285H67.378C68.2334 101.285 68.9293 100.589 68.9293 99.7336V22.5709C68.9293 21.7155 68.2334 21.0193 67.378 21.0193L12.484 21.0196Z" fill="#E0E0E0"/>
<path d="M128.867 101.356H73.973C73.0786 101.356 72.3506 100.628 72.3506 99.7333V22.5709C72.3506 21.6763 73.0786 20.9482 73.973 20.9482H128.867C129.762 20.9482 130.489 21.6763 130.489 22.5709V99.7333C130.49 100.628 129.762 101.356 128.867 101.356ZM73.973 21.0196C73.1176 21.0196 72.4217 21.7155 72.4217 22.5712V99.7336C72.4217 100.589 73.1176 101.285 73.973 101.285H128.867C129.722 101.285 130.418 100.589 130.418 99.7336V22.5709C130.418 21.7155 129.722 21.0193 128.867 21.0193L73.973 21.0196Z" fill="#E0E0E0"/>
<path d="M123.386 27.8613H80.5459V64.6922H123.386V27.8613Z" fill="#E0E0E0"/>
<path d="M124.338 27.8613H81.498V64.6922H124.338V27.8613Z" fill="#F0F0F0"/>
<path d="M122.629 62.9639V29.5898L83.2062 29.5898V62.9639L122.629 62.9639Z" fill="#FAFAFA"/>
<path d="M110.03 62.9639V29.5898H107.453V62.9639H110.03Z" fill="#E0E0E0"/>
<path d="M96.4795 62.9639V29.5898H93.9025V62.9639H96.4795Z" fill="#E0E0E0"/>
<path d="M110.937 64.0607V28.3047H108.36V64.0607H110.937Z" fill="#F0F0F0"/>
<path d="M97.3857 64.0607V28.3047H94.8088V64.0607H97.3857Z" fill="#F0F0F0"/>
<path d="M122.629 62.9639V29.5898H121.909V62.9639H122.629Z" fill="#E0E0E0"/>
<path d="M50.415 56.9485C50.415 56.9485 45.2019 47.9619 52.4342 40.8086C52.4342 40.8086 54.3219 42.039 54.2929 43.6929C54.2639 45.3468 52.2714 45.7653 52.6995 47.1457C53.1276 48.5259 55.009 49.8802 53.7741 51.0213C52.5394 52.1624 53.973 53.1781 53.8895 54.5762C53.8062 55.974 50.415 56.9485 50.415 56.9485Z" fill="#E0E0E0"/>
<path d="M51.2336 58.4172C51.2336 58.4172 53.3469 48.2454 44.2278 43.7373C44.2278 43.7373 42.8243 45.5001 43.3736 47.0605C43.9225 48.6209 45.9454 48.3898 45.9744 49.8345C46.0034 51.2795 44.6451 53.1577 46.1768 53.8514C47.7082 54.545 46.6681 55.961 47.1883 57.2613C47.7082 58.5616 51.2336 58.4172 51.2336 58.4172Z" fill="#E6E6E6"/>
<path d="M46.5908 55.834C46.5908 55.834 46.6824 64.6137 50.1915 64.6137C53.7006 64.6137 53.7922 55.834 53.7922 55.834H46.5908Z" fill="#F0F0F0"/>
<path d="M25.4971 61.3105C25.4971 61.3105 25.6927 64.6139 33.1905 64.6139C40.6884 64.6139 40.884 61.3105 40.884 61.3105H25.4971Z" fill="#E6E6E6"/>
<path d="M104.53 89.562H100.571C100.079 89.562 99.6797 89.1628 99.6797 88.6705V82.1229C99.6797 81.6306 100.079 81.2314 100.571 81.2314H104.53C105.023 81.2314 105.422 81.6306 105.422 82.1229V88.6705C105.422 89.1628 105.023 89.562 104.53 89.562Z" fill="#F0F0F0"/>
<path d="M115.025 89.5618H112.361C112.029 89.5618 111.761 89.2931 111.761 88.9619V84.5559C111.761 84.2244 112.029 83.9561 112.361 83.9561H115.025C115.356 83.9561 115.624 84.2247 115.624 84.5559V88.9619C115.625 89.2931 115.356 89.5618 115.025 89.5618Z" fill="#E6E6E6"/>
<path d="M115.423 84.0428H111.962C111.851 84.0428 111.761 83.9527 111.761 83.8415V83.6124C111.761 83.5013 111.851 83.4111 111.962 83.4111H115.423C115.534 83.4111 115.624 83.5013 115.624 83.6124V83.8415C115.625 83.9524 115.535 84.0428 115.423 84.0428Z" fill="#F0F0F0"/>
<path d="M90.5215 84.9268C90.5215 84.9268 90.6631 89.5616 96.0908 89.5616C101.519 89.5616 101.66 84.9268 101.66 84.9268H90.5215Z" fill="#E6E6E6"/>
<path d="M77.0238 78.8076H85.2363V77.1884H77.0238V78.8076Z" fill="#E0E0E0"/>
<path d="M126.067 77.1885H85.2363V78.8077H126.067V77.1885Z" fill="#F0F0F0"/>
<path d="M77.0238 91.1807H85.2363V89.5614H77.0238V91.1807Z" fill="#E0E0E0"/>
<path d="M126.067 89.5605H85.2363V91.1798H126.067V89.5605Z" fill="#F0F0F0"/>
<path d="M79.9848 78.8066H78.4688V114.036H79.9848V78.8066Z" fill="#E0E0E0"/>
<path d="M86.7524 78.8066H85.2363V114.036H86.7524V78.8066Z" fill="#F0F0F0"/>
<path d="M120.816 78.8066H119.3V114.036H120.816V78.8066Z" fill="#E0E0E0"/>
<path d="M126.067 78.8066H124.551V114.036H126.067V78.8066Z" fill="#F0F0F0"/>
<path d="M25.4974 66.6758H17.7314V111.901H25.4974V66.6758Z" fill="#E6E6E6"/>
<path d="M57.5204 111.901H19.2227V114.035H57.5204V111.901Z" fill="#E6E6E6"/>
<path d="M25.4978 111.901H59.0117L59.0117 66.6766H25.4978L25.4978 111.901Z" fill="#F0F0F0"/>
<path d="M28.5504 94.8115H55.958V83.7659H28.5504V94.8115Z" fill="#E6E6E6"/>
<path d="M28.5504 107.872H55.958V96.8264H28.5504V107.872Z" fill="#E6E6E6"/>
<path d="M45.331 84.9766H39.1772C38.7608 84.9766 38.4199 84.6357 38.4199 84.2192C38.4199 83.8028 38.7608 83.4619 39.1772 83.4619H45.331C45.7475 83.4619 46.0883 83.8028 46.0883 84.2192C46.0883 84.6357 45.7475 84.9766 45.331 84.9766Z" fill="#F0F0F0"/>
<path d="M28.5504 81.751H55.958V70.7053H28.5504V81.751Z" fill="#E6E6E6"/>
<path d="M45.331 71.916H39.1772C38.7608 71.916 38.4199 71.5752 38.4199 71.1587C38.4199 70.7422 38.7608 70.4014 39.1772 70.4014H45.331C45.7475 70.4014 46.0883 70.7422 46.0883 71.1587C46.0883 71.5752 45.7475 71.916 45.331 71.916Z" fill="#F0F0F0"/>
<path d="M45.331 98.0371H39.1772C38.7608 98.0371 38.4199 97.6962 38.4199 97.2798C38.4199 96.8633 38.7608 96.5225 39.1772 96.5225H45.331C45.7475 96.5225 46.0883 96.8633 46.0883 97.2798C46.0883 97.6965 45.7475 98.0371 45.331 98.0371Z" fill="#F0F0F0"/>
<path d="M60.0468 64.6152H25.498V66.6763H60.0468V64.6152Z" fill="#E6E6E6"/>
<path d="M16.647 66.6758H25.498V64.6148H16.647V66.6758Z" fill="#E0E0E0"/>
<path d="M34.1526 29.5889H21.5869V43.3869H34.1526V29.5889Z" fill="#E6E6E6"/>
<path d="M35.5138 29.5889H22.5342V43.3869H35.5138V29.5889Z" fill="#F0F0F0"/>
<path d="M34.4258 42.2991V30.6758L23.6209 30.6758V42.2991H34.4258Z" fill="#FAFAFA"/>
<path d="M31.8076 39.4828V33.4941H26.2406V39.4828H31.8076Z" fill="#F0F0F0"/>
<path d="M47.402 25.5156H37.8721V35.7514H47.402V25.5156Z" fill="#E6E6E6"/>
<path d="M48.4117 25.5156H38.7832V35.7514H48.4117V25.5156Z" fill="#F0F0F0"/>
<path d="M47.6055 34.9447V26.3223H39.5902V34.9447H47.6055Z" fill="#FAFAFA"/>
<path d="M43.5973 28.4541L41.4053 32.2506H45.7894L43.5973 28.4541Z" fill="#F0F0F0"/>
<path d="M42.1671 66.0798C33.8891 135.559 114.287 202.964 176.492 153.057C204.576 130.526 224.722 58.4801 177.201 47.9304C149.95 41.8807 120.657 66.0506 94.6784 56.5491C82.1895 51.9815 75.7952 33.9948 61.2841 35.9052C47.6574 37.6986 43.5469 54.4986 42.1671 66.0798Z" fill="#407BFF"/>
<path opacity="0.9" d="M42.1671 66.0798C33.8891 135.559 114.287 202.964 176.492 153.057C204.576 130.526 224.722 58.4801 177.201 47.9304C149.95 41.8807 120.657 66.0506 94.6784 56.5491C82.1895 51.9815 75.7952 33.9948 61.2841 35.9052C47.6574 37.6986 43.5469 54.4986 42.1671 66.0798Z" fill="black"/>
<path d="M125.982 208.717C179.944 208.717 223.688 206.162 223.688 203.011C223.688 199.859 179.944 197.305 125.982 197.305C72.0208 197.305 28.2764 199.859 28.2764 203.011C28.2764 206.162 72.0208 208.717 125.982 208.717Z" fill="#F5F5F5"/>
<path d="M211.55 89.6282H162.112C159.516 89.6282 157.392 87.5036 157.392 84.9074V71.4591C157.392 68.8628 159.516 66.7383 162.112 66.7383H211.55C214.146 66.7383 216.27 68.8628 216.27 71.4591V84.9074C216.27 87.5036 214.146 89.6282 211.55 89.6282Z" fill="#084F93"/>
<path d="M201.739 73.1591H163.129C162.674 73.1591 162.301 72.7862 162.301 72.3306V71.4271C162.301 70.9715 162.674 70.5986 163.129 70.5986H201.739C202.195 70.5986 202.568 70.9715 202.568 71.4271V72.3306C202.568 72.7862 202.195 73.1591 201.739 73.1591Z" fill="#084F93"/>
<path d="M189.509 79.3285H163.129C162.674 79.3285 162.301 78.9556 162.301 78.5001V77.596C162.301 77.1405 162.674 76.7676 163.129 76.7676H189.509C189.965 76.7676 190.338 77.1405 190.338 77.596V78.5001C190.338 78.9556 189.965 79.3285 189.509 79.3285Z" fill="#084F93"/>
<path d="M182.434 85.4975H163.129C162.674 85.4975 162.301 85.1246 162.301 84.669V83.765C162.301 83.3094 162.674 82.9365 163.129 82.9365H182.434C182.89 82.9365 183.263 83.3094 183.263 83.765V84.669C183.263 85.1246 182.89 85.4975 182.434 85.4975Z" fill="#084F93"/>
<path d="M206.366 85.4975H187.061C186.605 85.4975 186.232 85.1246 186.232 84.669V83.765C186.232 83.3094 186.605 82.9365 187.061 82.9365H206.366C206.821 82.9365 207.194 83.3094 207.194 83.765V84.669C207.194 85.1246 206.821 85.4975 206.366 85.4975Z" fill="#084F93"/>
<g opacity="0.5">
<path d="M201.739 73.1591H163.129C162.674 73.1591 162.301 72.7862 162.301 72.3306V71.4271C162.301 70.9715 162.674 70.5986 163.129 70.5986H201.739C202.195 70.5986 202.568 70.9715 202.568 71.4271V72.3306C202.568 72.7862 202.195 73.1591 201.739 73.1591Z" fill="white"/>
<path d="M189.509 79.3285H163.129C162.674 79.3285 162.301 78.9556 162.301 78.5001V77.596C162.301 77.1405 162.674 76.7676 163.129 76.7676H189.509C189.965 76.7676 190.338 77.1405 190.338 77.596V78.5001C190.338 78.9556 189.965 79.3285 189.509 79.3285Z" fill="white"/>
<path d="M182.434 85.4975H163.129C162.674 85.4975 162.301 85.1246 162.301 84.669V83.765C162.301 83.3094 162.674 82.9365 163.129 82.9365H182.434C182.89 82.9365 183.263 83.3094 183.263 83.765V84.669C183.263 85.1246 182.89 85.4975 182.434 85.4975Z" fill="white"/>
<path d="M206.366 85.4975H187.061C186.605 85.4975 186.232 85.1246 186.232 84.669V83.765C186.232 83.3094 186.605 82.9365 187.061 82.9365H206.366C206.821 82.9365 207.194 83.3094 207.194 83.765V84.669C207.194 85.1246 206.821 85.4975 206.366 85.4975Z" fill="white"/>
</g>
<path d="M171.95 94.9634H115.834C112.027 94.9634 108.912 91.8486 108.912 88.0419V68.3248C108.912 64.5181 112.027 61.4033 115.834 61.4033H171.95C175.757 61.4033 178.871 64.5181 178.871 68.3248V88.0419C178.871 91.8486 175.757 94.9634 171.95 94.9634Z" fill="#084F93"/>
<path d="M173.934 70.8158H117.325C116.657 70.8158 116.11 70.2695 116.11 69.6013V68.276C116.11 67.6083 116.657 67.0615 117.325 67.0615H173.934C174.602 67.0615 175.148 67.6078 175.148 68.276V69.6013C175.148 70.2695 174.602 70.8158 173.934 70.8158Z" fill="#084F93"/>
<path d="M156.003 79.8617H117.325C116.657 79.8617 116.11 79.3154 116.11 78.6472V77.3219C116.11 76.6542 116.657 76.1074 117.325 76.1074H156.003C156.67 76.1074 157.217 76.6537 157.217 77.3219V78.6472C157.217 79.3154 156.67 79.8617 156.003 79.8617Z" fill="#084F93"/>
<path d="M145.629 88.9066H117.325C116.657 88.9066 116.11 88.3603 116.11 87.6921V86.3668C116.11 85.6991 116.657 85.1523 117.325 85.1523H145.629C146.297 85.1523 146.844 85.6986 146.844 86.3668V87.6921C146.844 88.3598 146.297 88.9066 145.629 88.9066Z" fill="#084F93"/>
<path d="M175.999 88.9066H152.413C151.745 88.9066 151.198 88.3603 151.198 87.6921V86.3668C151.198 85.6991 151.745 85.1523 152.413 85.1523H175.999C176.667 85.1523 177.214 85.6986 177.214 86.3668V87.6921C177.214 88.3598 176.667 88.9066 175.999 88.9066Z" fill="#084F93"/>
<g opacity="0.5">
<path d="M173.934 70.8158H117.325C116.657 70.8158 116.11 70.2695 116.11 69.6013V68.276C116.11 67.6083 116.657 67.0615 117.325 67.0615H173.934C174.602 67.0615 175.148 67.6078 175.148 68.276V69.6013C175.148 70.2695 174.602 70.8158 173.934 70.8158Z" fill="white"/>
<path d="M156.003 79.8617H117.325C116.657 79.8617 116.11 79.3154 116.11 78.6472V77.3219C116.11 76.6542 116.657 76.1074 117.325 76.1074H156.003C156.67 76.1074 157.217 76.6537 157.217 77.3219V78.6472C157.217 79.3154 156.67 79.8617 156.003 79.8617Z" fill="white"/>
<path d="M145.629 88.9066H117.325C116.657 88.9066 116.11 88.3603 116.11 87.6921V86.3668C116.11 85.6991 116.657 85.1523 117.325 85.1523H145.629C146.297 85.1523 146.844 85.6986 146.844 86.3668V87.6921C146.844 88.3598 146.297 88.9066 145.629 88.9066Z" fill="white"/>
<path d="M175.999 88.9066H152.413C151.745 88.9066 151.198 88.3603 151.198 87.6921V86.3668C151.198 85.6991 151.745 85.1523 152.413 85.1523H175.999C176.667 85.1523 177.214 85.6986 177.214 86.3668V87.6921C177.214 88.3598 176.667 88.9066 175.999 88.9066Z" fill="white"/>
</g>
<path d="M137.063 147.999H110.035C108.256 147.999 106.8 146.544 106.8 144.764V104.281C106.8 102.502 108.256 101.046 110.035 101.046H137.063C138.842 101.046 140.298 102.502 140.298 104.281V144.765C140.298 146.544 138.842 147.999 137.063 147.999Z" fill="#084F93"/>
<path opacity="0.4" d="M137.063 147.999H110.035C108.256 147.999 106.8 146.544 106.8 144.764V104.281C106.8 102.502 108.256 101.046 110.035 101.046H137.063C138.842 101.046 140.298 102.502 140.298 104.281V144.765C140.298 146.544 138.842 147.999 137.063 147.999Z" fill="black"/>
<path d="M135.824 108.022H111.275C110.947 108.022 110.679 107.754 110.679 107.425V106.539C110.679 106.211 110.947 105.942 111.275 105.942H135.824C136.152 105.942 136.42 106.211 136.42 106.539V107.425C136.42 107.753 136.152 108.022 135.824 108.022Z" fill="#FAFAFA"/>
<path d="M128.005 113.033H111.275C110.947 113.033 110.679 112.765 110.679 112.437V111.551C110.679 111.223 110.947 110.954 111.275 110.954H128.005C128.333 110.954 128.602 111.223 128.602 111.551V112.437C128.602 112.765 128.333 113.033 128.005 113.033Z" fill="#FAFAFA"/>
<path d="M135.824 118.045H111.275C110.947 118.045 110.679 117.776 110.679 117.448V116.562C110.679 116.234 110.947 115.966 111.275 115.966H135.824C136.152 115.966 136.42 116.234 136.42 116.562V117.448C136.42 117.776 136.152 118.045 135.824 118.045Z" fill="#FAFAFA"/>
<path d="M120.394 123.058H111.274C110.946 123.058 110.678 122.789 110.678 122.461V121.575C110.678 121.247 110.946 120.979 111.274 120.979H120.394C120.722 120.979 120.991 121.247 120.991 121.575V122.461C120.991 122.789 120.723 123.058 120.394 123.058Z" fill="#FAFAFA"/>
<path d="M133.162 123.058H124.042C123.714 123.058 123.445 122.789 123.445 122.461V121.575C123.445 121.247 123.714 120.979 124.042 120.979H133.162C133.49 120.979 133.758 121.247 133.758 121.575V122.461C133.759 122.789 133.49 123.058 133.162 123.058Z" fill="#FAFAFA"/>
<path d="M135.824 128.068H111.275C110.947 128.068 110.679 127.8 110.679 127.472V126.586C110.679 126.258 110.947 125.989 111.275 125.989H135.824C136.152 125.989 136.42 126.258 136.42 126.586V127.472C136.42 127.8 136.152 128.068 135.824 128.068Z" fill="#FAFAFA"/>
<path d="M135.824 133.08H111.275C110.947 133.08 110.679 132.812 110.679 132.484V131.598C110.679 131.27 110.947 131.001 111.275 131.001H135.824C136.152 131.001 136.42 131.27 136.42 131.598V132.484C136.42 132.812 136.152 133.08 135.824 133.08Z" fill="#FAFAFA"/>
<path d="M131.469 138.092H111.274C110.946 138.092 110.678 137.823 110.678 137.495V136.609C110.678 136.281 110.946 136.013 111.274 136.013H131.469C131.797 136.013 132.066 136.281 132.066 136.609V137.495C132.066 137.823 131.798 138.092 131.469 138.092Z" fill="#FAFAFA"/>
<path d="M120.693 143.104H111.275C110.947 143.104 110.679 142.835 110.679 142.507V141.621C110.679 141.293 110.947 141.024 111.275 141.024H120.693C121.022 141.024 121.29 141.293 121.29 141.621V142.507C121.29 142.835 121.021 143.104 120.693 143.104Z" fill="#FAFAFA"/>
<path d="M144.373 100.761H106.89L123.445 113.948L148.86 123.509V105.248C148.86 102.78 146.841 100.761 144.373 100.761Z" fill="#084F93"/>
<path opacity="0.4" d="M144.373 100.761H106.89L123.445 113.948L148.86 123.509V105.248C148.86 102.78 146.841 100.761 144.373 100.761Z" fill="black"/>
<path d="M142.736 110.436H115.306C114.896 110.436 114.561 110.101 114.561 109.69V108.296C114.561 107.886 114.896 107.551 115.306 107.551H142.736C143.146 107.551 143.481 107.886 143.481 108.296V109.69C143.481 110.101 143.146 110.436 142.736 110.436Z" fill="#FAFAFA"/>
<path d="M156.102 136.457V110.094C156.102 108.082 157.748 106.436 159.76 106.436H205.543C207.556 106.436 209.202 108.082 209.202 110.094V136.457C209.202 138.469 207.556 140.115 205.543 140.115H159.76C157.748 140.115 156.102 138.469 156.102 136.457Z" fill="#084F93"/>
<path d="M164.461 128.098V101.736C164.461 99.7235 166.107 98.0771 168.119 98.0771H213.903C215.915 98.0771 217.561 99.7235 217.561 101.736V128.098C217.561 130.11 215.915 131.757 213.903 131.757H168.119C166.107 131.757 164.461 130.11 164.461 128.098Z" fill="#084F93"/>
<path opacity="0.5" d="M164.461 128.098V101.736C164.461 99.7235 166.107 98.0771 168.119 98.0771H213.903C215.915 98.0771 217.561 99.7235 217.561 101.736V128.098C217.561 130.11 215.915 131.757 213.903 131.757H168.119C166.107 131.757 164.461 130.11 164.461 128.098Z" fill="white"/>
<path d="M194.698 119.068V102.842C194.698 101.946 195.432 101.212 196.328 101.212H211.287C212.184 101.212 212.917 101.946 212.917 102.842V119.068C212.917 119.965 212.184 120.698 211.287 120.698H196.328C195.431 120.698 194.698 119.965 194.698 119.068Z" fill="#084F93"/>
<path opacity="0.7" d="M194.698 119.068V102.842C194.698 101.946 195.432 101.212 196.328 101.212H211.287C212.184 101.212 212.917 101.946 212.917 102.842V119.068C212.917 119.965 212.184 120.698 211.287 120.698H196.328C195.431 120.698 194.698 119.965 194.698 119.068Z" fill="white"/>
<path d="M177.886 126.916V114.479C177.886 113.791 178.448 113.229 179.135 113.229H190.601C191.288 113.229 191.85 113.792 191.85 114.479V126.916C191.85 127.604 191.288 128.165 190.601 128.165H179.135C178.448 128.165 177.886 127.603 177.886 126.916Z" fill="#084F93"/>
<path opacity="0.3" d="M177.886 126.916V114.479C177.886 113.791 178.448 113.229 179.135 113.229H190.601C191.288 113.229 191.85 113.792 191.85 114.479V126.916C191.85 127.604 191.288 128.165 190.601 128.165H179.135C178.448 128.165 177.886 127.603 177.886 126.916Z" fill="white"/>
<path d="M54.4053 48.0682V41.3488C54.4053 39.3039 56.0783 37.6309 58.1233 37.6309H181.151C183.196 37.6309 184.869 39.3039 184.869 41.3488V48.0682C184.869 50.1131 183.196 51.7862 181.151 51.7862H58.1233C56.0783 51.7862 54.4053 50.1131 54.4053 48.0682Z" fill="#084F93"/>
<path opacity="0.5" d="M54.4053 48.0682V41.3488C54.4053 39.3039 56.0783 37.6309 58.1233 37.6309H181.151C183.196 37.6309 184.869 39.3039 184.869 41.3488V48.0682C184.869 50.1131 183.196 51.7862 181.151 51.7862H58.1233C56.0783 51.7862 54.4053 50.1131 54.4053 48.0682Z" fill="white"/>
<path d="M161.593 54.1494V49.2754L126.191 49.2754V54.1494L161.593 54.1494Z" fill="#084F93"/>
<path opacity="0.5" d="M161.593 54.1494V49.2754L126.191 49.2754V54.1494L161.593 54.1494Z" fill="white"/>
<path d="M67.0928 27.1541V20.4348C67.0928 18.3898 68.7658 16.7168 70.8108 16.7168H193.838C195.883 16.7168 197.556 18.3898 197.556 20.4348V27.1541C197.556 29.1991 195.883 30.8721 193.838 30.8721H70.8102C68.7658 30.8721 67.0928 29.1991 67.0928 27.1541Z" fill="#084F93"/>
<path d="M65.6906 91.152C65.2491 92.1397 64.7578 93.2443 64.329 94.3101C63.8956 95.3885 63.4602 96.4669 63.0727 97.5544C62.278 99.7217 61.6012 101.918 61.1628 104.071L61.0157 104.875L60.9648 105.181C60.9491 105.263 60.9476 105.377 60.9355 105.475C60.9123 105.902 60.9219 106.419 60.9663 106.948C61.0615 108.013 61.2313 109.15 61.4465 110.291C61.8718 112.573 62.412 114.928 62.9457 117.241L60.361 118.263C59.1552 116.052 58.1372 113.808 57.2896 111.411C56.8729 110.212 56.4929 108.984 56.2243 107.651C56.0913 106.981 55.9708 106.29 55.9401 105.504C55.9376 105.299 55.926 105.109 55.9351 104.89C55.9431 104.676 55.9527 104.434 55.9708 104.291L56.0696 103.293C56.2258 101.976 56.4596 100.687 56.7615 99.437C57.0457 98.1777 57.4085 96.9547 57.794 95.7448C58.1841 94.5358 58.6134 93.3481 59.0901 92.1795C59.3265 91.5944 59.5734 91.0144 59.8284 90.4349C60.0829 89.8453 60.3419 89.3 60.6533 88.6797L65.6906 91.152Z" fill="#E4897B"/>
<path d="M62.8453 116.562L64.8116 118.481L60.5242 120.475C60.5242 120.475 59.4836 118.659 60.2022 117.016L62.8453 116.562Z" fill="#E4897B"/>
<path d="M66.3957 121.338L62.775 122.821L60.5244 120.476L64.8118 118.481L66.3957 121.338Z" fill="#E4897B"/>
<path opacity="0.4" d="M139.792 119.273C119.876 117.048 105.531 99.0995 107.756 79.1792C109.981 59.259 127.934 44.9187 147.849 47.1436C167.77 49.3689 182.115 67.3173 179.89 87.2375C177.665 107.157 159.712 121.498 139.792 119.273Z" fill="#FAFAFA"/>
<path opacity="0.4" d="M166.192 54.6306L111.013 98.7207C110.777 98.2223 110.553 97.7179 110.338 97.2099C108.974 93.9631 108.078 90.4966 107.717 86.8905L107.717 86.8865L155.377 48.8047C159.35 50.132 162.994 52.1225 166.192 54.6306Z" fill="#FAFAFA"/>
<path opacity="0.4" d="M178.922 73.9466L127.044 115.395C122.073 112.805 117.815 109.111 114.562 104.67L171.212 59.4043C174.825 63.5582 177.488 68.5254 178.922 73.9466Z" fill="#FAFAFA"/>
<path d="M102.996 69.3668L102.519 69.205C103.35 66.7524 104.398 64.3693 105.632 62.1228L106.073 62.3657C104.853 64.586 103.818 66.9419 102.996 69.3668ZM109.114 57.6036L108.708 57.3048C112.792 51.755 118.259 47.1889 124.518 44.0989L124.74 44.5504C118.554 47.6052 113.15 52.1189 109.114 57.6036ZM164.343 45.2413C162.704 44.3574 160.992 43.5733 159.251 42.9116L159.431 42.4404C161.191 43.1101 162.924 43.9033 164.582 44.7978L164.343 45.2413Z" fill="#084F93"/>
<path opacity="0.3" d="M102.996 69.3668L102.519 69.205C103.35 66.7524 104.398 64.3693 105.632 62.1228L106.073 62.3657C104.853 64.586 103.818 66.9419 102.996 69.3668ZM109.114 57.6036L108.708 57.3048C112.792 51.755 118.259 47.1889 124.518 44.0989L124.74 44.5504C118.554 47.6052 113.15 52.1189 109.114 57.6036ZM164.343 45.2413C162.704 44.3574 160.992 43.5733 159.251 42.9116L159.431 42.4404C161.191 43.1101 162.924 43.9033 164.582 44.7978L164.343 45.2413Z" fill="black"/>
<path d="M181.349 64.6824C171.118 43.9573 146.022 35.4495 125.298 45.6797C106.03 55.1909 97.3319 77.5491 104.423 97.3001C101.056 98.4813 97.732 99.7481 94.4257 101.051C89.6591 102.94 84.9398 104.923 80.2553 106.977C75.5798 109.051 70.9231 111.162 66.3141 113.369C63.9986 114.45 61.7143 115.595 59.4128 116.705C58.2483 117.231 57.1573 117.908 56.219 118.893C55.7468 119.38 55.3144 119.947 54.9223 120.596C54.5353 121.255 54.1791 121.977 53.9362 122.927C53.1611 125.94 54.6795 129.151 57.6294 130.409C58.5315 130.793 59.3211 130.949 60.0795 131.043C60.8329 131.127 61.5465 131.128 62.2197 131.049C63.5728 130.904 64.7731 130.449 65.8994 129.845C68.1802 128.693 70.4781 127.577 72.7448 126.396C77.2998 124.079 81.8074 121.666 86.2964 119.216C90.7763 116.747 95.2209 114.206 99.6187 111.571C102.664 109.738 105.692 107.87 108.677 105.915C120.045 123.557 143.082 130.247 162.349 120.737C183.073 110.507 191.581 85.4109 181.349 64.6824ZM158.441 112.822C142.086 120.895 122.285 114.179 114.212 97.8242C106.14 81.4727 112.85 61.6699 129.206 53.5964C145.561 45.523 165.362 52.2389 173.433 68.5903C181.506 84.9453 174.797 104.748 158.441 112.822Z" fill="#084F93"/>
<path opacity="0.3" d="M181.349 64.6824C171.118 43.9573 146.022 35.4495 125.298 45.6797C106.03 55.1909 97.3319 77.5491 104.423 97.3001C101.056 98.4813 97.732 99.7481 94.4257 101.051C89.6591 102.94 84.9398 104.923 80.2553 106.977C75.5798 109.051 70.9231 111.162 66.3141 113.369C63.9986 114.45 61.7143 115.595 59.4128 116.705C58.2483 117.231 57.1573 117.908 56.219 118.893C55.7468 119.38 55.3144 119.947 54.9223 120.596C54.5353 121.255 54.1791 121.977 53.9362 122.927C53.1611 125.94 54.6795 129.151 57.6294 130.409C58.5315 130.793 59.3211 130.949 60.0795 131.043C60.8329 131.127 61.5465 131.128 62.2197 131.049C63.5728 130.904 64.7731 130.449 65.8994 129.845C68.1802 128.693 70.4781 127.577 72.7448 126.396C77.2998 124.079 81.8074 121.666 86.2964 119.216C90.7763 116.747 95.2209 114.206 99.6187 111.571C102.664 109.738 105.692 107.87 108.677 105.915C120.045 123.557 143.082 130.247 162.349 120.737C183.073 110.507 191.581 85.4109 181.349 64.6824ZM158.441 112.822C142.086 120.895 122.285 114.179 114.212 97.8242C106.14 81.4727 112.85 61.6699 129.206 53.5964C145.561 45.523 165.362 52.2389 173.433 68.5903C181.506 84.9453 174.797 104.748 158.441 112.822Z" fill="black"/>
<path d="M79.6318 73.155C79.6313 73.4533 79.7896 73.6957 79.9846 73.6957C80.1796 73.6957 80.3383 73.4538 80.3383 73.1555C80.3388 72.8566 80.1806 72.6148 79.9856 72.6143C79.7906 72.6143 79.6318 72.8561 79.6318 73.155Z" fill="#00AA84"/>
<path d="M79.7613 73.6953C79.7613 73.6953 80.4391 75.4187 81.1854 76.2502C80.6568 76.7426 79.7588 76.5168 79.7588 76.5168L79.7613 73.6953Z" fill="#DE5753"/>
<path d="M78.575 71.4993C78.5206 71.4993 78.4667 71.4741 78.4324 71.4262C78.376 71.3476 78.3936 71.2378 78.4727 71.1813C79.2604 70.6149 80.0183 70.8986 80.0505 70.9112C80.1407 70.946 80.1856 71.0478 80.1503 71.138C80.1155 71.2282 80.0142 71.273 79.924 71.2383C79.8948 71.2277 79.3032 71.015 78.6773 71.466C78.6461 71.4882 78.6108 71.4993 78.575 71.4993Z" fill="#00AA84"/>
<path d="M69.4395 75.4062C69.9706 78.1144 70.5002 83.077 68.6055 84.8841C68.6055 84.8841 69.3457 87.6315 74.378 87.6315C79.9116 87.6315 77.0226 84.8846 77.0226 84.8846C74.0025 84.1635 74.0806 81.9225 74.6067 79.8186L69.4395 75.4062Z" fill="#E4897B"/>
<path d="M66.3428 86.2996C66.9405 85.3668 65.9316 83.1082 65.9316 83.1082C65.9316 83.1082 74.8456 80.8652 78.488 84.305C79.2439 85.0191 78.4038 86.0657 78.4038 86.0657L66.3428 86.2996Z" fill="#084F93"/>
<path opacity="0.1" d="M66.3428 86.2996C66.9405 85.3668 65.9316 83.1082 65.9316 83.1082C65.9316 83.1082 74.8456 80.8652 78.488 84.305C79.2439 85.0191 78.4038 86.0657 78.4038 86.0657L66.3428 86.2996Z" fill="black"/>
<path d="M51.6007 189.121C51.1311 189.121 50.3817 188.337 50.1605 188.044C50.1393 188.017 50.1368 187.98 50.1535 187.95C50.1701 187.919 50.2043 187.905 50.2376 187.904C50.29 187.909 51.5256 188.015 51.8623 188.456C51.9399 188.557 51.9681 188.67 51.9459 188.789C51.9036 189.015 51.7806 189.09 51.6844 189.113C51.6577 189.118 51.6295 189.121 51.6007 189.121ZM50.4341 188.102C50.803 188.526 51.3901 189.002 51.6441 188.941C51.6683 188.935 51.7428 188.918 51.7731 188.756C51.7857 188.687 51.7695 188.623 51.7227 188.562C51.5226 188.3 50.8479 188.159 50.4341 188.102Z" fill="#084F93"/>
<path d="M50.4873 188.099C50.3819 188.099 50.2882 188.092 50.2146 188.078C50.1829 188.072 50.1572 188.049 50.1476 188.019C50.138 187.989 50.1456 187.955 50.1678 187.932C50.1995 187.898 50.9443 187.129 51.4997 187.129C51.5002 187.129 51.5002 187.129 51.5007 187.129C51.6453 187.129 51.7662 187.18 51.861 187.279C52.0071 187.432 51.9673 187.566 51.931 187.633C51.7642 187.938 50.9912 188.099 50.4873 188.099ZM50.4258 187.925C50.9015 187.943 51.6579 187.768 51.7768 187.549C51.7874 187.53 51.8131 187.483 51.734 187.4C51.673 187.336 51.5969 187.304 51.5007 187.304C51.1676 187.304 50.6909 187.679 50.4258 187.925Z" fill="#084F93"/>
<path d="M84.8555 200.557C84.4131 200.557 83.9565 200.5 83.7202 200.453C83.6844 200.445 83.6567 200.417 83.6506 200.381C83.6446 200.345 83.6617 200.309 83.6935 200.29C83.7479 200.259 85.0399 199.52 85.6578 199.689C85.7842 199.724 85.878 199.793 85.9359 199.894C86.0397 200.075 85.9974 200.203 85.9435 200.277C85.7898 200.491 85.3307 200.557 84.8555 200.557ZM84.0034 200.322C84.6917 200.42 85.6285 200.414 85.8014 200.175C85.8236 200.144 85.8462 200.09 85.7843 199.981C85.7495 199.921 85.6935 199.88 85.6124 199.859C85.2335 199.754 84.4554 200.09 84.0034 200.322Z" fill="#084F93"/>
<path d="M83.7375 200.454C83.7194 200.454 83.7017 200.449 83.6861 200.438C83.6609 200.42 83.6468 200.389 83.6498 200.358C83.6538 200.316 83.7536 199.319 84.2248 198.932C84.3684 198.814 84.5322 198.763 84.7111 198.782C84.952 198.806 85.0215 198.929 85.0376 199.026C85.1052 199.445 84.2203 200.246 83.7733 200.447C83.7617 200.452 83.7496 200.454 83.7375 200.454ZM84.6405 198.954C84.5292 198.954 84.4294 198.991 84.3357 199.068C84.0263 199.322 83.8947 199.919 83.8469 200.21C84.3029 199.936 84.9046 199.307 84.8638 199.055C84.8608 199.035 84.8507 198.973 84.693 198.957C84.6758 198.955 84.6582 198.954 84.6405 198.954Z" fill="#084F93"/>
<path d="M79.666 200.367H83.3679L83.7367 191.794H80.0344L79.666 200.367Z" fill="#E4897B"/>
<path d="M46.6816 185.649L49.7778 187.678L56.611 181.906L53.5144 179.877L46.6816 185.649Z" fill="#E4897B"/>
<path d="M50.2889 187.485L47.0718 184.848C46.9549 184.753 46.7866 184.751 46.6677 184.844L44.0165 186.926C43.7414 187.142 43.7444 187.562 44.0185 187.779C45.1574 188.68 45.7571 189.061 47.1716 190.22C48.0419 190.933 50.2062 193.108 51.4081 194.093C52.5838 195.056 53.7408 194.018 53.3371 193.507C51.526 191.217 50.7953 189.255 50.6094 188.041C50.5756 187.823 50.4602 187.625 50.2889 187.485Z" fill="#00AA84"/>
<path d="M83.3441 199.938H79.301C79.1499 199.938 79.0189 200.044 78.9856 200.191L78.2544 203.482C78.1788 203.823 78.4378 204.147 78.787 204.141C80.2454 204.116 82.3528 204.03 84.1856 204.03C86.3288 204.03 88.1798 204.147 90.6933 204.147C92.2132 204.147 92.635 202.611 91.999 202.472C89.1029 201.838 86.7385 201.77 84.2355 200.227C83.9639 200.059 83.6636 199.938 83.3441 199.938Z" fill="#00AA84"/>
<path d="M61.3082 85.9904C58.0972 87.5274 56.2891 97.6296 56.2891 97.6296L64.1357 100.762C64.1357 100.762 65.9015 96.5794 66.9109 92.1171C67.9676 87.4422 64.5913 84.4191 61.3082 85.9904Z" fill="#00AA84"/>
<path d="M65.4699 91.6886C63.5298 93.654 62.6429 97.504 62.2549 100.008L64.1345 100.759C64.1345 100.759 65.8378 96.733 66.8557 92.3689C66.6894 91.3006 66.2762 90.8723 65.4699 91.6886Z" fill="#203048"/>
<path d="M82.7162 85.9112C82.7162 85.9112 86.6564 90.3619 82.9354 117.909C76.9694 117.909 66.0377 117.909 63.1346 117.909C62.998 114.869 64.9079 100.042 61.9766 85.7202C61.9766 85.7202 65.3705 85.0389 68.6052 84.8832C71.1354 84.7612 74.798 84.6806 77.0223 84.8837C79.9547 85.1513 82.7162 85.9112 82.7162 85.9112Z" fill="#00AA84"/>
<path d="M84.5232 96.6014L81.1873 90.8516C80.5422 94.0011 80.2681 95.9488 80.4041 99.0525C80.4949 101.028 82.306 108.343 83.9236 109.411C84.4325 104.034 84.5787 99.8467 84.5232 96.6014Z" fill="#203048"/>
<path d="M84.9858 89.8438C85.4792 92.2938 85.9992 94.8009 86.5349 97.2641C87.0696 99.7328 87.6315 102.191 88.2815 104.576C88.4503 105.163 88.6061 105.766 88.792 106.334L88.9266 106.766L88.9936 106.982C88.9936 106.982 88.9754 106.964 88.9704 106.956C88.9311 106.912 88.8918 106.907 88.922 106.953C88.9618 107.053 89.2783 107.272 89.6905 107.429C90.1073 107.59 90.6172 107.733 91.1569 107.841C93.344 108.257 95.9196 108.316 98.3631 108.309L98.8423 111.047C98.1656 111.263 97.5336 111.421 96.871 111.575C96.2144 111.73 95.5512 111.863 94.8779 111.965C93.5304 112.173 92.1522 112.306 90.6807 112.247C89.9435 112.216 89.18 112.146 88.3622 111.945C87.5483 111.735 86.6478 111.45 85.705 110.712C85.2439 110.344 84.7873 109.834 84.4613 109.213C84.3786 109.065 84.3066 108.892 84.2441 108.746L84.1508 108.508L83.9644 108.03C83.7064 107.392 83.4947 106.762 83.2639 106.127C82.4103 103.594 81.7038 101.066 81.0759 98.5259C80.4581 95.9781 79.9158 93.4529 79.4658 90.8476L84.9858 89.8438Z" fill="#E4897B"/>
<path d="M77.769 88.6104C76.7259 91.9928 80.9558 102.074 80.9558 102.074L89.3785 99.9554C89.3785 99.9554 89.0549 94.718 87.136 90.5606C84.2419 84.2893 79.0212 84.5513 77.769 88.6104Z" fill="#00AA84"/>
<path d="M98.3111 108.313L102.503 108.21L100.487 112.57C100.487 112.57 98.7818 112.797 97.3804 110.494L95.9023 108.734L97.6021 108.393C97.8359 108.346 98.0728 108.319 98.3111 108.313Z" fill="#E4897B"/>
<path d="M105.15 109.021L102.75 112.635L100.487 112.57L102.504 108.21L105.15 109.021Z" fill="#E4897B"/>
<path d="M83.7366 191.796L83.5471 196.215H79.8438L80.0332 191.796H83.7366Z" fill="#CE6F64"/>
<path d="M53.5117 179.879L56.6094 181.909L53.0859 184.883L49.9883 182.853L53.5117 179.879Z" fill="#CE6F64"/>
<path d="M69.6719 72.5138C69.8941 76.1814 69.8376 78.3392 71.6881 80.2229C74.4718 83.0565 78.9996 81.3809 79.8779 77.7209C80.6681 74.4267 80.1722 68.9828 76.5842 67.5204C73.0487 66.0797 69.4501 68.8462 69.6719 72.5138Z" fill="#E4897B"/>
<path d="M65.3589 71.8722C66.2711 75.2157 68.4183 79.0678 71.1929 79.3122C74.6418 79.616 76.1989 76.0533 76.6525 72.3721C78.7196 70.9565 77.6331 69.4019 79.7073 69.2039C82.3655 68.9504 81.5174 64.084 78.0126 63.3009C78.0126 63.3009 79.1857 65.493 76.723 64.3868C74.2603 63.2807 71.8526 62.8065 69.1953 63.0812C69.1953 63.0812 72.3363 64.6509 69.2644 65.3514C66.1924 66.0518 65.2733 67.9491 66.6873 69.0935C66.6873 69.0935 64.7588 69.671 65.3589 71.8722Z" fill="black"/>
<path d="M74.5517 73.1255C74.6091 74.086 75.0556 74.9901 75.5923 75.5807C76.3996 76.4696 77.2416 75.9158 77.3842 74.8328C77.5127 73.8582 77.2477 72.221 76.261 71.7307C75.2884 71.2484 74.4856 72.0275 74.5517 73.1255Z" fill="#E4897B"/>
<path d="M75.9118 117.908C75.9118 117.908 79.5205 144.037 76.6778 154.505C72.1747 171.086 54.9474 185.079 54.9474 185.079L49.1074 181.252C49.1074 181.252 63.7757 169.434 65.5717 155.558C67.1848 143.091 63.1353 128.022 63.1353 117.908C67.7472 117.908 75.9118 117.908 75.9118 117.908Z" fill="#084F93"/>
<path opacity="0.1" d="M75.9118 117.908C75.9118 117.908 79.5205 144.037 76.6778 154.505C72.1747 171.086 54.9474 185.079 54.9474 185.079L49.1074 181.252C49.1074 181.252 63.7757 169.434 65.5717 155.558C67.1848 143.091 63.1353 128.022 63.1353 117.908C67.7472 117.908 75.9118 117.908 75.9118 117.908Z" fill="black"/>
<path d="M77.4028 132.854C75.7046 130.929 74.2432 129.82 74.2432 129.82C74.858 138.301 75.3619 150.864 74.8025 159.789C75.5534 158.07 76.1883 156.302 76.6771 154.508C78.0629 149.398 77.9168 140.564 77.4028 132.854Z" fill="#084F93"/>
<path opacity="0.3" d="M77.4028 132.854C75.7046 130.929 74.2432 129.82 74.2432 129.82C74.858 138.301 75.3619 150.864 74.8025 159.789C75.5534 158.07 76.1883 156.302 76.6771 154.508C78.0629 149.398 77.9168 140.564 77.4028 132.854Z" fill="black"/>
<path d="M57.3015 183.777C57.3257 183.793 55.0409 185.267 55.0409 185.267L48.6602 181.085L50.6492 179.418L57.3015 183.777Z" fill="#084F93"/>
<path opacity="0.3" d="M57.3015 183.777C57.3257 183.793 55.0409 185.267 55.0409 185.267L48.6602 181.085L50.6492 179.418L57.3015 183.777Z" fill="black"/>
<path d="M82.9359 117.908C82.9359 117.908 88.5118 141.543 88.9049 152.832C89.3453 165.494 84.9264 195.358 84.9264 195.358H78.655C78.655 195.358 77.883 165.261 77.6038 153.729C77.2994 141.156 69.9199 117.908 69.9199 117.908H82.9359Z" fill="#084F93"/>
<path opacity="0.1" d="M82.9359 117.908C82.9359 117.908 88.5118 141.543 88.9049 152.832C89.3453 165.494 84.9264 195.358 84.9264 195.358H78.655C78.655 195.358 77.883 165.261 77.6038 153.729C77.2994 141.156 69.9199 117.908 69.9199 117.908H82.9359Z" fill="black"/>
<path d="M86.1332 192.86C86.1619 192.86 85.7794 195.464 85.7794 195.464H78.1504L77.9443 193.141L86.1332 192.86Z" fill="#084F93"/>
<path opacity="0.3" d="M86.1332 192.86C86.1619 192.86 85.7794 195.464 85.7794 195.464H78.1504L77.9443 193.141L86.1332 192.86Z" fill="black"/>
<path d="M179.373 95.1943C179.803 95.5975 180.137 95.9412 180.493 96.3262C180.839 96.7031 181.178 97.0836 181.508 97.4696C182.167 98.2421 182.78 99.0489 183.372 99.8688C184.566 101.5 185.612 103.239 186.534 105.039L186.722 105.405C186.811 105.584 186.886 105.771 186.949 105.959C187.075 106.338 187.146 106.726 187.169 107.099C187.21 107.848 187.082 108.524 186.894 109.119C186.513 110.312 185.906 111.245 185.277 112.105C183.963 113.79 182.507 115.153 180.84 116.365L179.582 114.924C180.176 114.237 180.79 113.496 181.337 112.755C181.898 112.018 182.413 111.257 182.837 110.487C183.273 109.731 183.611 108.94 183.753 108.26C183.824 107.922 183.829 107.621 183.785 107.402C183.764 107.293 183.736 107.202 183.697 107.124C183.678 107.085 183.658 107.048 183.633 107.013L183.468 106.743C182.496 105.157 181.443 103.623 180.31 102.15C179.749 101.41 179.149 100.701 178.549 99.9983C178.25 99.646 177.944 99.3019 177.635 98.9632C177.331 98.6382 176.997 98.2779 176.729 98.0078L179.373 95.1943Z" fill="#E4897B"/>
<path d="M180.084 114.497L176.32 113.88L178.288 117.178C178.288 117.178 180.711 117.094 181.404 115.685L180.084 114.497Z" fill="#E4897B"/>
<path d="M173.537 115.407L175.334 118.079L178.288 117.179L176.321 113.881L173.537 115.407Z" fill="#E4897B"/>
<path d="M179.908 200.513C179.617 200.513 179.349 200.463 179.188 200.316C179.062 200.201 179.012 200.041 179.04 199.841C179.061 199.69 179.148 199.621 179.218 199.59C179.657 199.393 180.804 200.131 180.934 200.216C180.963 200.236 180.979 200.271 180.972 200.307C180.966 200.342 180.94 200.37 180.905 200.378C180.638 200.441 180.257 200.513 179.908 200.513ZM179.405 199.732C179.361 199.732 179.323 199.739 179.291 199.753C179.262 199.766 179.228 199.79 179.217 199.866C179.198 200.006 179.228 200.11 179.309 200.184C179.499 200.359 179.993 200.381 180.652 200.25C180.247 200.005 179.695 199.732 179.405 199.732Z" fill="#084F93"/>
<path d="M180.884 200.381C180.869 200.381 180.854 200.377 180.84 200.37C180.48 200.166 179.793 199.351 179.878 198.925C179.894 198.844 179.955 198.703 180.18 198.676C180.323 198.655 180.449 198.699 180.558 198.795C180.968 199.158 180.974 200.246 180.974 200.292C180.974 200.324 180.957 200.353 180.929 200.369C180.915 200.377 180.9 200.381 180.884 200.381ZM180.242 198.85C180.229 198.85 180.215 198.851 180.201 198.852C180.087 198.867 180.063 198.917 180.054 198.96C180.002 199.219 180.43 199.831 180.789 200.118C180.769 199.756 180.684 199.145 180.44 198.929C180.38 198.876 180.315 198.85 180.242 198.85Z" fill="#084F93"/>
<path d="M162.73 200.514C162.354 200.514 162.007 200.456 161.814 200.281C161.69 200.17 161.636 200.024 161.652 199.846C161.662 199.739 161.714 199.657 161.804 199.608C162.271 199.35 163.772 200.123 163.942 200.212C163.975 200.229 163.994 200.266 163.989 200.304C163.984 200.341 163.956 200.371 163.918 200.379C163.597 200.443 163.145 200.514 162.73 200.514ZM162.056 199.732C161.987 199.732 161.93 199.743 161.89 199.765C161.853 199.785 161.835 199.815 161.83 199.861C161.819 199.982 161.853 200.076 161.933 200.148C162.162 200.354 162.785 200.39 163.621 200.251C163.102 200.003 162.414 199.732 162.056 199.732Z" fill="#084F93"/>
<path d="M163.9 200.382C163.888 200.382 163.875 200.379 163.863 200.374C163.413 200.17 162.523 199.355 162.593 198.928C162.609 198.826 162.681 198.7 162.929 198.675C163.112 198.658 163.279 198.708 163.424 198.83C163.898 199.225 163.986 200.242 163.989 200.285C163.992 200.317 163.978 200.347 163.952 200.365C163.936 200.376 163.918 200.382 163.9 200.382ZM163 198.85C162.983 198.85 162.965 198.851 162.947 198.853C162.784 198.869 162.773 198.935 162.77 198.956C162.728 199.213 163.332 199.853 163.791 200.132C163.747 199.836 163.621 199.226 163.31 198.967C163.216 198.889 163.114 198.85 163 198.85Z" fill="#084F93"/>
<path d="M169.857 83.6094C169.712 85.8881 169.317 90.5172 171.065 91.7962C171.065 91.7962 170.753 94.1294 166.624 94.6696C162.084 95.2637 164.16 92.6997 164.16 92.6997C166.56 91.7836 166.256 89.9538 165.598 88.2843L169.857 83.6094Z" fill="#E4897B"/>
<path d="M160.472 79.5847C160.422 79.5847 160.373 79.5641 160.337 79.5233C159.812 78.9216 159.159 79.0067 159.152 79.0072C159.043 79.0213 158.964 78.9528 158.95 78.8551C158.936 78.7573 159.004 78.6671 159.102 78.653C159.138 78.649 159.955 78.5421 160.606 79.2879C160.671 79.3625 160.663 79.4754 160.589 79.5404C160.555 79.5701 160.514 79.5847 160.472 79.5847Z" fill="#00AA84"/>
<path d="M159.686 81.8164C159.686 81.8164 159.344 83.1836 158.861 83.885C159.309 84.205 159.964 83.946 159.964 83.946L159.686 81.8164Z" fill="#DE5753"/>
<path d="M159.889 81.2627C159.928 81.5646 159.8 81.8306 159.603 81.8563C159.405 81.882 159.213 81.6583 159.174 81.3565C159.135 81.0546 159.263 80.7885 159.46 80.7628C159.657 80.7366 159.849 80.9609 159.889 81.2627Z" fill="#00AA84"/>
<path d="M159.549 80.7677L158.796 80.6533C158.796 80.6533 159.242 81.1714 159.549 80.7677Z" fill="#00AA84"/>
<path d="M168.053 200.292H164.277L164.024 191.547H167.801L168.053 200.292Z" fill="#E4897B"/>
<path d="M185.211 200.292H181.435L180.221 191.547H183.997L185.211 200.292Z" fill="#E4897B"/>
<path d="M181.2 199.854H185.443C185.597 199.854 185.722 199.961 185.744 200.112L186.227 203.468C186.277 203.816 185.978 204.146 185.622 204.14C184.143 204.114 183.43 204.028 181.564 204.028C180.417 204.028 178.74 204.147 177.155 204.147C175.605 204.147 175.485 202.58 176.145 202.438C179.105 201.801 179.572 200.923 180.569 200.086C180.749 199.935 180.974 199.854 181.2 199.854Z" fill="#00AA84"/>
<path d="M164.147 199.854H168.39C168.544 199.854 168.669 199.961 168.691 200.112L169.174 203.468C169.224 203.816 168.925 204.146 168.569 204.14C167.09 204.114 166.377 204.028 164.511 204.028C163.363 204.028 160.989 204.147 159.405 204.147C157.855 204.147 157.735 202.58 158.395 202.438C161.355 201.801 162.519 200.923 163.516 200.086C163.696 199.935 163.921 199.854 164.147 199.854Z" fill="#00AA84"/>
<path d="M164.025 191.547L164.154 196.055H167.932L167.803 191.547H164.025Z" fill="#CE6F64"/>
<path d="M183.998 191.547H180.22L180.847 196.055H184.625L183.998 191.547Z" fill="#CE6F64"/>
<path d="M169.908 78.8964C170.165 82.6356 170.354 84.2124 168.729 86.3616C166.286 89.5938 161.637 89.0924 160.268 85.5059C159.035 82.2778 158.821 76.7053 162.259 74.7541C165.646 72.8317 169.65 75.1578 169.908 78.8964Z" fill="#E4897B"/>
<path d="M172.084 82.3684C174.184 83.538 175.737 80.653 175.737 80.653C175.737 80.653 171.979 81.0612 172.315 78.8237C172.76 75.8561 170.635 72.2475 165.302 72.7096C165.006 72.7353 164.721 72.7726 164.444 72.8179C163.411 72.3861 162.011 72.4319 161.129 73.5814C159.636 73.7074 157.578 75.5134 158.96 77.896C158.96 77.896 159.081 77.5176 159.407 77.1562C159.52 78.5506 160.744 80.7679 162.264 80.9135C162.593 82.8254 161.324 85.0382 161.774 87.0307C162.425 89.9081 167.276 90.5784 167.276 90.5784C166.744 89.1845 167.56 88.3596 167.56 88.3596C170.857 89.8643 173.029 88.3943 173.029 88.3943C170.782 87.5543 171.461 86.0637 171.461 86.0637C174.471 87.2116 175.737 84.5101 175.737 84.5101C174.135 84.5942 172.781 83.6982 172.084 82.3684Z" fill="black"/>
<path d="M163.582 81.488C163.607 82.2645 163.27 82.9801 162.825 83.4382C162.157 84.1275 161.34 83.6463 161.122 82.7629C160.926 81.9677 161.037 80.6505 161.902 80.2912C162.755 79.9379 163.554 80.6001 163.582 81.488Z" fill="#E4897B"/>
<path d="M166.719 116.327C166.719 116.327 167.679 141.199 169.953 155.806C171.79 167.605 179.936 195.183 179.936 195.183H185.085C185.085 195.183 180.841 168.549 179.909 156.879C177.55 127.351 183.669 121.012 177.91 114.862L166.719 116.327Z" fill="#00AA84"/>
<path d="M171.023 124.193C171.023 124.193 168.695 123.79 167.334 128.225C167.848 136.625 168.7 147.772 169.954 155.805C170.232 157.593 170.655 159.75 171.174 162.114C170.191 147.923 171.023 124.193 171.023 124.193Z" fill="#161F33"/>
<path d="M162.702 116.853C162.702 116.853 158.458 144.37 158.706 155.886C158.963 167.864 163.352 195.183 163.352 195.183H168.459C168.459 195.183 167.65 168.564 168.102 156.8C168.594 143.976 173.839 115.396 173.839 115.396L162.702 116.853Z" fill="#00AA84"/>
<path d="M185.831 195.421H178.986L178.452 193.124L185.784 193.176L185.831 195.421Z" fill="#084F93"/>
<path opacity="0.2" d="M185.831 195.421H178.986L178.452 193.124L185.784 193.176L185.831 195.421Z" fill="black"/>
<path d="M177.634 91.8032C179.602 91.9907 182.597 97.5893 182.597 97.5893L177.623 101.406C177.623 101.406 173.505 97.7929 173.996 95.7626C174.506 93.6486 175.745 91.6228 177.634 91.8032Z" fill="#084F93"/>
<path opacity="0.1" d="M177.634 91.8032C179.602 91.9907 182.597 97.5893 182.597 97.5893L177.623 101.406C177.623 101.406 173.505 97.7929 173.996 95.7626C174.506 93.6486 175.745 91.6228 177.634 91.8032Z" fill="black"/>
<path d="M176.148 94.2084C176.148 94.2084 175.357 93.9816 174.606 94.037C174.344 94.5712 174.143 95.1608 173.996 95.7605C173.508 97.7913 177.625 101.404 177.625 101.404L177.993 101.122L176.148 94.2084Z" fill="#084F93"/>
<path opacity="0.3" d="M176.148 94.2084C176.148 94.2084 175.357 93.9816 174.606 94.037C174.344 94.5712 174.143 95.1608 173.996 95.7605C173.508 97.7913 177.625 101.404 177.625 101.404L177.993 101.122L176.148 94.2084Z" fill="black"/>
<path d="M161.015 99.5848C159.578 103.221 158.065 106.913 156.861 110.558C156.784 110.787 156.714 111.012 156.647 111.238L156.475 111.797C156.429 111.972 156.42 112.105 156.477 112.32C156.589 112.747 157.118 113.367 157.782 113.881C159.127 114.938 160.933 115.785 162.663 116.496L162.212 118.355C160.107 118.031 158.12 117.485 156.121 116.366C155.154 115.773 154.097 115.037 153.408 113.617C153.071 112.917 152.928 112.022 153.056 111.216C153.07 111.115 153.09 111.018 153.11 110.919L153.156 110.71L153.246 110.327C153.304 110.071 153.365 109.816 153.432 109.568C153.949 107.562 154.58 105.641 155.257 103.737C155.93 101.829 156.651 99.9648 157.452 98.0957L161.015 99.5848Z" fill="#E4897B"/>
<path d="M157.956 94.4872C157.956 94.4872 156.254 95.3489 162.702 116.853C168.737 116.063 174.973 115.247 177.91 114.863C176.845 108.707 176.338 104.891 177.634 91.8023C177.634 91.8023 174.357 91.5261 171.065 91.7962C168.49 92.0079 166.383 92.2004 164.16 92.6998C161.23 93.3584 157.956 94.4872 157.956 94.4872Z" fill="#084F93"/>
<path opacity="0.1" d="M157.956 94.4872C157.956 94.4872 156.254 95.3489 162.702 116.853C168.737 116.063 174.973 115.247 177.91 114.863C176.845 108.707 176.338 104.891 177.634 91.8023C177.634 91.8023 174.357 91.5261 171.065 91.7962C168.49 92.0079 166.383 92.2004 164.16 92.6998C161.23 93.3584 157.956 94.4872 157.956 94.4872Z" fill="black"/>
<path d="M178.021 113.94L178.885 115.211C178.952 115.31 178.841 115.434 178.665 115.457L162.717 117.544C162.579 117.562 162.457 117.51 162.437 117.424L162.122 116.081C162.1 115.988 162.209 115.892 162.358 115.873L177.758 113.858C177.872 113.843 177.978 113.876 178.021 113.94Z" fill="#084F93"/>
<path opacity="0.2" d="M178.021 113.94L178.885 115.211C178.952 115.31 178.841 115.434 178.665 115.457L162.717 117.544C162.579 117.562 162.457 117.51 162.437 117.424L162.122 116.081C162.1 115.988 162.209 115.892 162.358 115.873L177.758 113.858C177.872 113.843 177.978 113.876 178.021 113.94Z" fill="black"/>
<path d="M176.177 115.933L176.59 115.879C176.672 115.868 176.729 115.817 176.717 115.767L176.292 114.023C176.279 113.973 176.202 113.939 176.12 113.95L175.707 114.004C175.625 114.015 175.568 114.066 175.581 114.117L176.006 115.86C176.018 115.911 176.095 115.944 176.177 115.933Z" fill="#00AA84"/>
<path d="M166.18 117.241L166.593 117.187C166.675 117.177 166.732 117.126 166.72 117.075L166.295 115.332C166.282 115.281 166.205 115.248 166.123 115.259L165.71 115.313C165.628 115.323 165.571 115.374 165.584 115.425L166.009 117.168C166.021 117.219 166.099 117.252 166.18 117.241Z" fill="#00AA84"/>
<path d="M158.666 101.783C159.084 103.728 159.689 106.193 160.536 109.312L160.722 101.405L158.666 101.783Z" fill="#084F93"/>
<path opacity="0.3" d="M158.666 101.783C159.084 103.728 159.689 106.193 160.536 109.312L160.722 101.405L158.666 101.783Z" fill="black"/>
<path d="M157.956 94.4881C156.066 95.247 154.442 101.714 154.442 101.714L160.942 104.878C160.942 104.878 164.086 96.9705 162.677 95.429C161.209 93.8234 160.131 93.6148 157.956 94.4881Z" fill="#084F93"/>
<path opacity="0.1" d="M157.956 94.4881C156.066 95.247 154.442 101.714 154.442 101.714L160.942 104.878C160.942 104.878 164.086 96.9705 162.677 95.429C161.209 93.8234 160.131 93.6148 157.956 94.4881Z" fill="black"/>
<path d="M169.328 195.421H162.483L161.949 193.124L169.571 193.176L169.328 195.421Z" fill="#084F93"/>
<path opacity="0.2" d="M169.328 195.421H162.483L161.949 193.124L169.571 193.176L169.328 195.421Z" fill="black"/>
<path d="M162.769 115.852L162.22 115.626C161.628 115.382 160.996 115.878 161.092 116.511L161.489 119.138C161.574 119.697 162.148 120.049 162.679 119.854C162.86 119.787 163.049 119.688 163.231 119.546C163.608 119.251 163.797 118.773 163.775 118.295L163.723 117.206C163.695 116.608 163.323 116.08 162.769 115.852Z" fill="#E4897B"/>
</svg>
